%TF.GenerationSoftware,KiCad,Pcbnew,9.0.6*%
%TF.CreationDate,2025-12-21T20:45:19-06:00*%
%TF.ProjectId,TVC,5456432e-6b69-4636-9164-5f7063625858,rev?*%
%TF.SameCoordinates,Original*%
%TF.FileFunction,Legend,Top*%
%TF.FilePolarity,Positive*%
%FSLAX46Y46*%
G04 Gerber Fmt 4.6, Leading zero omitted, Abs format (unit mm)*
G04 Created by KiCad (PCBNEW 9.0.6) date 2025-12-21 20:45:19*
%MOMM*%
%LPD*%
G01*
G04 APERTURE LIST*
%ADD10C,0.150000*%
%ADD11C,0.120000*%
%ADD12C,0.152400*%
%ADD13C,0.000000*%
%ADD14C,0.200000*%
%ADD15C,0.400000*%
%ADD16C,0.127000*%
%ADD17C,0.100000*%
G04 APERTURE END LIST*
D10*
X139149964Y-85084819D02*
X139149964Y-85894342D01*
X139149964Y-85894342D02*
X139197583Y-85989580D01*
X139197583Y-85989580D02*
X139245202Y-86037200D01*
X139245202Y-86037200D02*
X139340440Y-86084819D01*
X139340440Y-86084819D02*
X139530916Y-86084819D01*
X139530916Y-86084819D02*
X139626154Y-86037200D01*
X139626154Y-86037200D02*
X139673773Y-85989580D01*
X139673773Y-85989580D02*
X139721392Y-85894342D01*
X139721392Y-85894342D02*
X139721392Y-85084819D01*
X140721392Y-86084819D02*
X140149964Y-86084819D01*
X140435678Y-86084819D02*
X140435678Y-85084819D01*
X140435678Y-85084819D02*
X140340440Y-85227676D01*
X140340440Y-85227676D02*
X140245202Y-85322914D01*
X140245202Y-85322914D02*
X140149964Y-85370533D01*
X141340440Y-85084819D02*
X141435678Y-85084819D01*
X141435678Y-85084819D02*
X141530916Y-85132438D01*
X141530916Y-85132438D02*
X141578535Y-85180057D01*
X141578535Y-85180057D02*
X141626154Y-85275295D01*
X141626154Y-85275295D02*
X141673773Y-85465771D01*
X141673773Y-85465771D02*
X141673773Y-85703866D01*
X141673773Y-85703866D02*
X141626154Y-85894342D01*
X141626154Y-85894342D02*
X141578535Y-85989580D01*
X141578535Y-85989580D02*
X141530916Y-86037200D01*
X141530916Y-86037200D02*
X141435678Y-86084819D01*
X141435678Y-86084819D02*
X141340440Y-86084819D01*
X141340440Y-86084819D02*
X141245202Y-86037200D01*
X141245202Y-86037200D02*
X141197583Y-85989580D01*
X141197583Y-85989580D02*
X141149964Y-85894342D01*
X141149964Y-85894342D02*
X141102345Y-85703866D01*
X141102345Y-85703866D02*
X141102345Y-85465771D01*
X141102345Y-85465771D02*
X141149964Y-85275295D01*
X141149964Y-85275295D02*
X141197583Y-85180057D01*
X141197583Y-85180057D02*
X141245202Y-85132438D01*
X141245202Y-85132438D02*
X141340440Y-85084819D01*
X142007107Y-85084819D02*
X142673773Y-85084819D01*
X142673773Y-85084819D02*
X142245202Y-86084819D01*
X131667202Y-82115819D02*
X131191012Y-82115819D01*
X131191012Y-82115819D02*
X131191012Y-81115819D01*
X132524345Y-82115819D02*
X131952917Y-82115819D01*
X132238631Y-82115819D02*
X132238631Y-81115819D01*
X132238631Y-81115819D02*
X132143393Y-81258676D01*
X132143393Y-81258676D02*
X132048155Y-81353914D01*
X132048155Y-81353914D02*
X131952917Y-81401533D01*
X133143393Y-81115819D02*
X133238631Y-81115819D01*
X133238631Y-81115819D02*
X133333869Y-81163438D01*
X133333869Y-81163438D02*
X133381488Y-81211057D01*
X133381488Y-81211057D02*
X133429107Y-81306295D01*
X133429107Y-81306295D02*
X133476726Y-81496771D01*
X133476726Y-81496771D02*
X133476726Y-81734866D01*
X133476726Y-81734866D02*
X133429107Y-81925342D01*
X133429107Y-81925342D02*
X133381488Y-82020580D01*
X133381488Y-82020580D02*
X133333869Y-82068200D01*
X133333869Y-82068200D02*
X133238631Y-82115819D01*
X133238631Y-82115819D02*
X133143393Y-82115819D01*
X133143393Y-82115819D02*
X133048155Y-82068200D01*
X133048155Y-82068200D02*
X133000536Y-82020580D01*
X133000536Y-82020580D02*
X132952917Y-81925342D01*
X132952917Y-81925342D02*
X132905298Y-81734866D01*
X132905298Y-81734866D02*
X132905298Y-81496771D01*
X132905298Y-81496771D02*
X132952917Y-81306295D01*
X132952917Y-81306295D02*
X133000536Y-81211057D01*
X133000536Y-81211057D02*
X133048155Y-81163438D01*
X133048155Y-81163438D02*
X133143393Y-81115819D01*
X134429107Y-82115819D02*
X133857679Y-82115819D01*
X134143393Y-82115819D02*
X134143393Y-81115819D01*
X134143393Y-81115819D02*
X134048155Y-81258676D01*
X134048155Y-81258676D02*
X133952917Y-81353914D01*
X133952917Y-81353914D02*
X133857679Y-81401533D01*
X152831964Y-85141719D02*
X152831964Y-85951242D01*
X152831964Y-85951242D02*
X152879583Y-86046480D01*
X152879583Y-86046480D02*
X152927202Y-86094100D01*
X152927202Y-86094100D02*
X153022440Y-86141719D01*
X153022440Y-86141719D02*
X153212916Y-86141719D01*
X153212916Y-86141719D02*
X153308154Y-86094100D01*
X153308154Y-86094100D02*
X153355773Y-86046480D01*
X153355773Y-86046480D02*
X153403392Y-85951242D01*
X153403392Y-85951242D02*
X153403392Y-85141719D01*
X154403392Y-86141719D02*
X153831964Y-86141719D01*
X154117678Y-86141719D02*
X154117678Y-85141719D01*
X154117678Y-85141719D02*
X154022440Y-85284576D01*
X154022440Y-85284576D02*
X153927202Y-85379814D01*
X153927202Y-85379814D02*
X153831964Y-85427433D01*
X155022440Y-85141719D02*
X155117678Y-85141719D01*
X155117678Y-85141719D02*
X155212916Y-85189338D01*
X155212916Y-85189338D02*
X155260535Y-85236957D01*
X155260535Y-85236957D02*
X155308154Y-85332195D01*
X155308154Y-85332195D02*
X155355773Y-85522671D01*
X155355773Y-85522671D02*
X155355773Y-85760766D01*
X155355773Y-85760766D02*
X155308154Y-85951242D01*
X155308154Y-85951242D02*
X155260535Y-86046480D01*
X155260535Y-86046480D02*
X155212916Y-86094100D01*
X155212916Y-86094100D02*
X155117678Y-86141719D01*
X155117678Y-86141719D02*
X155022440Y-86141719D01*
X155022440Y-86141719D02*
X154927202Y-86094100D01*
X154927202Y-86094100D02*
X154879583Y-86046480D01*
X154879583Y-86046480D02*
X154831964Y-85951242D01*
X154831964Y-85951242D02*
X154784345Y-85760766D01*
X154784345Y-85760766D02*
X154784345Y-85522671D01*
X154784345Y-85522671D02*
X154831964Y-85332195D01*
X154831964Y-85332195D02*
X154879583Y-85236957D01*
X154879583Y-85236957D02*
X154927202Y-85189338D01*
X154927202Y-85189338D02*
X155022440Y-85141719D01*
X156308154Y-86141719D02*
X155736726Y-86141719D01*
X156022440Y-86141719D02*
X156022440Y-85141719D01*
X156022440Y-85141719D02*
X155927202Y-85284576D01*
X155927202Y-85284576D02*
X155831964Y-85379814D01*
X155831964Y-85379814D02*
X155736726Y-85427433D01*
X153751069Y-89344499D02*
X153989164Y-89344499D01*
X153893926Y-89582594D02*
X153989164Y-89344499D01*
X153989164Y-89344499D02*
X153893926Y-89106404D01*
X154179640Y-89487356D02*
X153989164Y-89344499D01*
X153989164Y-89344499D02*
X154179640Y-89201642D01*
X161261535Y-97752819D02*
X161261535Y-98467104D01*
X161261535Y-98467104D02*
X161213916Y-98609961D01*
X161213916Y-98609961D02*
X161118678Y-98705200D01*
X161118678Y-98705200D02*
X160975821Y-98752819D01*
X160975821Y-98752819D02*
X160880583Y-98752819D01*
X162261535Y-98752819D02*
X161690107Y-98752819D01*
X161975821Y-98752819D02*
X161975821Y-97752819D01*
X161975821Y-97752819D02*
X161880583Y-97895676D01*
X161880583Y-97895676D02*
X161785345Y-97990914D01*
X161785345Y-97990914D02*
X161690107Y-98038533D01*
X162880583Y-97752819D02*
X162975821Y-97752819D01*
X162975821Y-97752819D02*
X163071059Y-97800438D01*
X163071059Y-97800438D02*
X163118678Y-97848057D01*
X163118678Y-97848057D02*
X163166297Y-97943295D01*
X163166297Y-97943295D02*
X163213916Y-98133771D01*
X163213916Y-98133771D02*
X163213916Y-98371866D01*
X163213916Y-98371866D02*
X163166297Y-98562342D01*
X163166297Y-98562342D02*
X163118678Y-98657580D01*
X163118678Y-98657580D02*
X163071059Y-98705200D01*
X163071059Y-98705200D02*
X162975821Y-98752819D01*
X162975821Y-98752819D02*
X162880583Y-98752819D01*
X162880583Y-98752819D02*
X162785345Y-98705200D01*
X162785345Y-98705200D02*
X162737726Y-98657580D01*
X162737726Y-98657580D02*
X162690107Y-98562342D01*
X162690107Y-98562342D02*
X162642488Y-98371866D01*
X162642488Y-98371866D02*
X162642488Y-98133771D01*
X162642488Y-98133771D02*
X162690107Y-97943295D01*
X162690107Y-97943295D02*
X162737726Y-97848057D01*
X162737726Y-97848057D02*
X162785345Y-97800438D01*
X162785345Y-97800438D02*
X162880583Y-97752819D01*
X163547250Y-97752819D02*
X164213916Y-97752819D01*
X164213916Y-97752819D02*
X163785345Y-98752819D01*
X145727916Y-110206009D02*
X145870773Y-110253628D01*
X145870773Y-110253628D02*
X145918392Y-110301247D01*
X145918392Y-110301247D02*
X145966011Y-110396485D01*
X145966011Y-110396485D02*
X145966011Y-110539342D01*
X145966011Y-110539342D02*
X145918392Y-110634580D01*
X145918392Y-110634580D02*
X145870773Y-110682200D01*
X145870773Y-110682200D02*
X145775535Y-110729819D01*
X145775535Y-110729819D02*
X145394583Y-110729819D01*
X145394583Y-110729819D02*
X145394583Y-109729819D01*
X145394583Y-109729819D02*
X145727916Y-109729819D01*
X145727916Y-109729819D02*
X145823154Y-109777438D01*
X145823154Y-109777438D02*
X145870773Y-109825057D01*
X145870773Y-109825057D02*
X145918392Y-109920295D01*
X145918392Y-109920295D02*
X145918392Y-110015533D01*
X145918392Y-110015533D02*
X145870773Y-110110771D01*
X145870773Y-110110771D02*
X145823154Y-110158390D01*
X145823154Y-110158390D02*
X145727916Y-110206009D01*
X145727916Y-110206009D02*
X145394583Y-110206009D01*
X146299345Y-109729819D02*
X146966011Y-109729819D01*
X146966011Y-109729819D02*
X146299345Y-110729819D01*
X146299345Y-110729819D02*
X146966011Y-110729819D01*
X147870773Y-110729819D02*
X147299345Y-110729819D01*
X147585059Y-110729819D02*
X147585059Y-109729819D01*
X147585059Y-109729819D02*
X147489821Y-109872676D01*
X147489821Y-109872676D02*
X147394583Y-109967914D01*
X147394583Y-109967914D02*
X147299345Y-110015533D01*
X148489821Y-109729819D02*
X148585059Y-109729819D01*
X148585059Y-109729819D02*
X148680297Y-109777438D01*
X148680297Y-109777438D02*
X148727916Y-109825057D01*
X148727916Y-109825057D02*
X148775535Y-109920295D01*
X148775535Y-109920295D02*
X148823154Y-110110771D01*
X148823154Y-110110771D02*
X148823154Y-110348866D01*
X148823154Y-110348866D02*
X148775535Y-110539342D01*
X148775535Y-110539342D02*
X148727916Y-110634580D01*
X148727916Y-110634580D02*
X148680297Y-110682200D01*
X148680297Y-110682200D02*
X148585059Y-110729819D01*
X148585059Y-110729819D02*
X148489821Y-110729819D01*
X148489821Y-110729819D02*
X148394583Y-110682200D01*
X148394583Y-110682200D02*
X148346964Y-110634580D01*
X148346964Y-110634580D02*
X148299345Y-110539342D01*
X148299345Y-110539342D02*
X148251726Y-110348866D01*
X148251726Y-110348866D02*
X148251726Y-110110771D01*
X148251726Y-110110771D02*
X148299345Y-109920295D01*
X148299345Y-109920295D02*
X148346964Y-109825057D01*
X148346964Y-109825057D02*
X148394583Y-109777438D01*
X148394583Y-109777438D02*
X148489821Y-109729819D01*
X149775535Y-110729819D02*
X149204107Y-110729819D01*
X149489821Y-110729819D02*
X149489821Y-109729819D01*
X149489821Y-109729819D02*
X149394583Y-109872676D01*
X149394583Y-109872676D02*
X149299345Y-109967914D01*
X149299345Y-109967914D02*
X149204107Y-110015533D01*
X131289535Y-97752819D02*
X131289535Y-98467104D01*
X131289535Y-98467104D02*
X131241916Y-98609961D01*
X131241916Y-98609961D02*
X131146678Y-98705200D01*
X131146678Y-98705200D02*
X131003821Y-98752819D01*
X131003821Y-98752819D02*
X130908583Y-98752819D01*
X132289535Y-98752819D02*
X131718107Y-98752819D01*
X132003821Y-98752819D02*
X132003821Y-97752819D01*
X132003821Y-97752819D02*
X131908583Y-97895676D01*
X131908583Y-97895676D02*
X131813345Y-97990914D01*
X131813345Y-97990914D02*
X131718107Y-98038533D01*
X132908583Y-97752819D02*
X133003821Y-97752819D01*
X133003821Y-97752819D02*
X133099059Y-97800438D01*
X133099059Y-97800438D02*
X133146678Y-97848057D01*
X133146678Y-97848057D02*
X133194297Y-97943295D01*
X133194297Y-97943295D02*
X133241916Y-98133771D01*
X133241916Y-98133771D02*
X133241916Y-98371866D01*
X133241916Y-98371866D02*
X133194297Y-98562342D01*
X133194297Y-98562342D02*
X133146678Y-98657580D01*
X133146678Y-98657580D02*
X133099059Y-98705200D01*
X133099059Y-98705200D02*
X133003821Y-98752819D01*
X133003821Y-98752819D02*
X132908583Y-98752819D01*
X132908583Y-98752819D02*
X132813345Y-98705200D01*
X132813345Y-98705200D02*
X132765726Y-98657580D01*
X132765726Y-98657580D02*
X132718107Y-98562342D01*
X132718107Y-98562342D02*
X132670488Y-98371866D01*
X132670488Y-98371866D02*
X132670488Y-98133771D01*
X132670488Y-98133771D02*
X132718107Y-97943295D01*
X132718107Y-97943295D02*
X132765726Y-97848057D01*
X132765726Y-97848057D02*
X132813345Y-97800438D01*
X132813345Y-97800438D02*
X132908583Y-97752819D01*
X133575250Y-97752819D02*
X134194297Y-97752819D01*
X134194297Y-97752819D02*
X133860964Y-98133771D01*
X133860964Y-98133771D02*
X134003821Y-98133771D01*
X134003821Y-98133771D02*
X134099059Y-98181390D01*
X134099059Y-98181390D02*
X134146678Y-98229009D01*
X134146678Y-98229009D02*
X134194297Y-98324247D01*
X134194297Y-98324247D02*
X134194297Y-98562342D01*
X134194297Y-98562342D02*
X134146678Y-98657580D01*
X134146678Y-98657580D02*
X134099059Y-98705200D01*
X134099059Y-98705200D02*
X134003821Y-98752819D01*
X134003821Y-98752819D02*
X133718107Y-98752819D01*
X133718107Y-98752819D02*
X133622869Y-98705200D01*
X133622869Y-98705200D02*
X133575250Y-98657580D01*
X137623630Y-93895057D02*
X137528392Y-93847438D01*
X137528392Y-93847438D02*
X137433154Y-93752200D01*
X137433154Y-93752200D02*
X137290297Y-93609342D01*
X137290297Y-93609342D02*
X137195059Y-93561723D01*
X137195059Y-93561723D02*
X137099821Y-93561723D01*
X137147440Y-93799819D02*
X137052202Y-93752200D01*
X137052202Y-93752200D02*
X136956964Y-93656961D01*
X136956964Y-93656961D02*
X136909345Y-93466485D01*
X136909345Y-93466485D02*
X136909345Y-93133152D01*
X136909345Y-93133152D02*
X136956964Y-92942676D01*
X136956964Y-92942676D02*
X137052202Y-92847438D01*
X137052202Y-92847438D02*
X137147440Y-92799819D01*
X137147440Y-92799819D02*
X137337916Y-92799819D01*
X137337916Y-92799819D02*
X137433154Y-92847438D01*
X137433154Y-92847438D02*
X137528392Y-92942676D01*
X137528392Y-92942676D02*
X137576011Y-93133152D01*
X137576011Y-93133152D02*
X137576011Y-93466485D01*
X137576011Y-93466485D02*
X137528392Y-93656961D01*
X137528392Y-93656961D02*
X137433154Y-93752200D01*
X137433154Y-93752200D02*
X137337916Y-93799819D01*
X137337916Y-93799819D02*
X137147440Y-93799819D01*
X138528392Y-93799819D02*
X137956964Y-93799819D01*
X138242678Y-93799819D02*
X138242678Y-92799819D01*
X138242678Y-92799819D02*
X138147440Y-92942676D01*
X138147440Y-92942676D02*
X138052202Y-93037914D01*
X138052202Y-93037914D02*
X137956964Y-93085533D01*
X139147440Y-92799819D02*
X139242678Y-92799819D01*
X139242678Y-92799819D02*
X139337916Y-92847438D01*
X139337916Y-92847438D02*
X139385535Y-92895057D01*
X139385535Y-92895057D02*
X139433154Y-92990295D01*
X139433154Y-92990295D02*
X139480773Y-93180771D01*
X139480773Y-93180771D02*
X139480773Y-93418866D01*
X139480773Y-93418866D02*
X139433154Y-93609342D01*
X139433154Y-93609342D02*
X139385535Y-93704580D01*
X139385535Y-93704580D02*
X139337916Y-93752200D01*
X139337916Y-93752200D02*
X139242678Y-93799819D01*
X139242678Y-93799819D02*
X139147440Y-93799819D01*
X139147440Y-93799819D02*
X139052202Y-93752200D01*
X139052202Y-93752200D02*
X139004583Y-93704580D01*
X139004583Y-93704580D02*
X138956964Y-93609342D01*
X138956964Y-93609342D02*
X138909345Y-93418866D01*
X138909345Y-93418866D02*
X138909345Y-93180771D01*
X138909345Y-93180771D02*
X138956964Y-92990295D01*
X138956964Y-92990295D02*
X139004583Y-92895057D01*
X139004583Y-92895057D02*
X139052202Y-92847438D01*
X139052202Y-92847438D02*
X139147440Y-92799819D01*
X139861726Y-92895057D02*
X139909345Y-92847438D01*
X139909345Y-92847438D02*
X140004583Y-92799819D01*
X140004583Y-92799819D02*
X140242678Y-92799819D01*
X140242678Y-92799819D02*
X140337916Y-92847438D01*
X140337916Y-92847438D02*
X140385535Y-92895057D01*
X140385535Y-92895057D02*
X140433154Y-92990295D01*
X140433154Y-92990295D02*
X140433154Y-93085533D01*
X140433154Y-93085533D02*
X140385535Y-93228390D01*
X140385535Y-93228390D02*
X139814107Y-93799819D01*
X139814107Y-93799819D02*
X140433154Y-93799819D01*
X165221069Y-86169285D02*
X166030592Y-86169285D01*
X166030592Y-86169285D02*
X166125830Y-86121666D01*
X166125830Y-86121666D02*
X166173450Y-86074047D01*
X166173450Y-86074047D02*
X166221069Y-85978809D01*
X166221069Y-85978809D02*
X166221069Y-85788333D01*
X166221069Y-85788333D02*
X166173450Y-85693095D01*
X166173450Y-85693095D02*
X166125830Y-85645476D01*
X166125830Y-85645476D02*
X166030592Y-85597857D01*
X166030592Y-85597857D02*
X165221069Y-85597857D01*
X166221069Y-84597857D02*
X166221069Y-85169285D01*
X166221069Y-84883571D02*
X165221069Y-84883571D01*
X165221069Y-84883571D02*
X165363926Y-84978809D01*
X165363926Y-84978809D02*
X165459164Y-85074047D01*
X165459164Y-85074047D02*
X165506783Y-85169285D01*
X165221069Y-83978809D02*
X165221069Y-83883571D01*
X165221069Y-83883571D02*
X165268688Y-83788333D01*
X165268688Y-83788333D02*
X165316307Y-83740714D01*
X165316307Y-83740714D02*
X165411545Y-83693095D01*
X165411545Y-83693095D02*
X165602021Y-83645476D01*
X165602021Y-83645476D02*
X165840116Y-83645476D01*
X165840116Y-83645476D02*
X166030592Y-83693095D01*
X166030592Y-83693095D02*
X166125830Y-83740714D01*
X166125830Y-83740714D02*
X166173450Y-83788333D01*
X166173450Y-83788333D02*
X166221069Y-83883571D01*
X166221069Y-83883571D02*
X166221069Y-83978809D01*
X166221069Y-83978809D02*
X166173450Y-84074047D01*
X166173450Y-84074047D02*
X166125830Y-84121666D01*
X166125830Y-84121666D02*
X166030592Y-84169285D01*
X166030592Y-84169285D02*
X165840116Y-84216904D01*
X165840116Y-84216904D02*
X165602021Y-84216904D01*
X165602021Y-84216904D02*
X165411545Y-84169285D01*
X165411545Y-84169285D02*
X165316307Y-84121666D01*
X165316307Y-84121666D02*
X165268688Y-84074047D01*
X165268688Y-84074047D02*
X165221069Y-83978809D01*
X165554402Y-82788333D02*
X166221069Y-82788333D01*
X165173450Y-83026428D02*
X165887735Y-83264523D01*
X165887735Y-83264523D02*
X165887735Y-82645476D01*
X161105980Y-92396457D02*
X161010742Y-92348838D01*
X161010742Y-92348838D02*
X160915504Y-92253600D01*
X160915504Y-92253600D02*
X160772647Y-92110742D01*
X160772647Y-92110742D02*
X160677409Y-92063123D01*
X160677409Y-92063123D02*
X160582171Y-92063123D01*
X160629790Y-92301219D02*
X160534552Y-92253600D01*
X160534552Y-92253600D02*
X160439314Y-92158361D01*
X160439314Y-92158361D02*
X160391695Y-91967885D01*
X160391695Y-91967885D02*
X160391695Y-91634552D01*
X160391695Y-91634552D02*
X160439314Y-91444076D01*
X160439314Y-91444076D02*
X160534552Y-91348838D01*
X160534552Y-91348838D02*
X160629790Y-91301219D01*
X160629790Y-91301219D02*
X160820266Y-91301219D01*
X160820266Y-91301219D02*
X160915504Y-91348838D01*
X160915504Y-91348838D02*
X161010742Y-91444076D01*
X161010742Y-91444076D02*
X161058361Y-91634552D01*
X161058361Y-91634552D02*
X161058361Y-91967885D01*
X161058361Y-91967885D02*
X161010742Y-92158361D01*
X161010742Y-92158361D02*
X160915504Y-92253600D01*
X160915504Y-92253600D02*
X160820266Y-92301219D01*
X160820266Y-92301219D02*
X160629790Y-92301219D01*
X162010742Y-92301219D02*
X161439314Y-92301219D01*
X161725028Y-92301219D02*
X161725028Y-91301219D01*
X161725028Y-91301219D02*
X161629790Y-91444076D01*
X161629790Y-91444076D02*
X161534552Y-91539314D01*
X161534552Y-91539314D02*
X161439314Y-91586933D01*
X162629790Y-91301219D02*
X162725028Y-91301219D01*
X162725028Y-91301219D02*
X162820266Y-91348838D01*
X162820266Y-91348838D02*
X162867885Y-91396457D01*
X162867885Y-91396457D02*
X162915504Y-91491695D01*
X162915504Y-91491695D02*
X162963123Y-91682171D01*
X162963123Y-91682171D02*
X162963123Y-91920266D01*
X162963123Y-91920266D02*
X162915504Y-92110742D01*
X162915504Y-92110742D02*
X162867885Y-92205980D01*
X162867885Y-92205980D02*
X162820266Y-92253600D01*
X162820266Y-92253600D02*
X162725028Y-92301219D01*
X162725028Y-92301219D02*
X162629790Y-92301219D01*
X162629790Y-92301219D02*
X162534552Y-92253600D01*
X162534552Y-92253600D02*
X162486933Y-92205980D01*
X162486933Y-92205980D02*
X162439314Y-92110742D01*
X162439314Y-92110742D02*
X162391695Y-91920266D01*
X162391695Y-91920266D02*
X162391695Y-91682171D01*
X162391695Y-91682171D02*
X162439314Y-91491695D01*
X162439314Y-91491695D02*
X162486933Y-91396457D01*
X162486933Y-91396457D02*
X162534552Y-91348838D01*
X162534552Y-91348838D02*
X162629790Y-91301219D01*
X163915504Y-92301219D02*
X163344076Y-92301219D01*
X163629790Y-92301219D02*
X163629790Y-91301219D01*
X163629790Y-91301219D02*
X163534552Y-91444076D01*
X163534552Y-91444076D02*
X163439314Y-91539314D01*
X163439314Y-91539314D02*
X163344076Y-91586933D01*
X134091069Y-125085714D02*
X134805354Y-125085714D01*
X134805354Y-125085714D02*
X134948211Y-125133333D01*
X134948211Y-125133333D02*
X135043450Y-125228571D01*
X135043450Y-125228571D02*
X135091069Y-125371428D01*
X135091069Y-125371428D02*
X135091069Y-125466666D01*
X135091069Y-124085714D02*
X135091069Y-124657142D01*
X135091069Y-124371428D02*
X134091069Y-124371428D01*
X134091069Y-124371428D02*
X134233926Y-124466666D01*
X134233926Y-124466666D02*
X134329164Y-124561904D01*
X134329164Y-124561904D02*
X134376783Y-124657142D01*
X134091069Y-123466666D02*
X134091069Y-123371428D01*
X134091069Y-123371428D02*
X134138688Y-123276190D01*
X134138688Y-123276190D02*
X134186307Y-123228571D01*
X134186307Y-123228571D02*
X134281545Y-123180952D01*
X134281545Y-123180952D02*
X134472021Y-123133333D01*
X134472021Y-123133333D02*
X134710116Y-123133333D01*
X134710116Y-123133333D02*
X134900592Y-123180952D01*
X134900592Y-123180952D02*
X134995830Y-123228571D01*
X134995830Y-123228571D02*
X135043450Y-123276190D01*
X135043450Y-123276190D02*
X135091069Y-123371428D01*
X135091069Y-123371428D02*
X135091069Y-123466666D01*
X135091069Y-123466666D02*
X135043450Y-123561904D01*
X135043450Y-123561904D02*
X134995830Y-123609523D01*
X134995830Y-123609523D02*
X134900592Y-123657142D01*
X134900592Y-123657142D02*
X134710116Y-123704761D01*
X134710116Y-123704761D02*
X134472021Y-123704761D01*
X134472021Y-123704761D02*
X134281545Y-123657142D01*
X134281545Y-123657142D02*
X134186307Y-123609523D01*
X134186307Y-123609523D02*
X134138688Y-123561904D01*
X134138688Y-123561904D02*
X134091069Y-123466666D01*
X134424402Y-122276190D02*
X135091069Y-122276190D01*
X134043450Y-122514285D02*
X134757735Y-122752380D01*
X134757735Y-122752380D02*
X134757735Y-122133333D01*
X150359464Y-82249819D02*
X150359464Y-83059342D01*
X150359464Y-83059342D02*
X150407083Y-83154580D01*
X150407083Y-83154580D02*
X150454702Y-83202200D01*
X150454702Y-83202200D02*
X150549940Y-83249819D01*
X150549940Y-83249819D02*
X150740416Y-83249819D01*
X150740416Y-83249819D02*
X150835654Y-83202200D01*
X150835654Y-83202200D02*
X150883273Y-83154580D01*
X150883273Y-83154580D02*
X150930892Y-83059342D01*
X150930892Y-83059342D02*
X150930892Y-82249819D01*
X151930892Y-83249819D02*
X151359464Y-83249819D01*
X151645178Y-83249819D02*
X151645178Y-82249819D01*
X151645178Y-82249819D02*
X151549940Y-82392676D01*
X151549940Y-82392676D02*
X151454702Y-82487914D01*
X151454702Y-82487914D02*
X151359464Y-82535533D01*
X152549940Y-82249819D02*
X152645178Y-82249819D01*
X152645178Y-82249819D02*
X152740416Y-82297438D01*
X152740416Y-82297438D02*
X152788035Y-82345057D01*
X152788035Y-82345057D02*
X152835654Y-82440295D01*
X152835654Y-82440295D02*
X152883273Y-82630771D01*
X152883273Y-82630771D02*
X152883273Y-82868866D01*
X152883273Y-82868866D02*
X152835654Y-83059342D01*
X152835654Y-83059342D02*
X152788035Y-83154580D01*
X152788035Y-83154580D02*
X152740416Y-83202200D01*
X152740416Y-83202200D02*
X152645178Y-83249819D01*
X152645178Y-83249819D02*
X152549940Y-83249819D01*
X152549940Y-83249819D02*
X152454702Y-83202200D01*
X152454702Y-83202200D02*
X152407083Y-83154580D01*
X152407083Y-83154580D02*
X152359464Y-83059342D01*
X152359464Y-83059342D02*
X152311845Y-82868866D01*
X152311845Y-82868866D02*
X152311845Y-82630771D01*
X152311845Y-82630771D02*
X152359464Y-82440295D01*
X152359464Y-82440295D02*
X152407083Y-82345057D01*
X152407083Y-82345057D02*
X152454702Y-82297438D01*
X152454702Y-82297438D02*
X152549940Y-82249819D01*
X153216607Y-82249819D02*
X153835654Y-82249819D01*
X153835654Y-82249819D02*
X153502321Y-82630771D01*
X153502321Y-82630771D02*
X153645178Y-82630771D01*
X153645178Y-82630771D02*
X153740416Y-82678390D01*
X153740416Y-82678390D02*
X153788035Y-82726009D01*
X153788035Y-82726009D02*
X153835654Y-82821247D01*
X153835654Y-82821247D02*
X153835654Y-83059342D01*
X153835654Y-83059342D02*
X153788035Y-83154580D01*
X153788035Y-83154580D02*
X153740416Y-83202200D01*
X153740416Y-83202200D02*
X153645178Y-83249819D01*
X153645178Y-83249819D02*
X153359464Y-83249819D01*
X153359464Y-83249819D02*
X153264226Y-83202200D01*
X153264226Y-83202200D02*
X153216607Y-83154580D01*
X139996069Y-54920714D02*
X140710354Y-54920714D01*
X140710354Y-54920714D02*
X140853211Y-54968333D01*
X140853211Y-54968333D02*
X140948450Y-55063571D01*
X140948450Y-55063571D02*
X140996069Y-55206428D01*
X140996069Y-55206428D02*
X140996069Y-55301666D01*
X140996069Y-53920714D02*
X140996069Y-54492142D01*
X140996069Y-54206428D02*
X139996069Y-54206428D01*
X139996069Y-54206428D02*
X140138926Y-54301666D01*
X140138926Y-54301666D02*
X140234164Y-54396904D01*
X140234164Y-54396904D02*
X140281783Y-54492142D01*
X139996069Y-53301666D02*
X139996069Y-53206428D01*
X139996069Y-53206428D02*
X140043688Y-53111190D01*
X140043688Y-53111190D02*
X140091307Y-53063571D01*
X140091307Y-53063571D02*
X140186545Y-53015952D01*
X140186545Y-53015952D02*
X140377021Y-52968333D01*
X140377021Y-52968333D02*
X140615116Y-52968333D01*
X140615116Y-52968333D02*
X140805592Y-53015952D01*
X140805592Y-53015952D02*
X140900830Y-53063571D01*
X140900830Y-53063571D02*
X140948450Y-53111190D01*
X140948450Y-53111190D02*
X140996069Y-53206428D01*
X140996069Y-53206428D02*
X140996069Y-53301666D01*
X140996069Y-53301666D02*
X140948450Y-53396904D01*
X140948450Y-53396904D02*
X140900830Y-53444523D01*
X140900830Y-53444523D02*
X140805592Y-53492142D01*
X140805592Y-53492142D02*
X140615116Y-53539761D01*
X140615116Y-53539761D02*
X140377021Y-53539761D01*
X140377021Y-53539761D02*
X140186545Y-53492142D01*
X140186545Y-53492142D02*
X140091307Y-53444523D01*
X140091307Y-53444523D02*
X140043688Y-53396904D01*
X140043688Y-53396904D02*
X139996069Y-53301666D01*
X140996069Y-52015952D02*
X140996069Y-52587380D01*
X140996069Y-52301666D02*
X139996069Y-52301666D01*
X139996069Y-52301666D02*
X140138926Y-52396904D01*
X140138926Y-52396904D02*
X140234164Y-52492142D01*
X140234164Y-52492142D02*
X140281783Y-52587380D01*
X144714069Y-98210475D02*
X143714069Y-98210475D01*
X143714069Y-98210475D02*
X143714069Y-97972380D01*
X143714069Y-97972380D02*
X143761688Y-97829523D01*
X143761688Y-97829523D02*
X143856926Y-97734285D01*
X143856926Y-97734285D02*
X143952164Y-97686666D01*
X143952164Y-97686666D02*
X144142640Y-97639047D01*
X144142640Y-97639047D02*
X144285497Y-97639047D01*
X144285497Y-97639047D02*
X144475973Y-97686666D01*
X144475973Y-97686666D02*
X144571211Y-97734285D01*
X144571211Y-97734285D02*
X144666450Y-97829523D01*
X144666450Y-97829523D02*
X144714069Y-97972380D01*
X144714069Y-97972380D02*
X144714069Y-98210475D01*
X144714069Y-96686666D02*
X144714069Y-97258094D01*
X144714069Y-96972380D02*
X143714069Y-96972380D01*
X143714069Y-96972380D02*
X143856926Y-97067618D01*
X143856926Y-97067618D02*
X143952164Y-97162856D01*
X143952164Y-97162856D02*
X143999783Y-97258094D01*
X143714069Y-96067618D02*
X143714069Y-95972380D01*
X143714069Y-95972380D02*
X143761688Y-95877142D01*
X143761688Y-95877142D02*
X143809307Y-95829523D01*
X143809307Y-95829523D02*
X143904545Y-95781904D01*
X143904545Y-95781904D02*
X144095021Y-95734285D01*
X144095021Y-95734285D02*
X144333116Y-95734285D01*
X144333116Y-95734285D02*
X144523592Y-95781904D01*
X144523592Y-95781904D02*
X144618830Y-95829523D01*
X144618830Y-95829523D02*
X144666450Y-95877142D01*
X144666450Y-95877142D02*
X144714069Y-95972380D01*
X144714069Y-95972380D02*
X144714069Y-96067618D01*
X144714069Y-96067618D02*
X144666450Y-96162856D01*
X144666450Y-96162856D02*
X144618830Y-96210475D01*
X144618830Y-96210475D02*
X144523592Y-96258094D01*
X144523592Y-96258094D02*
X144333116Y-96305713D01*
X144333116Y-96305713D02*
X144095021Y-96305713D01*
X144095021Y-96305713D02*
X143904545Y-96258094D01*
X143904545Y-96258094D02*
X143809307Y-96210475D01*
X143809307Y-96210475D02*
X143761688Y-96162856D01*
X143761688Y-96162856D02*
X143714069Y-96067618D01*
X144047402Y-94877142D02*
X144714069Y-94877142D01*
X143666450Y-95115237D02*
X144380735Y-95353332D01*
X144380735Y-95353332D02*
X144380735Y-94734285D01*
X136856069Y-135699285D02*
X137665592Y-135699285D01*
X137665592Y-135699285D02*
X137760830Y-135651666D01*
X137760830Y-135651666D02*
X137808450Y-135604047D01*
X137808450Y-135604047D02*
X137856069Y-135508809D01*
X137856069Y-135508809D02*
X137856069Y-135318333D01*
X137856069Y-135318333D02*
X137808450Y-135223095D01*
X137808450Y-135223095D02*
X137760830Y-135175476D01*
X137760830Y-135175476D02*
X137665592Y-135127857D01*
X137665592Y-135127857D02*
X136856069Y-135127857D01*
X137856069Y-134127857D02*
X137856069Y-134699285D01*
X137856069Y-134413571D02*
X136856069Y-134413571D01*
X136856069Y-134413571D02*
X136998926Y-134508809D01*
X136998926Y-134508809D02*
X137094164Y-134604047D01*
X137094164Y-134604047D02*
X137141783Y-134699285D01*
X136856069Y-133508809D02*
X136856069Y-133413571D01*
X136856069Y-133413571D02*
X136903688Y-133318333D01*
X136903688Y-133318333D02*
X136951307Y-133270714D01*
X136951307Y-133270714D02*
X137046545Y-133223095D01*
X137046545Y-133223095D02*
X137237021Y-133175476D01*
X137237021Y-133175476D02*
X137475116Y-133175476D01*
X137475116Y-133175476D02*
X137665592Y-133223095D01*
X137665592Y-133223095D02*
X137760830Y-133270714D01*
X137760830Y-133270714D02*
X137808450Y-133318333D01*
X137808450Y-133318333D02*
X137856069Y-133413571D01*
X137856069Y-133413571D02*
X137856069Y-133508809D01*
X137856069Y-133508809D02*
X137808450Y-133604047D01*
X137808450Y-133604047D02*
X137760830Y-133651666D01*
X137760830Y-133651666D02*
X137665592Y-133699285D01*
X137665592Y-133699285D02*
X137475116Y-133746904D01*
X137475116Y-133746904D02*
X137237021Y-133746904D01*
X137237021Y-133746904D02*
X137046545Y-133699285D01*
X137046545Y-133699285D02*
X136951307Y-133651666D01*
X136951307Y-133651666D02*
X136903688Y-133604047D01*
X136903688Y-133604047D02*
X136856069Y-133508809D01*
X136951307Y-132794523D02*
X136903688Y-132746904D01*
X136903688Y-132746904D02*
X136856069Y-132651666D01*
X136856069Y-132651666D02*
X136856069Y-132413571D01*
X136856069Y-132413571D02*
X136903688Y-132318333D01*
X136903688Y-132318333D02*
X136951307Y-132270714D01*
X136951307Y-132270714D02*
X137046545Y-132223095D01*
X137046545Y-132223095D02*
X137141783Y-132223095D01*
X137141783Y-132223095D02*
X137284640Y-132270714D01*
X137284640Y-132270714D02*
X137856069Y-132842142D01*
X137856069Y-132842142D02*
X137856069Y-132223095D01*
X143156488Y-134185819D02*
X143156488Y-133185819D01*
X143156488Y-133185819D02*
X143489821Y-133900104D01*
X143489821Y-133900104D02*
X143823154Y-133185819D01*
X143823154Y-133185819D02*
X143823154Y-134185819D01*
X144299345Y-134185819D02*
X144299345Y-133185819D01*
X144775535Y-134185819D02*
X144775535Y-133185819D01*
X144775535Y-133185819D02*
X145108868Y-133900104D01*
X145108868Y-133900104D02*
X145442201Y-133185819D01*
X145442201Y-133185819D02*
X145442201Y-134185819D01*
X145823154Y-133185819D02*
X146489820Y-134185819D01*
X146489820Y-133185819D02*
X145823154Y-134185819D01*
X147442201Y-134185819D02*
X147108868Y-133709628D01*
X146870773Y-134185819D02*
X146870773Y-133185819D01*
X146870773Y-133185819D02*
X147251725Y-133185819D01*
X147251725Y-133185819D02*
X147346963Y-133233438D01*
X147346963Y-133233438D02*
X147394582Y-133281057D01*
X147394582Y-133281057D02*
X147442201Y-133376295D01*
X147442201Y-133376295D02*
X147442201Y-133519152D01*
X147442201Y-133519152D02*
X147394582Y-133614390D01*
X147394582Y-133614390D02*
X147346963Y-133662009D01*
X147346963Y-133662009D02*
X147251725Y-133709628D01*
X147251725Y-133709628D02*
X146870773Y-133709628D01*
X147727916Y-133185819D02*
X148299344Y-133185819D01*
X148013630Y-134185819D02*
X148013630Y-133185819D01*
X149156487Y-134185819D02*
X148585059Y-134185819D01*
X148870773Y-134185819D02*
X148870773Y-133185819D01*
X148870773Y-133185819D02*
X148775535Y-133328676D01*
X148775535Y-133328676D02*
X148680297Y-133423914D01*
X148680297Y-133423914D02*
X148585059Y-133471533D01*
X149775535Y-133185819D02*
X149870773Y-133185819D01*
X149870773Y-133185819D02*
X149966011Y-133233438D01*
X149966011Y-133233438D02*
X150013630Y-133281057D01*
X150013630Y-133281057D02*
X150061249Y-133376295D01*
X150061249Y-133376295D02*
X150108868Y-133566771D01*
X150108868Y-133566771D02*
X150108868Y-133804866D01*
X150108868Y-133804866D02*
X150061249Y-133995342D01*
X150061249Y-133995342D02*
X150013630Y-134090580D01*
X150013630Y-134090580D02*
X149966011Y-134138200D01*
X149966011Y-134138200D02*
X149870773Y-134185819D01*
X149870773Y-134185819D02*
X149775535Y-134185819D01*
X149775535Y-134185819D02*
X149680297Y-134138200D01*
X149680297Y-134138200D02*
X149632678Y-134090580D01*
X149632678Y-134090580D02*
X149585059Y-133995342D01*
X149585059Y-133995342D02*
X149537440Y-133804866D01*
X149537440Y-133804866D02*
X149537440Y-133566771D01*
X149537440Y-133566771D02*
X149585059Y-133376295D01*
X149585059Y-133376295D02*
X149632678Y-133281057D01*
X149632678Y-133281057D02*
X149680297Y-133233438D01*
X149680297Y-133233438D02*
X149775535Y-133185819D01*
X150966011Y-133185819D02*
X150775535Y-133185819D01*
X150775535Y-133185819D02*
X150680297Y-133233438D01*
X150680297Y-133233438D02*
X150632678Y-133281057D01*
X150632678Y-133281057D02*
X150537440Y-133423914D01*
X150537440Y-133423914D02*
X150489821Y-133614390D01*
X150489821Y-133614390D02*
X150489821Y-133995342D01*
X150489821Y-133995342D02*
X150537440Y-134090580D01*
X150537440Y-134090580D02*
X150585059Y-134138200D01*
X150585059Y-134138200D02*
X150680297Y-134185819D01*
X150680297Y-134185819D02*
X150870773Y-134185819D01*
X150870773Y-134185819D02*
X150966011Y-134138200D01*
X150966011Y-134138200D02*
X151013630Y-134090580D01*
X151013630Y-134090580D02*
X151061249Y-133995342D01*
X151061249Y-133995342D02*
X151061249Y-133757247D01*
X151061249Y-133757247D02*
X151013630Y-133662009D01*
X151013630Y-133662009D02*
X150966011Y-133614390D01*
X150966011Y-133614390D02*
X150870773Y-133566771D01*
X150870773Y-133566771D02*
X150680297Y-133566771D01*
X150680297Y-133566771D02*
X150585059Y-133614390D01*
X150585059Y-133614390D02*
X150537440Y-133662009D01*
X150537440Y-133662009D02*
X150489821Y-133757247D01*
X151442202Y-133281057D02*
X151489821Y-133233438D01*
X151489821Y-133233438D02*
X151585059Y-133185819D01*
X151585059Y-133185819D02*
X151823154Y-133185819D01*
X151823154Y-133185819D02*
X151918392Y-133233438D01*
X151918392Y-133233438D02*
X151966011Y-133281057D01*
X151966011Y-133281057D02*
X152013630Y-133376295D01*
X152013630Y-133376295D02*
X152013630Y-133471533D01*
X152013630Y-133471533D02*
X151966011Y-133614390D01*
X151966011Y-133614390D02*
X151394583Y-134185819D01*
X151394583Y-134185819D02*
X152013630Y-134185819D01*
X145561250Y-132661819D02*
X145561250Y-131661819D01*
X145561250Y-131661819D02*
X145799345Y-131661819D01*
X145799345Y-131661819D02*
X145942202Y-131709438D01*
X145942202Y-131709438D02*
X146037440Y-131804676D01*
X146037440Y-131804676D02*
X146085059Y-131899914D01*
X146085059Y-131899914D02*
X146132678Y-132090390D01*
X146132678Y-132090390D02*
X146132678Y-132233247D01*
X146132678Y-132233247D02*
X146085059Y-132423723D01*
X146085059Y-132423723D02*
X146037440Y-132518961D01*
X146037440Y-132518961D02*
X145942202Y-132614200D01*
X145942202Y-132614200D02*
X145799345Y-132661819D01*
X145799345Y-132661819D02*
X145561250Y-132661819D01*
X146418393Y-131661819D02*
X146751726Y-132661819D01*
X146751726Y-132661819D02*
X147085059Y-131661819D01*
X147894583Y-132661819D02*
X147418393Y-132661819D01*
X147418393Y-132661819D02*
X147418393Y-131661819D01*
X148656488Y-131661819D02*
X148466012Y-131661819D01*
X148466012Y-131661819D02*
X148370774Y-131709438D01*
X148370774Y-131709438D02*
X148323155Y-131757057D01*
X148323155Y-131757057D02*
X148227917Y-131899914D01*
X148227917Y-131899914D02*
X148180298Y-132090390D01*
X148180298Y-132090390D02*
X148180298Y-132471342D01*
X148180298Y-132471342D02*
X148227917Y-132566580D01*
X148227917Y-132566580D02*
X148275536Y-132614200D01*
X148275536Y-132614200D02*
X148370774Y-132661819D01*
X148370774Y-132661819D02*
X148561250Y-132661819D01*
X148561250Y-132661819D02*
X148656488Y-132614200D01*
X148656488Y-132614200D02*
X148704107Y-132566580D01*
X148704107Y-132566580D02*
X148751726Y-132471342D01*
X148751726Y-132471342D02*
X148751726Y-132233247D01*
X148751726Y-132233247D02*
X148704107Y-132138009D01*
X148704107Y-132138009D02*
X148656488Y-132090390D01*
X148656488Y-132090390D02*
X148561250Y-132042771D01*
X148561250Y-132042771D02*
X148370774Y-132042771D01*
X148370774Y-132042771D02*
X148275536Y-132090390D01*
X148275536Y-132090390D02*
X148227917Y-132138009D01*
X148227917Y-132138009D02*
X148180298Y-132233247D01*
X149132679Y-132376104D02*
X149608869Y-132376104D01*
X149037441Y-132661819D02*
X149370774Y-131661819D01*
X149370774Y-131661819D02*
X149704107Y-132661819D01*
X145123893Y-86103619D02*
X145123893Y-85103619D01*
X145123893Y-85103619D02*
X145457226Y-85817904D01*
X145457226Y-85817904D02*
X145790559Y-85103619D01*
X145790559Y-85103619D02*
X145790559Y-86103619D01*
X146123893Y-85103619D02*
X146695321Y-85103619D01*
X146409607Y-86103619D02*
X146409607Y-85103619D01*
X147552464Y-86103619D02*
X146981036Y-86103619D01*
X147266750Y-86103619D02*
X147266750Y-85103619D01*
X147266750Y-85103619D02*
X147171512Y-85246476D01*
X147171512Y-85246476D02*
X147076274Y-85341714D01*
X147076274Y-85341714D02*
X146981036Y-85389333D01*
X148171512Y-85103619D02*
X148266750Y-85103619D01*
X148266750Y-85103619D02*
X148361988Y-85151238D01*
X148361988Y-85151238D02*
X148409607Y-85198857D01*
X148409607Y-85198857D02*
X148457226Y-85294095D01*
X148457226Y-85294095D02*
X148504845Y-85484571D01*
X148504845Y-85484571D02*
X148504845Y-85722666D01*
X148504845Y-85722666D02*
X148457226Y-85913142D01*
X148457226Y-85913142D02*
X148409607Y-86008380D01*
X148409607Y-86008380D02*
X148361988Y-86056000D01*
X148361988Y-86056000D02*
X148266750Y-86103619D01*
X148266750Y-86103619D02*
X148171512Y-86103619D01*
X148171512Y-86103619D02*
X148076274Y-86056000D01*
X148076274Y-86056000D02*
X148028655Y-86008380D01*
X148028655Y-86008380D02*
X147981036Y-85913142D01*
X147981036Y-85913142D02*
X147933417Y-85722666D01*
X147933417Y-85722666D02*
X147933417Y-85484571D01*
X147933417Y-85484571D02*
X147981036Y-85294095D01*
X147981036Y-85294095D02*
X148028655Y-85198857D01*
X148028655Y-85198857D02*
X148076274Y-85151238D01*
X148076274Y-85151238D02*
X148171512Y-85103619D01*
X149457226Y-86103619D02*
X148885798Y-86103619D01*
X149171512Y-86103619D02*
X149171512Y-85103619D01*
X149171512Y-85103619D02*
X149076274Y-85246476D01*
X149076274Y-85246476D02*
X148981036Y-85341714D01*
X148981036Y-85341714D02*
X148885798Y-85389333D01*
X161261535Y-67272819D02*
X161261535Y-67987104D01*
X161261535Y-67987104D02*
X161213916Y-68129961D01*
X161213916Y-68129961D02*
X161118678Y-68225200D01*
X161118678Y-68225200D02*
X160975821Y-68272819D01*
X160975821Y-68272819D02*
X160880583Y-68272819D01*
X162261535Y-68272819D02*
X161690107Y-68272819D01*
X161975821Y-68272819D02*
X161975821Y-67272819D01*
X161975821Y-67272819D02*
X161880583Y-67415676D01*
X161880583Y-67415676D02*
X161785345Y-67510914D01*
X161785345Y-67510914D02*
X161690107Y-67558533D01*
X162880583Y-67272819D02*
X162975821Y-67272819D01*
X162975821Y-67272819D02*
X163071059Y-67320438D01*
X163071059Y-67320438D02*
X163118678Y-67368057D01*
X163118678Y-67368057D02*
X163166297Y-67463295D01*
X163166297Y-67463295D02*
X163213916Y-67653771D01*
X163213916Y-67653771D02*
X163213916Y-67891866D01*
X163213916Y-67891866D02*
X163166297Y-68082342D01*
X163166297Y-68082342D02*
X163118678Y-68177580D01*
X163118678Y-68177580D02*
X163071059Y-68225200D01*
X163071059Y-68225200D02*
X162975821Y-68272819D01*
X162975821Y-68272819D02*
X162880583Y-68272819D01*
X162880583Y-68272819D02*
X162785345Y-68225200D01*
X162785345Y-68225200D02*
X162737726Y-68177580D01*
X162737726Y-68177580D02*
X162690107Y-68082342D01*
X162690107Y-68082342D02*
X162642488Y-67891866D01*
X162642488Y-67891866D02*
X162642488Y-67653771D01*
X162642488Y-67653771D02*
X162690107Y-67463295D01*
X162690107Y-67463295D02*
X162737726Y-67368057D01*
X162737726Y-67368057D02*
X162785345Y-67320438D01*
X162785345Y-67320438D02*
X162880583Y-67272819D01*
X164118678Y-67272819D02*
X163642488Y-67272819D01*
X163642488Y-67272819D02*
X163594869Y-67749009D01*
X163594869Y-67749009D02*
X163642488Y-67701390D01*
X163642488Y-67701390D02*
X163737726Y-67653771D01*
X163737726Y-67653771D02*
X163975821Y-67653771D01*
X163975821Y-67653771D02*
X164071059Y-67701390D01*
X164071059Y-67701390D02*
X164118678Y-67749009D01*
X164118678Y-67749009D02*
X164166297Y-67844247D01*
X164166297Y-67844247D02*
X164166297Y-68082342D01*
X164166297Y-68082342D02*
X164118678Y-68177580D01*
X164118678Y-68177580D02*
X164071059Y-68225200D01*
X164071059Y-68225200D02*
X163975821Y-68272819D01*
X163975821Y-68272819D02*
X163737726Y-68272819D01*
X163737726Y-68272819D02*
X163642488Y-68225200D01*
X163642488Y-68225200D02*
X163594869Y-68177580D01*
X151487402Y-98210475D02*
X150487402Y-98210475D01*
X150487402Y-98210475D02*
X150487402Y-97972380D01*
X150487402Y-97972380D02*
X150535021Y-97829523D01*
X150535021Y-97829523D02*
X150630259Y-97734285D01*
X150630259Y-97734285D02*
X150725497Y-97686666D01*
X150725497Y-97686666D02*
X150915973Y-97639047D01*
X150915973Y-97639047D02*
X151058830Y-97639047D01*
X151058830Y-97639047D02*
X151249306Y-97686666D01*
X151249306Y-97686666D02*
X151344544Y-97734285D01*
X151344544Y-97734285D02*
X151439783Y-97829523D01*
X151439783Y-97829523D02*
X151487402Y-97972380D01*
X151487402Y-97972380D02*
X151487402Y-98210475D01*
X151487402Y-96686666D02*
X151487402Y-97258094D01*
X151487402Y-96972380D02*
X150487402Y-96972380D01*
X150487402Y-96972380D02*
X150630259Y-97067618D01*
X150630259Y-97067618D02*
X150725497Y-97162856D01*
X150725497Y-97162856D02*
X150773116Y-97258094D01*
X150487402Y-96067618D02*
X150487402Y-95972380D01*
X150487402Y-95972380D02*
X150535021Y-95877142D01*
X150535021Y-95877142D02*
X150582640Y-95829523D01*
X150582640Y-95829523D02*
X150677878Y-95781904D01*
X150677878Y-95781904D02*
X150868354Y-95734285D01*
X150868354Y-95734285D02*
X151106449Y-95734285D01*
X151106449Y-95734285D02*
X151296925Y-95781904D01*
X151296925Y-95781904D02*
X151392163Y-95829523D01*
X151392163Y-95829523D02*
X151439783Y-95877142D01*
X151439783Y-95877142D02*
X151487402Y-95972380D01*
X151487402Y-95972380D02*
X151487402Y-96067618D01*
X151487402Y-96067618D02*
X151439783Y-96162856D01*
X151439783Y-96162856D02*
X151392163Y-96210475D01*
X151392163Y-96210475D02*
X151296925Y-96258094D01*
X151296925Y-96258094D02*
X151106449Y-96305713D01*
X151106449Y-96305713D02*
X150868354Y-96305713D01*
X150868354Y-96305713D02*
X150677878Y-96258094D01*
X150677878Y-96258094D02*
X150582640Y-96210475D01*
X150582640Y-96210475D02*
X150535021Y-96162856D01*
X150535021Y-96162856D02*
X150487402Y-96067618D01*
X150582640Y-95353332D02*
X150535021Y-95305713D01*
X150535021Y-95305713D02*
X150487402Y-95210475D01*
X150487402Y-95210475D02*
X150487402Y-94972380D01*
X150487402Y-94972380D02*
X150535021Y-94877142D01*
X150535021Y-94877142D02*
X150582640Y-94829523D01*
X150582640Y-94829523D02*
X150677878Y-94781904D01*
X150677878Y-94781904D02*
X150773116Y-94781904D01*
X150773116Y-94781904D02*
X150915973Y-94829523D01*
X150915973Y-94829523D02*
X151487402Y-95400951D01*
X151487402Y-95400951D02*
X151487402Y-94781904D01*
X131289535Y-67272819D02*
X131289535Y-67987104D01*
X131289535Y-67987104D02*
X131241916Y-68129961D01*
X131241916Y-68129961D02*
X131146678Y-68225200D01*
X131146678Y-68225200D02*
X131003821Y-68272819D01*
X131003821Y-68272819D02*
X130908583Y-68272819D01*
X132289535Y-68272819D02*
X131718107Y-68272819D01*
X132003821Y-68272819D02*
X132003821Y-67272819D01*
X132003821Y-67272819D02*
X131908583Y-67415676D01*
X131908583Y-67415676D02*
X131813345Y-67510914D01*
X131813345Y-67510914D02*
X131718107Y-67558533D01*
X132908583Y-67272819D02*
X133003821Y-67272819D01*
X133003821Y-67272819D02*
X133099059Y-67320438D01*
X133099059Y-67320438D02*
X133146678Y-67368057D01*
X133146678Y-67368057D02*
X133194297Y-67463295D01*
X133194297Y-67463295D02*
X133241916Y-67653771D01*
X133241916Y-67653771D02*
X133241916Y-67891866D01*
X133241916Y-67891866D02*
X133194297Y-68082342D01*
X133194297Y-68082342D02*
X133146678Y-68177580D01*
X133146678Y-68177580D02*
X133099059Y-68225200D01*
X133099059Y-68225200D02*
X133003821Y-68272819D01*
X133003821Y-68272819D02*
X132908583Y-68272819D01*
X132908583Y-68272819D02*
X132813345Y-68225200D01*
X132813345Y-68225200D02*
X132765726Y-68177580D01*
X132765726Y-68177580D02*
X132718107Y-68082342D01*
X132718107Y-68082342D02*
X132670488Y-67891866D01*
X132670488Y-67891866D02*
X132670488Y-67653771D01*
X132670488Y-67653771D02*
X132718107Y-67463295D01*
X132718107Y-67463295D02*
X132765726Y-67368057D01*
X132765726Y-67368057D02*
X132813345Y-67320438D01*
X132813345Y-67320438D02*
X132908583Y-67272819D01*
X133813345Y-67701390D02*
X133718107Y-67653771D01*
X133718107Y-67653771D02*
X133670488Y-67606152D01*
X133670488Y-67606152D02*
X133622869Y-67510914D01*
X133622869Y-67510914D02*
X133622869Y-67463295D01*
X133622869Y-67463295D02*
X133670488Y-67368057D01*
X133670488Y-67368057D02*
X133718107Y-67320438D01*
X133718107Y-67320438D02*
X133813345Y-67272819D01*
X133813345Y-67272819D02*
X134003821Y-67272819D01*
X134003821Y-67272819D02*
X134099059Y-67320438D01*
X134099059Y-67320438D02*
X134146678Y-67368057D01*
X134146678Y-67368057D02*
X134194297Y-67463295D01*
X134194297Y-67463295D02*
X134194297Y-67510914D01*
X134194297Y-67510914D02*
X134146678Y-67606152D01*
X134146678Y-67606152D02*
X134099059Y-67653771D01*
X134099059Y-67653771D02*
X134003821Y-67701390D01*
X134003821Y-67701390D02*
X133813345Y-67701390D01*
X133813345Y-67701390D02*
X133718107Y-67749009D01*
X133718107Y-67749009D02*
X133670488Y-67796628D01*
X133670488Y-67796628D02*
X133622869Y-67891866D01*
X133622869Y-67891866D02*
X133622869Y-68082342D01*
X133622869Y-68082342D02*
X133670488Y-68177580D01*
X133670488Y-68177580D02*
X133718107Y-68225200D01*
X133718107Y-68225200D02*
X133813345Y-68272819D01*
X133813345Y-68272819D02*
X134003821Y-68272819D01*
X134003821Y-68272819D02*
X134099059Y-68225200D01*
X134099059Y-68225200D02*
X134146678Y-68177580D01*
X134146678Y-68177580D02*
X134194297Y-68082342D01*
X134194297Y-68082342D02*
X134194297Y-67891866D01*
X134194297Y-67891866D02*
X134146678Y-67796628D01*
X134146678Y-67796628D02*
X134099059Y-67749009D01*
X134099059Y-67749009D02*
X134003821Y-67701390D01*
X133538069Y-137270904D02*
X132538069Y-137270904D01*
X132538069Y-137270904D02*
X133252354Y-136937571D01*
X133252354Y-136937571D02*
X132538069Y-136604238D01*
X132538069Y-136604238D02*
X133538069Y-136604238D01*
X133538069Y-135604238D02*
X133538069Y-136175666D01*
X133538069Y-135889952D02*
X132538069Y-135889952D01*
X132538069Y-135889952D02*
X132680926Y-135985190D01*
X132680926Y-135985190D02*
X132776164Y-136080428D01*
X132776164Y-136080428D02*
X132823783Y-136175666D01*
X132538069Y-134985190D02*
X132538069Y-134889952D01*
X132538069Y-134889952D02*
X132585688Y-134794714D01*
X132585688Y-134794714D02*
X132633307Y-134747095D01*
X132633307Y-134747095D02*
X132728545Y-134699476D01*
X132728545Y-134699476D02*
X132919021Y-134651857D01*
X132919021Y-134651857D02*
X133157116Y-134651857D01*
X133157116Y-134651857D02*
X133347592Y-134699476D01*
X133347592Y-134699476D02*
X133442830Y-134747095D01*
X133442830Y-134747095D02*
X133490450Y-134794714D01*
X133490450Y-134794714D02*
X133538069Y-134889952D01*
X133538069Y-134889952D02*
X133538069Y-134985190D01*
X133538069Y-134985190D02*
X133490450Y-135080428D01*
X133490450Y-135080428D02*
X133442830Y-135128047D01*
X133442830Y-135128047D02*
X133347592Y-135175666D01*
X133347592Y-135175666D02*
X133157116Y-135223285D01*
X133157116Y-135223285D02*
X132919021Y-135223285D01*
X132919021Y-135223285D02*
X132728545Y-135175666D01*
X132728545Y-135175666D02*
X132633307Y-135128047D01*
X132633307Y-135128047D02*
X132585688Y-135080428D01*
X132585688Y-135080428D02*
X132538069Y-134985190D01*
X132633307Y-134270904D02*
X132585688Y-134223285D01*
X132585688Y-134223285D02*
X132538069Y-134128047D01*
X132538069Y-134128047D02*
X132538069Y-133889952D01*
X132538069Y-133889952D02*
X132585688Y-133794714D01*
X132585688Y-133794714D02*
X132633307Y-133747095D01*
X132633307Y-133747095D02*
X132728545Y-133699476D01*
X132728545Y-133699476D02*
X132823783Y-133699476D01*
X132823783Y-133699476D02*
X132966640Y-133747095D01*
X132966640Y-133747095D02*
X133538069Y-134318523D01*
X133538069Y-134318523D02*
X133538069Y-133699476D01*
X154874069Y-98210475D02*
X153874069Y-98210475D01*
X153874069Y-98210475D02*
X153874069Y-97972380D01*
X153874069Y-97972380D02*
X153921688Y-97829523D01*
X153921688Y-97829523D02*
X154016926Y-97734285D01*
X154016926Y-97734285D02*
X154112164Y-97686666D01*
X154112164Y-97686666D02*
X154302640Y-97639047D01*
X154302640Y-97639047D02*
X154445497Y-97639047D01*
X154445497Y-97639047D02*
X154635973Y-97686666D01*
X154635973Y-97686666D02*
X154731211Y-97734285D01*
X154731211Y-97734285D02*
X154826450Y-97829523D01*
X154826450Y-97829523D02*
X154874069Y-97972380D01*
X154874069Y-97972380D02*
X154874069Y-98210475D01*
X154874069Y-96686666D02*
X154874069Y-97258094D01*
X154874069Y-96972380D02*
X153874069Y-96972380D01*
X153874069Y-96972380D02*
X154016926Y-97067618D01*
X154016926Y-97067618D02*
X154112164Y-97162856D01*
X154112164Y-97162856D02*
X154159783Y-97258094D01*
X153874069Y-96067618D02*
X153874069Y-95972380D01*
X153874069Y-95972380D02*
X153921688Y-95877142D01*
X153921688Y-95877142D02*
X153969307Y-95829523D01*
X153969307Y-95829523D02*
X154064545Y-95781904D01*
X154064545Y-95781904D02*
X154255021Y-95734285D01*
X154255021Y-95734285D02*
X154493116Y-95734285D01*
X154493116Y-95734285D02*
X154683592Y-95781904D01*
X154683592Y-95781904D02*
X154778830Y-95829523D01*
X154778830Y-95829523D02*
X154826450Y-95877142D01*
X154826450Y-95877142D02*
X154874069Y-95972380D01*
X154874069Y-95972380D02*
X154874069Y-96067618D01*
X154874069Y-96067618D02*
X154826450Y-96162856D01*
X154826450Y-96162856D02*
X154778830Y-96210475D01*
X154778830Y-96210475D02*
X154683592Y-96258094D01*
X154683592Y-96258094D02*
X154493116Y-96305713D01*
X154493116Y-96305713D02*
X154255021Y-96305713D01*
X154255021Y-96305713D02*
X154064545Y-96258094D01*
X154064545Y-96258094D02*
X153969307Y-96210475D01*
X153969307Y-96210475D02*
X153921688Y-96162856D01*
X153921688Y-96162856D02*
X153874069Y-96067618D01*
X154874069Y-94781904D02*
X154874069Y-95353332D01*
X154874069Y-95067618D02*
X153874069Y-95067618D01*
X153874069Y-95067618D02*
X154016926Y-95162856D01*
X154016926Y-95162856D02*
X154112164Y-95258094D01*
X154112164Y-95258094D02*
X154159783Y-95353332D01*
X148100736Y-98210475D02*
X147100736Y-98210475D01*
X147100736Y-98210475D02*
X147100736Y-97972380D01*
X147100736Y-97972380D02*
X147148355Y-97829523D01*
X147148355Y-97829523D02*
X147243593Y-97734285D01*
X147243593Y-97734285D02*
X147338831Y-97686666D01*
X147338831Y-97686666D02*
X147529307Y-97639047D01*
X147529307Y-97639047D02*
X147672164Y-97639047D01*
X147672164Y-97639047D02*
X147862640Y-97686666D01*
X147862640Y-97686666D02*
X147957878Y-97734285D01*
X147957878Y-97734285D02*
X148053117Y-97829523D01*
X148053117Y-97829523D02*
X148100736Y-97972380D01*
X148100736Y-97972380D02*
X148100736Y-98210475D01*
X148100736Y-96686666D02*
X148100736Y-97258094D01*
X148100736Y-96972380D02*
X147100736Y-96972380D01*
X147100736Y-96972380D02*
X147243593Y-97067618D01*
X147243593Y-97067618D02*
X147338831Y-97162856D01*
X147338831Y-97162856D02*
X147386450Y-97258094D01*
X147100736Y-96067618D02*
X147100736Y-95972380D01*
X147100736Y-95972380D02*
X147148355Y-95877142D01*
X147148355Y-95877142D02*
X147195974Y-95829523D01*
X147195974Y-95829523D02*
X147291212Y-95781904D01*
X147291212Y-95781904D02*
X147481688Y-95734285D01*
X147481688Y-95734285D02*
X147719783Y-95734285D01*
X147719783Y-95734285D02*
X147910259Y-95781904D01*
X147910259Y-95781904D02*
X148005497Y-95829523D01*
X148005497Y-95829523D02*
X148053117Y-95877142D01*
X148053117Y-95877142D02*
X148100736Y-95972380D01*
X148100736Y-95972380D02*
X148100736Y-96067618D01*
X148100736Y-96067618D02*
X148053117Y-96162856D01*
X148053117Y-96162856D02*
X148005497Y-96210475D01*
X148005497Y-96210475D02*
X147910259Y-96258094D01*
X147910259Y-96258094D02*
X147719783Y-96305713D01*
X147719783Y-96305713D02*
X147481688Y-96305713D01*
X147481688Y-96305713D02*
X147291212Y-96258094D01*
X147291212Y-96258094D02*
X147195974Y-96210475D01*
X147195974Y-96210475D02*
X147148355Y-96162856D01*
X147148355Y-96162856D02*
X147100736Y-96067618D01*
X147100736Y-95400951D02*
X147100736Y-94781904D01*
X147100736Y-94781904D02*
X147481688Y-95115237D01*
X147481688Y-95115237D02*
X147481688Y-94972380D01*
X147481688Y-94972380D02*
X147529307Y-94877142D01*
X147529307Y-94877142D02*
X147576926Y-94829523D01*
X147576926Y-94829523D02*
X147672164Y-94781904D01*
X147672164Y-94781904D02*
X147910259Y-94781904D01*
X147910259Y-94781904D02*
X148005497Y-94829523D01*
X148005497Y-94829523D02*
X148053117Y-94877142D01*
X148053117Y-94877142D02*
X148100736Y-94972380D01*
X148100736Y-94972380D02*
X148100736Y-95258094D01*
X148100736Y-95258094D02*
X148053117Y-95353332D01*
X148053117Y-95353332D02*
X148005497Y-95400951D01*
X162141069Y-137270904D02*
X161141069Y-137270904D01*
X161141069Y-137270904D02*
X161855354Y-136937571D01*
X161855354Y-136937571D02*
X161141069Y-136604238D01*
X161141069Y-136604238D02*
X162141069Y-136604238D01*
X162141069Y-135604238D02*
X162141069Y-136175666D01*
X162141069Y-135889952D02*
X161141069Y-135889952D01*
X161141069Y-135889952D02*
X161283926Y-135985190D01*
X161283926Y-135985190D02*
X161379164Y-136080428D01*
X161379164Y-136080428D02*
X161426783Y-136175666D01*
X161141069Y-134985190D02*
X161141069Y-134889952D01*
X161141069Y-134889952D02*
X161188688Y-134794714D01*
X161188688Y-134794714D02*
X161236307Y-134747095D01*
X161236307Y-134747095D02*
X161331545Y-134699476D01*
X161331545Y-134699476D02*
X161522021Y-134651857D01*
X161522021Y-134651857D02*
X161760116Y-134651857D01*
X161760116Y-134651857D02*
X161950592Y-134699476D01*
X161950592Y-134699476D02*
X162045830Y-134747095D01*
X162045830Y-134747095D02*
X162093450Y-134794714D01*
X162093450Y-134794714D02*
X162141069Y-134889952D01*
X162141069Y-134889952D02*
X162141069Y-134985190D01*
X162141069Y-134985190D02*
X162093450Y-135080428D01*
X162093450Y-135080428D02*
X162045830Y-135128047D01*
X162045830Y-135128047D02*
X161950592Y-135175666D01*
X161950592Y-135175666D02*
X161760116Y-135223285D01*
X161760116Y-135223285D02*
X161522021Y-135223285D01*
X161522021Y-135223285D02*
X161331545Y-135175666D01*
X161331545Y-135175666D02*
X161236307Y-135128047D01*
X161236307Y-135128047D02*
X161188688Y-135080428D01*
X161188688Y-135080428D02*
X161141069Y-134985190D01*
X162141069Y-133699476D02*
X162141069Y-134270904D01*
X162141069Y-133985190D02*
X161141069Y-133985190D01*
X161141069Y-133985190D02*
X161283926Y-134080428D01*
X161283926Y-134080428D02*
X161379164Y-134175666D01*
X161379164Y-134175666D02*
X161426783Y-134270904D01*
X159941069Y-125135714D02*
X160655354Y-125135714D01*
X160655354Y-125135714D02*
X160798211Y-125183333D01*
X160798211Y-125183333D02*
X160893450Y-125278571D01*
X160893450Y-125278571D02*
X160941069Y-125421428D01*
X160941069Y-125421428D02*
X160941069Y-125516666D01*
X160941069Y-124135714D02*
X160941069Y-124707142D01*
X160941069Y-124421428D02*
X159941069Y-124421428D01*
X159941069Y-124421428D02*
X160083926Y-124516666D01*
X160083926Y-124516666D02*
X160179164Y-124611904D01*
X160179164Y-124611904D02*
X160226783Y-124707142D01*
X159941069Y-123516666D02*
X159941069Y-123421428D01*
X159941069Y-123421428D02*
X159988688Y-123326190D01*
X159988688Y-123326190D02*
X160036307Y-123278571D01*
X160036307Y-123278571D02*
X160131545Y-123230952D01*
X160131545Y-123230952D02*
X160322021Y-123183333D01*
X160322021Y-123183333D02*
X160560116Y-123183333D01*
X160560116Y-123183333D02*
X160750592Y-123230952D01*
X160750592Y-123230952D02*
X160845830Y-123278571D01*
X160845830Y-123278571D02*
X160893450Y-123326190D01*
X160893450Y-123326190D02*
X160941069Y-123421428D01*
X160941069Y-123421428D02*
X160941069Y-123516666D01*
X160941069Y-123516666D02*
X160893450Y-123611904D01*
X160893450Y-123611904D02*
X160845830Y-123659523D01*
X160845830Y-123659523D02*
X160750592Y-123707142D01*
X160750592Y-123707142D02*
X160560116Y-123754761D01*
X160560116Y-123754761D02*
X160322021Y-123754761D01*
X160322021Y-123754761D02*
X160131545Y-123707142D01*
X160131545Y-123707142D02*
X160036307Y-123659523D01*
X160036307Y-123659523D02*
X159988688Y-123611904D01*
X159988688Y-123611904D02*
X159941069Y-123516666D01*
X159941069Y-122326190D02*
X159941069Y-122516666D01*
X159941069Y-122516666D02*
X159988688Y-122611904D01*
X159988688Y-122611904D02*
X160036307Y-122659523D01*
X160036307Y-122659523D02*
X160179164Y-122754761D01*
X160179164Y-122754761D02*
X160369640Y-122802380D01*
X160369640Y-122802380D02*
X160750592Y-122802380D01*
X160750592Y-122802380D02*
X160845830Y-122754761D01*
X160845830Y-122754761D02*
X160893450Y-122707142D01*
X160893450Y-122707142D02*
X160941069Y-122611904D01*
X160941069Y-122611904D02*
X160941069Y-122421428D01*
X160941069Y-122421428D02*
X160893450Y-122326190D01*
X160893450Y-122326190D02*
X160845830Y-122278571D01*
X160845830Y-122278571D02*
X160750592Y-122230952D01*
X160750592Y-122230952D02*
X160512497Y-122230952D01*
X160512497Y-122230952D02*
X160417259Y-122278571D01*
X160417259Y-122278571D02*
X160369640Y-122326190D01*
X160369640Y-122326190D02*
X160322021Y-122421428D01*
X160322021Y-122421428D02*
X160322021Y-122611904D01*
X160322021Y-122611904D02*
X160369640Y-122707142D01*
X160369640Y-122707142D02*
X160417259Y-122754761D01*
X160417259Y-122754761D02*
X160512497Y-122802380D01*
D11*
%TO.C,U107*%
X139864250Y-86520000D02*
X141864250Y-86520000D01*
X141864250Y-88740000D02*
X139864250Y-88740000D01*
X139464250Y-86790000D02*
X139184250Y-86790000D01*
X139464250Y-86510000D01*
X139464250Y-86790000D01*
G36*
X139464250Y-86790000D02*
G01*
X139184250Y-86790000D01*
X139464250Y-86510000D01*
X139464250Y-86790000D01*
G37*
%TO.C,L101*%
X129686250Y-82625000D02*
X129686250Y-83075000D01*
X129686250Y-82625000D02*
X135886250Y-82625000D01*
X129686250Y-88825000D02*
X129686250Y-88375000D01*
X135886250Y-82625000D02*
X135886250Y-83075000D01*
X135886250Y-88825000D02*
X129686250Y-88825000D01*
X135886250Y-88825000D02*
X135886250Y-88375000D01*
D12*
%TO.C,U101*%
X153390550Y-86474300D02*
X153390550Y-86761220D01*
X153390550Y-88498780D02*
X153390550Y-88785700D01*
X153390550Y-88785700D02*
X153927470Y-88785700D01*
X153927470Y-86474300D02*
X153390550Y-86474300D01*
X155165030Y-88785700D02*
X155701950Y-88785700D01*
X155701950Y-86474300D02*
X155165030Y-86474300D01*
X155701950Y-86761220D02*
X155701950Y-86474300D01*
X155701950Y-88785700D02*
X155701950Y-88498780D01*
D13*
G36*
X153365150Y-88320499D02*
G01*
X153111150Y-88320499D01*
X153111150Y-87939499D01*
X153365150Y-87939499D01*
X153365150Y-88320499D01*
G37*
D14*
%TO.C,J107*%
X158566250Y-99040000D02*
X166266250Y-99040000D01*
X158566250Y-109240000D02*
X158566250Y-99040000D01*
X166266250Y-99040000D02*
X166266250Y-109240000D01*
X166266250Y-109240000D02*
X158566250Y-109240000D01*
D15*
X160866250Y-107540000D02*
G75*
G02*
X160666250Y-107540000I-100000J0D01*
G01*
X160666250Y-107540000D02*
G75*
G02*
X160866250Y-107540000I100000J0D01*
G01*
D11*
%TO.C,BZ101*%
X141961250Y-100175000D02*
X153161250Y-100175000D01*
X141961250Y-103425000D02*
X141961250Y-100175000D01*
X141961250Y-109375000D02*
X141961250Y-106125000D01*
X153161250Y-100175000D02*
X153161250Y-103425000D01*
X153161250Y-106125000D02*
X153161250Y-109375000D01*
X153161250Y-109375000D02*
X141961250Y-109375000D01*
D14*
%TO.C,J103*%
X128721250Y-99040000D02*
X136421250Y-99040000D01*
X128721250Y-109240000D02*
X128721250Y-99040000D01*
X136421250Y-99040000D02*
X136421250Y-109240000D01*
X136421250Y-109240000D02*
X128721250Y-109240000D01*
D15*
X131021250Y-107540000D02*
G75*
G02*
X130821250Y-107540000I-100000J0D01*
G01*
X130821250Y-107540000D02*
G75*
G02*
X131021250Y-107540000I100000J0D01*
G01*
D11*
%TO.C,Q102*%
X137111250Y-95125000D02*
X138111250Y-95125000D01*
X137111250Y-96645000D02*
X137111250Y-95125000D01*
X137161250Y-96645000D02*
X137111250Y-96645000D01*
X139061250Y-96645000D02*
X138281250Y-96645000D01*
X139231250Y-95125000D02*
X140231250Y-95125000D01*
X140231250Y-95125000D02*
X140231250Y-96645000D01*
X140231250Y-96645000D02*
X140181250Y-96645000D01*
X138621250Y-97425000D02*
X138291250Y-97185000D01*
X138621250Y-96945000D01*
X138621250Y-97425000D01*
G36*
X138621250Y-97425000D02*
G01*
X138291250Y-97185000D01*
X138621250Y-96945000D01*
X138621250Y-97425000D01*
G37*
%TO.C,U104*%
X159406250Y-81695000D02*
X159676250Y-81695000D01*
X159406250Y-87215000D02*
X159406250Y-81695000D01*
X159676250Y-87215000D02*
X159406250Y-87215000D01*
X164656250Y-81695000D02*
X164926250Y-81695000D01*
X164926250Y-81695000D02*
X164926250Y-87215000D01*
X164926250Y-87215000D02*
X164656250Y-87215000D01*
X165136250Y-81205000D02*
X164666250Y-80865000D01*
X165136250Y-80525000D01*
X165136250Y-81205000D01*
G36*
X165136250Y-81205000D02*
G01*
X164666250Y-80865000D01*
X165136250Y-80525000D01*
X165136250Y-81205000D01*
G37*
%TO.C,Q101*%
X160606250Y-93855000D02*
X161606250Y-93855000D01*
X160606250Y-95375000D02*
X160606250Y-93855000D01*
X160656250Y-95375000D02*
X160606250Y-95375000D01*
X162556250Y-95375000D02*
X161776250Y-95375000D01*
X162726250Y-93855000D02*
X163726250Y-93855000D01*
X163726250Y-93855000D02*
X163726250Y-95375000D01*
X163726250Y-95375000D02*
X163676250Y-95375000D01*
X162116250Y-96155000D02*
X161786250Y-95915000D01*
X162116250Y-95675000D01*
X162116250Y-96155000D01*
G36*
X162116250Y-96155000D02*
G01*
X161786250Y-95915000D01*
X162116250Y-95675000D01*
X162116250Y-96155000D01*
G37*
D16*
%TO.C,J104*%
X128801250Y-120875000D02*
X133301250Y-120875000D01*
X128801250Y-126775000D02*
X128801250Y-120875000D01*
X133301250Y-120875000D02*
X133301250Y-126775000D01*
X133301250Y-126775000D02*
X128801250Y-126775000D01*
D14*
X128201250Y-124825000D02*
G75*
G02*
X128001250Y-124825000I-100000J0D01*
G01*
X128001250Y-124825000D02*
G75*
G02*
X128201250Y-124825000I100000J0D01*
G01*
D16*
%TO.C,U103*%
X139248750Y-65660000D02*
X155248750Y-65660000D01*
X139248750Y-65940000D02*
X139248750Y-65660000D01*
X139248750Y-81380000D02*
X139248750Y-81660000D01*
X139248750Y-81660000D02*
X155248750Y-81660000D01*
X155248750Y-65660000D02*
X155248750Y-65940000D01*
X155248750Y-81660000D02*
X155248750Y-81380000D01*
D14*
X157148750Y-80660000D02*
G75*
G02*
X156948750Y-80660000I-100000J0D01*
G01*
X156948750Y-80660000D02*
G75*
G02*
X157148750Y-80660000I100000J0D01*
G01*
D11*
%TO.C,J101*%
X147291250Y-57635000D02*
X147541250Y-57135000D01*
X147541250Y-57135000D02*
X147791250Y-57635000D01*
X147791250Y-57635000D02*
X147291250Y-57635000D01*
%TO.C,D104*%
X141746250Y-95035000D02*
X141746250Y-97320000D01*
X143216250Y-95035000D02*
X141746250Y-95035000D01*
X143216250Y-97320000D02*
X143216250Y-95035000D01*
D10*
%TO.C,U102*%
X138671250Y-116205000D02*
X156451250Y-116205000D01*
X138671250Y-151765000D02*
X138671250Y-116205000D01*
X142481250Y-126365000D02*
X145656250Y-126365000D01*
X142481250Y-128905000D02*
X142481250Y-126365000D01*
X142481250Y-129540000D02*
X142481250Y-139700000D01*
X142481250Y-139700000D02*
X152641250Y-139700000D01*
X143751250Y-146685000D02*
X143751250Y-151765000D01*
X143751250Y-153035000D02*
X143751250Y-151765000D01*
X145656250Y-126365000D02*
X145656250Y-128905000D01*
X145656250Y-128905000D02*
X142481250Y-128905000D01*
X146291250Y-119253000D02*
X148831250Y-119253000D01*
X146291250Y-123825000D02*
X146291250Y-119253000D01*
X148831250Y-119253000D02*
X148831250Y-123825000D01*
X148831250Y-123825000D02*
X146291250Y-123825000D01*
X151371250Y-146685000D02*
X143751250Y-146685000D01*
X151371250Y-146685000D02*
X151371250Y-151765000D01*
X151371250Y-151765000D02*
X151371250Y-153035000D01*
X151371250Y-153035000D02*
X143751250Y-153035000D01*
X152641250Y-129540000D02*
X142481250Y-129540000D01*
X152641250Y-129540000D02*
X152641250Y-139700000D01*
X156451250Y-116205000D02*
X156451250Y-151765000D01*
X156451250Y-151765000D02*
X138671250Y-151765000D01*
D17*
X147307250Y-136906000D02*
X146926250Y-137160000D01*
X146672250Y-136906000D01*
X147053250Y-136652000D01*
X147307250Y-136906000D01*
G36*
X147307250Y-136906000D02*
G01*
X146926250Y-137160000D01*
X146672250Y-136906000D01*
X147053250Y-136652000D01*
X147307250Y-136906000D01*
G37*
X147434250Y-136144000D02*
X147053250Y-136398000D01*
X146799250Y-136144000D01*
X147180250Y-135890000D01*
X147434250Y-136144000D01*
G36*
X147434250Y-136144000D02*
G01*
X147053250Y-136398000D01*
X146799250Y-136144000D01*
X147180250Y-135890000D01*
X147434250Y-136144000D01*
G37*
X147688250Y-137287000D02*
X147307250Y-137541000D01*
X147053250Y-137287000D01*
X147434250Y-137033000D01*
X147688250Y-137287000D01*
G36*
X147688250Y-137287000D02*
G01*
X147307250Y-137541000D01*
X147053250Y-137287000D01*
X147434250Y-137033000D01*
X147688250Y-137287000D01*
G37*
X147815250Y-136525000D02*
X147434250Y-136779000D01*
X147180250Y-136525000D01*
X147561250Y-136271000D01*
X147815250Y-136525000D01*
G36*
X147815250Y-136525000D02*
G01*
X147434250Y-136779000D01*
X147180250Y-136525000D01*
X147561250Y-136271000D01*
X147815250Y-136525000D01*
G37*
X147942250Y-135763000D02*
X147561250Y-136017000D01*
X147307250Y-135763000D01*
X147688250Y-135509000D01*
X147942250Y-135763000D01*
G36*
X147942250Y-135763000D02*
G01*
X147561250Y-136017000D01*
X147307250Y-135763000D01*
X147688250Y-135509000D01*
X147942250Y-135763000D01*
G37*
X148069250Y-137668000D02*
X147688250Y-137922000D01*
X147434250Y-137668000D01*
X147815250Y-137414000D01*
X148069250Y-137668000D01*
G36*
X148069250Y-137668000D02*
G01*
X147688250Y-137922000D01*
X147434250Y-137668000D01*
X147815250Y-137414000D01*
X148069250Y-137668000D01*
G37*
X148323250Y-136144000D02*
X147942250Y-136398000D01*
X147688250Y-136144000D01*
X148069250Y-135890000D01*
X148323250Y-136144000D01*
G36*
X148323250Y-136144000D02*
G01*
X147942250Y-136398000D01*
X147688250Y-136144000D01*
X148069250Y-135890000D01*
X148323250Y-136144000D01*
G37*
X148450250Y-135382000D02*
X148069250Y-135636000D01*
X147815250Y-135382000D01*
X148196250Y-135128000D01*
X148450250Y-135382000D01*
G36*
X148450250Y-135382000D02*
G01*
X148069250Y-135636000D01*
X147815250Y-135382000D01*
X148196250Y-135128000D01*
X148450250Y-135382000D01*
G37*
D16*
%TO.C,MT101*%
X145848750Y-86380000D02*
X145848750Y-86435000D01*
X145848750Y-86380000D02*
X146403750Y-86380000D01*
X145848750Y-88880000D02*
X145848750Y-88825000D01*
X146403750Y-88880000D02*
X145848750Y-88880000D01*
X148293750Y-86380000D02*
X148848750Y-86380000D01*
X148848750Y-86380000D02*
X148848750Y-86435000D01*
X148848750Y-88825000D02*
X148848750Y-88880000D01*
X148848750Y-88880000D02*
X148293750Y-88880000D01*
D14*
X149448750Y-88380000D02*
G75*
G02*
X149248750Y-88380000I-100000J0D01*
G01*
X149248750Y-88380000D02*
G75*
G02*
X149448750Y-88380000I100000J0D01*
G01*
%TO.C,J105*%
X158820250Y-68560000D02*
X166520250Y-68560000D01*
X158820250Y-78760000D02*
X158820250Y-68560000D01*
X166520250Y-68560000D02*
X166520250Y-78760000D01*
X166520250Y-78760000D02*
X158820250Y-78760000D01*
D15*
X161120250Y-77060000D02*
G75*
G02*
X160920250Y-77060000I-100000J0D01*
G01*
X160920250Y-77060000D02*
G75*
G02*
X161120250Y-77060000I100000J0D01*
G01*
D11*
%TO.C,D102*%
X148519583Y-95035000D02*
X148519583Y-97320000D01*
X149989583Y-95035000D02*
X148519583Y-95035000D01*
X149989583Y-97320000D02*
X149989583Y-95035000D01*
D14*
%TO.C,J108*%
X128581250Y-68560000D02*
X136281250Y-68560000D01*
X128581250Y-78760000D02*
X128581250Y-68560000D01*
X136281250Y-68560000D02*
X136281250Y-78760000D01*
X136281250Y-78760000D02*
X128581250Y-78760000D01*
D15*
X130881250Y-77060000D02*
G75*
G02*
X130681250Y-77060000I-100000J0D01*
G01*
X130681250Y-77060000D02*
G75*
G02*
X130881250Y-77060000I100000J0D01*
G01*
D16*
%TO.C,M102*%
X129781250Y-131445000D02*
X132321250Y-131445000D01*
X129781250Y-139065000D02*
X129781250Y-131445000D01*
X132321250Y-131445000D02*
X132321250Y-139065000D01*
X132321250Y-139065000D02*
X129781250Y-139065000D01*
D14*
X131151250Y-139605000D02*
G75*
G02*
X130951250Y-139605000I-100000J0D01*
G01*
X130951250Y-139605000D02*
G75*
G02*
X131151250Y-139605000I100000J0D01*
G01*
D11*
%TO.C,D101*%
X151906250Y-95035000D02*
X151906250Y-97320000D01*
X153376250Y-95035000D02*
X151906250Y-95035000D01*
X153376250Y-97320000D02*
X153376250Y-95035000D01*
%TO.C,D103*%
X145132917Y-95035000D02*
X145132917Y-97320000D01*
X146602917Y-95035000D02*
X145132917Y-95035000D01*
X146602917Y-97320000D02*
X146602917Y-95035000D01*
D16*
%TO.C,M101*%
X162801250Y-131445000D02*
X165341250Y-131445000D01*
X162801250Y-139065000D02*
X162801250Y-131445000D01*
X165341250Y-131445000D02*
X165341250Y-139065000D01*
X165341250Y-139065000D02*
X162801250Y-139065000D01*
D14*
X164171250Y-139605000D02*
G75*
G02*
X163971250Y-139605000I-100000J0D01*
G01*
X163971250Y-139605000D02*
G75*
G02*
X164171250Y-139605000I100000J0D01*
G01*
D16*
%TO.C,J106*%
X161821250Y-120875000D02*
X166321250Y-120875000D01*
X161821250Y-126775000D02*
X161821250Y-120875000D01*
X166321250Y-120875000D02*
X166321250Y-126775000D01*
X166321250Y-126775000D02*
X161821250Y-126775000D01*
D14*
X167121250Y-122825000D02*
G75*
G02*
X166921250Y-122825000I-100000J0D01*
G01*
X166921250Y-122825000D02*
G75*
G02*
X167121250Y-122825000I100000J0D01*
G01*
%TD*%
M02*
