G04 #@! TF.GenerationSoftware,KiCad,Pcbnew,9.0.6*
G04 #@! TF.CreationDate,2025-12-24T12:42:27-06:00*
G04 #@! TF.ProjectId,TVC,5456432e-6b69-4636-9164-5f7063625858,rev?*
G04 #@! TF.SameCoordinates,Original*
G04 #@! TF.FileFunction,Paste,Bot*
G04 #@! TF.FilePolarity,Positive*
%FSLAX46Y46*%
G04 Gerber Fmt 4.6, Leading zero omitted, Abs format (unit mm)*
G04 Created by KiCad (PCBNEW 9.0.6) date 2025-12-24 12:42:27*
%MOMM*%
%LPD*%
G01*
G04 APERTURE LIST*
G04 Aperture macros list*
%AMRoundRect*
0 Rectangle with rounded corners*
0 $1 Rounding radius*
0 $2 $3 $4 $5 $6 $7 $8 $9 X,Y pos of 4 corners*
0 Add a 4 corners polygon primitive as box body*
4,1,4,$2,$3,$4,$5,$6,$7,$8,$9,$2,$3,0*
0 Add four circle primitives for the rounded corners*
1,1,$1+$1,$2,$3*
1,1,$1+$1,$4,$5*
1,1,$1+$1,$6,$7*
1,1,$1+$1,$8,$9*
0 Add four rect primitives between the rounded corners*
20,1,$1+$1,$2,$3,$4,$5,0*
20,1,$1+$1,$4,$5,$6,$7,0*
20,1,$1+$1,$6,$7,$8,$9,0*
20,1,$1+$1,$8,$9,$2,$3,0*%
G04 Aperture macros list end*
%ADD10R,2.420000X5.080000*%
%ADD11RoundRect,0.250000X-0.475000X0.250000X-0.475000X-0.250000X0.475000X-0.250000X0.475000X0.250000X0*%
%ADD12RoundRect,0.250000X0.475000X-0.250000X0.475000X0.250000X-0.475000X0.250000X-0.475000X-0.250000X0*%
%ADD13RoundRect,0.250000X-0.262500X-0.450000X0.262500X-0.450000X0.262500X0.450000X-0.262500X0.450000X0*%
%ADD14RoundRect,0.250000X0.450000X-0.262500X0.450000X0.262500X-0.450000X0.262500X-0.450000X-0.262500X0*%
%ADD15RoundRect,0.250000X0.262500X0.450000X-0.262500X0.450000X-0.262500X-0.450000X0.262500X-0.450000X0*%
G04 #@! TA.AperFunction,Profile*
%ADD16C,0.200000*%
G04 #@! TD*
G04 APERTURE END LIST*
D10*
X151921250Y-53415000D03*
X143161250Y-53415000D03*
D11*
X149254584Y-78425000D03*
X149254584Y-80325000D03*
D12*
X142481250Y-85405000D03*
X142481250Y-83505000D03*
X149254584Y-76388000D03*
X149254584Y-74488000D03*
D13*
X146521750Y-86868000D03*
X148346750Y-86868000D03*
D11*
X152641250Y-78425000D03*
X152641250Y-80325000D03*
D12*
X139306250Y-91477500D03*
X139306250Y-89577500D03*
D13*
X142838750Y-113919000D03*
X144663750Y-113919000D03*
X146521750Y-83693000D03*
X148346750Y-83693000D03*
D14*
X152641250Y-91440000D03*
X152641250Y-89615000D03*
D11*
X145867917Y-78425000D03*
X145867917Y-80325000D03*
X152641250Y-85410000D03*
X152641250Y-87310000D03*
D12*
X139306250Y-85405000D03*
X139306250Y-83505000D03*
D14*
X145867917Y-91440000D03*
X145867917Y-89615000D03*
X149254583Y-91440000D03*
X149254583Y-89615000D03*
D12*
X156451250Y-87310000D03*
X156451250Y-85410000D03*
D14*
X142481250Y-91440000D03*
X142481250Y-89615000D03*
D15*
X159903750Y-122555000D03*
X158078750Y-122555000D03*
D13*
X161380750Y-113919000D03*
X163205750Y-113919000D03*
D16*
X128511250Y-50165000D02*
X166611250Y-50165000D01*
X166611250Y-151765000D01*
X128511250Y-151765000D01*
X128511250Y-50165000D01*
M02*
