G04 #@! TF.GenerationSoftware,KiCad,Pcbnew,9.0.6*
G04 #@! TF.CreationDate,2025-12-24T12:42:27-06:00*
G04 #@! TF.ProjectId,TVC,5456432e-6b69-4636-9164-5f7063625858,rev?*
G04 #@! TF.SameCoordinates,Original*
G04 #@! TF.FileFunction,Legend,Bot*
G04 #@! TF.FilePolarity,Positive*
%FSLAX46Y46*%
G04 Gerber Fmt 4.6, Leading zero omitted, Abs format (unit mm)*
G04 Created by KiCad (PCBNEW 9.0.6) date 2025-12-24 12:42:27*
%MOMM*%
%LPD*%
G01*
G04 APERTURE LIST*
G04 Aperture macros list*
%AMRoundRect*
0 Rectangle with rounded corners*
0 $1 Rounding radius*
0 $2 $3 $4 $5 $6 $7 $8 $9 X,Y pos of 4 corners*
0 Add a 4 corners polygon primitive as box body*
4,1,4,$2,$3,$4,$5,$6,$7,$8,$9,$2,$3,0*
0 Add four circle primitives for the rounded corners*
1,1,$1+$1,$2,$3*
1,1,$1+$1,$4,$5*
1,1,$1+$1,$6,$7*
1,1,$1+$1,$8,$9*
0 Add four rect primitives between the rounded corners*
20,1,$1+$1,$2,$3,$4,$5,0*
20,1,$1+$1,$4,$5,$6,$7,0*
20,1,$1+$1,$6,$7,$8,$9,0*
20,1,$1+$1,$8,$9,$2,$3,0*%
G04 Aperture macros list end*
%ADD10C,0.120000*%
%ADD11C,2.154000*%
%ADD12C,7.000000*%
%ADD13RoundRect,0.102000X-0.654000X0.654000X-0.654000X-0.654000X0.654000X-0.654000X0.654000X0.654000X0*%
%ADD14C,1.512000*%
%ADD15R,2.420000X5.080000*%
%ADD16C,1.600000*%
%ADD17RoundRect,0.102000X0.937500X-0.937500X0.937500X0.937500X-0.937500X0.937500X-0.937500X-0.937500X0*%
%ADD18C,2.079000*%
%ADD19RoundRect,0.102000X0.654000X-0.654000X0.654000X0.654000X-0.654000X0.654000X-0.654000X-0.654000X0*%
%ADD20RoundRect,0.250000X-0.475000X0.250000X-0.475000X-0.250000X0.475000X-0.250000X0.475000X0.250000X0*%
%ADD21RoundRect,0.250000X0.475000X-0.250000X0.475000X0.250000X-0.475000X0.250000X-0.475000X-0.250000X0*%
%ADD22RoundRect,0.250000X-0.262500X-0.450000X0.262500X-0.450000X0.262500X0.450000X-0.262500X0.450000X0*%
%ADD23RoundRect,0.250000X0.450000X-0.262500X0.450000X0.262500X-0.450000X0.262500X-0.450000X-0.262500X0*%
%ADD24RoundRect,0.250000X0.262500X0.450000X-0.262500X0.450000X-0.262500X-0.450000X0.262500X-0.450000X0*%
G04 #@! TA.AperFunction,Profile*
%ADD25C,0.200000*%
G04 #@! TD*
G04 APERTURE END LIST*
D10*
X148519584Y-79113748D02*
X148519584Y-79636252D01*
X149989584Y-79113748D02*
X149989584Y-79636252D01*
X141746250Y-84716252D02*
X141746250Y-84193748D01*
X143216250Y-84716252D02*
X143216250Y-84193748D01*
X148519584Y-75699252D02*
X148519584Y-75176748D01*
X149989584Y-75699252D02*
X149989584Y-75176748D01*
X147207186Y-86133000D02*
X147661314Y-86133000D01*
X147207186Y-87603000D02*
X147661314Y-87603000D01*
X151906250Y-79113748D02*
X151906250Y-79636252D01*
X153376250Y-79113748D02*
X153376250Y-79636252D01*
X138571250Y-90788752D02*
X138571250Y-90266248D01*
X140041250Y-90788752D02*
X140041250Y-90266248D01*
X143524186Y-113184000D02*
X143978314Y-113184000D01*
X143524186Y-114654000D02*
X143978314Y-114654000D01*
X147207186Y-82958000D02*
X147661314Y-82958000D01*
X147207186Y-84428000D02*
X147661314Y-84428000D01*
X151906250Y-90754564D02*
X151906250Y-90300436D01*
X153376250Y-90754564D02*
X153376250Y-90300436D01*
X145132917Y-79113748D02*
X145132917Y-79636252D01*
X146602917Y-79113748D02*
X146602917Y-79636252D01*
X151906250Y-86098748D02*
X151906250Y-86621252D01*
X153376250Y-86098748D02*
X153376250Y-86621252D01*
X138571250Y-84716252D02*
X138571250Y-84193748D01*
X140041250Y-84716252D02*
X140041250Y-84193748D01*
X145132917Y-90754564D02*
X145132917Y-90300436D01*
X146602917Y-90754564D02*
X146602917Y-90300436D01*
X148519583Y-90754564D02*
X148519583Y-90300436D01*
X149989583Y-90754564D02*
X149989583Y-90300436D01*
X155716250Y-86621252D02*
X155716250Y-86098748D01*
X157186250Y-86621252D02*
X157186250Y-86098748D01*
X141746250Y-90754564D02*
X141746250Y-90300436D01*
X143216250Y-90754564D02*
X143216250Y-90300436D01*
X159218314Y-121820000D02*
X158764186Y-121820000D01*
X159218314Y-123290000D02*
X158764186Y-123290000D01*
X162066186Y-113184000D02*
X162520314Y-113184000D01*
X162066186Y-114654000D02*
X162520314Y-114654000D01*
%LPC*%
D11*
X162814000Y-101640000D03*
X162814000Y-106640000D03*
X162814000Y-76160000D03*
X162814000Y-71160000D03*
X132321250Y-106640000D03*
X132321250Y-101640000D03*
D12*
X132956250Y-54610000D03*
D13*
X130501250Y-124825000D03*
D14*
X130501250Y-122825000D03*
D15*
X151921250Y-53415000D03*
X143161250Y-53415000D03*
D16*
X155181250Y-150495000D03*
X155181250Y-147955000D03*
X155181250Y-145415000D03*
X155181250Y-142875000D03*
X155181250Y-140335000D03*
X155181250Y-137795000D03*
X155181250Y-135255000D03*
X155181250Y-132715000D03*
X155181250Y-130175000D03*
X155181250Y-127635000D03*
X155181250Y-125095000D03*
X155181250Y-122555000D03*
X155181250Y-120015000D03*
X155181250Y-117475000D03*
X152641250Y-117475000D03*
X150101250Y-117475000D03*
X147561250Y-117475000D03*
X145021250Y-117475000D03*
X142481250Y-117475000D03*
X139941250Y-117475000D03*
X139941250Y-120015000D03*
X139941250Y-122555000D03*
X139941250Y-125095000D03*
X139941250Y-127635000D03*
X139941250Y-130175000D03*
X139941250Y-132715000D03*
X139941250Y-135255000D03*
X139941250Y-137795000D03*
X139941250Y-140335000D03*
X139941250Y-142875000D03*
X139941250Y-145415000D03*
X139941250Y-147955000D03*
X139941250Y-150495000D03*
X142481250Y-147955000D03*
X142481250Y-122555000D03*
X142481250Y-125095000D03*
X145021250Y-122555000D03*
X145021250Y-125095000D03*
X147561250Y-122555000D03*
X147561250Y-125095000D03*
X150101250Y-122555000D03*
X150101250Y-125095000D03*
X152641250Y-122555000D03*
X152641250Y-125095000D03*
D12*
X162166250Y-54610000D03*
X162166250Y-147320000D03*
D11*
X132321250Y-76160000D03*
X132321250Y-71160000D03*
D17*
X131051250Y-137795000D03*
D18*
X131051250Y-135255000D03*
X131051250Y-132715000D03*
D12*
X132956250Y-147320000D03*
D17*
X164071250Y-137795000D03*
D18*
X164071250Y-135255000D03*
X164071250Y-132715000D03*
D19*
X164621250Y-122825000D03*
D14*
X164621250Y-124825000D03*
D20*
X149254584Y-78425000D03*
X149254584Y-80325000D03*
D21*
X142481250Y-85405000D03*
X142481250Y-83505000D03*
X149254584Y-76388000D03*
X149254584Y-74488000D03*
D22*
X146521750Y-86868000D03*
X148346750Y-86868000D03*
D20*
X152641250Y-78425000D03*
X152641250Y-80325000D03*
D21*
X139306250Y-91477500D03*
X139306250Y-89577500D03*
D22*
X142838750Y-113919000D03*
X144663750Y-113919000D03*
X146521750Y-83693000D03*
X148346750Y-83693000D03*
D23*
X152641250Y-91440000D03*
X152641250Y-89615000D03*
D20*
X145867917Y-78425000D03*
X145867917Y-80325000D03*
X152641250Y-85410000D03*
X152641250Y-87310000D03*
D21*
X139306250Y-85405000D03*
X139306250Y-83505000D03*
D23*
X145867917Y-91440000D03*
X145867917Y-89615000D03*
X149254583Y-91440000D03*
X149254583Y-89615000D03*
D21*
X156451250Y-87310000D03*
X156451250Y-85410000D03*
D23*
X142481250Y-91440000D03*
X142481250Y-89615000D03*
D24*
X159903750Y-122555000D03*
X158078750Y-122555000D03*
D22*
X161380750Y-113919000D03*
X163205750Y-113919000D03*
%LPD*%
D25*
X128511250Y-50165000D02*
X166611250Y-50165000D01*
X166611250Y-151765000D01*
X128511250Y-151765000D01*
X128511250Y-50165000D01*
M02*
