G04 #@! TF.GenerationSoftware,KiCad,Pcbnew,9.0.6*
G04 #@! TF.CreationDate,2025-12-24T12:42:27-06:00*
G04 #@! TF.ProjectId,TVC,5456432e-6b69-4636-9164-5f7063625858,rev?*
G04 #@! TF.SameCoordinates,Original*
G04 #@! TF.FileFunction,Copper,L1,Top*
G04 #@! TF.FilePolarity,Positive*
%FSLAX46Y46*%
G04 Gerber Fmt 4.6, Leading zero omitted, Abs format (unit mm)*
G04 Created by KiCad (PCBNEW 9.0.6) date 2025-12-24 12:42:27*
%MOMM*%
%LPD*%
G01*
G04 APERTURE LIST*
G04 Aperture macros list*
%AMRoundRect*
0 Rectangle with rounded corners*
0 $1 Rounding radius*
0 $2 $3 $4 $5 $6 $7 $8 $9 X,Y pos of 4 corners*
0 Add a 4 corners polygon primitive as box body*
4,1,4,$2,$3,$4,$5,$6,$7,$8,$9,$2,$3,0*
0 Add four circle primitives for the rounded corners*
1,1,$1+$1,$2,$3*
1,1,$1+$1,$4,$5*
1,1,$1+$1,$6,$7*
1,1,$1+$1,$8,$9*
0 Add four rect primitives between the rounded corners*
20,1,$1+$1,$2,$3,$4,$5,0*
20,1,$1+$1,$4,$5,$6,$7,0*
20,1,$1+$1,$6,$7,$8,$9,0*
20,1,$1+$1,$8,$9,$2,$3,0*%
G04 Aperture macros list end*
G04 #@! TA.AperFunction,ComponentPad*
%ADD10C,1.950000*%
G04 #@! TD*
G04 #@! TA.AperFunction,SMDPad,CuDef*
%ADD11R,2.000000X0.800000*%
G04 #@! TD*
G04 #@! TA.AperFunction,SMDPad,CuDef*
%ADD12RoundRect,0.087500X-0.487500X-0.087500X0.487500X-0.087500X0.487500X0.087500X-0.487500X0.087500X0*%
G04 #@! TD*
G04 #@! TA.AperFunction,SMDPad,CuDef*
%ADD13RoundRect,0.050000X-0.675000X-0.050000X0.675000X-0.050000X0.675000X0.050000X-0.675000X0.050000X0*%
G04 #@! TD*
G04 #@! TA.AperFunction,SMDPad,CuDef*
%ADD14RoundRect,0.062500X-0.162500X-0.062500X0.162500X-0.062500X0.162500X0.062500X-0.162500X0.062500X0*%
G04 #@! TD*
G04 #@! TA.AperFunction,SMDPad,CuDef*
%ADD15R,2.350000X5.100000*%
G04 #@! TD*
G04 #@! TA.AperFunction,SMDPad,CuDef*
%ADD16R,0.254000X0.279400*%
G04 #@! TD*
G04 #@! TA.AperFunction,SMDPad,CuDef*
%ADD17R,0.279400X0.254000*%
G04 #@! TD*
G04 #@! TA.AperFunction,SMDPad,CuDef*
%ADD18R,2.200000X2.200000*%
G04 #@! TD*
G04 #@! TA.AperFunction,SMDPad,CuDef*
%ADD19RoundRect,0.150000X0.150000X-0.587500X0.150000X0.587500X-0.150000X0.587500X-0.150000X-0.587500X0*%
G04 #@! TD*
G04 #@! TA.AperFunction,SMDPad,CuDef*
%ADD20RoundRect,0.162500X-0.162500X0.650000X-0.162500X-0.650000X0.162500X-0.650000X0.162500X0.650000X0*%
G04 #@! TD*
G04 #@! TA.AperFunction,ComponentPad*
%ADD21C,7.000000*%
G04 #@! TD*
G04 #@! TA.AperFunction,ComponentPad*
%ADD22R,1.308000X1.308000*%
G04 #@! TD*
G04 #@! TA.AperFunction,ComponentPad*
%ADD23C,1.308000*%
G04 #@! TD*
G04 #@! TA.AperFunction,SMDPad,CuDef*
%ADD24R,2.290000X5.080000*%
G04 #@! TD*
G04 #@! TA.AperFunction,SMDPad,CuDef*
%ADD25R,2.420000X5.080000*%
G04 #@! TD*
G04 #@! TA.AperFunction,SMDPad,CuDef*
%ADD26R,0.460000X0.950000*%
G04 #@! TD*
G04 #@! TA.AperFunction,ComponentPad*
%ADD27C,0.970000*%
G04 #@! TD*
G04 #@! TA.AperFunction,SMDPad,CuDef*
%ADD28RoundRect,0.218750X-0.256250X0.218750X-0.256250X-0.218750X0.256250X-0.218750X0.256250X0.218750X0*%
G04 #@! TD*
G04 #@! TA.AperFunction,ComponentPad*
%ADD29C,1.600000*%
G04 #@! TD*
G04 #@! TA.AperFunction,SMDPad,CuDef*
%ADD30R,0.475000X0.250000*%
G04 #@! TD*
G04 #@! TA.AperFunction,SMDPad,CuDef*
%ADD31R,0.250000X0.475000*%
G04 #@! TD*
G04 #@! TA.AperFunction,ComponentPad*
%ADD32R,1.875000X1.875000*%
G04 #@! TD*
G04 #@! TA.AperFunction,ComponentPad*
%ADD33C,1.875000*%
G04 #@! TD*
G04 #@! TA.AperFunction,ViaPad*
%ADD34C,0.600000*%
G04 #@! TD*
G04 #@! TA.AperFunction,Conductor*
%ADD35C,0.200000*%
G04 #@! TD*
G04 #@! TA.AperFunction,Profile*
%ADD36C,0.200000*%
G04 #@! TD*
G04 APERTURE END LIST*
D10*
X162814000Y-101640000D03*
X162814000Y-106640000D03*
X162814000Y-76160000D03*
X162814000Y-71160000D03*
D11*
X155348750Y-80660000D03*
X155348750Y-78660000D03*
X155348750Y-76660000D03*
X155348750Y-74660000D03*
X155348750Y-72660000D03*
X155348750Y-70660000D03*
X155348750Y-68660000D03*
X155348750Y-66660000D03*
X139148750Y-66660000D03*
X139148750Y-68660000D03*
X139148750Y-70660000D03*
X139148750Y-72660000D03*
X139148750Y-74660000D03*
X139148750Y-76660000D03*
X139148750Y-78660000D03*
X139148750Y-80660000D03*
D12*
X140239250Y-87080000D03*
D13*
X140389250Y-87630000D03*
D12*
X140239250Y-88180000D03*
D14*
X141839250Y-88380000D03*
X141839250Y-87880000D03*
X141839250Y-87380000D03*
X141839250Y-86880000D03*
D15*
X130711250Y-85725000D03*
X134861250Y-85725000D03*
D16*
X154296250Y-88417400D03*
X154796250Y-88417400D03*
D17*
X155333650Y-88129999D03*
X155333650Y-87630000D03*
X155333650Y-87130001D03*
D16*
X154796250Y-86842600D03*
X154296250Y-86842600D03*
D17*
X153758850Y-87130001D03*
X153758850Y-87630000D03*
X153758850Y-88129999D03*
D18*
X140961250Y-104775000D03*
X154161250Y-104775000D03*
D10*
X132321250Y-106640000D03*
X132321250Y-101640000D03*
D19*
X137721250Y-96822500D03*
X139621250Y-96822500D03*
X138671250Y-94947500D03*
D20*
X164071250Y-80867500D03*
X162801250Y-80867500D03*
X161531250Y-80867500D03*
X160261250Y-80867500D03*
X160261250Y-88042500D03*
X161531250Y-88042500D03*
X162801250Y-88042500D03*
X164071250Y-88042500D03*
D19*
X161216250Y-94155500D03*
X163116250Y-94155500D03*
X162166250Y-92280500D03*
D21*
X132956250Y-54610000D03*
D22*
X130501250Y-124825000D03*
D23*
X130501250Y-122825000D03*
D24*
X147541250Y-53415000D03*
D25*
X151921250Y-53415000D03*
X143161250Y-53415000D03*
D26*
X151921250Y-56405000D03*
X143161250Y-56405000D03*
D27*
X151921250Y-56855000D03*
X143161250Y-56855000D03*
D28*
X142481250Y-95732500D03*
X142481250Y-97307500D03*
D29*
X155181250Y-150495000D03*
X155181250Y-147955000D03*
X155181250Y-145415000D03*
X155181250Y-142875000D03*
X155181250Y-140335000D03*
X155181250Y-137795000D03*
X155181250Y-135255000D03*
X155181250Y-132715000D03*
X155181250Y-130175000D03*
X155181250Y-127635000D03*
X155181250Y-125095000D03*
X155181250Y-122555000D03*
X155181250Y-120015000D03*
X155181250Y-117475000D03*
X152641250Y-117475000D03*
X150101250Y-117475000D03*
X147561250Y-117475000D03*
X145021250Y-117475000D03*
X142481250Y-117475000D03*
X139941250Y-117475000D03*
X139941250Y-120015000D03*
X139941250Y-122555000D03*
X139941250Y-125095000D03*
X139941250Y-127635000D03*
X139941250Y-130175000D03*
X139941250Y-132715000D03*
X139941250Y-135255000D03*
X139941250Y-137795000D03*
X139941250Y-140335000D03*
X139941250Y-142875000D03*
X139941250Y-145415000D03*
X139941250Y-147955000D03*
X139941250Y-150495000D03*
X142481250Y-147955000D03*
X142481250Y-122555000D03*
X142481250Y-125095000D03*
X145021250Y-122555000D03*
X145021250Y-125095000D03*
X147561250Y-122555000D03*
X147561250Y-125095000D03*
X150101250Y-122555000D03*
X150101250Y-125095000D03*
X152641250Y-122555000D03*
X152641250Y-125095000D03*
D30*
X148511250Y-88380000D03*
X148511250Y-87880000D03*
X148511250Y-87380000D03*
X148511250Y-86880000D03*
D31*
X147848750Y-86717500D03*
X147348750Y-86717500D03*
X146848750Y-86717500D03*
D30*
X146186250Y-86880000D03*
X146186250Y-87380000D03*
X146186250Y-87880000D03*
X146186250Y-88380000D03*
D31*
X146848750Y-88542500D03*
X147348750Y-88542500D03*
X147848750Y-88542500D03*
D21*
X162166250Y-54610000D03*
D28*
X149254583Y-95732500D03*
X149254583Y-97307500D03*
D21*
X162166250Y-147320000D03*
D10*
X132321250Y-76160000D03*
X132321250Y-71160000D03*
D32*
X131051250Y-137795000D03*
D33*
X131051250Y-135255000D03*
X131051250Y-132715000D03*
D21*
X132956250Y-147320000D03*
D28*
X152641250Y-95732500D03*
X152641250Y-97307500D03*
X145867917Y-95732500D03*
X145867917Y-97307500D03*
D32*
X164071250Y-137795000D03*
D33*
X164071250Y-135255000D03*
X164071250Y-132715000D03*
D22*
X164621250Y-122825000D03*
D23*
X164621250Y-124825000D03*
D34*
X131686250Y-91440000D03*
X144894250Y-90551000D03*
X140957250Y-88900000D03*
X155045150Y-89535000D03*
X149847250Y-135509000D03*
X151371250Y-121031000D03*
X147561250Y-74676000D03*
X164071250Y-89535000D03*
X145867917Y-85090000D03*
X152641250Y-93515000D03*
X149251250Y-93515000D03*
X145861250Y-93515000D03*
X145867917Y-101600000D03*
X142481250Y-93515000D03*
X145529250Y-108204000D03*
X142481250Y-98933000D03*
X146926250Y-108204000D03*
X150863250Y-82931000D03*
X150863250Y-84963000D03*
X150863250Y-77597000D03*
X137401250Y-92710000D03*
X133210250Y-92710000D03*
X159626250Y-86106000D03*
X158356250Y-87376000D03*
X147348750Y-89957500D03*
X155816250Y-90170000D03*
X147348750Y-105197500D03*
X148069250Y-92837000D03*
X148196250Y-105197500D03*
X151371250Y-112903000D03*
X146695088Y-90527500D03*
X150229583Y-95758000D03*
X157614485Y-86253235D03*
X161424485Y-84455000D03*
X150228250Y-88646000D03*
X157445000Y-88310000D03*
X149361765Y-105514485D03*
X161197250Y-78660000D03*
X156245000Y-88310000D03*
X156959250Y-78660000D03*
X159753250Y-113919000D03*
X158991250Y-116967000D03*
X137721250Y-99380000D03*
X141211250Y-113919000D03*
X142862250Y-88602500D03*
X160261250Y-82931000D03*
X160769250Y-134747000D03*
X157721250Y-137795000D03*
X154356383Y-84431933D03*
X161277250Y-122555000D03*
X163944250Y-85725000D03*
X155181250Y-84455000D03*
X150736250Y-72660000D03*
X135285515Y-90594265D03*
X161531250Y-82931000D03*
X158991250Y-142875000D03*
X136779479Y-81029271D03*
X136779479Y-89525432D03*
X163055250Y-141605000D03*
X136131250Y-79677500D03*
X136131250Y-89994265D03*
X138430000Y-147066000D03*
X143637000Y-89535000D03*
X130937000Y-140589000D03*
X153035000Y-81788000D03*
X150101250Y-144780000D03*
X156464000Y-85344000D03*
X131064000Y-130937000D03*
X148844000Y-143764000D03*
X134239000Y-138176000D03*
X164084000Y-130810000D03*
X148831250Y-144780000D03*
X152019000Y-81788000D03*
X147320000Y-67818000D03*
X137414000Y-141224000D03*
X156210000Y-81788000D03*
X163449000Y-111125000D03*
X131953000Y-124841000D03*
X151384000Y-143764000D03*
X145034000Y-145796000D03*
X153289000Y-150495000D03*
X130810000Y-80010000D03*
X159543500Y-80867500D03*
X151384000Y-145796000D03*
X144272000Y-104775000D03*
X146291250Y-144780000D03*
X162814000Y-124460000D03*
X140843000Y-53467000D03*
X159004000Y-135255000D03*
X145021250Y-144780000D03*
X145034000Y-143764000D03*
X144145000Y-91821000D03*
X142494000Y-82423000D03*
X143751250Y-144780000D03*
X157734000Y-73660000D03*
X142367000Y-150622000D03*
X138176000Y-89027000D03*
X147574000Y-143764000D03*
X139700000Y-109474000D03*
X147001390Y-85697018D03*
X158369000Y-88392000D03*
X135001000Y-140589000D03*
X138176000Y-90297000D03*
X148844000Y-145796000D03*
X144018000Y-111506000D03*
X147574000Y-115824000D03*
X162560000Y-104140000D03*
X145367250Y-85979000D03*
X151371250Y-144780000D03*
X146304000Y-145796000D03*
X144272000Y-99060000D03*
X134239000Y-135636000D03*
X153543000Y-66675000D03*
X147574000Y-145796000D03*
X147574000Y-112776000D03*
X152654000Y-84328000D03*
X141732000Y-76200000D03*
X146304000Y-143764000D03*
X134874000Y-81788000D03*
X143764000Y-143764000D03*
X162433000Y-117983000D03*
X145923000Y-89662000D03*
X147561250Y-144780000D03*
X137668000Y-102108000D03*
X132334000Y-113157000D03*
X131064000Y-129032000D03*
X150876000Y-74549000D03*
X150114000Y-145796000D03*
X142748000Y-80518000D03*
X134239000Y-133096000D03*
X163449000Y-84709000D03*
X163703000Y-96774000D03*
X163449000Y-78740000D03*
X140843000Y-68707000D03*
X161798000Y-99314000D03*
X163195000Y-115316000D03*
X152654000Y-89535000D03*
X139319000Y-82423000D03*
X154051000Y-89662000D03*
X154940000Y-81788000D03*
X143764000Y-145796000D03*
X165354000Y-79502000D03*
X154305000Y-53467000D03*
X140843000Y-86360000D03*
X140843000Y-83693000D03*
X150114000Y-143764000D03*
X150736250Y-70660000D03*
D35*
X150863250Y-84963000D02*
X150863250Y-90337000D01*
X150863250Y-90337000D02*
X158496000Y-97969750D01*
X158496000Y-97969750D02*
X158496000Y-102322000D01*
X158496000Y-102322000D02*
X162814000Y-106640000D01*
X157721250Y-113550750D02*
X160173537Y-111098463D01*
X164090000Y-102916000D02*
X162814000Y-101640000D01*
X160173537Y-111085000D02*
X164090000Y-107168537D01*
X157721250Y-117925000D02*
X157721250Y-113550750D01*
X164621250Y-124825000D02*
X157721250Y-117925000D01*
X160173537Y-111098463D02*
X160173537Y-111085000D01*
X164090000Y-107168537D02*
X164090000Y-102916000D01*
X158991250Y-113157000D02*
X158991250Y-113042750D01*
X161216250Y-97094000D02*
X161216250Y-94155500D01*
X158991250Y-113042750D02*
X164846000Y-107188000D01*
X164846000Y-107188000D02*
X164846000Y-100723750D01*
X164846000Y-100723750D02*
X161216250Y-97094000D01*
X162814000Y-76160000D02*
X162814000Y-74930000D01*
X162814000Y-74930000D02*
X157480000Y-69596000D01*
X157480000Y-69596000D02*
X133885250Y-69596000D01*
X133885250Y-69596000D02*
X132321250Y-71160000D01*
X158610250Y-79756000D02*
X160642250Y-77724000D01*
X164378000Y-71160000D02*
X162821250Y-71160000D01*
X165354000Y-72136000D02*
X164378000Y-71160000D01*
X160642250Y-77724000D02*
X164338000Y-77724000D01*
X164338000Y-77724000D02*
X165354000Y-76708000D01*
X165354000Y-76708000D02*
X165354000Y-72136000D01*
X162166250Y-76160000D02*
X162420250Y-76160000D01*
X138036250Y-123190000D02*
X139941250Y-125095000D01*
X138036250Y-107700000D02*
X138036250Y-123190000D01*
X140961250Y-104775000D02*
X138036250Y-107700000D01*
X142731250Y-87880000D02*
X141839250Y-87880000D01*
X129146250Y-140335000D02*
X130416250Y-141605000D01*
X135496250Y-141605000D02*
X137401250Y-143510000D01*
X132321250Y-101640000D02*
X130711250Y-100030000D01*
X142731250Y-87372000D02*
X144259250Y-88900000D01*
X142239250Y-86880000D02*
X141839250Y-86880000D01*
X144259250Y-89916000D02*
X144894250Y-90551000D01*
X142731250Y-87880000D02*
X142731250Y-87372000D01*
X132321250Y-101640000D02*
X132321250Y-101600000D01*
X142731250Y-87372000D02*
X142239250Y-86880000D01*
X129146250Y-104815000D02*
X129146250Y-140335000D01*
X137401250Y-147955000D02*
X139941250Y-150495000D01*
X131686250Y-91440000D02*
X130711250Y-91440000D01*
X130711250Y-91440000D02*
X130711250Y-85725000D01*
X132321250Y-101640000D02*
X129146250Y-104815000D01*
X137401250Y-143510000D02*
X137401250Y-147955000D01*
X144259250Y-88900000D02*
X144259250Y-89916000D01*
X130711250Y-100030000D02*
X130711250Y-91440000D01*
X130416250Y-141605000D02*
X135496250Y-141605000D01*
X136851250Y-88180000D02*
X134226250Y-90805000D01*
X134226250Y-96570032D02*
X134247218Y-96591000D01*
X162801250Y-136525000D02*
X164071250Y-135255000D01*
X132321250Y-136525000D02*
X162801250Y-136525000D01*
X140239250Y-88180000D02*
X140239250Y-88182000D01*
X134226250Y-96591000D02*
X134226250Y-132080000D01*
X131051250Y-135255000D02*
X132321250Y-136525000D01*
X134226250Y-90805000D02*
X134226250Y-96570032D01*
X134247218Y-96591000D02*
X134226250Y-96591000D01*
X140239250Y-88182000D02*
X140957250Y-88900000D01*
X134226250Y-132080000D02*
X131051250Y-135255000D01*
X140239250Y-88180000D02*
X136851250Y-88180000D01*
X147561250Y-74676000D02*
X147545250Y-74660000D01*
X154296250Y-88786100D02*
X153882350Y-88786100D01*
X153882350Y-88786100D02*
X153758850Y-88662600D01*
X147545250Y-74660000D02*
X139148750Y-74660000D01*
X149847250Y-135509000D02*
X151371250Y-133985000D01*
X151371250Y-133985000D02*
X151371250Y-121031000D01*
X153758850Y-88662600D02*
X153758850Y-88129999D01*
X164071250Y-89535000D02*
X164071250Y-88042500D01*
X154478200Y-88968050D02*
X154296250Y-88786100D01*
X155045150Y-89535000D02*
X154478200Y-88968050D01*
X154296250Y-88786100D02*
X154296250Y-88417400D01*
X147447000Y-85090000D02*
X147848750Y-85491750D01*
X145867917Y-85090000D02*
X146186250Y-85408333D01*
X147848750Y-85491750D02*
X147848750Y-86717500D01*
X146186250Y-85408333D02*
X146186250Y-86880000D01*
X145867917Y-85090000D02*
X147447000Y-85090000D01*
X152641250Y-93515000D02*
X152641250Y-95732500D01*
X139941250Y-102870000D02*
X147078750Y-102870000D01*
X136766250Y-124460000D02*
X136766250Y-106045000D01*
X139941250Y-127635000D02*
X136766250Y-124460000D01*
X147078750Y-102870000D02*
X152641250Y-97307500D01*
X136766250Y-106045000D02*
X139941250Y-102870000D01*
X149254583Y-93518333D02*
X149254583Y-95732500D01*
X149251250Y-93515000D02*
X149254583Y-93518333D01*
X155181250Y-125095000D02*
X156451250Y-123825000D01*
X150042083Y-96520000D02*
X153069850Y-96520000D01*
X156451250Y-99901400D02*
X156451250Y-111125000D01*
X149254583Y-97307500D02*
X150042083Y-96520000D01*
X153069850Y-96520000D02*
X156451250Y-99901400D01*
X156451250Y-123825000D02*
X156451250Y-111125000D01*
X145867917Y-93521667D02*
X145867917Y-95732500D01*
X145861250Y-93515000D02*
X145867917Y-93521667D01*
X145867917Y-97307500D02*
X145867917Y-101388333D01*
X142481250Y-93515000D02*
X142481250Y-95732500D01*
X142481250Y-98933000D02*
X142481250Y-97307500D01*
X146926250Y-108204000D02*
X145529250Y-108204000D01*
X132181250Y-71160000D02*
X132321250Y-71160000D01*
X150863250Y-82931000D02*
X150863250Y-77597000D01*
X162420250Y-71160000D02*
X162166250Y-71160000D01*
X138671250Y-93980000D02*
X138671250Y-94947500D01*
X137401250Y-92710000D02*
X138671250Y-93980000D01*
X133210250Y-92710000D02*
X133210250Y-77189000D01*
X132321250Y-76300000D02*
X132321250Y-76160000D01*
X133210250Y-77189000D02*
X132321250Y-76300000D01*
X157594250Y-84074000D02*
X157594250Y-76905500D01*
X157594250Y-76905500D02*
X155348750Y-74660000D01*
X147348750Y-105197500D02*
X139941250Y-112605000D01*
X161531250Y-88854999D02*
X161531250Y-88042500D01*
X158356250Y-89437400D02*
X160948849Y-89437400D01*
X147348750Y-89957500D02*
X147348750Y-88542500D01*
X159131000Y-88662650D02*
X159131000Y-88150750D01*
X155816250Y-89437400D02*
X154796250Y-88417400D01*
X155816250Y-89437400D02*
X158356250Y-89437400D01*
X158356250Y-89437400D02*
X159131000Y-88662650D01*
X155816250Y-90170000D02*
X155816250Y-89437400D01*
X159131000Y-88150750D02*
X158356250Y-87376000D01*
X160948849Y-89437400D02*
X161531250Y-88854999D01*
X139941250Y-112605000D02*
X139941250Y-117475000D01*
X159626250Y-86106000D02*
X157594250Y-84074000D01*
X144767250Y-83820000D02*
X151625250Y-83820000D01*
X155181250Y-120015000D02*
X153742250Y-118576000D01*
X157086250Y-87630000D02*
X155333650Y-87630000D01*
X148069250Y-92837000D02*
X144767250Y-89535000D01*
X148069250Y-88763000D02*
X147848750Y-88542500D01*
X158467500Y-86248750D02*
X157086250Y-87630000D01*
X152514250Y-82931000D02*
X155149750Y-82931000D01*
X147101250Y-76660000D02*
X155348750Y-76660000D01*
X151625250Y-83820000D02*
X152514250Y-82931000D01*
X155149750Y-82931000D02*
X158467500Y-86248750D01*
X158467500Y-86248750D02*
X160261250Y-88042500D01*
X144767250Y-89535000D02*
X144767250Y-83820000D01*
X144767250Y-78994000D02*
X147101250Y-76660000D01*
X153742250Y-110743500D02*
X148196250Y-105197500D01*
X144767250Y-83820000D02*
X144767250Y-78994000D01*
X153742250Y-118576000D02*
X153742250Y-110743500D01*
X148069250Y-92837000D02*
X148069250Y-88763000D01*
X151371250Y-112903000D02*
X151371250Y-118745000D01*
X151371250Y-118745000D02*
X155181250Y-122555000D01*
X146848750Y-88542500D02*
X146695088Y-88696162D01*
X146695088Y-88696162D02*
X146695088Y-90527500D01*
X150228250Y-95756667D02*
X150229583Y-95758000D01*
X161424485Y-84455000D02*
X161531250Y-84455000D01*
X149962250Y-88380000D02*
X148511250Y-88380000D01*
X150228250Y-88646000D02*
X149962250Y-88380000D01*
X156959250Y-78660000D02*
X155348750Y-78660000D01*
X155333650Y-87130001D02*
X156737719Y-87130001D01*
X157445000Y-88310000D02*
X156245000Y-88310000D01*
X161197250Y-78660000D02*
X162801250Y-80264000D01*
X156737719Y-87130001D02*
X157614485Y-86253235D01*
X150228250Y-88646000D02*
X150228250Y-95756667D01*
X162801250Y-80264000D02*
X162801250Y-80867500D01*
X155181250Y-111333971D02*
X155181250Y-117475000D01*
X162801250Y-83185000D02*
X162801250Y-80867500D01*
X161531250Y-84455000D02*
X162801250Y-83185000D01*
X149361765Y-105514485D02*
X155181250Y-111333971D01*
X158991250Y-116967000D02*
X158991250Y-113157000D01*
X159753250Y-113919000D02*
X158991250Y-113157000D01*
X137721250Y-99380000D02*
X137721250Y-96822500D01*
X155181250Y-127635000D02*
X153911250Y-126365000D01*
X153911250Y-122174000D02*
X151752250Y-120015000D01*
X141211250Y-118872000D02*
X141211250Y-113919000D01*
X153911250Y-126365000D02*
X153911250Y-122174000D01*
X151752250Y-120015000D02*
X142354250Y-120015000D01*
X142354250Y-120015000D02*
X141211250Y-118872000D01*
X142061750Y-88602500D02*
X141839250Y-88380000D01*
X142862250Y-88602500D02*
X142061750Y-88602500D01*
X154296250Y-84492066D02*
X154356383Y-84431933D01*
X160769250Y-134747000D02*
X160769250Y-123063000D01*
X161785250Y-85725000D02*
X163944250Y-85725000D01*
X160261250Y-82931000D02*
X160261250Y-84201000D01*
X160769250Y-123063000D02*
X161277250Y-122555000D01*
X157721250Y-137795000D02*
X155181250Y-140335000D01*
X154296250Y-86842600D02*
X154296250Y-84492066D01*
X160261250Y-84201000D02*
X161785250Y-85725000D01*
X154796250Y-86842600D02*
X154796250Y-84840000D01*
X154796250Y-84840000D02*
X155181250Y-84455000D01*
X134861250Y-91018530D02*
X134861250Y-130175000D01*
X134861250Y-130175000D02*
X139941250Y-135255000D01*
X135285515Y-90594265D02*
X134861250Y-91018530D01*
X150736250Y-72660000D02*
X155348750Y-72660000D01*
X155181250Y-142875000D02*
X158991250Y-142875000D01*
X161531250Y-82931000D02*
X161531250Y-80867500D01*
X155181250Y-147955000D02*
X162801250Y-140335000D01*
X165595250Y-140335000D02*
X165595250Y-92329000D01*
X165595250Y-92329000D02*
X162801250Y-89535000D01*
X162801250Y-89535000D02*
X162801250Y-88042500D01*
X162801250Y-140335000D02*
X165595250Y-140335000D01*
X136779479Y-81029271D02*
X139148750Y-78660000D01*
X136131250Y-126365000D02*
X136131250Y-91440000D01*
X139941250Y-130175000D02*
X136131250Y-126365000D01*
X136779479Y-90791771D02*
X136779479Y-89525432D01*
X136131250Y-91440000D02*
X136779479Y-90791771D01*
X164071250Y-80867500D02*
X165996250Y-82792500D01*
X165996250Y-82792500D02*
X165996250Y-140501100D01*
X165996250Y-140501100D02*
X164892350Y-141605000D01*
X164892350Y-141605000D02*
X163055250Y-141605000D01*
X136131250Y-79677500D02*
X139148750Y-76660000D01*
X135496250Y-128270000D02*
X135496250Y-91440000D01*
X135496250Y-91232059D02*
X136131250Y-90597059D01*
X135496250Y-91440000D02*
X135496250Y-91232059D01*
X139941250Y-132715000D02*
X135496250Y-128270000D01*
X136131250Y-90597059D02*
X136131250Y-89994265D01*
X153758850Y-87130001D02*
X153758850Y-86829850D01*
X153758850Y-87630000D02*
X153416000Y-87630000D01*
X163445250Y-84070250D02*
X163445250Y-78743750D01*
X134239000Y-138176000D02*
X135001000Y-138938000D01*
X153416000Y-87630000D02*
X152654000Y-86868000D01*
X147348750Y-86044378D02*
X147001390Y-85697018D01*
X163445250Y-78743750D02*
X163449000Y-78740000D01*
X153151067Y-83830933D02*
X152654000Y-84328000D01*
X152654000Y-86868000D02*
X152654000Y-85725000D01*
X146186250Y-87380000D02*
X145721750Y-87380000D01*
X134239000Y-133096000D02*
X134239000Y-135636000D01*
X147348750Y-86717500D02*
X147348750Y-86044378D01*
X140239250Y-87080000D02*
X138769000Y-87080000D01*
X145721750Y-88380000D02*
X146186250Y-88380000D01*
X135001000Y-138938000D02*
X135001000Y-140589000D01*
X145647750Y-87630000D02*
X145647750Y-86338750D01*
X145647750Y-88306000D02*
X145721750Y-88380000D01*
X163449000Y-84074000D02*
X163445250Y-84070250D01*
X146848750Y-85849658D02*
X147001390Y-85697018D01*
X141298452Y-87080000D02*
X140239250Y-87080000D01*
X156464000Y-84812350D02*
X155482583Y-83830933D01*
X157850000Y-88911000D02*
X158369000Y-88392000D01*
X145647750Y-87454000D02*
X145647750Y-87630000D01*
X145647750Y-87630000D02*
X145647750Y-88306000D01*
X145288000Y-85979000D02*
X145367250Y-85979000D01*
X159543500Y-80867500D02*
X160261250Y-80867500D01*
X145647750Y-86338750D02*
X145288000Y-85979000D01*
X155333650Y-88129999D02*
X155333650Y-88248593D01*
X147348750Y-86717500D02*
X146848750Y-86717500D01*
X154940000Y-81788000D02*
X156210000Y-81788000D01*
X155482583Y-83830933D02*
X153151067Y-83830933D01*
X155996057Y-88911000D02*
X157850000Y-88911000D01*
X156464000Y-85344000D02*
X156464000Y-84812350D01*
X145721750Y-87380000D02*
X145647750Y-87454000D01*
X155333650Y-88248593D02*
X155996057Y-88911000D01*
X153035000Y-81788000D02*
X154940000Y-81788000D01*
X138769000Y-87080000D02*
X138176000Y-86487000D01*
X152654000Y-85725000D02*
X152654000Y-84328000D01*
X163449000Y-84709000D02*
X163449000Y-84074000D01*
X141598452Y-87380000D02*
X141298452Y-87080000D01*
X141839250Y-87380000D02*
X141598452Y-87380000D01*
X153758850Y-86829850D02*
X152654000Y-85725000D01*
X130501250Y-108460000D02*
X130501250Y-122825000D01*
X132321250Y-106640000D02*
X130501250Y-108460000D01*
X134861250Y-85725000D02*
X136766250Y-87630000D01*
X136766250Y-87630000D02*
X140389250Y-87630000D01*
X147541250Y-61575000D02*
X147541250Y-53415000D01*
X142496250Y-66660000D02*
X147561250Y-61595000D01*
X147561250Y-61595000D02*
X147541250Y-61575000D01*
X139148750Y-66660000D02*
X142496250Y-66660000D01*
X150736250Y-70660000D02*
X155348750Y-70660000D01*
X158610250Y-83649010D02*
X158610250Y-79756000D01*
X162166250Y-87205010D02*
X162166250Y-92280500D01*
X162166250Y-87205010D02*
X158610250Y-83649010D01*
G04 #@! TA.AperFunction,Conductor*
G36*
X138688023Y-137145185D02*
G01*
X138733778Y-137197989D01*
X138743722Y-137267147D01*
X138737169Y-137291029D01*
X138737536Y-137291148D01*
X138736031Y-137295777D01*
X138736030Y-137295781D01*
X138728684Y-137318391D01*
X138672772Y-137490465D01*
X138640750Y-137692648D01*
X138640750Y-137897351D01*
X138672772Y-138099534D01*
X138736031Y-138294223D01*
X138828965Y-138476613D01*
X138949278Y-138642213D01*
X139094036Y-138786971D01*
X139248999Y-138899556D01*
X139259640Y-138907287D01*
X139351090Y-138953883D01*
X139352330Y-138954515D01*
X139403126Y-139002490D01*
X139419921Y-139070311D01*
X139397384Y-139136446D01*
X139352330Y-139175485D01*
X139259636Y-139222715D01*
X139094036Y-139343028D01*
X138949278Y-139487786D01*
X138828965Y-139653386D01*
X138736031Y-139835776D01*
X138672772Y-140030465D01*
X138640750Y-140232648D01*
X138640750Y-140437351D01*
X138672772Y-140639534D01*
X138736031Y-140834223D01*
X138787635Y-140935500D01*
X138811945Y-140983211D01*
X138828965Y-141016613D01*
X138949278Y-141182213D01*
X139094036Y-141326971D01*
X139248999Y-141439556D01*
X139259640Y-141447287D01*
X139351090Y-141493883D01*
X139352330Y-141494515D01*
X139403126Y-141542490D01*
X139419921Y-141610311D01*
X139397384Y-141676446D01*
X139352330Y-141715485D01*
X139259636Y-141762715D01*
X139094036Y-141883028D01*
X138949278Y-142027786D01*
X138828965Y-142193386D01*
X138736031Y-142375776D01*
X138672772Y-142570465D01*
X138640750Y-142772648D01*
X138640750Y-142977351D01*
X138672772Y-143179534D01*
X138736031Y-143374223D01*
X138787635Y-143475500D01*
X138824988Y-143548809D01*
X138828965Y-143556613D01*
X138949278Y-143722213D01*
X139094036Y-143866971D01*
X139248999Y-143979556D01*
X139259640Y-143987287D01*
X139351090Y-144033883D01*
X139352330Y-144034515D01*
X139403126Y-144082490D01*
X139419921Y-144150311D01*
X139397384Y-144216446D01*
X139352330Y-144255485D01*
X139259636Y-144302715D01*
X139094036Y-144423028D01*
X138949278Y-144567786D01*
X138828965Y-144733386D01*
X138736031Y-144915776D01*
X138672772Y-145110465D01*
X138640750Y-145312648D01*
X138640750Y-145517351D01*
X138672772Y-145719534D01*
X138736031Y-145914223D01*
X138828965Y-146096613D01*
X138949278Y-146262213D01*
X139094036Y-146406971D01*
X139248999Y-146519556D01*
X139259640Y-146527287D01*
X139352330Y-146574515D01*
X139442026Y-146620218D01*
X139442028Y-146620218D01*
X139442031Y-146620220D01*
X139546387Y-146654127D01*
X139636715Y-146683477D01*
X139655947Y-146686523D01*
X139838898Y-146715500D01*
X139838899Y-146715500D01*
X140043601Y-146715500D01*
X140043602Y-146715500D01*
X140245784Y-146683477D01*
X140440469Y-146620220D01*
X140622860Y-146527287D01*
X140715840Y-146459732D01*
X140788463Y-146406971D01*
X140788465Y-146406968D01*
X140788469Y-146406966D01*
X140933216Y-146262219D01*
X140933218Y-146262215D01*
X140933221Y-146262213D01*
X140985982Y-146189590D01*
X141053537Y-146096610D01*
X141146470Y-145914219D01*
X141209727Y-145719534D01*
X141241750Y-145517352D01*
X141241750Y-145312648D01*
X141209727Y-145110466D01*
X141146470Y-144915781D01*
X141146468Y-144915778D01*
X141146468Y-144915776D01*
X141112753Y-144849607D01*
X141053537Y-144733390D01*
X141045806Y-144722749D01*
X140933221Y-144567786D01*
X140788463Y-144423028D01*
X140622864Y-144302715D01*
X140616256Y-144299348D01*
X140530167Y-144255483D01*
X140479373Y-144207511D01*
X140462578Y-144139690D01*
X140485115Y-144073555D01*
X140530167Y-144034516D01*
X140622860Y-143987287D01*
X140747311Y-143896869D01*
X140788463Y-143866971D01*
X140788465Y-143866968D01*
X140788469Y-143866966D01*
X140933216Y-143722219D01*
X140933218Y-143722215D01*
X140933221Y-143722213D01*
X141022696Y-143599059D01*
X141053537Y-143556610D01*
X141146470Y-143374219D01*
X141209727Y-143179534D01*
X141241750Y-142977352D01*
X141241750Y-142772648D01*
X141209727Y-142570466D01*
X141206277Y-142559849D01*
X141177656Y-142471762D01*
X141146470Y-142375781D01*
X141146468Y-142375778D01*
X141146468Y-142375776D01*
X141112753Y-142309607D01*
X141053537Y-142193390D01*
X141011581Y-142135642D01*
X140933221Y-142027786D01*
X140788463Y-141883028D01*
X140622864Y-141762715D01*
X140616256Y-141759348D01*
X140530167Y-141715483D01*
X140479373Y-141667511D01*
X140462578Y-141599690D01*
X140485115Y-141533555D01*
X140530167Y-141494516D01*
X140622860Y-141447287D01*
X140691366Y-141397515D01*
X140788463Y-141326971D01*
X140788465Y-141326968D01*
X140788469Y-141326966D01*
X140933216Y-141182219D01*
X140933218Y-141182215D01*
X140933221Y-141182213D01*
X141021520Y-141060678D01*
X141053537Y-141016610D01*
X141146470Y-140834219D01*
X141209727Y-140639534D01*
X141241750Y-140437352D01*
X141241750Y-140232648D01*
X141209727Y-140030466D01*
X141146470Y-139835781D01*
X141146468Y-139835778D01*
X141146468Y-139835776D01*
X141112753Y-139769607D01*
X141053537Y-139653390D01*
X141022376Y-139610500D01*
X140933221Y-139487786D01*
X140788463Y-139343028D01*
X140622864Y-139222715D01*
X140616256Y-139219348D01*
X140530167Y-139175483D01*
X140479373Y-139127511D01*
X140462578Y-139059690D01*
X140485115Y-138993555D01*
X140530167Y-138954516D01*
X140622860Y-138907287D01*
X140715497Y-138839983D01*
X140788463Y-138786971D01*
X140788465Y-138786968D01*
X140788469Y-138786966D01*
X140933216Y-138642219D01*
X140933218Y-138642215D01*
X140933221Y-138642213D01*
X140989509Y-138564738D01*
X141053537Y-138476610D01*
X141146470Y-138294219D01*
X141209727Y-138099534D01*
X141241750Y-137897352D01*
X141241750Y-137692648D01*
X141209727Y-137490465D01*
X141153816Y-137318391D01*
X141146470Y-137295781D01*
X141146468Y-137295777D01*
X141144964Y-137291148D01*
X141146285Y-137290718D01*
X141139486Y-137227486D01*
X141170759Y-137165006D01*
X141230847Y-137129352D01*
X141261516Y-137125500D01*
X153860984Y-137125500D01*
X153928023Y-137145185D01*
X153973778Y-137197989D01*
X153983722Y-137267147D01*
X153977169Y-137291029D01*
X153977536Y-137291148D01*
X153976031Y-137295777D01*
X153976030Y-137295781D01*
X153968684Y-137318391D01*
X153912772Y-137490465D01*
X153880750Y-137692648D01*
X153880750Y-137897351D01*
X153912772Y-138099534D01*
X153976031Y-138294223D01*
X154068965Y-138476613D01*
X154189278Y-138642213D01*
X154334036Y-138786971D01*
X154488999Y-138899556D01*
X154499640Y-138907287D01*
X154591090Y-138953883D01*
X154592330Y-138954515D01*
X154643126Y-139002490D01*
X154659921Y-139070311D01*
X154637384Y-139136446D01*
X154592330Y-139175485D01*
X154499636Y-139222715D01*
X154334036Y-139343028D01*
X154189278Y-139487786D01*
X154068965Y-139653386D01*
X153976031Y-139835776D01*
X153912772Y-140030465D01*
X153880750Y-140232648D01*
X153880750Y-140437351D01*
X153912772Y-140639534D01*
X153976031Y-140834223D01*
X154027635Y-140935500D01*
X154051945Y-140983211D01*
X154068965Y-141016613D01*
X154189278Y-141182213D01*
X154334036Y-141326971D01*
X154488999Y-141439556D01*
X154499640Y-141447287D01*
X154591090Y-141493883D01*
X154592330Y-141494515D01*
X154643126Y-141542490D01*
X154659921Y-141610311D01*
X154637384Y-141676446D01*
X154592330Y-141715485D01*
X154499636Y-141762715D01*
X154334036Y-141883028D01*
X154189278Y-142027786D01*
X154068965Y-142193386D01*
X153976031Y-142375776D01*
X153912772Y-142570465D01*
X153880750Y-142772648D01*
X153880750Y-142977351D01*
X153912772Y-143179534D01*
X153976031Y-143374223D01*
X154027635Y-143475500D01*
X154064988Y-143548809D01*
X154068965Y-143556613D01*
X154189278Y-143722213D01*
X154334036Y-143866971D01*
X154488999Y-143979556D01*
X154499640Y-143987287D01*
X154591090Y-144033883D01*
X154592330Y-144034515D01*
X154643126Y-144082490D01*
X154659921Y-144150311D01*
X154637384Y-144216446D01*
X154592330Y-144255485D01*
X154499636Y-144302715D01*
X154334036Y-144423028D01*
X154189278Y-144567786D01*
X154068965Y-144733386D01*
X153976031Y-144915776D01*
X153912772Y-145110465D01*
X153880750Y-145312648D01*
X153880750Y-145517351D01*
X153912772Y-145719534D01*
X153976031Y-145914223D01*
X154068965Y-146096613D01*
X154189278Y-146262213D01*
X154334036Y-146406971D01*
X154488999Y-146519556D01*
X154499640Y-146527287D01*
X154591090Y-146573883D01*
X154592330Y-146574515D01*
X154643126Y-146622490D01*
X154659921Y-146690311D01*
X154637384Y-146756446D01*
X154592330Y-146795485D01*
X154499636Y-146842715D01*
X154334036Y-146963028D01*
X154189278Y-147107786D01*
X154068965Y-147273386D01*
X153976031Y-147455776D01*
X153912772Y-147650465D01*
X153880750Y-147852648D01*
X153880750Y-148057351D01*
X153912772Y-148259534D01*
X153976031Y-148454223D01*
X154039941Y-148579653D01*
X154066046Y-148630886D01*
X154068965Y-148636613D01*
X154189278Y-148802213D01*
X154334036Y-148946971D01*
X154488999Y-149059556D01*
X154499640Y-149067287D01*
X154615857Y-149126503D01*
X154682026Y-149160218D01*
X154682028Y-149160218D01*
X154682031Y-149160220D01*
X154786387Y-149194127D01*
X154876715Y-149223477D01*
X154937895Y-149233167D01*
X155078898Y-149255500D01*
X155078899Y-149255500D01*
X155283601Y-149255500D01*
X155283602Y-149255500D01*
X155485784Y-149223477D01*
X155680469Y-149160220D01*
X155862860Y-149067287D01*
X155955840Y-148999732D01*
X156028463Y-148946971D01*
X156028465Y-148946968D01*
X156028469Y-148946966D01*
X156173216Y-148802219D01*
X156173218Y-148802215D01*
X156173221Y-148802213D01*
X156269747Y-148669354D01*
X156293537Y-148636610D01*
X156386470Y-148454219D01*
X156449727Y-148259534D01*
X156481750Y-148057352D01*
X156481750Y-147852648D01*
X156449727Y-147650466D01*
X156445075Y-147636151D01*
X156443082Y-147566312D01*
X156475325Y-147510158D01*
X158223117Y-145762366D01*
X158284438Y-145728883D01*
X158354130Y-145733867D01*
X158410063Y-145775739D01*
X158434480Y-145841203D01*
X158425358Y-145897501D01*
X158395059Y-145970650D01*
X158280957Y-146346794D01*
X158280954Y-146346805D01*
X158204276Y-146732297D01*
X158165750Y-147123471D01*
X158165750Y-147516528D01*
X158204276Y-147907702D01*
X158280954Y-148293194D01*
X158280957Y-148293205D01*
X158395060Y-148669354D01*
X158545480Y-149032499D01*
X158545482Y-149032504D01*
X158730761Y-149379137D01*
X158730772Y-149379155D01*
X158949137Y-149705960D01*
X158949147Y-149705974D01*
X159198504Y-150009817D01*
X159476432Y-150287745D01*
X159476437Y-150287749D01*
X159476438Y-150287750D01*
X159780281Y-150537107D01*
X160107101Y-150755482D01*
X160107110Y-150755487D01*
X160107112Y-150755488D01*
X160453745Y-150940767D01*
X160453747Y-150940767D01*
X160453753Y-150940771D01*
X160780078Y-151075939D01*
X160834481Y-151119780D01*
X160856546Y-151186074D01*
X160839267Y-151253773D01*
X160788130Y-151301384D01*
X160732625Y-151314500D01*
X141185628Y-151314500D01*
X141118589Y-151294815D01*
X141072834Y-151242011D01*
X141062890Y-151172853D01*
X141075143Y-151134205D01*
X141087835Y-151109297D01*
X141146470Y-150994219D01*
X141209727Y-150799534D01*
X141241750Y-150597352D01*
X141241750Y-150392648D01*
X141209727Y-150190466D01*
X141146470Y-149995781D01*
X141146468Y-149995778D01*
X141146468Y-149995776D01*
X141112753Y-149929607D01*
X141053537Y-149813390D01*
X141045806Y-149802749D01*
X140933221Y-149647786D01*
X140788463Y-149503028D01*
X140622863Y-149382715D01*
X140622862Y-149382714D01*
X140622860Y-149382713D01*
X140565903Y-149353691D01*
X140440473Y-149289781D01*
X140245784Y-149226522D01*
X140071245Y-149198878D01*
X140043602Y-149194500D01*
X139838898Y-149194500D01*
X139800849Y-149200526D01*
X139636718Y-149226522D01*
X139627967Y-149229365D01*
X139622404Y-149231173D01*
X139552563Y-149233167D01*
X139496407Y-149200922D01*
X138148133Y-147852648D01*
X141180750Y-147852648D01*
X141180750Y-148057351D01*
X141212772Y-148259534D01*
X141276031Y-148454223D01*
X141339941Y-148579653D01*
X141366046Y-148630886D01*
X141368965Y-148636613D01*
X141489278Y-148802213D01*
X141634036Y-148946971D01*
X141788999Y-149059556D01*
X141799640Y-149067287D01*
X141915857Y-149126503D01*
X141982026Y-149160218D01*
X141982028Y-149160218D01*
X141982031Y-149160220D01*
X142086387Y-149194127D01*
X142176715Y-149223477D01*
X142237895Y-149233167D01*
X142378898Y-149255500D01*
X142378899Y-149255500D01*
X142583601Y-149255500D01*
X142583602Y-149255500D01*
X142785784Y-149223477D01*
X142980469Y-149160220D01*
X143162860Y-149067287D01*
X143255840Y-148999732D01*
X143328463Y-148946971D01*
X143328465Y-148946968D01*
X143328469Y-148946966D01*
X143473216Y-148802219D01*
X143473218Y-148802215D01*
X143473221Y-148802213D01*
X143569747Y-148669354D01*
X143593537Y-148636610D01*
X143686470Y-148454219D01*
X143749727Y-148259534D01*
X143781750Y-148057352D01*
X143781750Y-147852648D01*
X143749727Y-147650466D01*
X143686470Y-147455781D01*
X143686468Y-147455778D01*
X143686468Y-147455776D01*
X143652753Y-147389607D01*
X143593537Y-147273390D01*
X143585806Y-147262749D01*
X143473221Y-147107786D01*
X143328463Y-146963028D01*
X143162863Y-146842715D01*
X143162862Y-146842714D01*
X143162860Y-146842713D01*
X143105903Y-146813691D01*
X142980473Y-146749781D01*
X142785784Y-146686522D01*
X142611245Y-146658878D01*
X142583602Y-146654500D01*
X142378898Y-146654500D01*
X142354579Y-146658351D01*
X142176715Y-146686522D01*
X141982026Y-146749781D01*
X141799636Y-146842715D01*
X141634036Y-146963028D01*
X141489278Y-147107786D01*
X141368965Y-147273386D01*
X141276031Y-147455776D01*
X141212772Y-147650465D01*
X141180750Y-147852648D01*
X138148133Y-147852648D01*
X138038069Y-147742584D01*
X138004584Y-147681261D01*
X138001750Y-147654903D01*
X138001750Y-143599059D01*
X138001751Y-143599046D01*
X138001751Y-143430945D01*
X138001751Y-143430943D01*
X137960827Y-143278215D01*
X137931889Y-143228095D01*
X137881770Y-143141284D01*
X137769966Y-143029480D01*
X137769965Y-143029479D01*
X137765635Y-143025149D01*
X137765624Y-143025139D01*
X135983840Y-141243355D01*
X135983838Y-141243352D01*
X135864967Y-141124481D01*
X135864966Y-141124480D01*
X135754456Y-141060677D01*
X135754454Y-141060676D01*
X135728035Y-141045423D01*
X135728034Y-141045422D01*
X135728033Y-141045422D01*
X135672131Y-141030443D01*
X135575307Y-141004499D01*
X135417193Y-141004499D01*
X135409597Y-141004499D01*
X135409581Y-141004500D01*
X130716347Y-141004500D01*
X130649308Y-140984815D01*
X130628666Y-140968181D01*
X129783069Y-140122584D01*
X129749584Y-140061261D01*
X129746750Y-140034903D01*
X129746750Y-139308390D01*
X129766435Y-139241351D01*
X129819239Y-139195596D01*
X129888397Y-139185652D01*
X129914075Y-139192205D01*
X130006267Y-139226591D01*
X130065877Y-139233000D01*
X132036622Y-139232999D01*
X132096233Y-139226591D01*
X132231081Y-139176296D01*
X132346296Y-139090046D01*
X132432546Y-138974831D01*
X132482841Y-138839983D01*
X132489250Y-138780373D01*
X132489249Y-137249499D01*
X132508934Y-137182461D01*
X132561737Y-137136706D01*
X132613249Y-137125500D01*
X138620984Y-137125500D01*
X138688023Y-137145185D01*
G37*
G04 #@! TD.AperFunction*
G04 #@! TA.AperFunction,Conductor*
G36*
X135031953Y-131195384D02*
G01*
X135038431Y-131201416D01*
X138647172Y-134810157D01*
X138680657Y-134871480D01*
X138677423Y-134936155D01*
X138672772Y-134950468D01*
X138642465Y-135141821D01*
X138640750Y-135152648D01*
X138640750Y-135357352D01*
X138645128Y-135384995D01*
X138672772Y-135559534D01*
X138683235Y-135591734D01*
X138736030Y-135754219D01*
X138736031Y-135754222D01*
X138737536Y-135758852D01*
X138736214Y-135759281D01*
X138743014Y-135822514D01*
X138711741Y-135884994D01*
X138651653Y-135920648D01*
X138620984Y-135924500D01*
X132621347Y-135924500D01*
X132591906Y-135915855D01*
X132561920Y-135909332D01*
X132556904Y-135905577D01*
X132554308Y-135904815D01*
X132533666Y-135888181D01*
X132454448Y-135808963D01*
X132420963Y-135747640D01*
X132424197Y-135682966D01*
X132453842Y-135591733D01*
X132479433Y-135430158D01*
X132489250Y-135368178D01*
X132489250Y-135141821D01*
X132458942Y-134950468D01*
X132453842Y-134918267D01*
X132424197Y-134827033D01*
X132422203Y-134757193D01*
X132454446Y-134701037D01*
X134584756Y-132570728D01*
X134584761Y-132570724D01*
X134594964Y-132560520D01*
X134594966Y-132560520D01*
X134706770Y-132448716D01*
X134765909Y-132346284D01*
X134785827Y-132311785D01*
X134826750Y-132159057D01*
X134826750Y-132000943D01*
X134826750Y-131289097D01*
X134846435Y-131222058D01*
X134899239Y-131176303D01*
X134968397Y-131166359D01*
X135031953Y-131195384D01*
G37*
G04 #@! TD.AperFunction*
G04 #@! TA.AperFunction,Conductor*
G36*
X157256953Y-118310385D02*
G01*
X157263431Y-118316417D01*
X157359599Y-118412585D01*
X157359605Y-118412590D01*
X160735912Y-121788897D01*
X160769397Y-121850220D01*
X160764413Y-121919912D01*
X160735912Y-121964259D01*
X160655463Y-122044707D01*
X160655460Y-122044711D01*
X160567859Y-122175814D01*
X160567852Y-122175827D01*
X160507514Y-122321498D01*
X160507511Y-122321508D01*
X160476612Y-122476848D01*
X160467847Y-122493603D01*
X160463828Y-122512082D01*
X160445084Y-122537119D01*
X160444227Y-122538759D01*
X160442677Y-122540336D01*
X160400535Y-122582479D01*
X160400534Y-122582480D01*
X160288731Y-122694282D01*
X160288725Y-122694290D01*
X160242418Y-122774498D01*
X160242418Y-122774499D01*
X160209673Y-122831214D01*
X160209673Y-122831215D01*
X160168749Y-122983943D01*
X160168749Y-122983945D01*
X160168749Y-123152046D01*
X160168750Y-123152059D01*
X160168750Y-134167234D01*
X160149065Y-134234273D01*
X160147852Y-134236125D01*
X160059859Y-134367814D01*
X160059852Y-134367827D01*
X159999514Y-134513498D01*
X159999511Y-134513510D01*
X159968750Y-134668153D01*
X159968750Y-134825846D01*
X159999511Y-134980489D01*
X159999514Y-134980501D01*
X160059852Y-135126172D01*
X160059859Y-135126185D01*
X160147460Y-135257288D01*
X160147463Y-135257292D01*
X160258957Y-135368786D01*
X160258961Y-135368789D01*
X160390064Y-135456390D01*
X160390077Y-135456397D01*
X160535748Y-135516735D01*
X160535753Y-135516737D01*
X160690403Y-135547499D01*
X160690406Y-135547500D01*
X160690408Y-135547500D01*
X160848094Y-135547500D01*
X160848095Y-135547499D01*
X161002747Y-135516737D01*
X161148429Y-135456394D01*
X161279539Y-135368789D01*
X161391039Y-135257289D01*
X161478644Y-135126179D01*
X161538987Y-134980497D01*
X161569750Y-134825842D01*
X161569750Y-134668158D01*
X161569750Y-134668155D01*
X161569749Y-134668153D01*
X161550899Y-134573390D01*
X161538987Y-134513503D01*
X161523339Y-134475724D01*
X161478647Y-134367827D01*
X161478640Y-134367814D01*
X161390648Y-134236125D01*
X161369770Y-134169447D01*
X161369750Y-134167234D01*
X161369750Y-123454547D01*
X161389435Y-123387508D01*
X161442239Y-123341753D01*
X161469555Y-123332930D01*
X161510747Y-123324737D01*
X161635084Y-123273235D01*
X161656422Y-123264397D01*
X161656422Y-123264396D01*
X161656429Y-123264394D01*
X161787539Y-123176789D01*
X161867991Y-123096336D01*
X161929312Y-123062853D01*
X161999004Y-123067837D01*
X162043352Y-123096338D01*
X163451389Y-124504375D01*
X163484874Y-124565698D01*
X163486181Y-124611453D01*
X163466750Y-124734138D01*
X163466750Y-124915860D01*
X163495178Y-125095347D01*
X163495178Y-125095350D01*
X163551331Y-125268171D01*
X163551333Y-125268174D01*
X163633833Y-125430090D01*
X163740647Y-125577106D01*
X163869144Y-125705603D01*
X164016160Y-125812417D01*
X164178076Y-125894917D01*
X164178078Y-125894918D01*
X164323639Y-125942213D01*
X164350904Y-125951072D01*
X164530389Y-125979500D01*
X164530390Y-125979500D01*
X164712110Y-125979500D01*
X164712111Y-125979500D01*
X164851352Y-125957446D01*
X164920645Y-125966400D01*
X164974097Y-126011397D01*
X164994737Y-126078148D01*
X164994750Y-126079919D01*
X164994750Y-133909291D01*
X164975065Y-133976330D01*
X164922261Y-134022085D01*
X164853103Y-134032029D01*
X164814455Y-134019776D01*
X164623255Y-133922354D01*
X164407983Y-133852407D01*
X164184428Y-133817000D01*
X164184423Y-133817000D01*
X163958077Y-133817000D01*
X163958072Y-133817000D01*
X163734516Y-133852407D01*
X163519244Y-133922354D01*
X163317573Y-134025112D01*
X163134453Y-134158157D01*
X162974407Y-134318203D01*
X162841362Y-134501323D01*
X162738604Y-134702994D01*
X162668657Y-134918266D01*
X162633250Y-135141821D01*
X162633250Y-135368178D01*
X162668658Y-135591734D01*
X162668658Y-135591737D01*
X162698300Y-135682964D01*
X162698734Y-135698175D01*
X162704053Y-135712434D01*
X162699711Y-135732391D01*
X162700295Y-135752805D01*
X162692207Y-135766890D01*
X162689202Y-135780708D01*
X162668051Y-135808962D01*
X162588835Y-135888180D01*
X162527513Y-135921666D01*
X162501153Y-135924500D01*
X156501516Y-135924500D01*
X156434477Y-135904815D01*
X156388722Y-135852011D01*
X156378778Y-135782853D01*
X156385330Y-135758970D01*
X156384964Y-135758852D01*
X156386468Y-135754222D01*
X156386470Y-135754219D01*
X156449727Y-135559534D01*
X156481750Y-135357352D01*
X156481750Y-135152648D01*
X156478135Y-135129827D01*
X156449727Y-134950465D01*
X156420377Y-134860137D01*
X156386470Y-134755781D01*
X156386468Y-134755778D01*
X156386468Y-134755776D01*
X156331429Y-134647757D01*
X156293537Y-134573390D01*
X156250027Y-134513503D01*
X156173221Y-134407786D01*
X156028463Y-134263028D01*
X155862864Y-134142715D01*
X155856256Y-134139348D01*
X155770167Y-134095483D01*
X155719373Y-134047511D01*
X155702578Y-133979690D01*
X155725115Y-133913555D01*
X155770167Y-133874516D01*
X155862860Y-133827287D01*
X155938153Y-133772584D01*
X156028463Y-133706971D01*
X156028465Y-133706968D01*
X156028469Y-133706966D01*
X156173216Y-133562219D01*
X156173218Y-133562215D01*
X156173221Y-133562213D01*
X156225982Y-133489590D01*
X156293537Y-133396610D01*
X156386470Y-133214219D01*
X156449727Y-133019534D01*
X156481750Y-132817352D01*
X156481750Y-132612648D01*
X156473494Y-132560520D01*
X156449727Y-132410465D01*
X156386468Y-132215776D01*
X156352753Y-132149607D01*
X156293537Y-132033390D01*
X156269963Y-132000943D01*
X156173221Y-131867786D01*
X156028463Y-131723028D01*
X155862864Y-131602715D01*
X155856256Y-131599348D01*
X155770167Y-131555483D01*
X155719373Y-131507511D01*
X155702578Y-131439690D01*
X155725115Y-131373555D01*
X155770167Y-131334516D01*
X155862860Y-131287287D01*
X155952641Y-131222058D01*
X156028463Y-131166971D01*
X156028465Y-131166968D01*
X156028469Y-131166966D01*
X156173216Y-131022219D01*
X156173218Y-131022215D01*
X156173221Y-131022213D01*
X156225982Y-130949590D01*
X156293537Y-130856610D01*
X156386470Y-130674219D01*
X156449727Y-130479534D01*
X156481750Y-130277352D01*
X156481750Y-130072648D01*
X156449727Y-129870466D01*
X156386470Y-129675781D01*
X156386468Y-129675778D01*
X156386468Y-129675776D01*
X156352753Y-129609607D01*
X156293537Y-129493390D01*
X156285806Y-129482749D01*
X156173221Y-129327786D01*
X156028463Y-129183028D01*
X155862864Y-129062715D01*
X155856256Y-129059348D01*
X155770167Y-129015483D01*
X155719373Y-128967511D01*
X155702578Y-128899690D01*
X155725115Y-128833555D01*
X155770167Y-128794516D01*
X155862860Y-128747287D01*
X155884020Y-128731913D01*
X156028463Y-128626971D01*
X156028465Y-128626968D01*
X156028469Y-128626966D01*
X156173216Y-128482219D01*
X156173218Y-128482215D01*
X156173221Y-128482213D01*
X156225982Y-128409590D01*
X156293537Y-128316610D01*
X156386470Y-128134219D01*
X156449727Y-127939534D01*
X156481750Y-127737352D01*
X156481750Y-127532648D01*
X156449727Y-127330466D01*
X156386470Y-127135781D01*
X156386468Y-127135778D01*
X156386468Y-127135776D01*
X156352753Y-127069607D01*
X156293537Y-126953390D01*
X156285806Y-126942749D01*
X156173221Y-126787786D01*
X156028463Y-126643028D01*
X155862864Y-126522715D01*
X155856256Y-126519348D01*
X155770167Y-126475483D01*
X155719373Y-126427511D01*
X155702578Y-126359690D01*
X155725115Y-126293555D01*
X155770167Y-126254516D01*
X155862860Y-126207287D01*
X155884020Y-126191913D01*
X156028463Y-126086971D01*
X156028465Y-126086968D01*
X156028469Y-126086966D01*
X156173216Y-125942219D01*
X156173218Y-125942215D01*
X156173221Y-125942213D01*
X156225982Y-125869590D01*
X156293537Y-125776610D01*
X156386470Y-125594219D01*
X156449727Y-125399534D01*
X156481750Y-125197352D01*
X156481750Y-124992648D01*
X156449727Y-124790466D01*
X156445075Y-124776151D01*
X156443082Y-124706312D01*
X156475325Y-124650158D01*
X156809756Y-124315728D01*
X156809761Y-124315724D01*
X156819964Y-124305520D01*
X156819966Y-124305520D01*
X156931770Y-124193716D01*
X156984125Y-124103034D01*
X157001525Y-124072897D01*
X157001526Y-124072894D01*
X157010827Y-124056785D01*
X157051750Y-123904058D01*
X157051750Y-123745943D01*
X157051750Y-118404098D01*
X157071435Y-118337059D01*
X157124239Y-118291304D01*
X157193397Y-118281360D01*
X157256953Y-118310385D01*
G37*
G04 #@! TD.AperFunction*
G04 #@! TA.AperFunction,Conductor*
G36*
X133545084Y-107605353D02*
G01*
X133601017Y-107647225D01*
X133625434Y-107712689D01*
X133625750Y-107721535D01*
X133625750Y-131779902D01*
X133606065Y-131846941D01*
X133589431Y-131867583D01*
X131605213Y-133851800D01*
X131543890Y-133885285D01*
X131479214Y-133882050D01*
X131387986Y-133852408D01*
X131164428Y-133817000D01*
X131164423Y-133817000D01*
X130938077Y-133817000D01*
X130938072Y-133817000D01*
X130714516Y-133852407D01*
X130499244Y-133922354D01*
X130297573Y-134025112D01*
X130114453Y-134158157D01*
X129958431Y-134314180D01*
X129897108Y-134347665D01*
X129827416Y-134342681D01*
X129771483Y-134300809D01*
X129747066Y-134235345D01*
X129746750Y-134226499D01*
X129746750Y-123938638D01*
X129766435Y-123871599D01*
X129819239Y-123825844D01*
X129888397Y-123815900D01*
X129927041Y-123828151D01*
X129979053Y-123854653D01*
X130058075Y-123894917D01*
X130058078Y-123894918D01*
X130182932Y-123935485D01*
X130230904Y-123951072D01*
X130410389Y-123979500D01*
X130410390Y-123979500D01*
X130592110Y-123979500D01*
X130592111Y-123979500D01*
X130771596Y-123951072D01*
X130771599Y-123951071D01*
X130771600Y-123951071D01*
X130944421Y-123894918D01*
X130944421Y-123894917D01*
X130944424Y-123894917D01*
X131106340Y-123812417D01*
X131253356Y-123705603D01*
X131381853Y-123577106D01*
X131488667Y-123430090D01*
X131571167Y-123268174D01*
X131572395Y-123264394D01*
X131627321Y-123095350D01*
X131627321Y-123095349D01*
X131627322Y-123095346D01*
X131655750Y-122915861D01*
X131655750Y-122734139D01*
X131627322Y-122554654D01*
X131627321Y-122554650D01*
X131627321Y-122554649D01*
X131571168Y-122381828D01*
X131571166Y-122381825D01*
X131540434Y-122321508D01*
X131488667Y-122219910D01*
X131381853Y-122072894D01*
X131253356Y-121944397D01*
X131152863Y-121871384D01*
X131110199Y-121816054D01*
X131101750Y-121771067D01*
X131101750Y-108760097D01*
X131121435Y-108693058D01*
X131138069Y-108672416D01*
X131429542Y-108380943D01*
X131737527Y-108072957D01*
X131798848Y-108039474D01*
X131863523Y-108042708D01*
X131921810Y-108061647D01*
X131975735Y-108079169D01*
X132205121Y-108115500D01*
X132205126Y-108115500D01*
X132437379Y-108115500D01*
X132538752Y-108099443D01*
X132666764Y-108079169D01*
X132887646Y-108007400D01*
X133094581Y-107901961D01*
X133282474Y-107765449D01*
X133414069Y-107633854D01*
X133475392Y-107600369D01*
X133545084Y-107605353D01*
G37*
G04 #@! TD.AperFunction*
G04 #@! TA.AperFunction,Conductor*
G36*
X164914084Y-108071664D02*
G01*
X164970017Y-108113536D01*
X164994434Y-108179000D01*
X164994750Y-108187846D01*
X164994750Y-123570080D01*
X164975065Y-123637119D01*
X164922261Y-123682874D01*
X164853103Y-123692818D01*
X164851353Y-123692553D01*
X164712111Y-123670500D01*
X164530389Y-123670500D01*
X164407703Y-123689931D01*
X164338410Y-123680976D01*
X164300625Y-123655139D01*
X158557486Y-117912000D01*
X158524001Y-117850677D01*
X158528985Y-117780985D01*
X158570857Y-117725052D01*
X158636321Y-117700635D01*
X158692619Y-117709757D01*
X158757753Y-117736737D01*
X158912403Y-117767499D01*
X158912406Y-117767500D01*
X158912408Y-117767500D01*
X159070094Y-117767500D01*
X159070095Y-117767499D01*
X159224747Y-117736737D01*
X159370429Y-117676394D01*
X159501539Y-117588789D01*
X159613039Y-117477289D01*
X159700644Y-117346179D01*
X159760987Y-117200497D01*
X159791750Y-117045842D01*
X159791750Y-116888158D01*
X159791750Y-116888155D01*
X159791749Y-116888153D01*
X159772899Y-116793390D01*
X159760987Y-116733503D01*
X159737299Y-116676314D01*
X159700647Y-116587827D01*
X159700640Y-116587814D01*
X159612648Y-116456125D01*
X159591770Y-116389447D01*
X159591750Y-116387234D01*
X159591750Y-114843500D01*
X159611435Y-114776461D01*
X159664239Y-114730706D01*
X159715750Y-114719500D01*
X159832094Y-114719500D01*
X159832095Y-114719499D01*
X159986747Y-114688737D01*
X160132429Y-114628394D01*
X160263539Y-114540789D01*
X160375039Y-114429289D01*
X160462644Y-114298179D01*
X160522987Y-114152497D01*
X160553750Y-113997842D01*
X160553750Y-113840158D01*
X160553750Y-113840155D01*
X160553749Y-113840153D01*
X160522987Y-113685503D01*
X160522985Y-113685498D01*
X160462647Y-113539827D01*
X160462640Y-113539814D01*
X160375039Y-113408711D01*
X160375036Y-113408707D01*
X160263542Y-113297213D01*
X160263538Y-113297210D01*
X160132435Y-113209609D01*
X160132422Y-113209602D01*
X159981120Y-113146932D01*
X159982020Y-113144757D01*
X159932310Y-113112155D01*
X159903875Y-113048333D01*
X159914459Y-112979270D01*
X159939087Y-112944146D01*
X164783071Y-108100163D01*
X164844392Y-108066680D01*
X164914084Y-108071664D01*
G37*
G04 #@! TD.AperFunction*
G04 #@! TA.AperFunction,Conductor*
G36*
X147819946Y-105908085D02*
G01*
X147962753Y-105967237D01*
X148027397Y-105980095D01*
X148118099Y-105998138D01*
X148180010Y-106030523D01*
X148181589Y-106032074D01*
X153105431Y-110955916D01*
X153138916Y-111017239D01*
X153141750Y-111043597D01*
X153141750Y-116099524D01*
X153122065Y-116166563D01*
X153069261Y-116212318D01*
X153000103Y-116222262D01*
X152979433Y-116217455D01*
X152945792Y-116206524D01*
X152945785Y-116206523D01*
X152812433Y-116185402D01*
X152743602Y-116174500D01*
X152538898Y-116174500D01*
X152471504Y-116185174D01*
X152336714Y-116206523D01*
X152336711Y-116206523D01*
X152137397Y-116271285D01*
X152136967Y-116269963D01*
X152073736Y-116276763D01*
X152011256Y-116245490D01*
X151975602Y-116185402D01*
X151971750Y-116154733D01*
X151971750Y-113482765D01*
X151991435Y-113415726D01*
X151992648Y-113413874D01*
X151996101Y-113408707D01*
X152080644Y-113282179D01*
X152140987Y-113136497D01*
X152171750Y-112981842D01*
X152171750Y-112824158D01*
X152171750Y-112824155D01*
X152171749Y-112824153D01*
X152170409Y-112817415D01*
X152140987Y-112669503D01*
X152081523Y-112525943D01*
X152080647Y-112523827D01*
X152080640Y-112523814D01*
X151993039Y-112392711D01*
X151993036Y-112392707D01*
X151881542Y-112281213D01*
X151881538Y-112281210D01*
X151750435Y-112193609D01*
X151750422Y-112193602D01*
X151604751Y-112133264D01*
X151604739Y-112133261D01*
X151450095Y-112102500D01*
X151450092Y-112102500D01*
X151292408Y-112102500D01*
X151292405Y-112102500D01*
X151137760Y-112133261D01*
X151137748Y-112133264D01*
X150992077Y-112193602D01*
X150992064Y-112193609D01*
X150860961Y-112281210D01*
X150860957Y-112281213D01*
X150749463Y-112392707D01*
X150749460Y-112392711D01*
X150661859Y-112523814D01*
X150661852Y-112523827D01*
X150601514Y-112669498D01*
X150601511Y-112669510D01*
X150570750Y-112824153D01*
X150570750Y-112981846D01*
X150601511Y-113136489D01*
X150601514Y-113136501D01*
X150661852Y-113282172D01*
X150661859Y-113282185D01*
X150749852Y-113413874D01*
X150770730Y-113480551D01*
X150770750Y-113482765D01*
X150770750Y-116154733D01*
X150751065Y-116221772D01*
X150698261Y-116267527D01*
X150629103Y-116277471D01*
X150605221Y-116270919D01*
X150605103Y-116271285D01*
X150405786Y-116206523D01*
X150270996Y-116185174D01*
X150203602Y-116174500D01*
X149998898Y-116174500D01*
X149974579Y-116178351D01*
X149796715Y-116206522D01*
X149602026Y-116269781D01*
X149419636Y-116362715D01*
X149254036Y-116483028D01*
X149109278Y-116627786D01*
X148988965Y-116793386D01*
X148896031Y-116975776D01*
X148832772Y-117170465D01*
X148804943Y-117346172D01*
X148800750Y-117372648D01*
X148800750Y-117577352D01*
X148805128Y-117604995D01*
X148832772Y-117779534D01*
X148896031Y-117974223D01*
X148988965Y-118156613D01*
X149109278Y-118322213D01*
X149254036Y-118466971D01*
X149408999Y-118579556D01*
X149419640Y-118587287D01*
X149490251Y-118623265D01*
X149602026Y-118680218D01*
X149602028Y-118680218D01*
X149602031Y-118680220D01*
X149676757Y-118704500D01*
X149796715Y-118743477D01*
X149875188Y-118755906D01*
X149998898Y-118775500D01*
X149998899Y-118775500D01*
X150203601Y-118775500D01*
X150203602Y-118775500D01*
X150405784Y-118743477D01*
X150600469Y-118680220D01*
X150600472Y-118680218D01*
X150605102Y-118678714D01*
X150605532Y-118680038D01*
X150668750Y-118673233D01*
X150731233Y-118704500D01*
X150766893Y-118764585D01*
X150770749Y-118795266D01*
X150770749Y-118824054D01*
X150770748Y-118824054D01*
X150770749Y-118824057D01*
X150803080Y-118944717D01*
X150811674Y-118976787D01*
X150827887Y-119004868D01*
X150827888Y-119004870D01*
X150890727Y-119113712D01*
X150890731Y-119113717D01*
X150979833Y-119202819D01*
X151013318Y-119264142D01*
X151008334Y-119333834D01*
X150966462Y-119389767D01*
X150900998Y-119414184D01*
X150892152Y-119414500D01*
X142654347Y-119414500D01*
X142587308Y-119394815D01*
X142566666Y-119378181D01*
X142155756Y-118967271D01*
X142122271Y-118905948D01*
X142127255Y-118836256D01*
X142169127Y-118780323D01*
X142234591Y-118755906D01*
X142262833Y-118757116D01*
X142378898Y-118775500D01*
X142378899Y-118775500D01*
X142583601Y-118775500D01*
X142583602Y-118775500D01*
X142785784Y-118743477D01*
X142980469Y-118680220D01*
X143162860Y-118587287D01*
X143255840Y-118519732D01*
X143328463Y-118466971D01*
X143328465Y-118466968D01*
X143328469Y-118466966D01*
X143473216Y-118322219D01*
X143473218Y-118322215D01*
X143473221Y-118322213D01*
X143593534Y-118156614D01*
X143593535Y-118156613D01*
X143593537Y-118156610D01*
X143640766Y-118063917D01*
X143688739Y-118013123D01*
X143756560Y-117996328D01*
X143822695Y-118018865D01*
X143861735Y-118063919D01*
X143908965Y-118156614D01*
X144029278Y-118322213D01*
X144174036Y-118466971D01*
X144328999Y-118579556D01*
X144339640Y-118587287D01*
X144410251Y-118623265D01*
X144522026Y-118680218D01*
X144522028Y-118680218D01*
X144522031Y-118680220D01*
X144596757Y-118704500D01*
X144716715Y-118743477D01*
X144795188Y-118755906D01*
X144918898Y-118775500D01*
X144918899Y-118775500D01*
X145123601Y-118775500D01*
X145123602Y-118775500D01*
X145325784Y-118743477D01*
X145520469Y-118680220D01*
X145702860Y-118587287D01*
X145795840Y-118519732D01*
X145868463Y-118466971D01*
X145868465Y-118466968D01*
X145868469Y-118466966D01*
X146013216Y-118322219D01*
X146013218Y-118322215D01*
X146013221Y-118322213D01*
X146065982Y-118249590D01*
X146133537Y-118156610D01*
X146226470Y-117974219D01*
X146289727Y-117779534D01*
X146321750Y-117577352D01*
X146321750Y-117372648D01*
X146289727Y-117170466D01*
X146226470Y-116975781D01*
X146226468Y-116975778D01*
X146226468Y-116975776D01*
X146135806Y-116797844D01*
X146133537Y-116793390D01*
X146090027Y-116733503D01*
X146013221Y-116627786D01*
X145868463Y-116483028D01*
X145702863Y-116362715D01*
X145702862Y-116362714D01*
X145702860Y-116362713D01*
X145645903Y-116333691D01*
X145520473Y-116269781D01*
X145325784Y-116206522D01*
X145151245Y-116178878D01*
X145123602Y-116174500D01*
X144918898Y-116174500D01*
X144894579Y-116178351D01*
X144716715Y-116206522D01*
X144522026Y-116269781D01*
X144339636Y-116362715D01*
X144174036Y-116483028D01*
X144029278Y-116627786D01*
X143908965Y-116793386D01*
X143861735Y-116886080D01*
X143813760Y-116936876D01*
X143745939Y-116953671D01*
X143679804Y-116931134D01*
X143640765Y-116886080D01*
X143595806Y-116797844D01*
X143593537Y-116793390D01*
X143550027Y-116733503D01*
X143473221Y-116627786D01*
X143328463Y-116483028D01*
X143162863Y-116362715D01*
X143162862Y-116362714D01*
X143162860Y-116362713D01*
X143105903Y-116333691D01*
X142980473Y-116269781D01*
X142785784Y-116206522D01*
X142611245Y-116178878D01*
X142583602Y-116174500D01*
X142378898Y-116174500D01*
X142311504Y-116185174D01*
X142176714Y-116206523D01*
X142176711Y-116206523D01*
X141977397Y-116271285D01*
X141976967Y-116269963D01*
X141913736Y-116276763D01*
X141851256Y-116245490D01*
X141815602Y-116185402D01*
X141811750Y-116154733D01*
X141811750Y-114498765D01*
X141831435Y-114431726D01*
X141832648Y-114429874D01*
X141920640Y-114298185D01*
X141920640Y-114298184D01*
X141920644Y-114298179D01*
X141980987Y-114152497D01*
X142011750Y-113997842D01*
X142011750Y-113840158D01*
X142011750Y-113840155D01*
X142011749Y-113840153D01*
X141980987Y-113685503D01*
X141980985Y-113685498D01*
X141920647Y-113539827D01*
X141920640Y-113539814D01*
X141833039Y-113408711D01*
X141833036Y-113408707D01*
X141721542Y-113297213D01*
X141721538Y-113297210D01*
X141590435Y-113209609D01*
X141590422Y-113209602D01*
X141444751Y-113149264D01*
X141444739Y-113149261D01*
X141290095Y-113118500D01*
X141290092Y-113118500D01*
X141132408Y-113118500D01*
X141132405Y-113118500D01*
X140977760Y-113149261D01*
X140977748Y-113149264D01*
X140832077Y-113209602D01*
X140832064Y-113209609D01*
X140734641Y-113274706D01*
X140667963Y-113295584D01*
X140600583Y-113277099D01*
X140553893Y-113225121D01*
X140541750Y-113171604D01*
X140541750Y-112905096D01*
X140561435Y-112838057D01*
X140578064Y-112817420D01*
X144709993Y-108685490D01*
X144771314Y-108652007D01*
X144841006Y-108656991D01*
X144896939Y-108698863D01*
X144900774Y-108704281D01*
X144907463Y-108714292D01*
X145018957Y-108825786D01*
X145018961Y-108825789D01*
X145150064Y-108913390D01*
X145150077Y-108913397D01*
X145295748Y-108973735D01*
X145295753Y-108973737D01*
X145450403Y-109004499D01*
X145450406Y-109004500D01*
X145450408Y-109004500D01*
X145608094Y-109004500D01*
X145608095Y-109004499D01*
X145762747Y-108973737D01*
X145908429Y-108913394D01*
X145908435Y-108913390D01*
X146040125Y-108825398D01*
X146058171Y-108819747D01*
X146074081Y-108809523D01*
X146105042Y-108805071D01*
X146106803Y-108804520D01*
X146109016Y-108804500D01*
X146346484Y-108804500D01*
X146413523Y-108824185D01*
X146415375Y-108825398D01*
X146547064Y-108913390D01*
X146547077Y-108913397D01*
X146692748Y-108973735D01*
X146692753Y-108973737D01*
X146847403Y-109004499D01*
X146847406Y-109004500D01*
X146847408Y-109004500D01*
X147005094Y-109004500D01*
X147005095Y-109004499D01*
X147159747Y-108973737D01*
X147305429Y-108913394D01*
X147436539Y-108825789D01*
X147548039Y-108714289D01*
X147635644Y-108583179D01*
X147637856Y-108577840D01*
X147695985Y-108437501D01*
X147695987Y-108437497D01*
X147726750Y-108282842D01*
X147726750Y-108125158D01*
X147726750Y-108125155D01*
X147726749Y-108125153D01*
X147722354Y-108103057D01*
X147695987Y-107970503D01*
X147695985Y-107970498D01*
X147635647Y-107824827D01*
X147635640Y-107824814D01*
X147548039Y-107693711D01*
X147548036Y-107693707D01*
X147436542Y-107582213D01*
X147436538Y-107582210D01*
X147305435Y-107494609D01*
X147305422Y-107494602D01*
X147159751Y-107434264D01*
X147159739Y-107434261D01*
X147005095Y-107403500D01*
X147005092Y-107403500D01*
X146847408Y-107403500D01*
X146847405Y-107403500D01*
X146692760Y-107434261D01*
X146692748Y-107434264D01*
X146547077Y-107494602D01*
X146547064Y-107494609D01*
X146415375Y-107582602D01*
X146397328Y-107588252D01*
X146381419Y-107598477D01*
X146350457Y-107602928D01*
X146348697Y-107603480D01*
X146346484Y-107603500D01*
X146109016Y-107603500D01*
X146041977Y-107583815D01*
X146040125Y-107582602D01*
X146029532Y-107575524D01*
X145984727Y-107521912D01*
X145976020Y-107452587D01*
X146006174Y-107389560D01*
X146010722Y-107384761D01*
X147363412Y-106032072D01*
X147424733Y-105998589D01*
X147426900Y-105998138D01*
X147484835Y-105986613D01*
X147582247Y-105967237D01*
X147725049Y-105908086D01*
X147794517Y-105900618D01*
X147819946Y-105908085D01*
G37*
G04 #@! TD.AperFunction*
G04 #@! TA.AperFunction,Conductor*
G36*
X153648478Y-97948573D02*
G01*
X153656717Y-97956103D01*
X155814431Y-100113816D01*
X155847916Y-100175139D01*
X155850750Y-100201497D01*
X155850750Y-110854872D01*
X155844511Y-110876117D01*
X155842932Y-110898204D01*
X155834859Y-110908987D01*
X155831065Y-110921911D01*
X155814330Y-110936411D01*
X155801061Y-110954138D01*
X155788440Y-110958845D01*
X155778261Y-110967666D01*
X155756344Y-110970817D01*
X155735597Y-110978556D01*
X155722435Y-110975693D01*
X155709103Y-110977610D01*
X155688961Y-110968411D01*
X155667324Y-110963705D01*
X155649597Y-110950434D01*
X155645547Y-110948585D01*
X155639070Y-110942554D01*
X155572632Y-110876117D01*
X155549966Y-110853451D01*
X155549963Y-110853449D01*
X152875514Y-108179000D01*
X150196339Y-105499824D01*
X150162854Y-105438501D01*
X150162403Y-105436334D01*
X150131503Y-105280995D01*
X150131502Y-105280988D01*
X150122857Y-105260116D01*
X150071162Y-105135312D01*
X150071155Y-105135299D01*
X149983554Y-105004196D01*
X149983551Y-105004192D01*
X149872057Y-104892698D01*
X149872053Y-104892695D01*
X149740950Y-104805094D01*
X149740937Y-104805087D01*
X149595266Y-104744749D01*
X149595254Y-104744746D01*
X149440610Y-104713985D01*
X149440607Y-104713985D01*
X149282923Y-104713985D01*
X149282920Y-104713985D01*
X149128275Y-104744746D01*
X149128263Y-104744749D01*
X149009416Y-104793977D01*
X148939947Y-104801446D01*
X148877468Y-104770170D01*
X148858862Y-104748306D01*
X148818042Y-104687215D01*
X148818036Y-104687207D01*
X148706542Y-104575713D01*
X148706538Y-104575710D01*
X148575435Y-104488109D01*
X148575422Y-104488102D01*
X148429751Y-104427764D01*
X148429739Y-104427761D01*
X148275095Y-104397000D01*
X148275092Y-104397000D01*
X148117408Y-104397000D01*
X148117405Y-104397000D01*
X147962760Y-104427761D01*
X147962748Y-104427764D01*
X147819952Y-104486912D01*
X147750483Y-104494381D01*
X147725048Y-104486912D01*
X147582251Y-104427764D01*
X147582239Y-104427761D01*
X147427595Y-104397000D01*
X147427592Y-104397000D01*
X147269908Y-104397000D01*
X147269905Y-104397000D01*
X147115260Y-104427761D01*
X147115248Y-104427764D01*
X146969577Y-104488102D01*
X146969564Y-104488109D01*
X146838461Y-104575710D01*
X146838457Y-104575713D01*
X146726963Y-104687207D01*
X146726960Y-104687211D01*
X146639359Y-104818314D01*
X146639352Y-104818327D01*
X146579014Y-104963998D01*
X146579011Y-104964008D01*
X146548111Y-105119350D01*
X146515726Y-105181261D01*
X146514175Y-105182839D01*
X139460731Y-112236282D01*
X139460729Y-112236284D01*
X139444004Y-112265253D01*
X139436935Y-112277499D01*
X139381673Y-112373215D01*
X139340749Y-112525943D01*
X139340749Y-112525945D01*
X139340749Y-112694046D01*
X139340750Y-112694059D01*
X139340750Y-116245397D01*
X139321065Y-116312436D01*
X139273050Y-116355879D01*
X139259639Y-116362712D01*
X139094036Y-116483028D01*
X138949282Y-116627782D01*
X138949278Y-116627787D01*
X138861068Y-116749199D01*
X138805738Y-116791865D01*
X138736125Y-116797844D01*
X138674330Y-116765239D01*
X138639973Y-116704400D01*
X138636750Y-116676314D01*
X138636750Y-108000096D01*
X138656435Y-107933057D01*
X138673064Y-107912420D01*
X140173666Y-106411817D01*
X140234989Y-106378333D01*
X140261347Y-106375499D01*
X142109121Y-106375499D01*
X142109122Y-106375499D01*
X142168733Y-106369091D01*
X142303581Y-106318796D01*
X142418796Y-106232546D01*
X142505046Y-106117331D01*
X142555341Y-105982483D01*
X142561750Y-105922873D01*
X142561749Y-103627128D01*
X142561522Y-103625022D01*
X142559667Y-103607755D01*
X142572072Y-103538996D01*
X142619682Y-103487858D01*
X142682956Y-103470500D01*
X146992081Y-103470500D01*
X146992097Y-103470501D01*
X146999693Y-103470501D01*
X147157804Y-103470501D01*
X147157807Y-103470501D01*
X147310535Y-103429577D01*
X147367791Y-103396520D01*
X147447466Y-103350520D01*
X147559270Y-103238716D01*
X147559270Y-103238714D01*
X147569474Y-103228511D01*
X147569477Y-103228506D01*
X152516166Y-98281819D01*
X152577489Y-98248334D01*
X152603847Y-98245500D01*
X152945419Y-98245500D01*
X152945424Y-98245500D01*
X153043935Y-98235436D01*
X153203537Y-98182549D01*
X153346641Y-98094281D01*
X153465531Y-97975391D01*
X153465534Y-97975385D01*
X153470012Y-97969724D01*
X153471850Y-97971178D01*
X153515431Y-97931970D01*
X153584392Y-97920738D01*
X153648478Y-97948573D01*
G37*
G04 #@! TD.AperFunction*
G04 #@! TA.AperFunction,Conductor*
G36*
X153921379Y-83551185D02*
G01*
X153967134Y-83603989D01*
X153977078Y-83673147D01*
X153948053Y-83736703D01*
X153923231Y-83758602D01*
X153846094Y-83810143D01*
X153846090Y-83810146D01*
X153734596Y-83921640D01*
X153734593Y-83921644D01*
X153646992Y-84052747D01*
X153646985Y-84052760D01*
X153586647Y-84198431D01*
X153586644Y-84198443D01*
X153555883Y-84353086D01*
X153555883Y-84510779D01*
X153586644Y-84665422D01*
X153586647Y-84665434D01*
X153646986Y-84811107D01*
X153646987Y-84811108D01*
X153646989Y-84811112D01*
X153674852Y-84852811D01*
X153695730Y-84919488D01*
X153695750Y-84921702D01*
X153695750Y-86517837D01*
X153687932Y-86561170D01*
X153678081Y-86587583D01*
X153675159Y-86595417D01*
X153668750Y-86655027D01*
X153668750Y-86655034D01*
X153668750Y-86655035D01*
X153668750Y-87030169D01*
X153668751Y-87030176D01*
X153675158Y-87089783D01*
X153725452Y-87224628D01*
X153725456Y-87224635D01*
X153785010Y-87304188D01*
X153809428Y-87369652D01*
X153794577Y-87437925D01*
X153745172Y-87487331D01*
X153685745Y-87502499D01*
X153571280Y-87502499D01*
X153571273Y-87502500D01*
X153511666Y-87508907D01*
X153376821Y-87559201D01*
X153376814Y-87559205D01*
X153261605Y-87645451D01*
X153261602Y-87645454D01*
X153175356Y-87760663D01*
X153175352Y-87760670D01*
X153125060Y-87895512D01*
X153125059Y-87895516D01*
X153118650Y-87955126D01*
X153118650Y-87955133D01*
X153118650Y-87955134D01*
X153118650Y-88304868D01*
X153118651Y-88304875D01*
X153125058Y-88364480D01*
X153129794Y-88377178D01*
X153143496Y-88413915D01*
X153150532Y-88432777D01*
X153151547Y-88438407D01*
X153153327Y-88441176D01*
X153158350Y-88476111D01*
X153158350Y-88575930D01*
X153158349Y-88575948D01*
X153158349Y-88741654D01*
X153158348Y-88741654D01*
X153199273Y-88894386D01*
X153199274Y-88894387D01*
X153204618Y-88903643D01*
X153222177Y-88934056D01*
X153277342Y-89029605D01*
X153278331Y-89031317D01*
X153397199Y-89150185D01*
X153397205Y-89150190D01*
X153397489Y-89150474D01*
X153397499Y-89150485D01*
X153401829Y-89154815D01*
X153401830Y-89154816D01*
X153513634Y-89266620D01*
X153513636Y-89266621D01*
X153513640Y-89266624D01*
X153610567Y-89322584D01*
X153650566Y-89345677D01*
X153762369Y-89375634D01*
X153803292Y-89386600D01*
X153803293Y-89386600D01*
X153996153Y-89386600D01*
X154025593Y-89395244D01*
X154055580Y-89401768D01*
X154060595Y-89405522D01*
X154063192Y-89406285D01*
X154083834Y-89422919D01*
X154210575Y-89549660D01*
X154244060Y-89610983D01*
X154244511Y-89613149D01*
X154275411Y-89768491D01*
X154275414Y-89768501D01*
X154335752Y-89914172D01*
X154335759Y-89914185D01*
X154423360Y-90045288D01*
X154423363Y-90045292D01*
X154534857Y-90156786D01*
X154534861Y-90156789D01*
X154665964Y-90244390D01*
X154665977Y-90244397D01*
X154763320Y-90284717D01*
X154811653Y-90304737D01*
X154958014Y-90333850D01*
X155019925Y-90366234D01*
X155048384Y-90408015D01*
X155106852Y-90549172D01*
X155106859Y-90549185D01*
X155194460Y-90680288D01*
X155194463Y-90680292D01*
X155305957Y-90791786D01*
X155305961Y-90791789D01*
X155437064Y-90879390D01*
X155437077Y-90879397D01*
X155559692Y-90930185D01*
X155582753Y-90939737D01*
X155737403Y-90970499D01*
X155737406Y-90970500D01*
X155737408Y-90970500D01*
X155895094Y-90970500D01*
X155895095Y-90970499D01*
X156049747Y-90939737D01*
X156195429Y-90879394D01*
X156326539Y-90791789D01*
X156438039Y-90680289D01*
X156525644Y-90549179D01*
X156585987Y-90403497D01*
X156616750Y-90248842D01*
X156616750Y-90161900D01*
X156636435Y-90094861D01*
X156689239Y-90049106D01*
X156740750Y-90037900D01*
X158277189Y-90037900D01*
X158277193Y-90037901D01*
X158435307Y-90037901D01*
X158435311Y-90037900D01*
X160862180Y-90037900D01*
X160862196Y-90037901D01*
X160869792Y-90037901D01*
X161027903Y-90037901D01*
X161027906Y-90037901D01*
X161180634Y-89996977D01*
X161230753Y-89968039D01*
X161317565Y-89917920D01*
X161361346Y-89874138D01*
X161369720Y-89868163D01*
X161393392Y-89859942D01*
X161415390Y-89847931D01*
X161425834Y-89848677D01*
X161435724Y-89845244D01*
X161460083Y-89851127D01*
X161485082Y-89852915D01*
X161493463Y-89859188D01*
X161503641Y-89861647D01*
X161520953Y-89879767D01*
X161541016Y-89894785D01*
X161544674Y-89904594D01*
X161551908Y-89912165D01*
X161556675Y-89936767D01*
X161565434Y-89960249D01*
X161565750Y-89969097D01*
X161565750Y-91172191D01*
X161546065Y-91239230D01*
X161529431Y-91259872D01*
X161498173Y-91291129D01*
X161498167Y-91291137D01*
X161414505Y-91432603D01*
X161414504Y-91432606D01*
X161368652Y-91590426D01*
X161368651Y-91590432D01*
X161365750Y-91627298D01*
X161365750Y-92793500D01*
X161346065Y-92860539D01*
X161293261Y-92906294D01*
X161241750Y-92917500D01*
X161000548Y-92917500D01*
X160963682Y-92920401D01*
X160963676Y-92920402D01*
X160805856Y-92966254D01*
X160805853Y-92966255D01*
X160664387Y-93049917D01*
X160664379Y-93049923D01*
X160548173Y-93166129D01*
X160548167Y-93166137D01*
X160464505Y-93307603D01*
X160464504Y-93307606D01*
X160418652Y-93465426D01*
X160418651Y-93465432D01*
X160415750Y-93502298D01*
X160415750Y-94808701D01*
X160418651Y-94845567D01*
X160418652Y-94845573D01*
X160464504Y-95003393D01*
X160464505Y-95003396D01*
X160548167Y-95144862D01*
X160548173Y-95144870D01*
X160579430Y-95176126D01*
X160612916Y-95237448D01*
X160615750Y-95263808D01*
X160615750Y-97007330D01*
X160615749Y-97007348D01*
X160615749Y-97173054D01*
X160615748Y-97173054D01*
X160615749Y-97173057D01*
X160656673Y-97325785D01*
X160681768Y-97369250D01*
X160735729Y-97462714D01*
X160735731Y-97462717D01*
X160854599Y-97581585D01*
X160854605Y-97581590D01*
X163263145Y-99990130D01*
X163296630Y-100051453D01*
X163291646Y-100121145D01*
X163249774Y-100177078D01*
X163184310Y-100201495D01*
X163156067Y-100200284D01*
X162930131Y-100164500D01*
X162930124Y-100164500D01*
X162697876Y-100164500D01*
X162697871Y-100164500D01*
X162468485Y-100200831D01*
X162247599Y-100272601D01*
X162040668Y-100378039D01*
X161852773Y-100514553D01*
X161688553Y-100678773D01*
X161552039Y-100866668D01*
X161446601Y-101073599D01*
X161374831Y-101294485D01*
X161338500Y-101523870D01*
X161338500Y-101756129D01*
X161374831Y-101985514D01*
X161446601Y-102206400D01*
X161545785Y-102401057D01*
X161552039Y-102413331D01*
X161688551Y-102601224D01*
X161852776Y-102765449D01*
X162040669Y-102901961D01*
X162138436Y-102951776D01*
X162247599Y-103007398D01*
X162247601Y-103007398D01*
X162247604Y-103007400D01*
X162468486Y-103079169D01*
X162586668Y-103097886D01*
X162697871Y-103115500D01*
X162697876Y-103115500D01*
X162930129Y-103115500D01*
X163159514Y-103079169D01*
X163178626Y-103072959D01*
X163271725Y-103042708D01*
X163286937Y-103042274D01*
X163301196Y-103036956D01*
X163321148Y-103041296D01*
X163341564Y-103040713D01*
X163355652Y-103048802D01*
X163369469Y-103051808D01*
X163397723Y-103072959D01*
X163453181Y-103128417D01*
X163486666Y-103189740D01*
X163489500Y-103216098D01*
X163489500Y-105137378D01*
X163469815Y-105204417D01*
X163417011Y-105250172D01*
X163347853Y-105260116D01*
X163327182Y-105255309D01*
X163159517Y-105200831D01*
X162930129Y-105164500D01*
X162930124Y-105164500D01*
X162697876Y-105164500D01*
X162697871Y-105164500D01*
X162468485Y-105200831D01*
X162468482Y-105200831D01*
X162356274Y-105237290D01*
X162286432Y-105239285D01*
X162230275Y-105207040D01*
X159132819Y-102109584D01*
X159099334Y-102048261D01*
X159096500Y-102021903D01*
X159096500Y-98058810D01*
X159096501Y-98058797D01*
X159096501Y-97890694D01*
X159093487Y-97879446D01*
X159055577Y-97737966D01*
X159045060Y-97719749D01*
X158976524Y-97601040D01*
X158976518Y-97601032D01*
X151500069Y-90124583D01*
X151466584Y-90063260D01*
X151463750Y-90036902D01*
X151463750Y-85542765D01*
X151483435Y-85475726D01*
X151484648Y-85473874D01*
X151572640Y-85342185D01*
X151572640Y-85342184D01*
X151572644Y-85342179D01*
X151632987Y-85196497D01*
X151663750Y-85041842D01*
X151663750Y-84884158D01*
X151663750Y-84884155D01*
X151663749Y-84884153D01*
X151649219Y-84811107D01*
X151632987Y-84729503D01*
X151632985Y-84729498D01*
X151576013Y-84591953D01*
X151568544Y-84522484D01*
X151599820Y-84460005D01*
X151659909Y-84424353D01*
X151690574Y-84420501D01*
X151704304Y-84420501D01*
X151704307Y-84420501D01*
X151857035Y-84379577D01*
X151923486Y-84341211D01*
X151993966Y-84300520D01*
X152105770Y-84188716D01*
X152105770Y-84188714D01*
X152115974Y-84178511D01*
X152115977Y-84178506D01*
X152726666Y-83567819D01*
X152787989Y-83534334D01*
X152814347Y-83531500D01*
X153854340Y-83531500D01*
X153921379Y-83551185D01*
G37*
G04 #@! TD.AperFunction*
G04 #@! TA.AperFunction,Conductor*
G36*
X139476510Y-88789938D02*
G01*
X139598251Y-88840365D01*
X139713210Y-88855500D01*
X140012153Y-88855500D01*
X140041593Y-88864144D01*
X140071580Y-88870668D01*
X140076595Y-88874422D01*
X140079192Y-88875185D01*
X140099834Y-88891819D01*
X140122675Y-88914660D01*
X140156160Y-88975983D01*
X140156611Y-88978149D01*
X140187511Y-89133491D01*
X140187514Y-89133501D01*
X140247852Y-89279172D01*
X140247859Y-89279185D01*
X140335460Y-89410288D01*
X140335463Y-89410292D01*
X140446957Y-89521786D01*
X140446961Y-89521789D01*
X140578064Y-89609390D01*
X140578077Y-89609397D01*
X140723746Y-89669734D01*
X140723753Y-89669737D01*
X140878403Y-89700499D01*
X140878406Y-89700500D01*
X140878408Y-89700500D01*
X141036094Y-89700500D01*
X141036095Y-89700499D01*
X141190747Y-89669737D01*
X141325686Y-89613844D01*
X141336422Y-89609397D01*
X141336422Y-89609396D01*
X141336429Y-89609394D01*
X141467539Y-89521789D01*
X141579039Y-89410289D01*
X141666644Y-89279179D01*
X141685004Y-89234851D01*
X141728843Y-89180450D01*
X141795137Y-89158384D01*
X141831654Y-89162529D01*
X141982693Y-89203001D01*
X141982695Y-89203001D01*
X142148404Y-89203001D01*
X142148420Y-89203000D01*
X142282484Y-89203000D01*
X142349523Y-89222685D01*
X142351375Y-89223898D01*
X142483064Y-89311890D01*
X142483077Y-89311897D01*
X142628748Y-89372235D01*
X142628753Y-89372237D01*
X142777214Y-89401768D01*
X142783403Y-89402999D01*
X142783406Y-89403000D01*
X142783408Y-89403000D01*
X142941094Y-89403000D01*
X142941095Y-89402999D01*
X143095747Y-89372237D01*
X143241429Y-89311894D01*
X143372539Y-89224289D01*
X143393828Y-89203000D01*
X143447069Y-89149760D01*
X143508392Y-89116275D01*
X143578084Y-89121259D01*
X143634017Y-89163131D01*
X143658434Y-89228595D01*
X143658750Y-89237441D01*
X143658750Y-89829330D01*
X143658749Y-89829348D01*
X143658749Y-89995054D01*
X143658748Y-89995054D01*
X143699672Y-90147783D01*
X143715924Y-90175933D01*
X143778725Y-90284709D01*
X143778731Y-90284717D01*
X143897599Y-90403585D01*
X143897605Y-90403590D01*
X144059675Y-90565660D01*
X144093160Y-90626983D01*
X144093611Y-90629149D01*
X144124511Y-90784491D01*
X144124514Y-90784501D01*
X144184852Y-90930172D01*
X144184859Y-90930185D01*
X144272460Y-91061288D01*
X144272463Y-91061292D01*
X144383957Y-91172786D01*
X144383961Y-91172789D01*
X144515064Y-91260390D01*
X144515077Y-91260397D01*
X144660748Y-91320735D01*
X144660753Y-91320737D01*
X144815403Y-91351499D01*
X144815406Y-91351500D01*
X144815408Y-91351500D01*
X144973094Y-91351500D01*
X144973095Y-91351499D01*
X145127747Y-91320737D01*
X145273429Y-91260394D01*
X145328564Y-91223554D01*
X145409604Y-91169405D01*
X145411035Y-91171547D01*
X145464982Y-91148598D01*
X145533856Y-91160349D01*
X145567090Y-91184075D01*
X147234675Y-92851660D01*
X147268160Y-92912983D01*
X147268611Y-92915149D01*
X147299511Y-93070491D01*
X147299514Y-93070501D01*
X147359852Y-93216172D01*
X147359859Y-93216185D01*
X147447460Y-93347288D01*
X147447463Y-93347292D01*
X147558957Y-93458786D01*
X147558961Y-93458789D01*
X147690064Y-93546390D01*
X147690077Y-93546397D01*
X147834505Y-93606220D01*
X147835753Y-93606737D01*
X147990403Y-93637499D01*
X147990406Y-93637500D01*
X147990408Y-93637500D01*
X148148094Y-93637500D01*
X148148095Y-93637499D01*
X148302747Y-93606737D01*
X148302759Y-93606731D01*
X148308574Y-93604969D01*
X148308953Y-93606220D01*
X148371719Y-93599467D01*
X148434201Y-93630737D01*
X148469859Y-93690822D01*
X148471330Y-93697307D01*
X148481511Y-93748491D01*
X148481514Y-93748501D01*
X148541852Y-93894172D01*
X148541859Y-93894185D01*
X148632845Y-94030354D01*
X148630553Y-94031885D01*
X148653244Y-94085262D01*
X148654083Y-94099659D01*
X148654083Y-94811814D01*
X148634398Y-94878853D01*
X148595181Y-94917352D01*
X148549192Y-94945718D01*
X148430302Y-95064608D01*
X148430299Y-95064612D01*
X148342038Y-95207704D01*
X148342033Y-95207715D01*
X148336276Y-95225089D01*
X148289147Y-95367315D01*
X148289147Y-95367316D01*
X148289146Y-95367316D01*
X148279083Y-95465818D01*
X148279083Y-95999181D01*
X148289146Y-96097683D01*
X148342033Y-96257284D01*
X148342038Y-96257295D01*
X148430299Y-96400387D01*
X148430302Y-96400391D01*
X148462230Y-96432319D01*
X148495715Y-96493642D01*
X148490731Y-96563334D01*
X148462230Y-96607681D01*
X148430302Y-96639608D01*
X148430299Y-96639612D01*
X148342038Y-96782704D01*
X148342034Y-96782713D01*
X148289147Y-96942315D01*
X148289147Y-96942316D01*
X148289146Y-96942316D01*
X148279083Y-97040818D01*
X148279083Y-97574181D01*
X148289146Y-97672683D01*
X148342033Y-97832284D01*
X148342038Y-97832295D01*
X148430299Y-97975387D01*
X148430302Y-97975391D01*
X148549191Y-98094280D01*
X148549195Y-98094283D01*
X148692287Y-98182544D01*
X148692290Y-98182545D01*
X148692296Y-98182549D01*
X148851898Y-98235436D01*
X148950409Y-98245500D01*
X148950414Y-98245500D01*
X149558752Y-98245500D01*
X149558757Y-98245500D01*
X149657268Y-98235436D01*
X149816870Y-98182549D01*
X149959974Y-98094281D01*
X150078864Y-97975391D01*
X150167132Y-97832287D01*
X150220019Y-97672685D01*
X150230083Y-97574174D01*
X150230083Y-97244500D01*
X150249768Y-97177461D01*
X150302572Y-97131706D01*
X150354083Y-97120500D01*
X151541750Y-97120500D01*
X151550435Y-97123050D01*
X151559397Y-97121762D01*
X151583437Y-97132740D01*
X151608789Y-97140185D01*
X151614716Y-97147025D01*
X151622953Y-97150787D01*
X151637242Y-97173021D01*
X151654544Y-97192989D01*
X151656831Y-97203503D01*
X151660727Y-97209565D01*
X151665750Y-97244500D01*
X151665750Y-97382403D01*
X151646065Y-97449442D01*
X151629431Y-97470084D01*
X146866334Y-102233181D01*
X146805011Y-102266666D01*
X146778653Y-102269500D01*
X146615313Y-102269500D01*
X146548274Y-102249815D01*
X146502519Y-102197011D01*
X146492575Y-102127853D01*
X146512211Y-102076609D01*
X146577307Y-101979185D01*
X146577307Y-101979184D01*
X146577311Y-101979179D01*
X146637654Y-101833497D01*
X146668417Y-101678842D01*
X146668417Y-101521158D01*
X146668417Y-101521155D01*
X146668416Y-101521153D01*
X146637655Y-101366510D01*
X146637654Y-101366503D01*
X146607824Y-101294486D01*
X146577314Y-101220827D01*
X146577307Y-101220814D01*
X146489315Y-101089125D01*
X146468437Y-101022447D01*
X146468417Y-101020234D01*
X146468417Y-98228185D01*
X146488102Y-98161146D01*
X146527318Y-98122647D01*
X146573308Y-98094281D01*
X146692198Y-97975391D01*
X146780466Y-97832287D01*
X146833353Y-97672685D01*
X146843417Y-97574174D01*
X146843417Y-97040826D01*
X146833353Y-96942315D01*
X146780466Y-96782713D01*
X146780462Y-96782707D01*
X146780461Y-96782704D01*
X146692200Y-96639612D01*
X146692197Y-96639608D01*
X146660270Y-96607681D01*
X146626785Y-96546358D01*
X146631769Y-96476666D01*
X146660270Y-96432319D01*
X146692198Y-96400391D01*
X146780466Y-96257287D01*
X146833353Y-96097685D01*
X146843417Y-95999174D01*
X146843417Y-95465826D01*
X146833353Y-95367315D01*
X146780466Y-95207713D01*
X146780462Y-95207707D01*
X146780461Y-95207704D01*
X146692200Y-95064612D01*
X146692197Y-95064608D01*
X146573307Y-94945718D01*
X146527319Y-94917352D01*
X146480595Y-94865403D01*
X146468417Y-94811814D01*
X146468417Y-94084787D01*
X146488102Y-94017748D01*
X146489315Y-94015896D01*
X146570644Y-93894179D01*
X146577293Y-93878128D01*
X146591960Y-93842717D01*
X146630987Y-93748497D01*
X146661750Y-93593842D01*
X146661750Y-93436158D01*
X146661750Y-93436155D01*
X146661749Y-93436153D01*
X146651788Y-93386076D01*
X146630987Y-93281503D01*
X146630985Y-93281498D01*
X146570647Y-93135827D01*
X146570640Y-93135814D01*
X146483039Y-93004711D01*
X146483036Y-93004707D01*
X146371542Y-92893213D01*
X146371538Y-92893210D01*
X146240435Y-92805609D01*
X146240422Y-92805602D01*
X146094751Y-92745264D01*
X146094739Y-92745261D01*
X145940095Y-92714500D01*
X145940092Y-92714500D01*
X145782408Y-92714500D01*
X145782405Y-92714500D01*
X145627760Y-92745261D01*
X145627748Y-92745264D01*
X145482077Y-92805602D01*
X145482064Y-92805609D01*
X145350961Y-92893210D01*
X145350957Y-92893213D01*
X145239463Y-93004707D01*
X145239460Y-93004711D01*
X145151859Y-93135814D01*
X145151852Y-93135827D01*
X145091514Y-93281498D01*
X145091511Y-93281510D01*
X145060750Y-93436153D01*
X145060750Y-93593846D01*
X145091511Y-93748489D01*
X145091514Y-93748501D01*
X145151852Y-93894172D01*
X145151859Y-93894185D01*
X145242845Y-94030354D01*
X145241811Y-94031044D01*
X145266582Y-94089356D01*
X145267417Y-94103721D01*
X145267417Y-94811814D01*
X145247732Y-94878853D01*
X145208515Y-94917352D01*
X145162526Y-94945718D01*
X145043636Y-95064608D01*
X145043633Y-95064612D01*
X144955372Y-95207704D01*
X144955367Y-95207715D01*
X144949610Y-95225089D01*
X144902481Y-95367315D01*
X144902481Y-95367316D01*
X144902480Y-95367316D01*
X144892417Y-95465818D01*
X144892417Y-95999181D01*
X144902480Y-96097683D01*
X144955367Y-96257284D01*
X144955372Y-96257295D01*
X145043633Y-96400387D01*
X145043636Y-96400391D01*
X145075564Y-96432319D01*
X145109049Y-96493642D01*
X145104065Y-96563334D01*
X145075564Y-96607681D01*
X145043636Y-96639608D01*
X145043633Y-96639612D01*
X144955372Y-96782704D01*
X144955368Y-96782713D01*
X144902481Y-96942315D01*
X144902481Y-96942316D01*
X144902480Y-96942316D01*
X144892417Y-97040818D01*
X144892417Y-97574181D01*
X144902480Y-97672683D01*
X144955367Y-97832284D01*
X144955372Y-97832295D01*
X145043633Y-97975387D01*
X145043636Y-97975391D01*
X145162526Y-98094281D01*
X145208515Y-98122647D01*
X145255238Y-98174594D01*
X145267417Y-98228185D01*
X145267417Y-101020234D01*
X145247732Y-101087273D01*
X145246519Y-101089125D01*
X145158526Y-101220814D01*
X145158519Y-101220827D01*
X145098181Y-101366498D01*
X145098178Y-101366510D01*
X145067417Y-101521153D01*
X145067417Y-101678846D01*
X145098178Y-101833489D01*
X145098181Y-101833501D01*
X145158519Y-101979172D01*
X145158526Y-101979185D01*
X145223623Y-102076609D01*
X145244501Y-102143287D01*
X145226016Y-102210667D01*
X145174038Y-102257357D01*
X145120521Y-102269500D01*
X140020307Y-102269500D01*
X139862193Y-102269500D01*
X139709465Y-102310423D01*
X139709464Y-102310423D01*
X139709462Y-102310424D01*
X139709459Y-102310425D01*
X139659346Y-102339359D01*
X139659345Y-102339360D01*
X139615939Y-102364420D01*
X139572535Y-102389479D01*
X139572532Y-102389481D01*
X136943431Y-105018583D01*
X136882108Y-105052068D01*
X136812416Y-105047084D01*
X136756483Y-105005212D01*
X136732066Y-104939748D01*
X136731750Y-104930902D01*
X136731750Y-99706332D01*
X136751435Y-99639293D01*
X136804239Y-99593538D01*
X136873397Y-99583594D01*
X136936953Y-99612619D01*
X136970311Y-99658880D01*
X137011852Y-99759172D01*
X137011859Y-99759185D01*
X137099460Y-99890288D01*
X137099463Y-99890292D01*
X137210957Y-100001786D01*
X137210961Y-100001789D01*
X137342064Y-100089390D01*
X137342077Y-100089397D01*
X137401031Y-100113816D01*
X137487753Y-100149737D01*
X137615457Y-100175139D01*
X137642403Y-100180499D01*
X137642406Y-100180500D01*
X137642408Y-100180500D01*
X137800094Y-100180500D01*
X137800095Y-100180499D01*
X137954747Y-100149737D01*
X138100429Y-100089394D01*
X138231539Y-100001789D01*
X138343039Y-99890289D01*
X138430644Y-99759179D01*
X138490987Y-99613497D01*
X138521750Y-99458842D01*
X138521750Y-99301158D01*
X138521750Y-99301155D01*
X138521749Y-99301153D01*
X138490988Y-99146510D01*
X138490987Y-99146503D01*
X138475524Y-99109172D01*
X138430647Y-99000827D01*
X138430640Y-99000814D01*
X138342648Y-98869125D01*
X138321770Y-98802447D01*
X138321750Y-98800234D01*
X138321750Y-97930808D01*
X138341435Y-97863769D01*
X138358070Y-97843126D01*
X138389326Y-97811870D01*
X138389331Y-97811865D01*
X138472994Y-97670398D01*
X138518848Y-97512569D01*
X138521750Y-97475694D01*
X138521750Y-96309500D01*
X138541435Y-96242461D01*
X138594239Y-96196706D01*
X138645750Y-96185500D01*
X138886936Y-96185500D01*
X138886944Y-96185500D01*
X138923819Y-96182598D01*
X138923821Y-96182597D01*
X138923823Y-96182597D01*
X138969570Y-96169306D01*
X139081648Y-96136744D01*
X139223115Y-96053081D01*
X139339331Y-95936865D01*
X139422994Y-95795398D01*
X139468848Y-95637569D01*
X139471750Y-95600694D01*
X139471750Y-95465818D01*
X141505750Y-95465818D01*
X141505750Y-95999181D01*
X141515813Y-96097683D01*
X141568700Y-96257284D01*
X141568705Y-96257295D01*
X141656966Y-96400387D01*
X141656969Y-96400391D01*
X141688897Y-96432319D01*
X141722382Y-96493642D01*
X141717398Y-96563334D01*
X141688897Y-96607681D01*
X141656969Y-96639608D01*
X141656966Y-96639612D01*
X141568705Y-96782704D01*
X141568701Y-96782713D01*
X141515814Y-96942315D01*
X141515814Y-96942316D01*
X141515813Y-96942316D01*
X141505750Y-97040818D01*
X141505750Y-97574181D01*
X141515813Y-97672683D01*
X141568700Y-97832284D01*
X141568705Y-97832295D01*
X141656966Y-97975387D01*
X141656969Y-97975391D01*
X141775859Y-98094281D01*
X141821848Y-98122647D01*
X141828671Y-98130233D01*
X141837953Y-98134472D01*
X141851641Y-98155771D01*
X141868571Y-98174594D01*
X141871215Y-98186229D01*
X141875727Y-98193250D01*
X141880750Y-98228185D01*
X141880750Y-98353234D01*
X141861065Y-98420273D01*
X141859852Y-98422125D01*
X141771859Y-98553814D01*
X141771852Y-98553827D01*
X141711514Y-98699498D01*
X141711511Y-98699510D01*
X141680750Y-98854153D01*
X141680750Y-99011846D01*
X141711511Y-99166489D01*
X141711514Y-99166501D01*
X141771852Y-99312172D01*
X141771859Y-99312185D01*
X141859460Y-99443288D01*
X141859463Y-99443292D01*
X141970957Y-99554786D01*
X141970961Y-99554789D01*
X142102064Y-99642390D01*
X142102077Y-99642397D01*
X142247748Y-99702735D01*
X142247753Y-99702737D01*
X142384325Y-99729903D01*
X142402403Y-99733499D01*
X142402406Y-99733500D01*
X142402408Y-99733500D01*
X142560094Y-99733500D01*
X142560095Y-99733499D01*
X142714747Y-99702737D01*
X142860429Y-99642394D01*
X142991539Y-99554789D01*
X143103039Y-99443289D01*
X143190644Y-99312179D01*
X143250987Y-99166497D01*
X143281750Y-99011842D01*
X143281750Y-98854158D01*
X143281750Y-98854155D01*
X143281749Y-98854153D01*
X143250988Y-98699510D01*
X143250987Y-98699503D01*
X143250985Y-98699498D01*
X143190647Y-98553827D01*
X143190640Y-98553814D01*
X143102648Y-98422125D01*
X143096997Y-98404078D01*
X143086773Y-98388169D01*
X143082321Y-98357207D01*
X143081770Y-98355447D01*
X143081750Y-98353234D01*
X143081750Y-98228185D01*
X143101435Y-98161146D01*
X143140651Y-98122647D01*
X143186641Y-98094281D01*
X143305531Y-97975391D01*
X143393799Y-97832287D01*
X143446686Y-97672685D01*
X143456750Y-97574174D01*
X143456750Y-97040826D01*
X143446686Y-96942315D01*
X143393799Y-96782713D01*
X143393795Y-96782707D01*
X143393794Y-96782704D01*
X143305533Y-96639612D01*
X143305530Y-96639608D01*
X143273603Y-96607681D01*
X143240118Y-96546358D01*
X143245102Y-96476666D01*
X143273603Y-96432319D01*
X143305531Y-96400391D01*
X143393799Y-96257287D01*
X143446686Y-96097685D01*
X143456750Y-95999174D01*
X143456750Y-95465826D01*
X143446686Y-95367315D01*
X143393799Y-95207713D01*
X143393795Y-95207707D01*
X143393794Y-95207704D01*
X143305533Y-95064612D01*
X143305530Y-95064608D01*
X143186640Y-94945718D01*
X143140652Y-94917352D01*
X143093928Y-94865403D01*
X143081750Y-94811814D01*
X143081750Y-94094765D01*
X143101435Y-94027726D01*
X143102648Y-94025874D01*
X143190640Y-93894185D01*
X143190640Y-93894184D01*
X143190644Y-93894179D01*
X143197293Y-93878128D01*
X143211960Y-93842717D01*
X143250987Y-93748497D01*
X143281750Y-93593842D01*
X143281750Y-93436158D01*
X143281750Y-93436155D01*
X143281749Y-93436153D01*
X143271788Y-93386076D01*
X143250987Y-93281503D01*
X143250985Y-93281498D01*
X143190647Y-93135827D01*
X143190640Y-93135814D01*
X143103039Y-93004711D01*
X143103036Y-93004707D01*
X142991542Y-92893213D01*
X142991538Y-92893210D01*
X142860435Y-92805609D01*
X142860422Y-92805602D01*
X142714751Y-92745264D01*
X142714739Y-92745261D01*
X142560095Y-92714500D01*
X142560092Y-92714500D01*
X142402408Y-92714500D01*
X142402405Y-92714500D01*
X142247760Y-92745261D01*
X142247748Y-92745264D01*
X142102077Y-92805602D01*
X142102064Y-92805609D01*
X141970961Y-92893210D01*
X141970957Y-92893213D01*
X141859463Y-93004707D01*
X141859460Y-93004711D01*
X141771859Y-93135814D01*
X141771852Y-93135827D01*
X141711514Y-93281498D01*
X141711511Y-93281510D01*
X141680750Y-93436153D01*
X141680750Y-93593846D01*
X141711511Y-93748489D01*
X141711514Y-93748501D01*
X141771852Y-93894172D01*
X141771859Y-93894185D01*
X141859852Y-94025874D01*
X141880730Y-94092551D01*
X141880750Y-94094765D01*
X141880750Y-94811814D01*
X141861065Y-94878853D01*
X141821848Y-94917352D01*
X141775859Y-94945718D01*
X141656969Y-95064608D01*
X141656966Y-95064612D01*
X141568705Y-95207704D01*
X141568700Y-95207715D01*
X141562943Y-95225089D01*
X141515814Y-95367315D01*
X141515814Y-95367316D01*
X141515813Y-95367316D01*
X141505750Y-95465818D01*
X139471750Y-95465818D01*
X139471750Y-94294306D01*
X139468848Y-94257431D01*
X139422994Y-94099602D01*
X139339331Y-93958135D01*
X139339329Y-93958133D01*
X139339326Y-93958129D01*
X139291442Y-93910246D01*
X139285666Y-93901273D01*
X139279959Y-93897013D01*
X139270769Y-93878128D01*
X139263001Y-93866060D01*
X139260900Y-93860451D01*
X139230827Y-93748215D01*
X139201889Y-93698095D01*
X139151770Y-93611284D01*
X139039966Y-93499480D01*
X139039965Y-93499479D01*
X139035635Y-93495149D01*
X139035624Y-93495139D01*
X138235824Y-92695339D01*
X138202339Y-92634016D01*
X138201888Y-92631849D01*
X138170988Y-92476510D01*
X138170987Y-92476503D01*
X138163246Y-92457814D01*
X138110647Y-92330827D01*
X138110640Y-92330814D01*
X138023039Y-92199711D01*
X138023036Y-92199707D01*
X137911542Y-92088213D01*
X137911538Y-92088210D01*
X137780435Y-92000609D01*
X137780422Y-92000602D01*
X137634751Y-91940264D01*
X137634739Y-91940261D01*
X137480095Y-91909500D01*
X137480092Y-91909500D01*
X137322408Y-91909500D01*
X137322405Y-91909500D01*
X137167760Y-91940261D01*
X137167748Y-91940264D01*
X137022077Y-92000602D01*
X137022064Y-92000609D01*
X136924641Y-92065706D01*
X136914940Y-92068743D01*
X136907261Y-92075398D01*
X136882161Y-92079006D01*
X136857963Y-92086584D01*
X136848163Y-92083895D01*
X136838103Y-92085342D01*
X136815034Y-92074807D01*
X136790583Y-92068099D01*
X136783792Y-92060539D01*
X136774547Y-92056317D01*
X136760837Y-92034985D01*
X136743893Y-92016121D01*
X136741261Y-92004523D01*
X136736773Y-91997539D01*
X136731750Y-91962604D01*
X136731750Y-91740096D01*
X136751435Y-91673057D01*
X136768065Y-91652419D01*
X137137985Y-91282498D01*
X137137990Y-91282495D01*
X137148193Y-91272291D01*
X137148195Y-91272291D01*
X137259999Y-91160487D01*
X137311500Y-91071284D01*
X137313060Y-91068583D01*
X137339053Y-91023561D01*
X137339052Y-91023561D01*
X137339056Y-91023556D01*
X137379979Y-90870829D01*
X137379979Y-90712714D01*
X137379979Y-90105197D01*
X137399664Y-90038158D01*
X137400877Y-90036306D01*
X137444497Y-89971025D01*
X137488873Y-89904611D01*
X137549216Y-89758929D01*
X137579979Y-89604274D01*
X137579979Y-89446590D01*
X137579979Y-89446587D01*
X137579978Y-89446585D01*
X137549216Y-89291935D01*
X137549214Y-89291930D01*
X137488876Y-89146259D01*
X137488869Y-89146246D01*
X137401268Y-89015143D01*
X137401265Y-89015139D01*
X137378307Y-88992181D01*
X137344822Y-88930858D01*
X137349806Y-88861166D01*
X137391678Y-88805233D01*
X137457142Y-88780816D01*
X137465988Y-88780500D01*
X139429059Y-88780500D01*
X139476510Y-88789938D01*
G37*
G04 #@! TD.AperFunction*
G04 #@! TA.AperFunction,Conductor*
G36*
X162971953Y-90555384D02*
G01*
X162978431Y-90561416D01*
X164958431Y-92541416D01*
X164991916Y-92602739D01*
X164994750Y-92629097D01*
X164994750Y-99723902D01*
X164975065Y-99790941D01*
X164922261Y-99836696D01*
X164853103Y-99846640D01*
X164789547Y-99817615D01*
X164783069Y-99811583D01*
X161853069Y-96881583D01*
X161819584Y-96820260D01*
X161816750Y-96793902D01*
X161816750Y-95263808D01*
X161836435Y-95196769D01*
X161853070Y-95176126D01*
X161884326Y-95144870D01*
X161884331Y-95144865D01*
X161967994Y-95003398D01*
X162013848Y-94845569D01*
X162016750Y-94808694D01*
X162016750Y-93642500D01*
X162036435Y-93575461D01*
X162089239Y-93529706D01*
X162140750Y-93518500D01*
X162381936Y-93518500D01*
X162381944Y-93518500D01*
X162418819Y-93515598D01*
X162418821Y-93515597D01*
X162418823Y-93515597D01*
X162489204Y-93495149D01*
X162576648Y-93469744D01*
X162718115Y-93386081D01*
X162834331Y-93269865D01*
X162917994Y-93128398D01*
X162963848Y-92970569D01*
X162966750Y-92933694D01*
X162966750Y-91627306D01*
X162963848Y-91590431D01*
X162917994Y-91432602D01*
X162834331Y-91291135D01*
X162834329Y-91291133D01*
X162834326Y-91291129D01*
X162803069Y-91259872D01*
X162769584Y-91198549D01*
X162766750Y-91172191D01*
X162766750Y-90649097D01*
X162786435Y-90582058D01*
X162839239Y-90536303D01*
X162908397Y-90526359D01*
X162971953Y-90555384D01*
G37*
G04 #@! TD.AperFunction*
G04 #@! TA.AperFunction,Conductor*
G36*
X163589899Y-82099479D02*
G01*
X163634648Y-82126531D01*
X163788363Y-82174430D01*
X163855159Y-82180500D01*
X164287340Y-82180499D01*
X164287348Y-82180499D01*
X164354130Y-82174431D01*
X164354132Y-82174430D01*
X164354137Y-82174430D01*
X164415847Y-82155199D01*
X164485708Y-82154048D01*
X164540419Y-82185904D01*
X165359431Y-83004916D01*
X165392916Y-83066239D01*
X165395750Y-83092597D01*
X165395750Y-90980902D01*
X165376065Y-91047941D01*
X165323261Y-91093696D01*
X165254103Y-91103640D01*
X165190547Y-91074615D01*
X165184069Y-91068583D01*
X164502988Y-90387503D01*
X164469503Y-90326180D01*
X164474487Y-90256489D01*
X164516358Y-90200555D01*
X164521779Y-90196720D01*
X164577357Y-90159583D01*
X164581539Y-90156789D01*
X164693039Y-90045289D01*
X164780644Y-89914179D01*
X164840987Y-89768497D01*
X164871750Y-89613842D01*
X164871750Y-89456158D01*
X164871750Y-89456155D01*
X164871749Y-89456153D01*
X164862626Y-89410288D01*
X164840987Y-89301503D01*
X164808842Y-89223898D01*
X164783397Y-89162467D01*
X164775928Y-89092998D01*
X164791841Y-89050866D01*
X164842781Y-88966602D01*
X164890680Y-88812887D01*
X164896750Y-88746091D01*
X164896749Y-87338910D01*
X164896749Y-87338901D01*
X164890681Y-87272117D01*
X164890678Y-87272106D01*
X164842782Y-87118401D01*
X164842781Y-87118400D01*
X164842781Y-87118398D01*
X164759486Y-86980612D01*
X164759484Y-86980610D01*
X164759483Y-86980608D01*
X164645641Y-86866766D01*
X164642099Y-86864625D01*
X164507852Y-86783469D01*
X164354137Y-86735570D01*
X164354135Y-86735569D01*
X164354133Y-86735569D01*
X164307367Y-86731319D01*
X164287341Y-86729500D01*
X164287338Y-86729500D01*
X164234368Y-86729500D01*
X164167329Y-86709815D01*
X164121574Y-86657011D01*
X164111630Y-86587853D01*
X164140655Y-86524297D01*
X164186916Y-86490939D01*
X164323422Y-86434397D01*
X164323422Y-86434396D01*
X164323429Y-86434394D01*
X164454539Y-86346789D01*
X164566039Y-86235289D01*
X164653644Y-86104179D01*
X164713987Y-85958497D01*
X164744750Y-85803842D01*
X164744750Y-85646158D01*
X164744750Y-85646155D01*
X164744749Y-85646153D01*
X164735408Y-85599193D01*
X164713987Y-85491503D01*
X164681343Y-85412693D01*
X164653647Y-85345827D01*
X164653640Y-85345814D01*
X164566039Y-85214711D01*
X164566036Y-85214707D01*
X164454542Y-85103213D01*
X164454538Y-85103210D01*
X164323435Y-85015609D01*
X164323422Y-85015602D01*
X164177751Y-84955264D01*
X164177739Y-84955261D01*
X164023095Y-84924500D01*
X164023092Y-84924500D01*
X163865408Y-84924500D01*
X163865405Y-84924500D01*
X163710760Y-84955261D01*
X163710748Y-84955264D01*
X163565077Y-85015602D01*
X163565064Y-85015609D01*
X163433375Y-85103602D01*
X163366697Y-85124480D01*
X163364484Y-85124500D01*
X162171881Y-85124500D01*
X162104842Y-85104815D01*
X162059087Y-85052011D01*
X162049143Y-84982853D01*
X162068779Y-84931609D01*
X162133875Y-84834185D01*
X162133875Y-84834184D01*
X162133879Y-84834179D01*
X162194222Y-84688497D01*
X162198612Y-84666426D01*
X162230995Y-84604516D01*
X162232492Y-84602991D01*
X163159756Y-83675728D01*
X163159761Y-83675724D01*
X163169964Y-83665520D01*
X163169966Y-83665520D01*
X163281770Y-83553716D01*
X163346679Y-83441289D01*
X163360827Y-83416785D01*
X163401750Y-83264058D01*
X163401750Y-83105943D01*
X163401750Y-82205596D01*
X163421435Y-82138557D01*
X163474239Y-82092802D01*
X163543397Y-82082858D01*
X163589899Y-82099479D01*
G37*
G04 #@! TD.AperFunction*
G04 #@! TA.AperFunction,Conductor*
G36*
X145504876Y-88314517D02*
G01*
X145509397Y-88313868D01*
X145537311Y-88326616D01*
X145566062Y-88337340D01*
X145570490Y-88341768D01*
X145572953Y-88342893D01*
X145591018Y-88362297D01*
X145591205Y-88362547D01*
X145706414Y-88448793D01*
X145706421Y-88448797D01*
X145722248Y-88454700D01*
X145841267Y-88499091D01*
X145900877Y-88505500D01*
X145970587Y-88505499D01*
X145979271Y-88508049D01*
X145988233Y-88506761D01*
X146012270Y-88517738D01*
X146037625Y-88525183D01*
X146043554Y-88532025D01*
X146051789Y-88535786D01*
X146066074Y-88558014D01*
X146083381Y-88577986D01*
X146085668Y-88588501D01*
X146089564Y-88594563D01*
X146094586Y-88629496D01*
X146094587Y-88629498D01*
X146094587Y-88775219D01*
X146094587Y-88775221D01*
X146094588Y-88785215D01*
X146094588Y-89713741D01*
X146074903Y-89780780D01*
X146022099Y-89826535D01*
X145952941Y-89836479D01*
X145889385Y-89807454D01*
X145882907Y-89801422D01*
X145404069Y-89322584D01*
X145370584Y-89261261D01*
X145367750Y-89234903D01*
X145367750Y-88436606D01*
X145376396Y-88407160D01*
X145382919Y-88377178D01*
X145386148Y-88373948D01*
X145387435Y-88369567D01*
X145410619Y-88349477D01*
X145432324Y-88327773D01*
X145436788Y-88326801D01*
X145440239Y-88323812D01*
X145470609Y-88319445D01*
X145500598Y-88312922D01*
X145504876Y-88314517D01*
G37*
G04 #@! TD.AperFunction*
G04 #@! TA.AperFunction,Conductor*
G36*
X145848403Y-50635185D02*
G01*
X145894158Y-50687989D01*
X145904102Y-50757147D01*
X145902189Y-50767234D01*
X145895751Y-50827116D01*
X145895751Y-50827123D01*
X145895750Y-50827135D01*
X145895750Y-56002870D01*
X145895751Y-56002876D01*
X145902158Y-56062483D01*
X145952452Y-56197328D01*
X145952456Y-56197335D01*
X146038702Y-56312544D01*
X146038705Y-56312547D01*
X146153914Y-56398793D01*
X146153921Y-56398797D01*
X146198868Y-56415561D01*
X146288767Y-56449091D01*
X146348377Y-56455500D01*
X146816750Y-56455499D01*
X146883789Y-56475183D01*
X146929544Y-56527987D01*
X146940750Y-56579499D01*
X146940750Y-61314902D01*
X146921065Y-61381941D01*
X146904431Y-61402583D01*
X142283834Y-66023181D01*
X142222511Y-66056666D01*
X142196153Y-66059500D01*
X140685930Y-66059500D01*
X140618891Y-66039815D01*
X140586663Y-66009811D01*
X140506296Y-65902454D01*
X140483459Y-65885358D01*
X140391085Y-65816206D01*
X140391078Y-65816202D01*
X140256232Y-65765908D01*
X140256233Y-65765908D01*
X140196633Y-65759501D01*
X140196631Y-65759500D01*
X140196623Y-65759500D01*
X140196614Y-65759500D01*
X138100879Y-65759500D01*
X138100873Y-65759501D01*
X138041266Y-65765908D01*
X137906421Y-65816202D01*
X137906414Y-65816206D01*
X137791205Y-65902452D01*
X137791202Y-65902455D01*
X137704956Y-66017664D01*
X137704952Y-66017671D01*
X137654658Y-66152517D01*
X137648251Y-66212116D01*
X137648250Y-66212135D01*
X137648250Y-67107870D01*
X137648251Y-67107876D01*
X137654658Y-67167483D01*
X137704952Y-67302328D01*
X137704956Y-67302335D01*
X137791202Y-67417544D01*
X137791205Y-67417547D01*
X137906414Y-67503793D01*
X137906421Y-67503797D01*
X138041267Y-67554091D01*
X138041266Y-67554091D01*
X138048194Y-67554835D01*
X138100877Y-67560500D01*
X140196622Y-67560499D01*
X140256233Y-67554091D01*
X140391081Y-67503796D01*
X140506296Y-67417546D01*
X140586664Y-67310188D01*
X140642597Y-67268318D01*
X140685930Y-67260500D01*
X142409581Y-67260500D01*
X142409597Y-67260501D01*
X142417193Y-67260501D01*
X142575304Y-67260501D01*
X142575307Y-67260501D01*
X142728035Y-67219577D01*
X142778154Y-67190639D01*
X142864966Y-67140520D01*
X142976770Y-67028716D01*
X142976770Y-67028714D01*
X142986978Y-67018507D01*
X142986979Y-67018504D01*
X148041770Y-61963716D01*
X148120827Y-61826784D01*
X148161751Y-61674057D01*
X148161751Y-61515942D01*
X148145975Y-61457065D01*
X148141750Y-61424972D01*
X148141750Y-56579499D01*
X148161435Y-56512460D01*
X148214239Y-56466705D01*
X148265750Y-56455499D01*
X148734121Y-56455499D01*
X148734122Y-56455499D01*
X148793733Y-56449091D01*
X148928581Y-56398796D01*
X149043796Y-56312546D01*
X149130046Y-56197331D01*
X149180341Y-56062483D01*
X149186750Y-56002873D01*
X149186749Y-50827128D01*
X149180341Y-50767517D01*
X149179512Y-50759804D01*
X149180907Y-50759654D01*
X149184200Y-50698244D01*
X149225068Y-50641573D01*
X149290087Y-50615993D01*
X149301136Y-50615500D01*
X160732625Y-50615500D01*
X160799664Y-50635185D01*
X160845419Y-50687989D01*
X160855363Y-50757147D01*
X160826338Y-50820703D01*
X160780078Y-50854061D01*
X160453750Y-50989230D01*
X160453745Y-50989232D01*
X160107112Y-51174511D01*
X160107094Y-51174522D01*
X159780289Y-51392887D01*
X159780275Y-51392897D01*
X159476432Y-51642254D01*
X159198504Y-51920182D01*
X158949147Y-52224025D01*
X158949137Y-52224039D01*
X158730772Y-52550844D01*
X158730761Y-52550862D01*
X158545482Y-52897495D01*
X158545480Y-52897500D01*
X158395060Y-53260645D01*
X158280957Y-53636794D01*
X158280954Y-53636805D01*
X158204276Y-54022297D01*
X158165750Y-54413471D01*
X158165750Y-54806528D01*
X158204276Y-55197702D01*
X158280954Y-55583194D01*
X158280957Y-55583205D01*
X158395060Y-55959354D01*
X158545480Y-56322499D01*
X158545482Y-56322504D01*
X158730761Y-56669137D01*
X158730772Y-56669155D01*
X158949137Y-56995960D01*
X158949147Y-56995974D01*
X159198504Y-57299817D01*
X159476432Y-57577745D01*
X159476437Y-57577749D01*
X159476438Y-57577750D01*
X159780281Y-57827107D01*
X160107101Y-58045482D01*
X160107110Y-58045487D01*
X160107112Y-58045488D01*
X160453745Y-58230767D01*
X160453747Y-58230767D01*
X160453753Y-58230771D01*
X160816897Y-58381190D01*
X161193035Y-58495290D01*
X161193041Y-58495291D01*
X161193044Y-58495292D01*
X161193055Y-58495295D01*
X161578547Y-58571973D01*
X161969718Y-58610500D01*
X161969721Y-58610500D01*
X162362779Y-58610500D01*
X162362782Y-58610500D01*
X162753953Y-58571973D01*
X162828998Y-58557045D01*
X163139444Y-58495295D01*
X163139455Y-58495292D01*
X163139455Y-58495291D01*
X163139465Y-58495290D01*
X163515603Y-58381190D01*
X163878747Y-58230771D01*
X164225399Y-58045482D01*
X164552219Y-57827107D01*
X164856062Y-57577750D01*
X165134000Y-57299812D01*
X165383357Y-56995969D01*
X165601732Y-56669149D01*
X165787021Y-56322497D01*
X165922190Y-55996169D01*
X165966030Y-55941768D01*
X166032324Y-55919703D01*
X166100023Y-55936982D01*
X166147634Y-55988119D01*
X166160750Y-56043624D01*
X166160750Y-71884805D01*
X166141065Y-71951844D01*
X166088261Y-71997599D01*
X166019103Y-72007543D01*
X165955547Y-71978518D01*
X165917773Y-71919740D01*
X165916974Y-71916896D01*
X165913577Y-71904216D01*
X165843897Y-71783525D01*
X165834524Y-71767290D01*
X165834521Y-71767286D01*
X165834520Y-71767284D01*
X165722716Y-71655480D01*
X165722715Y-71655479D01*
X165718385Y-71651149D01*
X165718374Y-71651139D01*
X164865590Y-70798355D01*
X164865588Y-70798352D01*
X164746717Y-70679481D01*
X164746716Y-70679480D01*
X164659904Y-70629360D01*
X164659904Y-70629359D01*
X164659900Y-70629358D01*
X164609785Y-70600423D01*
X164457057Y-70559499D01*
X164298943Y-70559499D01*
X164291347Y-70559499D01*
X164291331Y-70559500D01*
X164240010Y-70559500D01*
X164172971Y-70539815D01*
X164129525Y-70491795D01*
X164096254Y-70426498D01*
X164075961Y-70386669D01*
X163939449Y-70198776D01*
X163775224Y-70034551D01*
X163587331Y-69898039D01*
X163380400Y-69792601D01*
X163159514Y-69720831D01*
X162930129Y-69684500D01*
X162930124Y-69684500D01*
X162697876Y-69684500D01*
X162697871Y-69684500D01*
X162468485Y-69720831D01*
X162247599Y-69792601D01*
X162040668Y-69898039D01*
X161852773Y-70034553D01*
X161688553Y-70198773D01*
X161552039Y-70386668D01*
X161446601Y-70593599D01*
X161374831Y-70814485D01*
X161338500Y-71043870D01*
X161338500Y-71276129D01*
X161374831Y-71505514D01*
X161446601Y-71726400D01*
X161537204Y-71904216D01*
X161552039Y-71933331D01*
X161688551Y-72121224D01*
X161852776Y-72285449D01*
X162040669Y-72421961D01*
X162138436Y-72471776D01*
X162247599Y-72527398D01*
X162247601Y-72527398D01*
X162247604Y-72527400D01*
X162468486Y-72599169D01*
X162586668Y-72617886D01*
X162697871Y-72635500D01*
X162697876Y-72635500D01*
X162930129Y-72635500D01*
X163031502Y-72619443D01*
X163159514Y-72599169D01*
X163380396Y-72527400D01*
X163587331Y-72421961D01*
X163775224Y-72285449D01*
X163939449Y-72121224D01*
X164075961Y-71933331D01*
X164075968Y-71933316D01*
X164078502Y-71929183D01*
X164079999Y-71930100D01*
X164122770Y-71884805D01*
X164190589Y-71868002D01*
X164256726Y-71890533D01*
X164272973Y-71904208D01*
X164717181Y-72348416D01*
X164750666Y-72409739D01*
X164753500Y-72436097D01*
X164753500Y-76407903D01*
X164733815Y-76474942D01*
X164717181Y-76495584D01*
X164399834Y-76812930D01*
X164338511Y-76846415D01*
X164268819Y-76841431D01*
X164212886Y-76799559D01*
X164188469Y-76734095D01*
X164194221Y-76686936D01*
X164253169Y-76505514D01*
X164287099Y-76291286D01*
X164289500Y-76276129D01*
X164289500Y-76043870D01*
X164270232Y-75922222D01*
X164253169Y-75814486D01*
X164181400Y-75593604D01*
X164181398Y-75593601D01*
X164181398Y-75593599D01*
X164091694Y-75417547D01*
X164075961Y-75386669D01*
X163939449Y-75198776D01*
X163775224Y-75034551D01*
X163587331Y-74898039D01*
X163450976Y-74828562D01*
X163432236Y-74810863D01*
X163411011Y-74796243D01*
X163405664Y-74785767D01*
X163400181Y-74780588D01*
X163392889Y-74765957D01*
X163389663Y-74758250D01*
X163373577Y-74698215D01*
X163344639Y-74648095D01*
X163294520Y-74561284D01*
X163182716Y-74449480D01*
X163182715Y-74449479D01*
X163178385Y-74445149D01*
X163178374Y-74445139D01*
X157967590Y-69234355D01*
X157967588Y-69234352D01*
X157848717Y-69115481D01*
X157848716Y-69115480D01*
X157761904Y-69065360D01*
X157761904Y-69065359D01*
X157761900Y-69065358D01*
X157711785Y-69036423D01*
X157559057Y-68995499D01*
X157400943Y-68995499D01*
X157393347Y-68995499D01*
X157393331Y-68995500D01*
X156973250Y-68995500D01*
X156906211Y-68975815D01*
X156860456Y-68923011D01*
X156849250Y-68871500D01*
X156849249Y-68212129D01*
X156849248Y-68212123D01*
X156849247Y-68212116D01*
X156842841Y-68152517D01*
X156792546Y-68017669D01*
X156792545Y-68017668D01*
X156792543Y-68017664D01*
X156706297Y-67902455D01*
X156706294Y-67902452D01*
X156591085Y-67816206D01*
X156591078Y-67816202D01*
X156456232Y-67765908D01*
X156456233Y-67765908D01*
X156396633Y-67759501D01*
X156396631Y-67759500D01*
X156396623Y-67759500D01*
X156396614Y-67759500D01*
X154300879Y-67759500D01*
X154300873Y-67759501D01*
X154241266Y-67765908D01*
X154106421Y-67816202D01*
X154106414Y-67816206D01*
X153991205Y-67902452D01*
X153991202Y-67902455D01*
X153904956Y-68017664D01*
X153904952Y-68017671D01*
X153854658Y-68152517D01*
X153848251Y-68212116D01*
X153848251Y-68212123D01*
X153848250Y-68212135D01*
X153848251Y-68871500D01*
X153828567Y-68938539D01*
X153775763Y-68984294D01*
X153724251Y-68995500D01*
X133971919Y-68995500D01*
X133971903Y-68995499D01*
X133964307Y-68995499D01*
X133806193Y-68995499D01*
X133698837Y-69024265D01*
X133653460Y-69036424D01*
X133653459Y-69036425D01*
X133603346Y-69065359D01*
X133603345Y-69065360D01*
X133559939Y-69090420D01*
X133516535Y-69115479D01*
X133516532Y-69115481D01*
X133404728Y-69227286D01*
X132904974Y-69727039D01*
X132843651Y-69760524D01*
X132778976Y-69757289D01*
X132666771Y-69720832D01*
X132666764Y-69720831D01*
X132437379Y-69684500D01*
X132437374Y-69684500D01*
X132205126Y-69684500D01*
X132205121Y-69684500D01*
X131975735Y-69720831D01*
X131754849Y-69792601D01*
X131547918Y-69898039D01*
X131360023Y-70034553D01*
X131195803Y-70198773D01*
X131059289Y-70386668D01*
X130953851Y-70593599D01*
X130882081Y-70814485D01*
X130845750Y-71043870D01*
X130845750Y-71276129D01*
X130882081Y-71505514D01*
X130953851Y-71726400D01*
X131044454Y-71904216D01*
X131059289Y-71933331D01*
X131195801Y-72121224D01*
X131360026Y-72285449D01*
X131547919Y-72421961D01*
X131645686Y-72471776D01*
X131754849Y-72527398D01*
X131754851Y-72527398D01*
X131754854Y-72527400D01*
X131975736Y-72599169D01*
X132093918Y-72617886D01*
X132205121Y-72635500D01*
X132205126Y-72635500D01*
X132437379Y-72635500D01*
X132538752Y-72619443D01*
X132666764Y-72599169D01*
X132887646Y-72527400D01*
X133094581Y-72421961D01*
X133282474Y-72285449D01*
X133446699Y-72121224D01*
X133583211Y-71933331D01*
X133688650Y-71726396D01*
X133760419Y-71505514D01*
X133781978Y-71369394D01*
X133796750Y-71276129D01*
X133796750Y-71043870D01*
X133772933Y-70893497D01*
X133760419Y-70814486D01*
X133723959Y-70702273D01*
X133721964Y-70632432D01*
X133754207Y-70576276D01*
X134097666Y-70232819D01*
X134158989Y-70199334D01*
X134185347Y-70196500D01*
X137524250Y-70196500D01*
X137591289Y-70216185D01*
X137637044Y-70268989D01*
X137648250Y-70320500D01*
X137648250Y-71107870D01*
X137648251Y-71107876D01*
X137654658Y-71167483D01*
X137704952Y-71302328D01*
X137704956Y-71302335D01*
X137791202Y-71417544D01*
X137791205Y-71417547D01*
X137906414Y-71503793D01*
X137906421Y-71503797D01*
X138013722Y-71543818D01*
X138069656Y-71585689D01*
X138094073Y-71651154D01*
X138079221Y-71719427D01*
X138029816Y-71768832D01*
X138013722Y-71776182D01*
X137906421Y-71816202D01*
X137906414Y-71816206D01*
X137791205Y-71902452D01*
X137791202Y-71902455D01*
X137704956Y-72017664D01*
X137704952Y-72017671D01*
X137654658Y-72152517D01*
X137648251Y-72212116D01*
X137648251Y-72212123D01*
X137648250Y-72212135D01*
X137648250Y-73107870D01*
X137648251Y-73107876D01*
X137654658Y-73167483D01*
X137704952Y-73302328D01*
X137704956Y-73302335D01*
X137791202Y-73417544D01*
X137791205Y-73417547D01*
X137906414Y-73503793D01*
X137906421Y-73503797D01*
X138013722Y-73543818D01*
X138069656Y-73585689D01*
X138094073Y-73651154D01*
X138079221Y-73719427D01*
X138029816Y-73768832D01*
X138013722Y-73776182D01*
X137906421Y-73816202D01*
X137906414Y-73816206D01*
X137791205Y-73902452D01*
X137791202Y-73902455D01*
X137704956Y-74017664D01*
X137704952Y-74017671D01*
X137654658Y-74152517D01*
X137653240Y-74165711D01*
X137648251Y-74212123D01*
X137648250Y-74212135D01*
X137648250Y-75107870D01*
X137648251Y-75107876D01*
X137654658Y-75167483D01*
X137704952Y-75302328D01*
X137704956Y-75302335D01*
X137791202Y-75417544D01*
X137791205Y-75417547D01*
X137906414Y-75503793D01*
X137906421Y-75503797D01*
X138013722Y-75543818D01*
X138069656Y-75585689D01*
X138094073Y-75651154D01*
X138079221Y-75719427D01*
X138029816Y-75768832D01*
X138013722Y-75776182D01*
X137906421Y-75816202D01*
X137906414Y-75816206D01*
X137791205Y-75902452D01*
X137791202Y-75902455D01*
X137704956Y-76017664D01*
X137704952Y-76017671D01*
X137654658Y-76152517D01*
X137648251Y-76212116D01*
X137648251Y-76212123D01*
X137648250Y-76212135D01*
X137648250Y-77107870D01*
X137648251Y-77107876D01*
X137654659Y-77167484D01*
X137664128Y-77192873D01*
X137669112Y-77262565D01*
X137635627Y-77323886D01*
X136116589Y-78842925D01*
X136055266Y-78876410D01*
X136053100Y-78876861D01*
X135897758Y-78907761D01*
X135897748Y-78907764D01*
X135752077Y-78968102D01*
X135752064Y-78968109D01*
X135620961Y-79055710D01*
X135620957Y-79055713D01*
X135509463Y-79167207D01*
X135509460Y-79167211D01*
X135421859Y-79298314D01*
X135421852Y-79298327D01*
X135361514Y-79443998D01*
X135361511Y-79444010D01*
X135330750Y-79598653D01*
X135330750Y-79756346D01*
X135361511Y-79910989D01*
X135361514Y-79911001D01*
X135421852Y-80056672D01*
X135421859Y-80056685D01*
X135509460Y-80187788D01*
X135509463Y-80187792D01*
X135620957Y-80299286D01*
X135620961Y-80299289D01*
X135752064Y-80386890D01*
X135752077Y-80386897D01*
X135897748Y-80447235D01*
X135897753Y-80447237D01*
X135935413Y-80454728D01*
X135987548Y-80465099D01*
X136049459Y-80497484D01*
X136084033Y-80558200D01*
X136080294Y-80627969D01*
X136072719Y-80645163D01*
X136070083Y-80650094D01*
X136009743Y-80795769D01*
X136009740Y-80795781D01*
X135978979Y-80950424D01*
X135978979Y-81108117D01*
X136009740Y-81262760D01*
X136009743Y-81262772D01*
X136070081Y-81408443D01*
X136070088Y-81408456D01*
X136157689Y-81539559D01*
X136157692Y-81539563D01*
X136269186Y-81651057D01*
X136269190Y-81651060D01*
X136400293Y-81738661D01*
X136400306Y-81738668D01*
X136528102Y-81791602D01*
X136545982Y-81799008D01*
X136700632Y-81829770D01*
X136700635Y-81829771D01*
X136700637Y-81829771D01*
X136858323Y-81829771D01*
X136858324Y-81829770D01*
X137012976Y-81799008D01*
X137158658Y-81738665D01*
X137289768Y-81651060D01*
X137401268Y-81539560D01*
X137488873Y-81408450D01*
X137510811Y-81355484D01*
X137554650Y-81301083D01*
X137620944Y-81279017D01*
X137688644Y-81296295D01*
X137724638Y-81328626D01*
X137767299Y-81385613D01*
X137784389Y-81408443D01*
X137791205Y-81417547D01*
X137906414Y-81503793D01*
X137906421Y-81503797D01*
X138041267Y-81554091D01*
X138041266Y-81554091D01*
X138048194Y-81554835D01*
X138100877Y-81560500D01*
X140196622Y-81560499D01*
X140256233Y-81554091D01*
X140391081Y-81503796D01*
X140506296Y-81417546D01*
X140592546Y-81302331D01*
X140642841Y-81167483D01*
X140649250Y-81107873D01*
X140649249Y-80212128D01*
X140642841Y-80152517D01*
X140606878Y-80056096D01*
X140592547Y-80017671D01*
X140592543Y-80017664D01*
X140506297Y-79902455D01*
X140506294Y-79902452D01*
X140391085Y-79816206D01*
X140391078Y-79816202D01*
X140283777Y-79776182D01*
X140227843Y-79734311D01*
X140203426Y-79668847D01*
X140218277Y-79600574D01*
X140267682Y-79551168D01*
X140283777Y-79543818D01*
X140391078Y-79503797D01*
X140391077Y-79503797D01*
X140391081Y-79503796D01*
X140506296Y-79417546D01*
X140592546Y-79302331D01*
X140642841Y-79167483D01*
X140649250Y-79107873D01*
X140649249Y-78212128D01*
X140642841Y-78152517D01*
X140633912Y-78128578D01*
X140592547Y-78017671D01*
X140592543Y-78017664D01*
X140506297Y-77902455D01*
X140506294Y-77902452D01*
X140391085Y-77816206D01*
X140391078Y-77816202D01*
X140283777Y-77776182D01*
X140227843Y-77734311D01*
X140203426Y-77668847D01*
X140218277Y-77600574D01*
X140267682Y-77551168D01*
X140283777Y-77543818D01*
X140391078Y-77503797D01*
X140391077Y-77503797D01*
X140391081Y-77503796D01*
X140506296Y-77417546D01*
X140592546Y-77302331D01*
X140642841Y-77167483D01*
X140649250Y-77107873D01*
X140649249Y-76212128D01*
X140642841Y-76152517D01*
X140623412Y-76100426D01*
X140592547Y-76017671D01*
X140592543Y-76017664D01*
X140506297Y-75902455D01*
X140506294Y-75902452D01*
X140391085Y-75816206D01*
X140391078Y-75816202D01*
X140283777Y-75776182D01*
X140227843Y-75734311D01*
X140203426Y-75668847D01*
X140218277Y-75600574D01*
X140267682Y-75551168D01*
X140283777Y-75543818D01*
X140391078Y-75503797D01*
X140391077Y-75503797D01*
X140391081Y-75503796D01*
X140506296Y-75417546D01*
X140586664Y-75310188D01*
X140642597Y-75268318D01*
X140685930Y-75260500D01*
X146962309Y-75260500D01*
X147029348Y-75280185D01*
X147049990Y-75296819D01*
X147050957Y-75297786D01*
X147050961Y-75297789D01*
X147182064Y-75385390D01*
X147182077Y-75385397D01*
X147327748Y-75445735D01*
X147327753Y-75445737D01*
X147482403Y-75476499D01*
X147482406Y-75476500D01*
X147482408Y-75476500D01*
X147640094Y-75476500D01*
X147640095Y-75476499D01*
X147794747Y-75445737D01*
X147940429Y-75385394D01*
X148071539Y-75297789D01*
X148183039Y-75186289D01*
X148270644Y-75055179D01*
X148330987Y-74909497D01*
X148361750Y-74754842D01*
X148361750Y-74597158D01*
X148361750Y-74597155D01*
X148361749Y-74597153D01*
X148354614Y-74561284D01*
X148330987Y-74442503D01*
X148330985Y-74442498D01*
X148270647Y-74296827D01*
X148270640Y-74296814D01*
X148183039Y-74165711D01*
X148183036Y-74165707D01*
X148071542Y-74054213D01*
X148071538Y-74054210D01*
X147940435Y-73966609D01*
X147940422Y-73966602D01*
X147794751Y-73906264D01*
X147794739Y-73906261D01*
X147640095Y-73875500D01*
X147640092Y-73875500D01*
X147482408Y-73875500D01*
X147482405Y-73875500D01*
X147327760Y-73906261D01*
X147327748Y-73906264D01*
X147182077Y-73966602D01*
X147182064Y-73966609D01*
X147074321Y-74038602D01*
X147007644Y-74059480D01*
X147005430Y-74059500D01*
X140685930Y-74059500D01*
X140618891Y-74039815D01*
X140586663Y-74009811D01*
X140554322Y-73966609D01*
X140506296Y-73902454D01*
X140470290Y-73875500D01*
X140391085Y-73816206D01*
X140391078Y-73816202D01*
X140283777Y-73776182D01*
X140227843Y-73734311D01*
X140203426Y-73668847D01*
X140218277Y-73600574D01*
X140267682Y-73551168D01*
X140283777Y-73543818D01*
X140391078Y-73503797D01*
X140391077Y-73503797D01*
X140391081Y-73503796D01*
X140506296Y-73417546D01*
X140592546Y-73302331D01*
X140642841Y-73167483D01*
X140649250Y-73107873D01*
X140649249Y-72212128D01*
X140642841Y-72152517D01*
X140641794Y-72149711D01*
X140592547Y-72017671D01*
X140592543Y-72017664D01*
X140506297Y-71902455D01*
X140506294Y-71902452D01*
X140391085Y-71816206D01*
X140391078Y-71816202D01*
X140283777Y-71776182D01*
X140227843Y-71734311D01*
X140203426Y-71668847D01*
X140218277Y-71600574D01*
X140267682Y-71551168D01*
X140283777Y-71543818D01*
X140391078Y-71503797D01*
X140391077Y-71503797D01*
X140391081Y-71503796D01*
X140506296Y-71417546D01*
X140592546Y-71302331D01*
X140642841Y-71167483D01*
X140649250Y-71107873D01*
X140649249Y-70320499D01*
X140668933Y-70253461D01*
X140721737Y-70207706D01*
X140773249Y-70196500D01*
X149876204Y-70196500D01*
X149943243Y-70216185D01*
X149988998Y-70268989D01*
X149998942Y-70338147D01*
X149990765Y-70367952D01*
X149966514Y-70426498D01*
X149966511Y-70426510D01*
X149935750Y-70581153D01*
X149935750Y-70738846D01*
X149966511Y-70893489D01*
X149966514Y-70893501D01*
X150026852Y-71039172D01*
X150026859Y-71039185D01*
X150114460Y-71170288D01*
X150114463Y-71170292D01*
X150225957Y-71281786D01*
X150225961Y-71281789D01*
X150357064Y-71369390D01*
X150357077Y-71369397D01*
X150502748Y-71429735D01*
X150502753Y-71429737D01*
X150657403Y-71460499D01*
X150657406Y-71460500D01*
X150657408Y-71460500D01*
X150815094Y-71460500D01*
X150815095Y-71460499D01*
X150969747Y-71429737D01*
X151115429Y-71369394D01*
X151115435Y-71369390D01*
X151247125Y-71281398D01*
X151313803Y-71260520D01*
X151316016Y-71260500D01*
X153811570Y-71260500D01*
X153878609Y-71280185D01*
X153910835Y-71310187D01*
X153991204Y-71417546D01*
X154037393Y-71452123D01*
X154106414Y-71503793D01*
X154106421Y-71503797D01*
X154213722Y-71543818D01*
X154269656Y-71585689D01*
X154294073Y-71651154D01*
X154279221Y-71719427D01*
X154229816Y-71768832D01*
X154213722Y-71776182D01*
X154106421Y-71816202D01*
X154106414Y-71816206D01*
X153991206Y-71902452D01*
X153991205Y-71902453D01*
X153991204Y-71902454D01*
X153910837Y-72009811D01*
X153854903Y-72051682D01*
X153811570Y-72059500D01*
X151316016Y-72059500D01*
X151248977Y-72039815D01*
X151247125Y-72038602D01*
X151115435Y-71950609D01*
X151115422Y-71950602D01*
X150969751Y-71890264D01*
X150969739Y-71890261D01*
X150815095Y-71859500D01*
X150815092Y-71859500D01*
X150657408Y-71859500D01*
X150657405Y-71859500D01*
X150502760Y-71890261D01*
X150502748Y-71890264D01*
X150357077Y-71950602D01*
X150357064Y-71950609D01*
X150225961Y-72038210D01*
X150225957Y-72038213D01*
X150114463Y-72149707D01*
X150114460Y-72149711D01*
X150026859Y-72280814D01*
X150026852Y-72280827D01*
X149966514Y-72426498D01*
X149966511Y-72426510D01*
X149935750Y-72581153D01*
X149935750Y-72738846D01*
X149966511Y-72893489D01*
X149966514Y-72893501D01*
X150026852Y-73039172D01*
X150026859Y-73039185D01*
X150114460Y-73170288D01*
X150114463Y-73170292D01*
X150225957Y-73281786D01*
X150225961Y-73281789D01*
X150357064Y-73369390D01*
X150357077Y-73369397D01*
X150502748Y-73429735D01*
X150502753Y-73429737D01*
X150657403Y-73460499D01*
X150657406Y-73460500D01*
X150657408Y-73460500D01*
X150815094Y-73460500D01*
X150815095Y-73460499D01*
X150969747Y-73429737D01*
X151115429Y-73369394D01*
X151115435Y-73369390D01*
X151247125Y-73281398D01*
X151313803Y-73260520D01*
X151316016Y-73260500D01*
X153811570Y-73260500D01*
X153878609Y-73280185D01*
X153910835Y-73310187D01*
X153991204Y-73417546D01*
X154037393Y-73452123D01*
X154106414Y-73503793D01*
X154106421Y-73503797D01*
X154213722Y-73543818D01*
X154269656Y-73585689D01*
X154294073Y-73651154D01*
X154279221Y-73719427D01*
X154229816Y-73768832D01*
X154213722Y-73776182D01*
X154106421Y-73816202D01*
X154106414Y-73816206D01*
X153991205Y-73902452D01*
X153991202Y-73902455D01*
X153904956Y-74017664D01*
X153904952Y-74017671D01*
X153854658Y-74152517D01*
X153853240Y-74165711D01*
X153848251Y-74212123D01*
X153848250Y-74212135D01*
X153848250Y-75107870D01*
X153848251Y-75107876D01*
X153854658Y-75167483D01*
X153904952Y-75302328D01*
X153904956Y-75302335D01*
X153991202Y-75417544D01*
X153991205Y-75417547D01*
X154106414Y-75503793D01*
X154106421Y-75503797D01*
X154213722Y-75543818D01*
X154269656Y-75585689D01*
X154294073Y-75651154D01*
X154279221Y-75719427D01*
X154229816Y-75768832D01*
X154213722Y-75776182D01*
X154106421Y-75816202D01*
X154106414Y-75816206D01*
X153991206Y-75902452D01*
X153991205Y-75902453D01*
X153991204Y-75902454D01*
X153910837Y-76009811D01*
X153854903Y-76051682D01*
X153811570Y-76059500D01*
X147022191Y-76059500D01*
X146989667Y-76068214D01*
X146989668Y-76068215D01*
X146869464Y-76100423D01*
X146869459Y-76100426D01*
X146732540Y-76179475D01*
X146732532Y-76179481D01*
X144286731Y-78625282D01*
X144286729Y-78625285D01*
X144236611Y-78712094D01*
X144236609Y-78712096D01*
X144207675Y-78762209D01*
X144207674Y-78762210D01*
X144207673Y-78762215D01*
X144166749Y-78914943D01*
X144166749Y-78914945D01*
X144166749Y-79083046D01*
X144166750Y-79083059D01*
X144166750Y-87658903D01*
X144147065Y-87725942D01*
X144094261Y-87771697D01*
X144025103Y-87781641D01*
X143961547Y-87752616D01*
X143955069Y-87746584D01*
X143211771Y-87003286D01*
X143211770Y-87003284D01*
X143099966Y-86891480D01*
X143099963Y-86891478D01*
X142726840Y-86518355D01*
X142726838Y-86518352D01*
X142607967Y-86399481D01*
X142607966Y-86399480D01*
X142514216Y-86345354D01*
X142514215Y-86345353D01*
X142479828Y-86325500D01*
X142471035Y-86320423D01*
X142471034Y-86320422D01*
X142471033Y-86320422D01*
X142395932Y-86300299D01*
X142318307Y-86279499D01*
X142318304Y-86279499D01*
X142198756Y-86279499D01*
X142151303Y-86270060D01*
X142148722Y-86268991D01*
X142038651Y-86254500D01*
X141639846Y-86254500D01*
X141529786Y-86268988D01*
X141529777Y-86268991D01*
X141392824Y-86325719D01*
X141392821Y-86325720D01*
X141392821Y-86325721D01*
X141275214Y-86415964D01*
X141201011Y-86512668D01*
X141184969Y-86533574D01*
X141128241Y-86670527D01*
X141128240Y-86670529D01*
X141119678Y-86735569D01*
X141113750Y-86780599D01*
X141113750Y-86872683D01*
X141113751Y-86905499D01*
X141094067Y-86972539D01*
X141041263Y-87018294D01*
X140989751Y-87029500D01*
X137066347Y-87029500D01*
X136999308Y-87009815D01*
X136978666Y-86993181D01*
X136573068Y-86587583D01*
X136539583Y-86526260D01*
X136536749Y-86499902D01*
X136536749Y-83127129D01*
X136536748Y-83127123D01*
X136535771Y-83118037D01*
X136530341Y-83067517D01*
X136529864Y-83066239D01*
X136480047Y-82932671D01*
X136480043Y-82932664D01*
X136393797Y-82817455D01*
X136393794Y-82817452D01*
X136278585Y-82731206D01*
X136278578Y-82731202D01*
X136143732Y-82680908D01*
X136143733Y-82680908D01*
X136084133Y-82674501D01*
X136084131Y-82674500D01*
X136084123Y-82674500D01*
X136084115Y-82674500D01*
X133934750Y-82674500D01*
X133867711Y-82654815D01*
X133821956Y-82602011D01*
X133810750Y-82550500D01*
X133810750Y-77278059D01*
X133810751Y-77278046D01*
X133810751Y-77109945D01*
X133810751Y-77109943D01*
X133769827Y-76957215D01*
X133729638Y-76887606D01*
X133697465Y-76831881D01*
X133680993Y-76763981D01*
X133688304Y-76731406D01*
X133687144Y-76731029D01*
X133688648Y-76726399D01*
X133688650Y-76726396D01*
X133760419Y-76505514D01*
X133794349Y-76291286D01*
X133796750Y-76276129D01*
X133796750Y-76043870D01*
X133777482Y-75922222D01*
X133760419Y-75814486D01*
X133688650Y-75593604D01*
X133688648Y-75593601D01*
X133688648Y-75593599D01*
X133598944Y-75417547D01*
X133583211Y-75386669D01*
X133446699Y-75198776D01*
X133282474Y-75034551D01*
X133094581Y-74898039D01*
X132887650Y-74792601D01*
X132666764Y-74720831D01*
X132437379Y-74684500D01*
X132437374Y-74684500D01*
X132205126Y-74684500D01*
X132205121Y-74684500D01*
X131975735Y-74720831D01*
X131754849Y-74792601D01*
X131547918Y-74898039D01*
X131360023Y-75034553D01*
X131195803Y-75198773D01*
X131059289Y-75386668D01*
X130953851Y-75593599D01*
X130882081Y-75814485D01*
X130845750Y-76043870D01*
X130845750Y-76276129D01*
X130882081Y-76505514D01*
X130953851Y-76726400D01*
X131037054Y-76889693D01*
X131059289Y-76933331D01*
X131195801Y-77121224D01*
X131360026Y-77285449D01*
X131547919Y-77421961D01*
X131645686Y-77471776D01*
X131754849Y-77527398D01*
X131754851Y-77527398D01*
X131754854Y-77527400D01*
X131975736Y-77599169D01*
X132093918Y-77617886D01*
X132205121Y-77635500D01*
X132205126Y-77635500D01*
X132437372Y-77635500D01*
X132437374Y-77635500D01*
X132466352Y-77630910D01*
X132535645Y-77639864D01*
X132589097Y-77684860D01*
X132609737Y-77751612D01*
X132609750Y-77753383D01*
X132609750Y-82995299D01*
X132590065Y-83062338D01*
X132537261Y-83108093D01*
X132468103Y-83118037D01*
X132404547Y-83089012D01*
X132369568Y-83038632D01*
X132330047Y-82932671D01*
X132330043Y-82932664D01*
X132243797Y-82817455D01*
X132243794Y-82817452D01*
X132128585Y-82731206D01*
X132128578Y-82731202D01*
X131993732Y-82680908D01*
X131993733Y-82680908D01*
X131934133Y-82674501D01*
X131934131Y-82674500D01*
X131934123Y-82674500D01*
X131934114Y-82674500D01*
X129488379Y-82674500D01*
X129488373Y-82674501D01*
X129428766Y-82680908D01*
X129293921Y-82731202D01*
X129293914Y-82731206D01*
X129178705Y-82817452D01*
X129173431Y-82822727D01*
X129112108Y-82856212D01*
X129042416Y-82851228D01*
X128986483Y-82809356D01*
X128962066Y-82743892D01*
X128961750Y-82735046D01*
X128961750Y-56043624D01*
X128981435Y-55976585D01*
X129034239Y-55930830D01*
X129103397Y-55920886D01*
X129166953Y-55949911D01*
X129200309Y-55996169D01*
X129331357Y-56312546D01*
X129335480Y-56322499D01*
X129335482Y-56322504D01*
X129520761Y-56669137D01*
X129520772Y-56669155D01*
X129739137Y-56995960D01*
X129739147Y-56995974D01*
X129988504Y-57299817D01*
X130266432Y-57577745D01*
X130266437Y-57577749D01*
X130266438Y-57577750D01*
X130570281Y-57827107D01*
X130897101Y-58045482D01*
X130897110Y-58045487D01*
X130897112Y-58045488D01*
X131243745Y-58230767D01*
X131243747Y-58230767D01*
X131243753Y-58230771D01*
X131606897Y-58381190D01*
X131983035Y-58495290D01*
X131983041Y-58495291D01*
X131983044Y-58495292D01*
X131983055Y-58495295D01*
X132368547Y-58571973D01*
X132759718Y-58610500D01*
X132759721Y-58610500D01*
X133152779Y-58610500D01*
X133152782Y-58610500D01*
X133543953Y-58571973D01*
X133618998Y-58557045D01*
X133929444Y-58495295D01*
X133929455Y-58495292D01*
X133929455Y-58495291D01*
X133929465Y-58495290D01*
X134305603Y-58381190D01*
X134668747Y-58230771D01*
X135015399Y-58045482D01*
X135342219Y-57827107D01*
X135646062Y-57577750D01*
X135924000Y-57299812D01*
X136173357Y-56995969D01*
X136391732Y-56669149D01*
X136577021Y-56322497D01*
X136727440Y-55959353D01*
X136841540Y-55583215D01*
X136841542Y-55583205D01*
X136841545Y-55583194D01*
X136918223Y-55197702D01*
X136956750Y-54806528D01*
X136956750Y-54413471D01*
X136918223Y-54022297D01*
X136841545Y-53636805D01*
X136841542Y-53636794D01*
X136841541Y-53636791D01*
X136841540Y-53636785D01*
X136727440Y-53260647D01*
X136577021Y-52897503D01*
X136391732Y-52550851D01*
X136173357Y-52224031D01*
X135924000Y-51920188D01*
X135923999Y-51920187D01*
X135923995Y-51920182D01*
X135646067Y-51642254D01*
X135342224Y-51392897D01*
X135342223Y-51392896D01*
X135342219Y-51392893D01*
X135015399Y-51174518D01*
X135015394Y-51174515D01*
X135015387Y-51174511D01*
X134668754Y-50989232D01*
X134668749Y-50989230D01*
X134342422Y-50854061D01*
X134288019Y-50810220D01*
X134265954Y-50743926D01*
X134283233Y-50676227D01*
X134334370Y-50628616D01*
X134389875Y-50615500D01*
X145781364Y-50615500D01*
X145848403Y-50635185D01*
G37*
G04 #@! TD.AperFunction*
G04 #@! TA.AperFunction,Conductor*
G36*
X147191289Y-85710185D02*
G01*
X147237044Y-85762989D01*
X147248250Y-85814500D01*
X147248250Y-86300299D01*
X147243222Y-86317420D01*
X147240432Y-86343632D01*
X147239401Y-86346398D01*
X147229659Y-86372517D01*
X147223250Y-86432127D01*
X147223250Y-86693181D01*
X147223251Y-86831000D01*
X147220700Y-86839686D01*
X147221989Y-86848647D01*
X147211011Y-86872683D01*
X147203567Y-86898039D01*
X147196724Y-86903967D01*
X147192964Y-86912203D01*
X147170732Y-86926489D01*
X147150763Y-86943794D01*
X147140247Y-86946081D01*
X147134186Y-86949977D01*
X147099251Y-86955000D01*
X147048250Y-86955000D01*
X146981211Y-86935315D01*
X146935456Y-86882511D01*
X146924250Y-86831001D01*
X146924249Y-86707130D01*
X146924248Y-86707123D01*
X146922749Y-86693181D01*
X146917841Y-86647517D01*
X146898641Y-86596040D01*
X146867547Y-86512671D01*
X146867545Y-86512668D01*
X146866510Y-86511286D01*
X146811483Y-86437778D01*
X146800801Y-86409138D01*
X146788049Y-86381367D01*
X146788708Y-86376715D01*
X146787066Y-86372313D01*
X146786750Y-86363467D01*
X146786750Y-85814500D01*
X146806435Y-85747461D01*
X146859239Y-85701706D01*
X146910750Y-85690500D01*
X147124250Y-85690500D01*
X147191289Y-85710185D01*
G37*
G04 #@! TD.AperFunction*
G04 #@! TA.AperFunction,Conductor*
G36*
X156089149Y-84725081D02*
G01*
X156113558Y-84744043D01*
X156968708Y-85599193D01*
X157002193Y-85660516D01*
X156997209Y-85730208D01*
X156984130Y-85755764D01*
X156905093Y-85874051D01*
X156905087Y-85874062D01*
X156844749Y-86019733D01*
X156844746Y-86019743D01*
X156813846Y-86175085D01*
X156781461Y-86236996D01*
X156779910Y-86238574D01*
X156525303Y-86493182D01*
X156463980Y-86526667D01*
X156437622Y-86529501D01*
X155658412Y-86529501D01*
X155634546Y-86527183D01*
X155624589Y-86525230D01*
X155580833Y-86508910D01*
X155521223Y-86502501D01*
X155508703Y-86502501D01*
X155496884Y-86500183D01*
X155476138Y-86489401D01*
X155453711Y-86482816D01*
X155445718Y-86473592D01*
X155434887Y-86467963D01*
X155423263Y-86447677D01*
X155407956Y-86430012D01*
X155404782Y-86415424D01*
X155400150Y-86407340D01*
X155400695Y-86396635D01*
X155396750Y-86378501D01*
X155396750Y-85315046D01*
X155416435Y-85248007D01*
X155469239Y-85202252D01*
X155473298Y-85200485D01*
X155560422Y-85164397D01*
X155560422Y-85164396D01*
X155560429Y-85164394D01*
X155691539Y-85076789D01*
X155803039Y-84965289D01*
X155890644Y-84834179D01*
X155911316Y-84784271D01*
X155955156Y-84729869D01*
X156021450Y-84707803D01*
X156089149Y-84725081D01*
G37*
G04 #@! TD.AperFunction*
G04 #@! TA.AperFunction,Conductor*
G36*
X153815952Y-77261786D02*
G01*
X153820415Y-77260816D01*
X153849171Y-77271541D01*
X153878609Y-77280185D01*
X153882793Y-77284080D01*
X153885880Y-77285232D01*
X153910835Y-77310187D01*
X153991204Y-77417546D01*
X153997102Y-77421961D01*
X154106414Y-77503793D01*
X154106421Y-77503797D01*
X154213722Y-77543818D01*
X154269656Y-77585689D01*
X154294073Y-77651154D01*
X154279221Y-77719427D01*
X154229816Y-77768832D01*
X154213722Y-77776182D01*
X154106421Y-77816202D01*
X154106414Y-77816206D01*
X153991205Y-77902452D01*
X153991202Y-77902455D01*
X153904956Y-78017664D01*
X153904952Y-78017671D01*
X153854658Y-78152517D01*
X153849068Y-78204518D01*
X153848251Y-78212123D01*
X153848250Y-78212135D01*
X153848250Y-79107870D01*
X153848251Y-79107876D01*
X153854658Y-79167483D01*
X153904952Y-79302328D01*
X153904956Y-79302335D01*
X153991202Y-79417544D01*
X153991205Y-79417547D01*
X154106414Y-79503793D01*
X154106421Y-79503797D01*
X154241267Y-79554091D01*
X154241266Y-79554091D01*
X154245071Y-79554500D01*
X154300877Y-79560500D01*
X156396622Y-79560499D01*
X156456233Y-79554091D01*
X156483731Y-79543835D01*
X156591079Y-79503797D01*
X156591079Y-79503796D01*
X156591081Y-79503796D01*
X156653244Y-79457259D01*
X156684684Y-79445532D01*
X156715869Y-79433077D01*
X156717808Y-79433175D01*
X156718707Y-79432841D01*
X156751122Y-79434785D01*
X156751451Y-79434848D01*
X156880408Y-79460500D01*
X156883966Y-79460500D01*
X156893316Y-79462310D01*
X156919429Y-79475799D01*
X156946685Y-79486803D01*
X156950115Y-79491650D01*
X156955392Y-79494376D01*
X156970066Y-79519841D01*
X156987048Y-79543835D01*
X156988331Y-79551534D01*
X156990278Y-79554913D01*
X156989966Y-79561346D01*
X156993750Y-79584050D01*
X156993750Y-83626403D01*
X156974065Y-83693442D01*
X156921261Y-83739197D01*
X156852103Y-83749141D01*
X156788547Y-83720116D01*
X156782069Y-83714084D01*
X155637340Y-82569355D01*
X155637338Y-82569352D01*
X155518467Y-82450481D01*
X155518466Y-82450480D01*
X155431654Y-82400360D01*
X155431654Y-82400359D01*
X155431650Y-82400358D01*
X155381535Y-82371423D01*
X155228807Y-82330499D01*
X155070693Y-82330499D01*
X155063097Y-82330499D01*
X155063081Y-82330500D01*
X152600919Y-82330500D01*
X152600903Y-82330499D01*
X152593307Y-82330499D01*
X152435193Y-82330499D01*
X152327837Y-82359265D01*
X152282460Y-82371424D01*
X152282459Y-82371425D01*
X152232346Y-82400359D01*
X152232345Y-82400360D01*
X152201319Y-82418273D01*
X152145535Y-82450479D01*
X152145532Y-82450481D01*
X152033728Y-82562286D01*
X151841073Y-82754940D01*
X151779750Y-82788425D01*
X151710058Y-82783441D01*
X151654125Y-82741569D01*
X151634731Y-82703254D01*
X151632988Y-82697510D01*
X151632987Y-82697503D01*
X151615305Y-82654815D01*
X151572647Y-82551827D01*
X151572640Y-82551814D01*
X151484648Y-82420125D01*
X151463770Y-82353447D01*
X151463750Y-82351234D01*
X151463750Y-78176765D01*
X151483435Y-78109726D01*
X151484648Y-78107874D01*
X151572640Y-77976185D01*
X151572640Y-77976184D01*
X151572644Y-77976179D01*
X151632987Y-77830497D01*
X151663750Y-77675842D01*
X151663750Y-77518158D01*
X151663750Y-77518155D01*
X151641976Y-77408692D01*
X151648203Y-77339100D01*
X151691066Y-77283923D01*
X151756956Y-77260678D01*
X151763593Y-77260500D01*
X153811570Y-77260500D01*
X153815952Y-77261786D01*
G37*
G04 #@! TD.AperFunction*
G04 #@! TA.AperFunction,Conductor*
G36*
X160396395Y-78921602D02*
G01*
X160452328Y-78963474D01*
X160467622Y-78990331D01*
X160487854Y-79039175D01*
X160487859Y-79039185D01*
X160575460Y-79170288D01*
X160575463Y-79170292D01*
X160686957Y-79281786D01*
X160686961Y-79281789D01*
X160818064Y-79369390D01*
X160818077Y-79369397D01*
X160963748Y-79429735D01*
X160963753Y-79429737D01*
X160963755Y-79429737D01*
X160963757Y-79429738D01*
X160968249Y-79430631D01*
X160971179Y-79431214D01*
X161033091Y-79463596D01*
X161067668Y-79524310D01*
X161063932Y-79594080D01*
X161023068Y-79650754D01*
X161011145Y-79658948D01*
X160956858Y-79691766D01*
X160843016Y-79805608D01*
X160759719Y-79943397D01*
X160711819Y-80097116D01*
X160705750Y-80163911D01*
X160705750Y-81571098D01*
X160711818Y-81637882D01*
X160711821Y-81637893D01*
X160759717Y-81791598D01*
X160759718Y-81791600D01*
X160759719Y-81791602D01*
X160843014Y-81929388D01*
X160843016Y-81929391D01*
X160843017Y-81929392D01*
X160894430Y-81980804D01*
X160909134Y-82007732D01*
X160925727Y-82033551D01*
X160926618Y-82039750D01*
X160927916Y-82042127D01*
X160930750Y-82068486D01*
X160930750Y-82183604D01*
X160911065Y-82250643D01*
X160858261Y-82296398D01*
X160789103Y-82306342D01*
X160737859Y-82286706D01*
X160640435Y-82221609D01*
X160640422Y-82221602D01*
X160494751Y-82161264D01*
X160494739Y-82161261D01*
X160340095Y-82130500D01*
X160340092Y-82130500D01*
X160182408Y-82130500D01*
X160182405Y-82130500D01*
X160027760Y-82161261D01*
X160027748Y-82161264D01*
X159882077Y-82221602D01*
X159882064Y-82221609D01*
X159750961Y-82309210D01*
X159750957Y-82309213D01*
X159639463Y-82420707D01*
X159639460Y-82420711D01*
X159551859Y-82551814D01*
X159551852Y-82551827D01*
X159491514Y-82697498D01*
X159491511Y-82697510D01*
X159460750Y-82852153D01*
X159460750Y-83009846D01*
X159491511Y-83164489D01*
X159491514Y-83164501D01*
X159551852Y-83310172D01*
X159551859Y-83310185D01*
X159639852Y-83441874D01*
X159645502Y-83459920D01*
X159655727Y-83475830D01*
X159660178Y-83506789D01*
X159660730Y-83508551D01*
X159660750Y-83510765D01*
X159660750Y-83550913D01*
X159641065Y-83617952D01*
X159588261Y-83663707D01*
X159519103Y-83673651D01*
X159455547Y-83644626D01*
X159449069Y-83638594D01*
X159247069Y-83436594D01*
X159213584Y-83375271D01*
X159210750Y-83348913D01*
X159210750Y-80056096D01*
X159230435Y-79989057D01*
X159247064Y-79968419D01*
X160265382Y-78950101D01*
X160326703Y-78916618D01*
X160396395Y-78921602D01*
G37*
G04 #@! TD.AperFunction*
G04 #@! TA.AperFunction,Conductor*
G36*
X166061712Y-76842356D02*
G01*
X166085562Y-76845208D01*
X166094463Y-76852557D01*
X166105487Y-76855991D01*
X166120920Y-76874402D01*
X166139440Y-76889693D01*
X166142954Y-76900687D01*
X166150372Y-76909536D01*
X166153401Y-76933366D01*
X166160715Y-76956245D01*
X166160750Y-76959196D01*
X166160750Y-81808403D01*
X166141065Y-81875442D01*
X166088261Y-81921197D01*
X166019103Y-81931141D01*
X165955547Y-81902116D01*
X165949069Y-81896084D01*
X164933068Y-80880083D01*
X164899583Y-80818760D01*
X164896749Y-80792402D01*
X164896749Y-80163901D01*
X164890681Y-80097117D01*
X164890678Y-80097106D01*
X164842782Y-79943401D01*
X164842781Y-79943400D01*
X164842781Y-79943398D01*
X164759486Y-79805612D01*
X164759484Y-79805610D01*
X164759483Y-79805608D01*
X164645641Y-79691766D01*
X164642099Y-79689625D01*
X164507852Y-79608469D01*
X164354137Y-79560570D01*
X164354135Y-79560569D01*
X164354133Y-79560569D01*
X164307367Y-79556319D01*
X164287341Y-79554500D01*
X164287338Y-79554500D01*
X163855151Y-79554500D01*
X163788367Y-79560568D01*
X163788356Y-79560571D01*
X163634650Y-79608467D01*
X163500400Y-79689625D01*
X163432845Y-79707461D01*
X163372100Y-79689625D01*
X163237852Y-79608469D01*
X163206351Y-79598653D01*
X163084137Y-79560570D01*
X163084135Y-79560569D01*
X163084133Y-79560569D01*
X163037367Y-79556319D01*
X163017341Y-79554500D01*
X163017338Y-79554500D01*
X162992347Y-79554500D01*
X162925308Y-79534815D01*
X162904666Y-79518181D01*
X162031823Y-78645337D01*
X162022760Y-78628739D01*
X162009628Y-78615130D01*
X161999223Y-78585635D01*
X161998338Y-78584014D01*
X161997887Y-78581847D01*
X161976175Y-78472691D01*
X161982402Y-78403099D01*
X162025266Y-78347922D01*
X162091156Y-78324678D01*
X162097792Y-78324500D01*
X164251331Y-78324500D01*
X164251347Y-78324501D01*
X164258943Y-78324501D01*
X164417054Y-78324501D01*
X164417057Y-78324501D01*
X164569785Y-78283577D01*
X164632272Y-78247500D01*
X164706716Y-78204520D01*
X164818520Y-78092716D01*
X164818520Y-78092714D01*
X164828724Y-78082511D01*
X164828728Y-78082506D01*
X165712506Y-77198728D01*
X165712511Y-77198724D01*
X165722714Y-77188520D01*
X165722716Y-77188520D01*
X165834520Y-77076716D01*
X165887727Y-76984558D01*
X165913577Y-76939785D01*
X165919919Y-76916113D01*
X165924813Y-76905847D01*
X165940837Y-76887953D01*
X165953340Y-76867442D01*
X165963724Y-76862397D01*
X165971426Y-76853798D01*
X165994580Y-76847408D01*
X166016187Y-76836913D01*
X166027650Y-76838283D01*
X166038778Y-76835213D01*
X166061712Y-76842356D01*
G37*
G04 #@! TD.AperFunction*
G04 #@! TA.AperFunction,Conductor*
G36*
X157246942Y-70216185D02*
G01*
X157267584Y-70232819D01*
X161875532Y-74840767D01*
X161909017Y-74902090D01*
X161904033Y-74971782D01*
X161862161Y-75027715D01*
X161860746Y-75028759D01*
X161852781Y-75034546D01*
X161852773Y-75034553D01*
X161688553Y-75198773D01*
X161552039Y-75386668D01*
X161446601Y-75593599D01*
X161374831Y-75814485D01*
X161338500Y-76043870D01*
X161338500Y-76276129D01*
X161374831Y-76505514D01*
X161446601Y-76726400D01*
X161552040Y-76933333D01*
X161552881Y-76934705D01*
X161553041Y-76935298D01*
X161554251Y-76937672D01*
X161553752Y-76937926D01*
X161571129Y-77002150D01*
X161550016Y-77068753D01*
X161496246Y-77113369D01*
X161447157Y-77123500D01*
X160728919Y-77123500D01*
X160728903Y-77123499D01*
X160721307Y-77123499D01*
X160563193Y-77123499D01*
X160483260Y-77144917D01*
X160410466Y-77164422D01*
X160379446Y-77182332D01*
X160379445Y-77182331D01*
X160273537Y-77243477D01*
X160273532Y-77243481D01*
X158406431Y-79110583D01*
X158345108Y-79144068D01*
X158275416Y-79139084D01*
X158219483Y-79097212D01*
X158195066Y-79031748D01*
X158194750Y-79022902D01*
X158194750Y-76994560D01*
X158194751Y-76994547D01*
X158194751Y-76826444D01*
X158194751Y-76826443D01*
X158153827Y-76673716D01*
X158127975Y-76628939D01*
X158074774Y-76536790D01*
X158074768Y-76536782D01*
X156861872Y-75323886D01*
X156828387Y-75262563D01*
X156833370Y-75192873D01*
X156842841Y-75167483D01*
X156849250Y-75107873D01*
X156849249Y-74212128D01*
X156842841Y-74152517D01*
X156808140Y-74059480D01*
X156792547Y-74017671D01*
X156792543Y-74017664D01*
X156706297Y-73902455D01*
X156706294Y-73902452D01*
X156591085Y-73816206D01*
X156591078Y-73816202D01*
X156483777Y-73776182D01*
X156427843Y-73734311D01*
X156403426Y-73668847D01*
X156418277Y-73600574D01*
X156467682Y-73551168D01*
X156483777Y-73543818D01*
X156591078Y-73503797D01*
X156591077Y-73503797D01*
X156591081Y-73503796D01*
X156706296Y-73417546D01*
X156792546Y-73302331D01*
X156842841Y-73167483D01*
X156849250Y-73107873D01*
X156849249Y-72212128D01*
X156842841Y-72152517D01*
X156841794Y-72149711D01*
X156792547Y-72017671D01*
X156792543Y-72017664D01*
X156706297Y-71902455D01*
X156706294Y-71902452D01*
X156591085Y-71816206D01*
X156591078Y-71816202D01*
X156483777Y-71776182D01*
X156427843Y-71734311D01*
X156403426Y-71668847D01*
X156418277Y-71600574D01*
X156467682Y-71551168D01*
X156483777Y-71543818D01*
X156591078Y-71503797D01*
X156591077Y-71503797D01*
X156591081Y-71503796D01*
X156706296Y-71417546D01*
X156792546Y-71302331D01*
X156842841Y-71167483D01*
X156849250Y-71107873D01*
X156849249Y-70320499D01*
X156851799Y-70311813D01*
X156850511Y-70302853D01*
X156861488Y-70278816D01*
X156868933Y-70253461D01*
X156875775Y-70247532D01*
X156879536Y-70239297D01*
X156901767Y-70225010D01*
X156921737Y-70207706D01*
X156932252Y-70205418D01*
X156938314Y-70201523D01*
X156973249Y-70196500D01*
X157179903Y-70196500D01*
X157246942Y-70216185D01*
G37*
G04 #@! TD.AperFunction*
D36*
X128511250Y-50165000D02*
X166611250Y-50165000D01*
X166611250Y-151765000D01*
X128511250Y-151765000D01*
X128511250Y-50165000D01*
M02*
