M48
; DRILL file {KiCad 9.0.6} date 2025-12-24T12:44:06-0600
; FORMAT={-:-/ absolute / metric / decimal}
; #@! TF.CreationDate,2025-12-24T12:44:06-06:00
; #@! TF.GenerationSoftware,Kicad,Pcbnew,9.0.6
; #@! TF.FileFunction,Plated,1,2,PTH
FMAT,2
METRIC
; #@! TA.AperFunction,Plated,PTH,ViaDrill
T1C0.300
; #@! TA.AperFunction,Plated,PTH,ComponentDrill
T2C0.460
; #@! TA.AperFunction,Plated,PTH,ComponentDrill
T3C0.800
; #@! TA.AperFunction,Plated,PTH,ComponentDrill
T4C1.100
; #@! TA.AperFunction,Plated,PTH,ComponentDrill
T5C1.250
; #@! TA.AperFunction,Plated,PTH,ComponentDrill
T6C1.300
; #@! TA.AperFunction,Plated,PTH,ComponentDrill
T7C3.500
%
G90
G05
T1
X130.81Y-80.01
X130.937Y-140.589
X131.064Y-129.032
X131.064Y-130.937
X131.686Y-91.44
X131.953Y-124.841
X132.334Y-113.157
X133.21Y-92.71
X134.239Y-133.096
X134.239Y-135.636
X134.239Y-138.176
X134.874Y-81.788
X135.001Y-140.589
X135.286Y-90.594
X136.131Y-79.677
X136.131Y-89.994
X136.779Y-81.029
X136.779Y-89.525
X137.401Y-92.71
X137.414Y-141.224
X137.668Y-102.108
X137.721Y-99.38
X138.176Y-89.027
X138.176Y-90.297
X138.43Y-147.066
X139.319Y-82.423
X139.7Y-109.474
X140.843Y-53.467
X140.843Y-68.707
X140.843Y-83.693
X140.843Y-86.36
X140.957Y-88.9
X141.211Y-113.919
X141.732Y-76.2
X142.367Y-150.622
X142.481Y-93.515
X142.481Y-98.933
X142.494Y-82.423
X142.748Y-80.518
X142.862Y-88.602
X143.637Y-89.535
X143.751Y-144.78
X143.764Y-143.764
X143.764Y-145.796
X144.018Y-111.506
X144.145Y-91.821
X144.272Y-99.06
X144.272Y-104.775
X144.894Y-90.551
X145.021Y-144.78
X145.034Y-143.764
X145.034Y-145.796
X145.367Y-85.979
X145.529Y-108.204
X145.861Y-93.515
X145.868Y-85.09
X145.868Y-101.6
X145.923Y-89.662
X146.291Y-144.78
X146.304Y-143.764
X146.304Y-145.796
X146.695Y-90.527
X146.926Y-108.204
X147.001Y-85.697
X147.32Y-67.818
X147.349Y-89.957
X147.349Y-105.197
X147.561Y-74.676
X147.561Y-144.78
X147.574Y-112.776
X147.574Y-115.824
X147.574Y-143.764
X147.574Y-145.796
X148.069Y-92.837
X148.196Y-105.197
X148.831Y-144.78
X148.844Y-143.764
X148.844Y-145.796
X149.251Y-93.515
X149.362Y-105.514
X149.847Y-135.509
X150.101Y-144.78
X150.114Y-143.764
X150.114Y-145.796
X150.228Y-88.646
X150.23Y-95.758
X150.736Y-70.66
X150.736Y-72.66
X150.863Y-77.597
X150.863Y-82.931
X150.863Y-84.963
X150.876Y-74.549
X151.371Y-112.903
X151.371Y-121.031
X151.371Y-144.78
X151.384Y-143.764
X151.384Y-145.796
X152.019Y-81.788
X152.641Y-93.515
X152.654Y-84.328
X152.654Y-89.535
X153.035Y-81.788
X153.289Y-150.495
X153.543Y-66.675
X154.051Y-89.662
X154.305Y-53.467
X154.356Y-84.432
X154.94Y-81.788
X155.045Y-89.535
X155.181Y-84.455
X155.816Y-90.17
X156.21Y-81.788
X156.245Y-88.31
X156.464Y-85.344
X156.959Y-78.66
X157.445Y-88.31
X157.614Y-86.253
X157.721Y-137.795
X157.734Y-73.66
X158.356Y-87.376
X158.369Y-88.392
X158.991Y-116.967
X158.991Y-142.875
X159.004Y-135.255
X159.543Y-80.867
X159.626Y-86.106
X159.753Y-113.919
X160.261Y-82.931
X160.769Y-134.747
X161.197Y-78.66
X161.277Y-122.555
X161.424Y-84.455
X161.531Y-82.931
X161.798Y-99.314
X162.433Y-117.983
X162.56Y-104.14
X162.814Y-124.46
X163.055Y-141.605
X163.195Y-115.316
X163.449Y-78.74
X163.449Y-84.709
X163.449Y-111.125
X163.703Y-96.774
X163.944Y-85.725
X164.071Y-89.535
X164.084Y-130.81
X165.354Y-79.502
T2
X143.161Y-56.855
X151.921Y-56.855
T3
X130.501Y-122.825
X130.501Y-124.825
X164.621Y-122.825
X164.621Y-124.825
T4
X139.941Y-117.475
X139.941Y-120.015
X139.941Y-122.555
X139.941Y-125.095
X139.941Y-127.635
X139.941Y-130.175
X139.941Y-132.715
X139.941Y-135.255
X139.941Y-137.795
X139.941Y-140.335
X139.941Y-142.875
X139.941Y-145.415
X139.941Y-147.955
X139.941Y-150.495
X142.481Y-117.475
X142.481Y-122.555
X142.481Y-125.095
X142.481Y-147.955
X145.021Y-117.475
X145.021Y-122.555
X145.021Y-125.095
X147.561Y-117.475
X147.561Y-122.555
X147.561Y-125.095
X150.101Y-117.475
X150.101Y-122.555
X150.101Y-125.095
X152.641Y-117.475
X152.641Y-122.555
X152.641Y-125.095
X155.181Y-117.475
X155.181Y-120.015
X155.181Y-122.555
X155.181Y-125.095
X155.181Y-127.635
X155.181Y-130.175
X155.181Y-132.715
X155.181Y-135.255
X155.181Y-137.795
X155.181Y-140.335
X155.181Y-142.875
X155.181Y-145.415
X155.181Y-147.955
X155.181Y-150.495
T5
X131.051Y-132.715
X131.051Y-135.255
X131.051Y-137.795
X164.071Y-132.715
X164.071Y-135.255
X164.071Y-137.795
T6
X132.321Y-71.16
X132.321Y-76.16
X132.321Y-101.64
X132.321Y-106.64
X162.814Y-71.16
X162.814Y-76.16
X162.814Y-101.64
X162.814Y-106.64
T7
X132.956Y-54.61
X132.956Y-147.32
X162.166Y-54.61
X162.166Y-147.32
M30
