G04 #@! TF.GenerationSoftware,KiCad,Pcbnew,9.0.6*
G04 #@! TF.CreationDate,2025-12-24T12:42:27-06:00*
G04 #@! TF.ProjectId,TVC,5456432e-6b69-4636-9164-5f7063625858,rev?*
G04 #@! TF.SameCoordinates,Original*
G04 #@! TF.FileFunction,Soldermask,Top*
G04 #@! TF.FilePolarity,Negative*
%FSLAX46Y46*%
G04 Gerber Fmt 4.6, Leading zero omitted, Abs format (unit mm)*
G04 Created by KiCad (PCBNEW 9.0.6) date 2025-12-24 12:42:27*
%MOMM*%
%LPD*%
G01*
G04 APERTURE LIST*
G04 Aperture macros list*
%AMRoundRect*
0 Rectangle with rounded corners*
0 $1 Rounding radius*
0 $2 $3 $4 $5 $6 $7 $8 $9 X,Y pos of 4 corners*
0 Add a 4 corners polygon primitive as box body*
4,1,4,$2,$3,$4,$5,$6,$7,$8,$9,$2,$3,0*
0 Add four circle primitives for the rounded corners*
1,1,$1+$1,$2,$3*
1,1,$1+$1,$4,$5*
1,1,$1+$1,$6,$7*
1,1,$1+$1,$8,$9*
0 Add four rect primitives between the rounded corners*
20,1,$1+$1,$2,$3,$4,$5,0*
20,1,$1+$1,$4,$5,$6,$7,0*
20,1,$1+$1,$6,$7,$8,$9,0*
20,1,$1+$1,$8,$9,$2,$3,0*%
G04 Aperture macros list end*
%ADD10C,0.010000*%
%ADD11C,2.154000*%
%ADD12RoundRect,0.102000X1.000000X0.400000X-1.000000X0.400000X-1.000000X-0.400000X1.000000X-0.400000X0*%
%ADD13RoundRect,0.087500X-0.487500X-0.087500X0.487500X-0.087500X0.487500X0.087500X-0.487500X0.087500X0*%
%ADD14RoundRect,0.050000X-0.675000X-0.050000X0.675000X-0.050000X0.675000X0.050000X-0.675000X0.050000X0*%
%ADD15RoundRect,0.062500X-0.162500X-0.062500X0.162500X-0.062500X0.162500X0.062500X-0.162500X0.062500X0*%
%ADD16R,2.350000X5.100000*%
%ADD17R,0.254000X0.279400*%
%ADD18R,0.279400X0.254000*%
%ADD19R,2.200000X2.200000*%
%ADD20RoundRect,0.150000X0.150000X-0.587500X0.150000X0.587500X-0.150000X0.587500X-0.150000X-0.587500X0*%
%ADD21RoundRect,0.162500X-0.162500X0.650000X-0.162500X-0.650000X0.162500X-0.650000X0.162500X0.650000X0*%
%ADD22C,7.000000*%
%ADD23RoundRect,0.102000X-0.654000X0.654000X-0.654000X-0.654000X0.654000X-0.654000X0.654000X0.654000X0*%
%ADD24C,1.512000*%
%ADD25R,2.290000X5.080000*%
%ADD26R,2.420000X5.080000*%
%ADD27RoundRect,0.218750X-0.256250X0.218750X-0.256250X-0.218750X0.256250X-0.218750X0.256250X0.218750X0*%
%ADD28C,1.600000*%
%ADD29RoundRect,0.102000X0.937500X-0.937500X0.937500X0.937500X-0.937500X0.937500X-0.937500X-0.937500X0*%
%ADD30C,2.079000*%
%ADD31RoundRect,0.102000X0.654000X-0.654000X0.654000X0.654000X-0.654000X0.654000X-0.654000X-0.654000X0*%
G04 #@! TA.AperFunction,Profile*
%ADD32C,0.200000*%
G04 #@! TD*
G04 APERTURE END LIST*
D10*
X146473750Y-87055000D02*
X145898750Y-87055000D01*
X145898750Y-86705000D01*
X146473750Y-86705000D01*
X146473750Y-87055000D01*
G36*
X146473750Y-87055000D02*
G01*
X145898750Y-87055000D01*
X145898750Y-86705000D01*
X146473750Y-86705000D01*
X146473750Y-87055000D01*
G37*
X146473750Y-87555000D02*
X145898750Y-87555000D01*
X145898750Y-87205000D01*
X146473750Y-87205000D01*
X146473750Y-87555000D01*
G36*
X146473750Y-87555000D02*
G01*
X145898750Y-87555000D01*
X145898750Y-87205000D01*
X146473750Y-87205000D01*
X146473750Y-87555000D01*
G37*
X146473750Y-88055000D02*
X145898750Y-88055000D01*
X145898750Y-87705000D01*
X146473750Y-87705000D01*
X146473750Y-88055000D01*
G36*
X146473750Y-88055000D02*
G01*
X145898750Y-88055000D01*
X145898750Y-87705000D01*
X146473750Y-87705000D01*
X146473750Y-88055000D01*
G37*
X146473750Y-88555000D02*
X145898750Y-88555000D01*
X145898750Y-88205000D01*
X146473750Y-88205000D01*
X146473750Y-88555000D01*
G36*
X146473750Y-88555000D02*
G01*
X145898750Y-88555000D01*
X145898750Y-88205000D01*
X146473750Y-88205000D01*
X146473750Y-88555000D01*
G37*
X147023750Y-87005000D02*
X146673750Y-87005000D01*
X146673750Y-86430000D01*
X147023750Y-86430000D01*
X147023750Y-87005000D01*
G36*
X147023750Y-87005000D02*
G01*
X146673750Y-87005000D01*
X146673750Y-86430000D01*
X147023750Y-86430000D01*
X147023750Y-87005000D01*
G37*
X147023750Y-88830000D02*
X146673750Y-88830000D01*
X146673750Y-88255000D01*
X147023750Y-88255000D01*
X147023750Y-88830000D01*
G36*
X147023750Y-88830000D02*
G01*
X146673750Y-88830000D01*
X146673750Y-88255000D01*
X147023750Y-88255000D01*
X147023750Y-88830000D01*
G37*
X147523750Y-87005000D02*
X147173750Y-87005000D01*
X147173750Y-86430000D01*
X147523750Y-86430000D01*
X147523750Y-87005000D01*
G36*
X147523750Y-87005000D02*
G01*
X147173750Y-87005000D01*
X147173750Y-86430000D01*
X147523750Y-86430000D01*
X147523750Y-87005000D01*
G37*
X147523750Y-88830000D02*
X147173750Y-88830000D01*
X147173750Y-88255000D01*
X147523750Y-88255000D01*
X147523750Y-88830000D01*
G36*
X147523750Y-88830000D02*
G01*
X147173750Y-88830000D01*
X147173750Y-88255000D01*
X147523750Y-88255000D01*
X147523750Y-88830000D01*
G37*
X148023750Y-87005000D02*
X147673750Y-87005000D01*
X147673750Y-86430000D01*
X148023750Y-86430000D01*
X148023750Y-87005000D01*
G36*
X148023750Y-87005000D02*
G01*
X147673750Y-87005000D01*
X147673750Y-86430000D01*
X148023750Y-86430000D01*
X148023750Y-87005000D01*
G37*
X148023750Y-88830000D02*
X147673750Y-88830000D01*
X147673750Y-88255000D01*
X148023750Y-88255000D01*
X148023750Y-88830000D01*
G36*
X148023750Y-88830000D02*
G01*
X147673750Y-88830000D01*
X147673750Y-88255000D01*
X148023750Y-88255000D01*
X148023750Y-88830000D01*
G37*
X148798750Y-87055000D02*
X148223750Y-87055000D01*
X148223750Y-86705000D01*
X148798750Y-86705000D01*
X148798750Y-87055000D01*
G36*
X148798750Y-87055000D02*
G01*
X148223750Y-87055000D01*
X148223750Y-86705000D01*
X148798750Y-86705000D01*
X148798750Y-87055000D01*
G37*
X148798750Y-87555000D02*
X148223750Y-87555000D01*
X148223750Y-87205000D01*
X148798750Y-87205000D01*
X148798750Y-87555000D01*
G36*
X148798750Y-87555000D02*
G01*
X148223750Y-87555000D01*
X148223750Y-87205000D01*
X148798750Y-87205000D01*
X148798750Y-87555000D01*
G37*
X148798750Y-88055000D02*
X148223750Y-88055000D01*
X148223750Y-87705000D01*
X148798750Y-87705000D01*
X148798750Y-88055000D01*
G36*
X148798750Y-88055000D02*
G01*
X148223750Y-88055000D01*
X148223750Y-87705000D01*
X148798750Y-87705000D01*
X148798750Y-88055000D01*
G37*
X148798750Y-88555000D02*
X148223750Y-88555000D01*
X148223750Y-88205000D01*
X148798750Y-88205000D01*
X148798750Y-88555000D01*
G36*
X148798750Y-88555000D02*
G01*
X148223750Y-88555000D01*
X148223750Y-88205000D01*
X148798750Y-88205000D01*
X148798750Y-88555000D01*
G37*
D11*
X162814000Y-101640000D03*
X162814000Y-106640000D03*
X162814000Y-76160000D03*
X162814000Y-71160000D03*
D12*
X155348750Y-80660000D03*
X155348750Y-78660000D03*
X155348750Y-76660000D03*
X155348750Y-74660000D03*
X155348750Y-72660000D03*
X155348750Y-70660000D03*
X155348750Y-68660000D03*
X155348750Y-66660000D03*
X139148750Y-66660000D03*
X139148750Y-68660000D03*
X139148750Y-70660000D03*
X139148750Y-72660000D03*
X139148750Y-74660000D03*
X139148750Y-76660000D03*
X139148750Y-78660000D03*
X139148750Y-80660000D03*
D13*
X140239250Y-87080000D03*
D14*
X140389250Y-87630000D03*
D13*
X140239250Y-88180000D03*
D15*
X141839250Y-88380000D03*
X141839250Y-87880000D03*
X141839250Y-87380000D03*
X141839250Y-86880000D03*
D16*
X130711250Y-85725000D03*
X134861250Y-85725000D03*
D17*
X154296250Y-88417400D03*
X154796250Y-88417400D03*
D18*
X155333650Y-88129999D03*
X155333650Y-87630000D03*
X155333650Y-87130001D03*
D17*
X154796250Y-86842600D03*
X154296250Y-86842600D03*
D18*
X153758850Y-87130001D03*
X153758850Y-87630000D03*
X153758850Y-88129999D03*
D19*
X140961250Y-104775000D03*
X154161250Y-104775000D03*
D11*
X132321250Y-106640000D03*
X132321250Y-101640000D03*
D20*
X137721250Y-96822500D03*
X139621250Y-96822500D03*
X138671250Y-94947500D03*
D21*
X164071250Y-80867500D03*
X162801250Y-80867500D03*
X161531250Y-80867500D03*
X160261250Y-80867500D03*
X160261250Y-88042500D03*
X161531250Y-88042500D03*
X162801250Y-88042500D03*
X164071250Y-88042500D03*
D20*
X161216250Y-94155500D03*
X163116250Y-94155500D03*
X162166250Y-92280500D03*
D22*
X132956250Y-54610000D03*
D23*
X130501250Y-124825000D03*
D24*
X130501250Y-122825000D03*
D25*
X147541250Y-53415000D03*
D26*
X151921250Y-53415000D03*
X143161250Y-53415000D03*
D27*
X142481250Y-95732500D03*
X142481250Y-97307500D03*
D28*
X155181250Y-150495000D03*
X155181250Y-147955000D03*
X155181250Y-145415000D03*
X155181250Y-142875000D03*
X155181250Y-140335000D03*
X155181250Y-137795000D03*
X155181250Y-135255000D03*
X155181250Y-132715000D03*
X155181250Y-130175000D03*
X155181250Y-127635000D03*
X155181250Y-125095000D03*
X155181250Y-122555000D03*
X155181250Y-120015000D03*
X155181250Y-117475000D03*
X152641250Y-117475000D03*
X150101250Y-117475000D03*
X147561250Y-117475000D03*
X145021250Y-117475000D03*
X142481250Y-117475000D03*
X139941250Y-117475000D03*
X139941250Y-120015000D03*
X139941250Y-122555000D03*
X139941250Y-125095000D03*
X139941250Y-127635000D03*
X139941250Y-130175000D03*
X139941250Y-132715000D03*
X139941250Y-135255000D03*
X139941250Y-137795000D03*
X139941250Y-140335000D03*
X139941250Y-142875000D03*
X139941250Y-145415000D03*
X139941250Y-147955000D03*
X139941250Y-150495000D03*
X142481250Y-147955000D03*
X142481250Y-122555000D03*
X142481250Y-125095000D03*
X145021250Y-122555000D03*
X145021250Y-125095000D03*
X147561250Y-122555000D03*
X147561250Y-125095000D03*
X150101250Y-122555000D03*
X150101250Y-125095000D03*
X152641250Y-122555000D03*
X152641250Y-125095000D03*
D22*
X162166250Y-54610000D03*
D27*
X149254583Y-95732500D03*
X149254583Y-97307500D03*
D22*
X162166250Y-147320000D03*
D11*
X132321250Y-76160000D03*
X132321250Y-71160000D03*
D29*
X131051250Y-137795000D03*
D30*
X131051250Y-135255000D03*
X131051250Y-132715000D03*
D22*
X132956250Y-147320000D03*
D27*
X152641250Y-95732500D03*
X152641250Y-97307500D03*
X145867917Y-95732500D03*
X145867917Y-97307500D03*
D29*
X164071250Y-137795000D03*
D30*
X164071250Y-135255000D03*
X164071250Y-132715000D03*
D31*
X164621250Y-122825000D03*
D24*
X164621250Y-124825000D03*
D32*
X128511250Y-50165000D02*
X166611250Y-50165000D01*
X166611250Y-151765000D01*
X128511250Y-151765000D01*
X128511250Y-50165000D01*
M02*
