G04 #@! TF.GenerationSoftware,KiCad,Pcbnew,9.0.6*
G04 #@! TF.CreationDate,2025-12-24T12:42:27-06:00*
G04 #@! TF.ProjectId,TVC,5456432e-6b69-4636-9164-5f7063625858,rev?*
G04 #@! TF.SameCoordinates,Original*
G04 #@! TF.FileFunction,Copper,L2,Bot*
G04 #@! TF.FilePolarity,Positive*
%FSLAX46Y46*%
G04 Gerber Fmt 4.6, Leading zero omitted, Abs format (unit mm)*
G04 Created by KiCad (PCBNEW 9.0.6) date 2025-12-24 12:42:27*
%MOMM*%
%LPD*%
G01*
G04 APERTURE LIST*
G04 Aperture macros list*
%AMRoundRect*
0 Rectangle with rounded corners*
0 $1 Rounding radius*
0 $2 $3 $4 $5 $6 $7 $8 $9 X,Y pos of 4 corners*
0 Add a 4 corners polygon primitive as box body*
4,1,4,$2,$3,$4,$5,$6,$7,$8,$9,$2,$3,0*
0 Add four circle primitives for the rounded corners*
1,1,$1+$1,$2,$3*
1,1,$1+$1,$4,$5*
1,1,$1+$1,$6,$7*
1,1,$1+$1,$8,$9*
0 Add four rect primitives between the rounded corners*
20,1,$1+$1,$2,$3,$4,$5,0*
20,1,$1+$1,$4,$5,$6,$7,0*
20,1,$1+$1,$6,$7,$8,$9,0*
20,1,$1+$1,$8,$9,$2,$3,0*%
G04 Aperture macros list end*
G04 #@! TA.AperFunction,ComponentPad*
%ADD10C,1.950000*%
G04 #@! TD*
G04 #@! TA.AperFunction,ComponentPad*
%ADD11C,7.000000*%
G04 #@! TD*
G04 #@! TA.AperFunction,ComponentPad*
%ADD12R,1.308000X1.308000*%
G04 #@! TD*
G04 #@! TA.AperFunction,ComponentPad*
%ADD13C,1.308000*%
G04 #@! TD*
G04 #@! TA.AperFunction,SMDPad,CuDef*
%ADD14R,2.420000X5.080000*%
G04 #@! TD*
G04 #@! TA.AperFunction,SMDPad,CuDef*
%ADD15R,0.460000X0.950000*%
G04 #@! TD*
G04 #@! TA.AperFunction,ComponentPad*
%ADD16C,0.970000*%
G04 #@! TD*
G04 #@! TA.AperFunction,ComponentPad*
%ADD17C,1.600000*%
G04 #@! TD*
G04 #@! TA.AperFunction,ComponentPad*
%ADD18R,1.875000X1.875000*%
G04 #@! TD*
G04 #@! TA.AperFunction,ComponentPad*
%ADD19C,1.875000*%
G04 #@! TD*
G04 #@! TA.AperFunction,SMDPad,CuDef*
%ADD20RoundRect,0.250000X-0.475000X0.250000X-0.475000X-0.250000X0.475000X-0.250000X0.475000X0.250000X0*%
G04 #@! TD*
G04 #@! TA.AperFunction,SMDPad,CuDef*
%ADD21RoundRect,0.250000X0.475000X-0.250000X0.475000X0.250000X-0.475000X0.250000X-0.475000X-0.250000X0*%
G04 #@! TD*
G04 #@! TA.AperFunction,SMDPad,CuDef*
%ADD22RoundRect,0.250000X-0.262500X-0.450000X0.262500X-0.450000X0.262500X0.450000X-0.262500X0.450000X0*%
G04 #@! TD*
G04 #@! TA.AperFunction,SMDPad,CuDef*
%ADD23RoundRect,0.250000X0.450000X-0.262500X0.450000X0.262500X-0.450000X0.262500X-0.450000X-0.262500X0*%
G04 #@! TD*
G04 #@! TA.AperFunction,SMDPad,CuDef*
%ADD24RoundRect,0.250000X0.262500X0.450000X-0.262500X0.450000X-0.262500X-0.450000X0.262500X-0.450000X0*%
G04 #@! TD*
G04 #@! TA.AperFunction,ViaPad*
%ADD25C,0.600000*%
G04 #@! TD*
G04 #@! TA.AperFunction,Conductor*
%ADD26C,0.200000*%
G04 #@! TD*
G04 #@! TA.AperFunction,Profile*
%ADD27C,0.200000*%
G04 #@! TD*
G04 APERTURE END LIST*
D10*
X162814000Y-101640000D03*
X162814000Y-106640000D03*
X162814000Y-76160000D03*
X162814000Y-71160000D03*
X132321250Y-106640000D03*
X132321250Y-101640000D03*
D11*
X132956250Y-54610000D03*
D12*
X130501250Y-124825000D03*
D13*
X130501250Y-122825000D03*
D14*
X151921250Y-53415000D03*
X143161250Y-53415000D03*
D15*
X151921250Y-56405000D03*
X143161250Y-56405000D03*
D16*
X151921250Y-56855000D03*
X143161250Y-56855000D03*
D17*
X155181250Y-150495000D03*
X155181250Y-147955000D03*
X155181250Y-145415000D03*
X155181250Y-142875000D03*
X155181250Y-140335000D03*
X155181250Y-137795000D03*
X155181250Y-135255000D03*
X155181250Y-132715000D03*
X155181250Y-130175000D03*
X155181250Y-127635000D03*
X155181250Y-125095000D03*
X155181250Y-122555000D03*
X155181250Y-120015000D03*
X155181250Y-117475000D03*
X152641250Y-117475000D03*
X150101250Y-117475000D03*
X147561250Y-117475000D03*
X145021250Y-117475000D03*
X142481250Y-117475000D03*
X139941250Y-117475000D03*
X139941250Y-120015000D03*
X139941250Y-122555000D03*
X139941250Y-125095000D03*
X139941250Y-127635000D03*
X139941250Y-130175000D03*
X139941250Y-132715000D03*
X139941250Y-135255000D03*
X139941250Y-137795000D03*
X139941250Y-140335000D03*
X139941250Y-142875000D03*
X139941250Y-145415000D03*
X139941250Y-147955000D03*
X139941250Y-150495000D03*
X142481250Y-147955000D03*
X142481250Y-122555000D03*
X142481250Y-125095000D03*
X145021250Y-122555000D03*
X145021250Y-125095000D03*
X147561250Y-122555000D03*
X147561250Y-125095000D03*
X150101250Y-122555000D03*
X150101250Y-125095000D03*
X152641250Y-122555000D03*
X152641250Y-125095000D03*
D11*
X162166250Y-54610000D03*
X162166250Y-147320000D03*
D10*
X132321250Y-76160000D03*
X132321250Y-71160000D03*
D18*
X131051250Y-137795000D03*
D19*
X131051250Y-135255000D03*
X131051250Y-132715000D03*
D11*
X132956250Y-147320000D03*
D18*
X164071250Y-137795000D03*
D19*
X164071250Y-135255000D03*
X164071250Y-132715000D03*
D12*
X164621250Y-122825000D03*
D13*
X164621250Y-124825000D03*
D20*
X149254584Y-78425000D03*
X149254584Y-80325000D03*
D21*
X142481250Y-85405000D03*
X142481250Y-83505000D03*
X149254584Y-76388000D03*
X149254584Y-74488000D03*
D22*
X146521750Y-86868000D03*
X148346750Y-86868000D03*
D20*
X152641250Y-78425000D03*
X152641250Y-80325000D03*
D21*
X139306250Y-91477500D03*
X139306250Y-89577500D03*
D22*
X142838750Y-113919000D03*
X144663750Y-113919000D03*
X146521750Y-83693000D03*
X148346750Y-83693000D03*
D23*
X152641250Y-91440000D03*
X152641250Y-89615000D03*
D20*
X145867917Y-78425000D03*
X145867917Y-80325000D03*
X152641250Y-85410000D03*
X152641250Y-87310000D03*
D21*
X139306250Y-85405000D03*
X139306250Y-83505000D03*
D23*
X145867917Y-91440000D03*
X145867917Y-89615000D03*
X149254583Y-91440000D03*
X149254583Y-89615000D03*
D21*
X156451250Y-87310000D03*
X156451250Y-85410000D03*
D23*
X142481250Y-91440000D03*
X142481250Y-89615000D03*
D24*
X159903750Y-122555000D03*
X158078750Y-122555000D03*
D22*
X161380750Y-113919000D03*
X163205750Y-113919000D03*
D25*
X131686250Y-91440000D03*
X144894250Y-90551000D03*
X140957250Y-88900000D03*
X155045150Y-89535000D03*
X149847250Y-135509000D03*
X151371250Y-121031000D03*
X147561250Y-74676000D03*
X164071250Y-89535000D03*
X145867917Y-85090000D03*
X152641250Y-93515000D03*
X149251250Y-93515000D03*
X145861250Y-93515000D03*
X145867917Y-101600000D03*
X142481250Y-93515000D03*
X145529250Y-108204000D03*
X142481250Y-98933000D03*
X146926250Y-108204000D03*
X150863250Y-82931000D03*
X150863250Y-84963000D03*
X150863250Y-77597000D03*
X137401250Y-92710000D03*
X133210250Y-92710000D03*
X159626250Y-86106000D03*
X158356250Y-87376000D03*
X147348750Y-89957500D03*
X155816250Y-90170000D03*
X147348750Y-105197500D03*
X148069250Y-92837000D03*
X148196250Y-105197500D03*
X151371250Y-112903000D03*
X146695088Y-90527500D03*
X150229583Y-95758000D03*
X157614485Y-86253235D03*
X161424485Y-84455000D03*
X150228250Y-88646000D03*
X157445000Y-88310000D03*
X149361765Y-105514485D03*
X161197250Y-78660000D03*
X156245000Y-88310000D03*
X156959250Y-78660000D03*
X159753250Y-113919000D03*
X158991250Y-116967000D03*
X137721250Y-99380000D03*
X141211250Y-113919000D03*
X142862250Y-88602500D03*
X160261250Y-82931000D03*
X160769250Y-134747000D03*
X157721250Y-137795000D03*
X154356383Y-84431933D03*
X161277250Y-122555000D03*
X163944250Y-85725000D03*
X155181250Y-84455000D03*
X150736250Y-72660000D03*
X135285515Y-90594265D03*
X161531250Y-82931000D03*
X158991250Y-142875000D03*
X136779479Y-81029271D03*
X136779479Y-89525432D03*
X163055250Y-141605000D03*
X136131250Y-79677500D03*
X136131250Y-89994265D03*
X138430000Y-147066000D03*
X143637000Y-89535000D03*
X130937000Y-140589000D03*
X153035000Y-81788000D03*
X150101250Y-144780000D03*
X156464000Y-85344000D03*
X131064000Y-130937000D03*
X148844000Y-143764000D03*
X134239000Y-138176000D03*
X164084000Y-130810000D03*
X148831250Y-144780000D03*
X152019000Y-81788000D03*
X147320000Y-67818000D03*
X137414000Y-141224000D03*
X156210000Y-81788000D03*
X163449000Y-111125000D03*
X131953000Y-124841000D03*
X151384000Y-143764000D03*
X145034000Y-145796000D03*
X153289000Y-150495000D03*
X130810000Y-80010000D03*
X159543500Y-80867500D03*
X151384000Y-145796000D03*
X144272000Y-104775000D03*
X146291250Y-144780000D03*
X162814000Y-124460000D03*
X140843000Y-53467000D03*
X159004000Y-135255000D03*
X145021250Y-144780000D03*
X145034000Y-143764000D03*
X144145000Y-91821000D03*
X142494000Y-82423000D03*
X143751250Y-144780000D03*
X157734000Y-73660000D03*
X142367000Y-150622000D03*
X138176000Y-89027000D03*
X147574000Y-143764000D03*
X139700000Y-109474000D03*
X147001390Y-85697018D03*
X158369000Y-88392000D03*
X135001000Y-140589000D03*
X138176000Y-90297000D03*
X148844000Y-145796000D03*
X144018000Y-111506000D03*
X147574000Y-115824000D03*
X162560000Y-104140000D03*
X145367250Y-85979000D03*
X151371250Y-144780000D03*
X146304000Y-145796000D03*
X144272000Y-99060000D03*
X134239000Y-135636000D03*
X153543000Y-66675000D03*
X147574000Y-145796000D03*
X147574000Y-112776000D03*
X152654000Y-84328000D03*
X141732000Y-76200000D03*
X146304000Y-143764000D03*
X134874000Y-81788000D03*
X143764000Y-143764000D03*
X162433000Y-117983000D03*
X145923000Y-89662000D03*
X147561250Y-144780000D03*
X137668000Y-102108000D03*
X132334000Y-113157000D03*
X131064000Y-129032000D03*
X150876000Y-74549000D03*
X150114000Y-145796000D03*
X142748000Y-80518000D03*
X134239000Y-133096000D03*
X163449000Y-84709000D03*
X163703000Y-96774000D03*
X163449000Y-78740000D03*
X140843000Y-68707000D03*
X161798000Y-99314000D03*
X163195000Y-115316000D03*
X152654000Y-89535000D03*
X139319000Y-82423000D03*
X154051000Y-89662000D03*
X154940000Y-81788000D03*
X143764000Y-145796000D03*
X165354000Y-79502000D03*
X154305000Y-53467000D03*
X140843000Y-86360000D03*
X140843000Y-83693000D03*
X150114000Y-143764000D03*
X150736250Y-70660000D03*
D26*
X150863250Y-77597000D02*
X152300250Y-76160000D01*
X152300250Y-76160000D02*
X162814000Y-76160000D01*
X144894250Y-90551000D02*
X140232750Y-90551000D01*
X140232750Y-90551000D02*
X139306250Y-91477500D01*
X139268750Y-91440000D02*
X131686250Y-91440000D01*
X139306250Y-91477500D02*
X139268750Y-91440000D01*
X143944250Y-86868000D02*
X142481250Y-85405000D01*
X142989250Y-86868000D02*
X143944250Y-86868000D01*
X142481250Y-85405000D02*
X139306250Y-85405000D01*
X146521750Y-86868000D02*
X143944250Y-86868000D01*
X140957250Y-88900000D02*
X142989250Y-86868000D01*
X164071250Y-89535000D02*
X164071250Y-94615000D01*
X164071250Y-94615000D02*
X159626250Y-99060000D01*
X164071250Y-89535000D02*
X156451250Y-89535000D01*
X149254584Y-76388000D02*
X147561250Y-74694666D01*
X153911250Y-113665000D02*
X150101250Y-117475000D01*
X159903750Y-122555000D02*
X159903750Y-116482500D01*
X156845000Y-87703750D02*
X156451250Y-87310000D01*
X152641250Y-78425000D02*
X149254584Y-78425000D01*
X149254584Y-78425000D02*
X149254584Y-76388000D01*
X156451250Y-89535000D02*
X156845000Y-89141250D01*
X139941250Y-145415000D02*
X149847250Y-135509000D01*
X150101250Y-119126000D02*
X150101250Y-117475000D01*
X159903750Y-116482500D02*
X157086250Y-113665000D01*
X151371250Y-121031000D02*
X151371250Y-120396000D01*
X149254584Y-78425000D02*
X145867917Y-78425000D01*
X153755383Y-84680876D02*
X153755383Y-79539133D01*
X159626250Y-99060000D02*
X159626250Y-111125000D01*
X156845000Y-89141250D02*
X156845000Y-87703750D01*
X156451250Y-87310000D02*
X156384507Y-87310000D01*
X151371250Y-120396000D02*
X150101250Y-119126000D01*
X159626250Y-111125000D02*
X157086250Y-113665000D01*
X147561250Y-74694666D02*
X147561250Y-74676000D01*
X156384507Y-87310000D02*
X153755383Y-84680876D01*
X153755383Y-79539133D02*
X152641250Y-78425000D01*
X156451250Y-89535000D02*
X155045150Y-89535000D01*
X157086250Y-113665000D02*
X153911250Y-113665000D01*
X156451250Y-87310000D02*
X152641250Y-87310000D01*
X152641250Y-80325000D02*
X149254584Y-80325000D01*
X145867917Y-85090000D02*
X145275250Y-84497333D01*
X145867917Y-80325000D02*
X149254584Y-80325000D01*
X145275250Y-80917667D02*
X145867917Y-80325000D01*
X145275250Y-84497333D02*
X145275250Y-80917667D01*
X152641250Y-91440000D02*
X152641250Y-93515000D01*
X149254583Y-91440000D02*
X149254583Y-93511667D01*
X149254583Y-93511667D02*
X149251250Y-93515000D01*
X145867917Y-91440000D02*
X145867917Y-93508333D01*
X145867917Y-93508333D02*
X145861250Y-93515000D01*
X146291250Y-126365000D02*
X146291250Y-102023333D01*
X146291250Y-102023333D02*
X145867917Y-101600000D01*
X155181250Y-135255000D02*
X146291250Y-126365000D01*
X142481250Y-91440000D02*
X142481250Y-93515000D01*
X148831250Y-110109000D02*
X148831250Y-126365000D01*
X142481250Y-105156000D02*
X142481250Y-98933000D01*
X148831250Y-126365000D02*
X155181250Y-132715000D01*
X145529250Y-108204000D02*
X142481250Y-105156000D01*
X146926250Y-108204000D02*
X148831250Y-110109000D01*
X150863250Y-84963000D02*
X150863250Y-82931000D01*
X137401250Y-92710000D02*
X133210250Y-92710000D01*
X141211250Y-121285000D02*
X139941250Y-120015000D01*
X162801250Y-139065000D02*
X154546250Y-139065000D01*
X164071250Y-137795000D02*
X162801250Y-139065000D01*
X154546250Y-139065000D02*
X141211250Y-125730000D01*
X141211250Y-125730000D02*
X141211250Y-121285000D01*
X137401250Y-125095000D02*
X139941250Y-122555000D01*
X137401250Y-131445000D02*
X137401250Y-125095000D01*
X131051250Y-137795000D02*
X137401250Y-131445000D01*
X158356250Y-87376000D02*
X159626250Y-86106000D01*
X147348750Y-105197500D02*
X147348750Y-91440000D01*
X147348750Y-91440000D02*
X148288550Y-90500200D01*
X148288550Y-90500200D02*
X155486050Y-90500200D01*
X147348750Y-91440000D02*
X147348750Y-89957500D01*
X155486050Y-90500200D02*
X155816250Y-90170000D01*
X148069250Y-92837000D02*
X147749750Y-93156500D01*
X147749750Y-93156500D02*
X147749750Y-104748557D01*
X147949750Y-104951000D02*
X148196250Y-105197500D01*
X147949750Y-104948557D02*
X147949750Y-104951000D01*
X147749750Y-104748557D02*
X147949750Y-104948557D01*
X146747750Y-106374500D02*
X151371250Y-110998000D01*
X158078750Y-122555000D02*
X155181250Y-122555000D01*
X146692250Y-90530338D02*
X146692250Y-90571000D01*
X151371250Y-110998000D02*
X151371250Y-112903000D01*
X146947750Y-104372500D02*
X146747750Y-104572500D01*
X146695088Y-90527500D02*
X146692250Y-90530338D01*
X146692250Y-90571000D02*
X146947750Y-90826500D01*
X146947750Y-90826500D02*
X146947750Y-104372500D01*
X146747750Y-104572500D02*
X146747750Y-106374500D01*
X159412720Y-84455000D02*
X157614485Y-86253235D01*
X161424485Y-84455000D02*
X160261250Y-84455000D01*
X148196250Y-99949000D02*
X148196250Y-104348971D01*
X155909000Y-88646000D02*
X150228250Y-88646000D01*
X157445000Y-87827410D02*
X157734000Y-87538410D01*
X157445000Y-88310000D02*
X157445000Y-87827410D01*
X157734000Y-86982250D02*
X160261250Y-84455000D01*
X160261250Y-84455000D02*
X159412720Y-84455000D01*
X150229583Y-95758000D02*
X150229583Y-97915667D01*
X148196250Y-104348971D02*
X149361764Y-105514485D01*
X150229583Y-97915667D02*
X148196250Y-99949000D01*
X157734000Y-87538410D02*
X157734000Y-86982250D01*
X161197250Y-78660000D02*
X156959250Y-78660000D01*
X156245000Y-88310000D02*
X155909000Y-88646000D01*
X149361764Y-105514485D02*
X149361765Y-105514485D01*
X155181250Y-130175000D02*
X158991250Y-126365000D01*
X161380750Y-113919000D02*
X159753250Y-113919000D01*
X158991250Y-126365000D02*
X158991250Y-116967000D01*
X142838750Y-113919000D02*
X141211250Y-113919000D01*
X141211250Y-102870000D02*
X141211250Y-113919000D01*
X137721250Y-99380000D02*
X141211250Y-102870000D01*
X148346750Y-86868000D02*
X148346750Y-85518000D01*
X148346750Y-85518000D02*
X146521750Y-83693000D01*
X148346750Y-87733500D02*
X148346750Y-86868000D01*
X147477750Y-88602500D02*
X148346750Y-87733500D01*
X142862250Y-88602500D02*
X147477750Y-88602500D01*
X164706250Y-86487000D02*
X164706250Y-119126000D01*
X163944250Y-85725000D02*
X164706250Y-86487000D01*
X164706250Y-119126000D02*
X161277250Y-122555000D01*
X160769250Y-134747000D02*
X157721250Y-137795000D01*
X154356383Y-84429924D02*
X155855307Y-82931000D01*
X155855307Y-82931000D02*
X160261250Y-82931000D01*
X154356383Y-84431933D02*
X154356383Y-84429924D01*
X155816250Y-83820000D02*
X164706250Y-83820000D01*
X165214250Y-120322000D02*
X160896250Y-124640000D01*
X160896250Y-124640000D02*
X160896250Y-132080000D01*
X164706250Y-83820000D02*
X165214250Y-84328000D01*
X160896250Y-132080000D02*
X155181250Y-137795000D01*
X155181250Y-84455000D02*
X155816250Y-83820000D01*
X165214250Y-84328000D02*
X165214250Y-120322000D01*
X135285515Y-90594265D02*
X136976985Y-90594265D01*
X137401250Y-83185000D02*
X147926250Y-72660000D01*
X137401250Y-90170000D02*
X137401250Y-83185000D01*
X136976985Y-90594265D02*
X137401250Y-90170000D01*
X147926250Y-72660000D02*
X150736250Y-72660000D01*
X165595250Y-120508100D02*
X165615250Y-120488100D01*
X162635193Y-142875000D02*
X165595250Y-139914943D01*
X165595250Y-139914943D02*
X165595250Y-120508100D01*
X158991250Y-142875000D02*
X162635193Y-142875000D01*
X165615250Y-84094000D02*
X164452250Y-82931000D01*
X164452250Y-82931000D02*
X161531250Y-82931000D01*
X165615250Y-120488100D02*
X165615250Y-84094000D01*
X136779479Y-81029271D02*
X136779479Y-89525432D01*
X163055250Y-141605000D02*
X158991250Y-141605000D01*
X158991250Y-141605000D02*
X155181250Y-145415000D01*
X136131250Y-89994265D02*
X136131250Y-79677500D01*
X147001390Y-85697018D02*
X145649232Y-85697018D01*
X163449000Y-85090000D02*
X160147000Y-88392000D01*
X156451250Y-85356750D02*
X156464000Y-85344000D01*
X152654000Y-82169000D02*
X153035000Y-81788000D01*
X160147000Y-88392000D02*
X158369000Y-88392000D01*
X156451250Y-85410000D02*
X156451250Y-85356750D01*
X152654000Y-84328000D02*
X152654000Y-82169000D01*
X134239000Y-135636000D02*
X134239000Y-138176000D01*
X163449000Y-84709000D02*
X163449000Y-85090000D01*
X145649232Y-85697018D02*
X145367250Y-85979000D01*
X129146250Y-139065000D02*
X129781250Y-139700000D01*
X138036250Y-139700000D02*
X139941250Y-137795000D01*
X144211250Y-70660000D02*
X129146250Y-85725000D01*
X129781250Y-139700000D02*
X138036250Y-139700000D01*
X129146250Y-85725000D02*
X129146250Y-139065000D01*
X150736250Y-70660000D02*
X144211250Y-70660000D01*
G04 #@! TA.AperFunction,Conductor*
G36*
X150603506Y-135987337D02*
G01*
X150647853Y-136015838D01*
X154065728Y-139433713D01*
X154065730Y-139433716D01*
X154085159Y-139453145D01*
X154104484Y-139488540D01*
X154118640Y-139514465D01*
X154118639Y-139514467D01*
X154118641Y-139514470D01*
X154116773Y-139540569D01*
X154113656Y-139584157D01*
X154097794Y-139613706D01*
X154068962Y-139653391D01*
X153976031Y-139835776D01*
X153912772Y-140030465D01*
X153880750Y-140232648D01*
X153880750Y-140437351D01*
X153912772Y-140639534D01*
X153976031Y-140834223D01*
X154038180Y-140956196D01*
X154062782Y-141004480D01*
X154068965Y-141016613D01*
X154189278Y-141182213D01*
X154334036Y-141326971D01*
X154488999Y-141439556D01*
X154499640Y-141447287D01*
X154591090Y-141493883D01*
X154592330Y-141494515D01*
X154643126Y-141542490D01*
X154659921Y-141610311D01*
X154637384Y-141676446D01*
X154592330Y-141715485D01*
X154499636Y-141762715D01*
X154334036Y-141883028D01*
X154189278Y-142027786D01*
X154068965Y-142193386D01*
X153976031Y-142375776D01*
X153912772Y-142570465D01*
X153880750Y-142772648D01*
X153880750Y-142977351D01*
X153912772Y-143179534D01*
X153976031Y-143374223D01*
X154037665Y-143495185D01*
X154064570Y-143547989D01*
X154068965Y-143556613D01*
X154189278Y-143722213D01*
X154334036Y-143866971D01*
X154488999Y-143979556D01*
X154499640Y-143987287D01*
X154591090Y-144033883D01*
X154592330Y-144034515D01*
X154643126Y-144082490D01*
X154659921Y-144150311D01*
X154637384Y-144216446D01*
X154592330Y-144255485D01*
X154499636Y-144302715D01*
X154334036Y-144423028D01*
X154189278Y-144567786D01*
X154068965Y-144733386D01*
X153976031Y-144915776D01*
X153912772Y-145110465D01*
X153880750Y-145312648D01*
X153880750Y-145517351D01*
X153912772Y-145719534D01*
X153976031Y-145914223D01*
X154068965Y-146096613D01*
X154189278Y-146262213D01*
X154334036Y-146406971D01*
X154488999Y-146519556D01*
X154499640Y-146527287D01*
X154591090Y-146573883D01*
X154592330Y-146574515D01*
X154643126Y-146622490D01*
X154659921Y-146690311D01*
X154637384Y-146756446D01*
X154592330Y-146795485D01*
X154499636Y-146842715D01*
X154334036Y-146963028D01*
X154189278Y-147107786D01*
X154068965Y-147273386D01*
X153976031Y-147455776D01*
X153912772Y-147650465D01*
X153880750Y-147852648D01*
X153880750Y-148057351D01*
X153912772Y-148259534D01*
X153976031Y-148454223D01*
X154039941Y-148579653D01*
X154066046Y-148630886D01*
X154068965Y-148636613D01*
X154189278Y-148802213D01*
X154334036Y-148946971D01*
X154488999Y-149059556D01*
X154499640Y-149067287D01*
X154615857Y-149126503D01*
X154682026Y-149160218D01*
X154682028Y-149160218D01*
X154682031Y-149160220D01*
X154786387Y-149194127D01*
X154876715Y-149223477D01*
X154895947Y-149226523D01*
X155078898Y-149255500D01*
X155078899Y-149255500D01*
X155283601Y-149255500D01*
X155283602Y-149255500D01*
X155485784Y-149223477D01*
X155680469Y-149160220D01*
X155862860Y-149067287D01*
X155955840Y-148999732D01*
X156028463Y-148946971D01*
X156028465Y-148946968D01*
X156028469Y-148946966D01*
X156173216Y-148802219D01*
X156173218Y-148802215D01*
X156173221Y-148802213D01*
X156269747Y-148669354D01*
X156293537Y-148636610D01*
X156386470Y-148454219D01*
X156449727Y-148259534D01*
X156481750Y-148057352D01*
X156481750Y-147852648D01*
X156449727Y-147650466D01*
X156386470Y-147455781D01*
X156386468Y-147455778D01*
X156386468Y-147455776D01*
X156352753Y-147389607D01*
X156293537Y-147273390D01*
X156285806Y-147262749D01*
X156173221Y-147107786D01*
X156028463Y-146963028D01*
X155862864Y-146842715D01*
X155856256Y-146839348D01*
X155770167Y-146795483D01*
X155719373Y-146747511D01*
X155702578Y-146679690D01*
X155725115Y-146613555D01*
X155770167Y-146574516D01*
X155862860Y-146527287D01*
X155884020Y-146511913D01*
X156028463Y-146406971D01*
X156028465Y-146406968D01*
X156028469Y-146406966D01*
X156173216Y-146262219D01*
X156173218Y-146262215D01*
X156173221Y-146262213D01*
X156225982Y-146189590D01*
X156293537Y-146096610D01*
X156386470Y-145914219D01*
X156449727Y-145719534D01*
X156481750Y-145517352D01*
X156481750Y-145312648D01*
X156449727Y-145110466D01*
X156445075Y-145096151D01*
X156443082Y-145026312D01*
X156475325Y-144970158D01*
X158138748Y-143306735D01*
X158200069Y-143273252D01*
X158269761Y-143278236D01*
X158325694Y-143320108D01*
X158329529Y-143325527D01*
X158369460Y-143385288D01*
X158369463Y-143385292D01*
X158480957Y-143496786D01*
X158480961Y-143496789D01*
X158612064Y-143584390D01*
X158612077Y-143584397D01*
X158691144Y-143617147D01*
X158757753Y-143644737D01*
X158912403Y-143675499D01*
X158912406Y-143675500D01*
X158912408Y-143675500D01*
X159070094Y-143675500D01*
X159070095Y-143675499D01*
X159224747Y-143644737D01*
X159370429Y-143584394D01*
X159412011Y-143556610D01*
X159502125Y-143496398D01*
X159568803Y-143475520D01*
X159571016Y-143475500D01*
X160377285Y-143475500D01*
X160444324Y-143495185D01*
X160490079Y-143547989D01*
X160500023Y-143617147D01*
X160470998Y-143680703D01*
X160435738Y-143708858D01*
X160107112Y-143884511D01*
X160107094Y-143884522D01*
X159780289Y-144102887D01*
X159780275Y-144102897D01*
X159476432Y-144352254D01*
X159198504Y-144630182D01*
X158949147Y-144934025D01*
X158949137Y-144934039D01*
X158730772Y-145260844D01*
X158730761Y-145260862D01*
X158545482Y-145607495D01*
X158545480Y-145607500D01*
X158395060Y-145970645D01*
X158280957Y-146346794D01*
X158280954Y-146346805D01*
X158204276Y-146732297D01*
X158165750Y-147123471D01*
X158165750Y-147516528D01*
X158204276Y-147907702D01*
X158280954Y-148293194D01*
X158280957Y-148293205D01*
X158395060Y-148669354D01*
X158545480Y-149032499D01*
X158545482Y-149032504D01*
X158730761Y-149379137D01*
X158730772Y-149379155D01*
X158949137Y-149705960D01*
X158949147Y-149705974D01*
X159198504Y-150009817D01*
X159476432Y-150287745D01*
X159476437Y-150287749D01*
X159476438Y-150287750D01*
X159780281Y-150537107D01*
X160107101Y-150755482D01*
X160107110Y-150755487D01*
X160107112Y-150755488D01*
X160453745Y-150940767D01*
X160453747Y-150940767D01*
X160453753Y-150940771D01*
X160780078Y-151075939D01*
X160834481Y-151119780D01*
X160856546Y-151186074D01*
X160839267Y-151253773D01*
X160788130Y-151301384D01*
X160732625Y-151314500D01*
X141185628Y-151314500D01*
X141118589Y-151294815D01*
X141072834Y-151242011D01*
X141062890Y-151172853D01*
X141075143Y-151134205D01*
X141087835Y-151109297D01*
X141146470Y-150994219D01*
X141209727Y-150799534D01*
X141241750Y-150597352D01*
X141241750Y-150392648D01*
X141209727Y-150190466D01*
X141146470Y-149995781D01*
X141146468Y-149995778D01*
X141146468Y-149995776D01*
X141112753Y-149929607D01*
X141053537Y-149813390D01*
X141045806Y-149802749D01*
X140933221Y-149647786D01*
X140788463Y-149503028D01*
X140622863Y-149382715D01*
X140622862Y-149382714D01*
X140622860Y-149382713D01*
X140565903Y-149353691D01*
X140440473Y-149289781D01*
X140245784Y-149226522D01*
X140071245Y-149198878D01*
X140043602Y-149194500D01*
X139838898Y-149194500D01*
X139814579Y-149198351D01*
X139636715Y-149226522D01*
X139442026Y-149289781D01*
X139259636Y-149382715D01*
X139094036Y-149503028D01*
X138949278Y-149647786D01*
X138828965Y-149813386D01*
X138736031Y-149995776D01*
X138672772Y-150190465D01*
X138640750Y-150392648D01*
X138640750Y-150597351D01*
X138672772Y-150799534D01*
X138736031Y-150994223D01*
X138807357Y-151134205D01*
X138820253Y-151202874D01*
X138793977Y-151267614D01*
X138736871Y-151307872D01*
X138696872Y-151314500D01*
X134389875Y-151314500D01*
X134322836Y-151294815D01*
X134277081Y-151242011D01*
X134267137Y-151172853D01*
X134296162Y-151109297D01*
X134342422Y-151075939D01*
X134668747Y-150940771D01*
X135015399Y-150755482D01*
X135342219Y-150537107D01*
X135646062Y-150287750D01*
X135924000Y-150009812D01*
X136173357Y-149705969D01*
X136391732Y-149379149D01*
X136577021Y-149032497D01*
X136727440Y-148669353D01*
X136841540Y-148293215D01*
X136841542Y-148293205D01*
X136841545Y-148293194D01*
X136918223Y-147907703D01*
X136923646Y-147852648D01*
X141180750Y-147852648D01*
X141180750Y-148057351D01*
X141212772Y-148259534D01*
X141276031Y-148454223D01*
X141339941Y-148579653D01*
X141366046Y-148630886D01*
X141368965Y-148636613D01*
X141489278Y-148802213D01*
X141634036Y-148946971D01*
X141788999Y-149059556D01*
X141799640Y-149067287D01*
X141915857Y-149126503D01*
X141982026Y-149160218D01*
X141982028Y-149160218D01*
X141982031Y-149160220D01*
X142086387Y-149194127D01*
X142176715Y-149223477D01*
X142195947Y-149226523D01*
X142378898Y-149255500D01*
X142378899Y-149255500D01*
X142583601Y-149255500D01*
X142583602Y-149255500D01*
X142785784Y-149223477D01*
X142980469Y-149160220D01*
X143162860Y-149067287D01*
X143255840Y-148999732D01*
X143328463Y-148946971D01*
X143328465Y-148946968D01*
X143328469Y-148946966D01*
X143473216Y-148802219D01*
X143473218Y-148802215D01*
X143473221Y-148802213D01*
X143569747Y-148669354D01*
X143593537Y-148636610D01*
X143686470Y-148454219D01*
X143749727Y-148259534D01*
X143781750Y-148057352D01*
X143781750Y-147852648D01*
X143749727Y-147650466D01*
X143686470Y-147455781D01*
X143686468Y-147455778D01*
X143686468Y-147455776D01*
X143652753Y-147389607D01*
X143593537Y-147273390D01*
X143585806Y-147262749D01*
X143473221Y-147107786D01*
X143328463Y-146963028D01*
X143162863Y-146842715D01*
X143162862Y-146842714D01*
X143162860Y-146842713D01*
X143105903Y-146813691D01*
X142980473Y-146749781D01*
X142785784Y-146686522D01*
X142611245Y-146658878D01*
X142583602Y-146654500D01*
X142378898Y-146654500D01*
X142354579Y-146658351D01*
X142176715Y-146686522D01*
X141982026Y-146749781D01*
X141799636Y-146842715D01*
X141634036Y-146963028D01*
X141489278Y-147107786D01*
X141368965Y-147273386D01*
X141276031Y-147455776D01*
X141212772Y-147650465D01*
X141180750Y-147852648D01*
X136923646Y-147852648D01*
X136925323Y-147835621D01*
X136925323Y-147835620D01*
X136956750Y-147516528D01*
X136956750Y-147123471D01*
X136940948Y-146963034D01*
X136918223Y-146732297D01*
X136914882Y-146715500D01*
X136841545Y-146346805D01*
X136841542Y-146346794D01*
X136841541Y-146346791D01*
X136841540Y-146346785D01*
X136727440Y-145970647D01*
X136577021Y-145607503D01*
X136528834Y-145517352D01*
X136391738Y-145260862D01*
X136391737Y-145260860D01*
X136391732Y-145260851D01*
X136173357Y-144934031D01*
X135924000Y-144630188D01*
X135923999Y-144630187D01*
X135923995Y-144630182D01*
X135646067Y-144352254D01*
X135342224Y-144102897D01*
X135342223Y-144102896D01*
X135342219Y-144102893D01*
X135015399Y-143884518D01*
X135015394Y-143884515D01*
X135015387Y-143884511D01*
X134668754Y-143699232D01*
X134668749Y-143699230D01*
X134611457Y-143675499D01*
X134537187Y-143644735D01*
X134305604Y-143548810D01*
X133929455Y-143434707D01*
X133929444Y-143434704D01*
X133543952Y-143358026D01*
X133249339Y-143329010D01*
X133152782Y-143319500D01*
X132759718Y-143319500D01*
X132670501Y-143328287D01*
X132368547Y-143358026D01*
X131983055Y-143434704D01*
X131983044Y-143434707D01*
X131606895Y-143548810D01*
X131243750Y-143699230D01*
X131243745Y-143699232D01*
X130897112Y-143884511D01*
X130897094Y-143884522D01*
X130570289Y-144102887D01*
X130570275Y-144102897D01*
X130266432Y-144352254D01*
X129988504Y-144630182D01*
X129739147Y-144934025D01*
X129739137Y-144934039D01*
X129520772Y-145260844D01*
X129520761Y-145260862D01*
X129335482Y-145607495D01*
X129335480Y-145607500D01*
X129200311Y-145933828D01*
X129156470Y-145988231D01*
X129090176Y-146010296D01*
X129022477Y-145993017D01*
X128974866Y-145941880D01*
X128961750Y-145886375D01*
X128961750Y-140029097D01*
X128981435Y-139962058D01*
X129034239Y-139916303D01*
X129103397Y-139906359D01*
X129166953Y-139935384D01*
X129173424Y-139941409D01*
X129412534Y-140180520D01*
X129412536Y-140180521D01*
X129412540Y-140180524D01*
X129499343Y-140230639D01*
X129549466Y-140259577D01*
X129702193Y-140300501D01*
X129702195Y-140300501D01*
X129867904Y-140300501D01*
X129867920Y-140300500D01*
X137949581Y-140300500D01*
X137949597Y-140300501D01*
X137957193Y-140300501D01*
X138115304Y-140300501D01*
X138115307Y-140300501D01*
X138268035Y-140259577D01*
X138318154Y-140230639D01*
X138404966Y-140180520D01*
X138437117Y-140148368D01*
X138446491Y-140141923D01*
X138469311Y-140134442D01*
X138490390Y-140122932D01*
X138501909Y-140123755D01*
X138512885Y-140120158D01*
X138536130Y-140126203D01*
X138560082Y-140127916D01*
X138569326Y-140134835D01*
X138580505Y-140137743D01*
X138596791Y-140155395D01*
X138616016Y-140169786D01*
X138620051Y-140180606D01*
X138627884Y-140189095D01*
X138632041Y-140212748D01*
X138640434Y-140235250D01*
X138640750Y-140244098D01*
X138640750Y-140437351D01*
X138672772Y-140639534D01*
X138736031Y-140834223D01*
X138798180Y-140956196D01*
X138822782Y-141004480D01*
X138828965Y-141016613D01*
X138949278Y-141182213D01*
X139094036Y-141326971D01*
X139248999Y-141439556D01*
X139259640Y-141447287D01*
X139351090Y-141493883D01*
X139352330Y-141494515D01*
X139403126Y-141542490D01*
X139419921Y-141610311D01*
X139397384Y-141676446D01*
X139352330Y-141715485D01*
X139259636Y-141762715D01*
X139094036Y-141883028D01*
X138949278Y-142027786D01*
X138828965Y-142193386D01*
X138736031Y-142375776D01*
X138672772Y-142570465D01*
X138640750Y-142772648D01*
X138640750Y-142977351D01*
X138672772Y-143179534D01*
X138736031Y-143374223D01*
X138797665Y-143495185D01*
X138824570Y-143547989D01*
X138828965Y-143556613D01*
X138949278Y-143722213D01*
X139094036Y-143866971D01*
X139248999Y-143979556D01*
X139259640Y-143987287D01*
X139351090Y-144033883D01*
X139352330Y-144034515D01*
X139403126Y-144082490D01*
X139419921Y-144150311D01*
X139397384Y-144216446D01*
X139352330Y-144255485D01*
X139259636Y-144302715D01*
X139094036Y-144423028D01*
X138949278Y-144567786D01*
X138828965Y-144733386D01*
X138736031Y-144915776D01*
X138672772Y-145110465D01*
X138640750Y-145312648D01*
X138640750Y-145517351D01*
X138672772Y-145719534D01*
X138736031Y-145914223D01*
X138828965Y-146096613D01*
X138949278Y-146262213D01*
X139094036Y-146406971D01*
X139248999Y-146519556D01*
X139259640Y-146527287D01*
X139352330Y-146574515D01*
X139442026Y-146620218D01*
X139442028Y-146620218D01*
X139442031Y-146620220D01*
X139546387Y-146654127D01*
X139636715Y-146683477D01*
X139655947Y-146686523D01*
X139838898Y-146715500D01*
X139838899Y-146715500D01*
X140043601Y-146715500D01*
X140043602Y-146715500D01*
X140245784Y-146683477D01*
X140440469Y-146620220D01*
X140622860Y-146527287D01*
X140715840Y-146459732D01*
X140788463Y-146406971D01*
X140788465Y-146406968D01*
X140788469Y-146406966D01*
X140933216Y-146262219D01*
X140933218Y-146262215D01*
X140933221Y-146262213D01*
X140985982Y-146189590D01*
X141053537Y-146096610D01*
X141146470Y-145914219D01*
X141209727Y-145719534D01*
X141241750Y-145517352D01*
X141241750Y-145312648D01*
X141209727Y-145110466D01*
X141205075Y-145096151D01*
X141203082Y-145026312D01*
X141235325Y-144970158D01*
X149861914Y-136343571D01*
X149923235Y-136310088D01*
X149925402Y-136309637D01*
X149926091Y-136309500D01*
X149926092Y-136309500D01*
X150080747Y-136278737D01*
X150226429Y-136218394D01*
X150357539Y-136130789D01*
X150386115Y-136102213D01*
X150472491Y-136015838D01*
X150533814Y-135982353D01*
X150603506Y-135987337D01*
G37*
G04 #@! TD.AperFunction*
G04 #@! TA.AperFunction,Conductor*
G36*
X138560084Y-124887914D02*
G01*
X138616017Y-124929786D01*
X138640434Y-124995250D01*
X138640750Y-125004096D01*
X138640750Y-125197351D01*
X138672772Y-125399534D01*
X138736031Y-125594223D01*
X138828965Y-125776613D01*
X138949278Y-125942213D01*
X139094036Y-126086971D01*
X139219960Y-126178458D01*
X139259640Y-126207287D01*
X139351090Y-126253883D01*
X139352330Y-126254515D01*
X139403126Y-126302490D01*
X139419921Y-126370311D01*
X139397384Y-126436446D01*
X139352330Y-126475485D01*
X139259636Y-126522715D01*
X139094036Y-126643028D01*
X138949278Y-126787786D01*
X138828965Y-126953386D01*
X138736031Y-127135776D01*
X138672772Y-127330465D01*
X138640750Y-127532648D01*
X138640750Y-127737351D01*
X138672772Y-127939534D01*
X138736031Y-128134223D01*
X138828965Y-128316613D01*
X138949278Y-128482213D01*
X139094036Y-128626971D01*
X139248999Y-128739556D01*
X139259640Y-128747287D01*
X139351090Y-128793883D01*
X139352330Y-128794515D01*
X139403126Y-128842490D01*
X139419921Y-128910311D01*
X139397384Y-128976446D01*
X139352330Y-129015485D01*
X139259636Y-129062715D01*
X139094036Y-129183028D01*
X138949278Y-129327786D01*
X138828965Y-129493386D01*
X138736031Y-129675776D01*
X138672772Y-129870465D01*
X138640750Y-130072648D01*
X138640750Y-130277351D01*
X138672772Y-130479534D01*
X138736031Y-130674223D01*
X138828965Y-130856613D01*
X138949278Y-131022213D01*
X139094036Y-131166971D01*
X139248999Y-131279556D01*
X139259640Y-131287287D01*
X139351090Y-131333883D01*
X139352330Y-131334515D01*
X139403126Y-131382490D01*
X139419921Y-131450311D01*
X139397384Y-131516446D01*
X139352330Y-131555485D01*
X139259636Y-131602715D01*
X139094036Y-131723028D01*
X138949278Y-131867786D01*
X138828965Y-132033386D01*
X138736031Y-132215776D01*
X138672772Y-132410465D01*
X138640750Y-132612648D01*
X138640750Y-132817351D01*
X138672772Y-133019534D01*
X138736031Y-133214223D01*
X138828965Y-133396613D01*
X138949278Y-133562213D01*
X139094036Y-133706971D01*
X139245481Y-133817000D01*
X139259640Y-133827287D01*
X139351090Y-133873883D01*
X139352330Y-133874515D01*
X139403126Y-133922490D01*
X139419921Y-133990311D01*
X139397384Y-134056446D01*
X139352330Y-134095485D01*
X139259636Y-134142715D01*
X139094036Y-134263028D01*
X138949278Y-134407786D01*
X138828965Y-134573386D01*
X138736031Y-134755776D01*
X138672772Y-134950465D01*
X138642465Y-135141821D01*
X138640750Y-135152648D01*
X138640750Y-135357352D01*
X138645128Y-135384995D01*
X138672772Y-135559534D01*
X138736031Y-135754223D01*
X138799941Y-135879653D01*
X138815419Y-135910029D01*
X138828965Y-135936613D01*
X138949278Y-136102213D01*
X139094036Y-136246971D01*
X139202064Y-136325456D01*
X139259640Y-136367287D01*
X139350734Y-136413702D01*
X139352330Y-136414515D01*
X139403126Y-136462490D01*
X139419921Y-136530311D01*
X139397384Y-136596446D01*
X139352330Y-136635485D01*
X139259636Y-136682715D01*
X139094036Y-136803028D01*
X138949278Y-136947786D01*
X138828965Y-137113386D01*
X138736031Y-137295776D01*
X138672772Y-137490465D01*
X138640750Y-137692648D01*
X138640750Y-137897351D01*
X138672772Y-138099534D01*
X138677423Y-138113848D01*
X138679415Y-138183690D01*
X138647171Y-138239842D01*
X137823834Y-139063181D01*
X137762511Y-139096666D01*
X137736153Y-139099500D01*
X132564641Y-139099500D01*
X132497602Y-139079815D01*
X132451847Y-139027011D01*
X132441903Y-138957853D01*
X132448459Y-138932167D01*
X132482841Y-138839982D01*
X132489250Y-138780373D01*
X132489249Y-137257595D01*
X132508934Y-137190557D01*
X132525563Y-137169920D01*
X137759756Y-131935728D01*
X137759761Y-131935724D01*
X137769964Y-131925520D01*
X137769966Y-131925520D01*
X137881770Y-131813716D01*
X137944612Y-131704870D01*
X137960827Y-131676785D01*
X138001750Y-131524057D01*
X138001750Y-131365943D01*
X138001750Y-125395096D01*
X138021435Y-125328057D01*
X138038065Y-125307419D01*
X138429069Y-124916414D01*
X138490392Y-124882930D01*
X138560084Y-124887914D01*
G37*
G04 #@! TD.AperFunction*
G04 #@! TA.AperFunction,Conductor*
G36*
X164914084Y-121573915D02*
G01*
X164970017Y-121615787D01*
X164994434Y-121681251D01*
X164994750Y-121690097D01*
X164994750Y-123570080D01*
X164975065Y-123637119D01*
X164922261Y-123682874D01*
X164853103Y-123692818D01*
X164851353Y-123692553D01*
X164712111Y-123670500D01*
X164530389Y-123670500D01*
X164470560Y-123679976D01*
X164350902Y-123698928D01*
X164350899Y-123698928D01*
X164178078Y-123755081D01*
X164178075Y-123755083D01*
X164016159Y-123837583D01*
X163932280Y-123898525D01*
X163869144Y-123944397D01*
X163869142Y-123944399D01*
X163869141Y-123944399D01*
X163740649Y-124072891D01*
X163740649Y-124072892D01*
X163740647Y-124072894D01*
X163718749Y-124103034D01*
X163633833Y-124219909D01*
X163551333Y-124381825D01*
X163551331Y-124381828D01*
X163495178Y-124554649D01*
X163495178Y-124554652D01*
X163466750Y-124734139D01*
X163466750Y-124915860D01*
X163495178Y-125095347D01*
X163495178Y-125095350D01*
X163551331Y-125268171D01*
X163551333Y-125268174D01*
X163633833Y-125430090D01*
X163740647Y-125577106D01*
X163869144Y-125705603D01*
X164016160Y-125812417D01*
X164178076Y-125894917D01*
X164178078Y-125894918D01*
X164323639Y-125942213D01*
X164350904Y-125951072D01*
X164530389Y-125979500D01*
X164530390Y-125979500D01*
X164712110Y-125979500D01*
X164712111Y-125979500D01*
X164851352Y-125957446D01*
X164920645Y-125966400D01*
X164974097Y-126011397D01*
X164994737Y-126078148D01*
X164994750Y-126079919D01*
X164994750Y-133909291D01*
X164975065Y-133976330D01*
X164922261Y-134022085D01*
X164853103Y-134032029D01*
X164814455Y-134019776D01*
X164623255Y-133922354D01*
X164407983Y-133852407D01*
X164184428Y-133817000D01*
X164184423Y-133817000D01*
X163958077Y-133817000D01*
X163958072Y-133817000D01*
X163734516Y-133852407D01*
X163519244Y-133922354D01*
X163317573Y-134025112D01*
X163134453Y-134158157D01*
X162974407Y-134318203D01*
X162841362Y-134501323D01*
X162738604Y-134702994D01*
X162668657Y-134918266D01*
X162633250Y-135141821D01*
X162633250Y-135368178D01*
X162668657Y-135591733D01*
X162738604Y-135807005D01*
X162804642Y-135936610D01*
X162841362Y-136008676D01*
X162974405Y-136191794D01*
X162974407Y-136191796D01*
X162977052Y-136194441D01*
X163010537Y-136255764D01*
X163005553Y-136325456D01*
X162963681Y-136381389D01*
X162932707Y-136398303D01*
X162891422Y-136413702D01*
X162891414Y-136413706D01*
X162776205Y-136499952D01*
X162776202Y-136499955D01*
X162689956Y-136615164D01*
X162689952Y-136615171D01*
X162639658Y-136750017D01*
X162633251Y-136809616D01*
X162633250Y-136809635D01*
X162633250Y-138332401D01*
X162624607Y-138361833D01*
X162618086Y-138391821D01*
X162614327Y-138396842D01*
X162613565Y-138399440D01*
X162596937Y-138420077D01*
X162588839Y-138428176D01*
X162527518Y-138461665D01*
X162501152Y-138464500D01*
X158468646Y-138464500D01*
X158401607Y-138444815D01*
X158355852Y-138392011D01*
X158345908Y-138322853D01*
X158365544Y-138271609D01*
X158430640Y-138174185D01*
X158430640Y-138174184D01*
X158430644Y-138174179D01*
X158490987Y-138028497D01*
X158517074Y-137897351D01*
X158521888Y-137873150D01*
X158554273Y-137811239D01*
X158555768Y-137809716D01*
X160783912Y-135581572D01*
X160845233Y-135548089D01*
X160847400Y-135547638D01*
X160905335Y-135536113D01*
X161002747Y-135516737D01*
X161115416Y-135470067D01*
X161148422Y-135456397D01*
X161148422Y-135456396D01*
X161148429Y-135456394D01*
X161279539Y-135368789D01*
X161391039Y-135257289D01*
X161478644Y-135126179D01*
X161538987Y-134980497D01*
X161569750Y-134825842D01*
X161569750Y-134668158D01*
X161569750Y-134668155D01*
X161569749Y-134668153D01*
X161550899Y-134573390D01*
X161538987Y-134513503D01*
X161495196Y-134407781D01*
X161478647Y-134367827D01*
X161478640Y-134367814D01*
X161391039Y-134236711D01*
X161391036Y-134236707D01*
X161279542Y-134125213D01*
X161279538Y-134125210D01*
X161148435Y-134037609D01*
X161148422Y-134037602D01*
X161002751Y-133977264D01*
X161002739Y-133977261D01*
X160848095Y-133946500D01*
X160848092Y-133946500D01*
X160690408Y-133946500D01*
X160690405Y-133946500D01*
X160535760Y-133977261D01*
X160535748Y-133977264D01*
X160390077Y-134037602D01*
X160390064Y-134037609D01*
X160258961Y-134125210D01*
X160258957Y-134125213D01*
X160147463Y-134236707D01*
X160147460Y-134236711D01*
X160059859Y-134367814D01*
X160059852Y-134367827D01*
X159999514Y-134513498D01*
X159999511Y-134513508D01*
X159968611Y-134668850D01*
X159936226Y-134730761D01*
X159934675Y-134732339D01*
X157706589Y-136960425D01*
X157645266Y-136993910D01*
X157643100Y-136994361D01*
X157487758Y-137025261D01*
X157487748Y-137025264D01*
X157342077Y-137085602D01*
X157342064Y-137085609D01*
X157210961Y-137173210D01*
X157210957Y-137173213D01*
X157099463Y-137284707D01*
X157099460Y-137284711D01*
X157011859Y-137415814D01*
X157011852Y-137415827D01*
X156951514Y-137561498D01*
X156951511Y-137561510D01*
X156920750Y-137716153D01*
X156920750Y-137873846D01*
X156951511Y-138028489D01*
X156951514Y-138028501D01*
X157011852Y-138174172D01*
X157011859Y-138174185D01*
X157076956Y-138271609D01*
X157097834Y-138338287D01*
X157079349Y-138405667D01*
X157027371Y-138452357D01*
X156973854Y-138464500D01*
X156501516Y-138464500D01*
X156434477Y-138444815D01*
X156388722Y-138392011D01*
X156378778Y-138322853D01*
X156385330Y-138298970D01*
X156384964Y-138298852D01*
X156386468Y-138294222D01*
X156386470Y-138294219D01*
X156449727Y-138099534D01*
X156481750Y-137897352D01*
X156481750Y-137692648D01*
X156449727Y-137490466D01*
X156445075Y-137476151D01*
X156443082Y-137406312D01*
X156475325Y-137350158D01*
X161376770Y-132448716D01*
X161455827Y-132311784D01*
X161496751Y-132159057D01*
X161496751Y-132000942D01*
X161496751Y-131993347D01*
X161496750Y-131993329D01*
X161496750Y-124940097D01*
X161516435Y-124873058D01*
X161533069Y-124852416D01*
X164783069Y-121602416D01*
X164844392Y-121568931D01*
X164914084Y-121573915D01*
G37*
G04 #@! TD.AperFunction*
G04 #@! TA.AperFunction,Conductor*
G36*
X135450084Y-80372914D02*
G01*
X135506017Y-80414786D01*
X135530434Y-80480250D01*
X135530750Y-80489096D01*
X135530750Y-89414499D01*
X135511065Y-89481538D01*
X135509852Y-89483390D01*
X135421859Y-89615079D01*
X135421852Y-89615092D01*
X135379552Y-89717217D01*
X135335712Y-89771621D01*
X135269417Y-89793686D01*
X135264991Y-89793765D01*
X135206670Y-89793765D01*
X135052025Y-89824526D01*
X135052013Y-89824529D01*
X134906342Y-89884867D01*
X134906329Y-89884874D01*
X134775226Y-89972475D01*
X134775222Y-89972478D01*
X134663728Y-90083972D01*
X134663725Y-90083976D01*
X134576124Y-90215079D01*
X134576117Y-90215092D01*
X134515779Y-90360763D01*
X134515776Y-90360775D01*
X134485015Y-90515418D01*
X134485015Y-90515423D01*
X134485015Y-90673107D01*
X134485015Y-90673109D01*
X134485014Y-90673109D01*
X134488635Y-90691308D01*
X134482408Y-90760900D01*
X134439545Y-90816077D01*
X134373655Y-90839322D01*
X134367018Y-90839500D01*
X132266016Y-90839500D01*
X132198977Y-90819815D01*
X132197125Y-90818602D01*
X132065435Y-90730609D01*
X132065422Y-90730602D01*
X131919751Y-90670264D01*
X131919739Y-90670261D01*
X131765095Y-90639500D01*
X131765092Y-90639500D01*
X131607408Y-90639500D01*
X131607405Y-90639500D01*
X131452760Y-90670261D01*
X131452748Y-90670264D01*
X131307077Y-90730602D01*
X131307064Y-90730609D01*
X131175961Y-90818210D01*
X131175957Y-90818213D01*
X131064463Y-90929707D01*
X131064460Y-90929711D01*
X130976859Y-91060814D01*
X130976852Y-91060827D01*
X130916514Y-91206498D01*
X130916511Y-91206510D01*
X130885750Y-91361153D01*
X130885750Y-91518846D01*
X130916511Y-91673489D01*
X130916514Y-91673501D01*
X130976852Y-91819172D01*
X130976859Y-91819185D01*
X131064460Y-91950288D01*
X131064463Y-91950292D01*
X131175957Y-92061786D01*
X131175961Y-92061789D01*
X131307064Y-92149390D01*
X131307077Y-92149397D01*
X131428548Y-92199711D01*
X131452753Y-92209737D01*
X131571669Y-92233391D01*
X131607403Y-92240499D01*
X131607406Y-92240500D01*
X131607408Y-92240500D01*
X131765094Y-92240500D01*
X131765095Y-92240499D01*
X131919747Y-92209737D01*
X132065429Y-92149394D01*
X132156996Y-92088211D01*
X132197125Y-92061398D01*
X132215171Y-92055747D01*
X132231081Y-92045523D01*
X132262042Y-92041071D01*
X132263803Y-92040520D01*
X132266016Y-92040500D01*
X132462854Y-92040500D01*
X132529893Y-92060185D01*
X132575648Y-92112989D01*
X132585592Y-92182147D01*
X132565956Y-92233391D01*
X132500859Y-92330814D01*
X132500852Y-92330827D01*
X132440514Y-92476498D01*
X132440511Y-92476510D01*
X132409750Y-92631153D01*
X132409750Y-92788846D01*
X132440511Y-92943489D01*
X132440514Y-92943501D01*
X132500852Y-93089172D01*
X132500859Y-93089185D01*
X132588460Y-93220288D01*
X132588463Y-93220292D01*
X132699957Y-93331786D01*
X132699961Y-93331789D01*
X132831064Y-93419390D01*
X132831077Y-93419397D01*
X132976748Y-93479735D01*
X132976753Y-93479737D01*
X133131403Y-93510499D01*
X133131406Y-93510500D01*
X133131408Y-93510500D01*
X133289094Y-93510500D01*
X133289095Y-93510499D01*
X133443747Y-93479737D01*
X133589429Y-93419394D01*
X133589435Y-93419390D01*
X133721125Y-93331398D01*
X133787803Y-93310520D01*
X133790016Y-93310500D01*
X136821484Y-93310500D01*
X136888523Y-93330185D01*
X136890375Y-93331398D01*
X137022064Y-93419390D01*
X137022077Y-93419397D01*
X137167748Y-93479735D01*
X137167753Y-93479737D01*
X137322403Y-93510499D01*
X137322406Y-93510500D01*
X137322408Y-93510500D01*
X137480094Y-93510500D01*
X137480095Y-93510499D01*
X137634747Y-93479737D01*
X137780429Y-93419394D01*
X137911539Y-93331789D01*
X138023039Y-93220289D01*
X138110644Y-93089179D01*
X138170987Y-92943497D01*
X138201750Y-92788842D01*
X138201750Y-92631158D01*
X138201750Y-92631155D01*
X138201749Y-92631153D01*
X138179516Y-92519382D01*
X138170987Y-92476503D01*
X138163545Y-92458537D01*
X138156077Y-92389072D01*
X138187351Y-92326592D01*
X138247440Y-92290939D01*
X138317265Y-92293432D01*
X138355761Y-92317212D01*
X138356931Y-92315734D01*
X138362591Y-92320209D01*
X138362594Y-92320212D01*
X138511916Y-92412314D01*
X138678453Y-92467499D01*
X138781241Y-92478000D01*
X139831258Y-92477999D01*
X139831266Y-92477998D01*
X139831269Y-92477998D01*
X139887552Y-92472248D01*
X139934047Y-92467499D01*
X140100584Y-92412314D01*
X140249906Y-92320212D01*
X140373962Y-92196156D01*
X140466064Y-92046834D01*
X140521249Y-91880297D01*
X140531750Y-91777509D01*
X140531749Y-91275499D01*
X140551433Y-91208461D01*
X140604237Y-91162706D01*
X140655749Y-91151500D01*
X141156750Y-91151500D01*
X141223789Y-91171185D01*
X141269544Y-91223989D01*
X141280750Y-91275500D01*
X141280750Y-91752501D01*
X141280751Y-91752519D01*
X141291250Y-91855296D01*
X141291251Y-91855299D01*
X141346435Y-92021831D01*
X141346437Y-92021836D01*
X141370091Y-92060185D01*
X141438538Y-92171156D01*
X141562594Y-92295212D01*
X141711916Y-92387314D01*
X141795755Y-92415095D01*
X141853198Y-92454866D01*
X141880022Y-92519382D01*
X141880750Y-92532800D01*
X141880750Y-92935234D01*
X141861065Y-93002273D01*
X141859852Y-93004125D01*
X141771859Y-93135814D01*
X141771852Y-93135827D01*
X141711514Y-93281498D01*
X141711511Y-93281510D01*
X141680750Y-93436153D01*
X141680750Y-93593846D01*
X141711511Y-93748489D01*
X141711514Y-93748501D01*
X141771852Y-93894172D01*
X141771859Y-93894185D01*
X141859460Y-94025288D01*
X141859463Y-94025292D01*
X141970957Y-94136786D01*
X141970961Y-94136789D01*
X142102064Y-94224390D01*
X142102077Y-94224397D01*
X142247748Y-94284735D01*
X142247753Y-94284737D01*
X142399402Y-94314902D01*
X142402403Y-94315499D01*
X142402406Y-94315500D01*
X142402408Y-94315500D01*
X142560094Y-94315500D01*
X142560095Y-94315499D01*
X142714747Y-94284737D01*
X142860429Y-94224394D01*
X142991539Y-94136789D01*
X143103039Y-94025289D01*
X143190644Y-93894179D01*
X143190944Y-93893456D01*
X143250985Y-93748501D01*
X143250987Y-93748497D01*
X143281750Y-93593842D01*
X143281750Y-93436158D01*
X143281750Y-93436155D01*
X143281749Y-93436153D01*
X143278415Y-93419390D01*
X143250987Y-93281503D01*
X143225631Y-93220288D01*
X143190647Y-93135827D01*
X143190640Y-93135814D01*
X143102648Y-93004125D01*
X143081770Y-92937447D01*
X143081750Y-92935234D01*
X143081750Y-92532800D01*
X143101435Y-92465761D01*
X143154239Y-92420006D01*
X143166732Y-92415099D01*
X143250584Y-92387314D01*
X143399906Y-92295212D01*
X143523962Y-92171156D01*
X143616064Y-92021834D01*
X143671249Y-91855297D01*
X143681750Y-91752509D01*
X143681749Y-91275499D01*
X143701433Y-91208461D01*
X143754237Y-91162706D01*
X143805749Y-91151500D01*
X144314484Y-91151500D01*
X144381523Y-91171185D01*
X144383375Y-91172398D01*
X144515064Y-91260390D01*
X144515071Y-91260394D01*
X144590870Y-91291790D01*
X144645272Y-91335630D01*
X144667338Y-91401924D01*
X144667417Y-91406351D01*
X144667417Y-91752501D01*
X144667418Y-91752519D01*
X144677917Y-91855296D01*
X144677918Y-91855299D01*
X144733102Y-92021831D01*
X144733104Y-92021836D01*
X144756758Y-92060185D01*
X144825205Y-92171156D01*
X144949261Y-92295212D01*
X145098583Y-92387314D01*
X145182422Y-92415095D01*
X145239865Y-92454866D01*
X145266689Y-92519382D01*
X145267417Y-92532800D01*
X145267417Y-92926278D01*
X145247732Y-92993317D01*
X145239706Y-93004342D01*
X145151859Y-93135814D01*
X145151852Y-93135827D01*
X145091514Y-93281498D01*
X145091511Y-93281510D01*
X145060750Y-93436153D01*
X145060750Y-93593846D01*
X145091511Y-93748489D01*
X145091514Y-93748501D01*
X145151852Y-93894172D01*
X145151859Y-93894185D01*
X145239460Y-94025288D01*
X145239463Y-94025292D01*
X145350957Y-94136786D01*
X145350961Y-94136789D01*
X145482064Y-94224390D01*
X145482077Y-94224397D01*
X145627748Y-94284735D01*
X145627753Y-94284737D01*
X145779402Y-94314902D01*
X145782403Y-94315499D01*
X145782406Y-94315500D01*
X145782408Y-94315500D01*
X145940094Y-94315500D01*
X145940095Y-94315499D01*
X146094747Y-94284737D01*
X146175797Y-94251164D01*
X146245267Y-94243696D01*
X146307746Y-94274971D01*
X146343398Y-94335060D01*
X146347250Y-94365726D01*
X146347250Y-100746512D01*
X146327565Y-100813551D01*
X146274761Y-100859306D01*
X146205603Y-100869250D01*
X146175798Y-100861073D01*
X146101418Y-100830264D01*
X146101406Y-100830261D01*
X145946762Y-100799500D01*
X145946759Y-100799500D01*
X145789075Y-100799500D01*
X145789072Y-100799500D01*
X145634427Y-100830261D01*
X145634415Y-100830264D01*
X145488744Y-100890602D01*
X145488731Y-100890609D01*
X145357628Y-100978210D01*
X145357624Y-100978213D01*
X145246130Y-101089707D01*
X145246127Y-101089711D01*
X145158526Y-101220814D01*
X145158519Y-101220827D01*
X145098181Y-101366498D01*
X145098178Y-101366510D01*
X145067417Y-101521153D01*
X145067417Y-101678846D01*
X145098178Y-101833489D01*
X145098181Y-101833501D01*
X145158519Y-101979172D01*
X145158526Y-101979185D01*
X145246127Y-102110288D01*
X145246130Y-102110292D01*
X145357624Y-102221786D01*
X145357628Y-102221789D01*
X145488731Y-102309390D01*
X145488735Y-102309392D01*
X145488738Y-102309394D01*
X145614205Y-102361364D01*
X145668605Y-102405202D01*
X145690671Y-102471496D01*
X145690750Y-102475923D01*
X145690750Y-107216903D01*
X145671065Y-107283942D01*
X145618261Y-107329697D01*
X145549103Y-107339641D01*
X145485547Y-107310616D01*
X145479069Y-107304584D01*
X143118069Y-104943584D01*
X143084584Y-104882261D01*
X143081750Y-104855903D01*
X143081750Y-99512765D01*
X143101435Y-99445726D01*
X143102648Y-99443874D01*
X143190640Y-99312185D01*
X143190640Y-99312184D01*
X143190644Y-99312179D01*
X143250987Y-99166497D01*
X143281750Y-99011842D01*
X143281750Y-98854158D01*
X143281750Y-98854155D01*
X143281749Y-98854153D01*
X143262665Y-98758211D01*
X143250987Y-98699503D01*
X143232657Y-98655249D01*
X143190647Y-98553827D01*
X143190640Y-98553814D01*
X143103039Y-98422711D01*
X143103036Y-98422707D01*
X142991542Y-98311213D01*
X142991538Y-98311210D01*
X142860435Y-98223609D01*
X142860422Y-98223602D01*
X142714751Y-98163264D01*
X142714739Y-98163261D01*
X142560095Y-98132500D01*
X142560092Y-98132500D01*
X142402408Y-98132500D01*
X142402405Y-98132500D01*
X142247760Y-98163261D01*
X142247748Y-98163264D01*
X142102077Y-98223602D01*
X142102064Y-98223609D01*
X141970961Y-98311210D01*
X141970957Y-98311213D01*
X141859463Y-98422707D01*
X141859460Y-98422711D01*
X141771859Y-98553814D01*
X141771852Y-98553827D01*
X141711514Y-98699498D01*
X141711511Y-98699510D01*
X141680750Y-98854153D01*
X141680750Y-99011846D01*
X141711511Y-99166489D01*
X141711514Y-99166501D01*
X141771852Y-99312172D01*
X141771859Y-99312185D01*
X141859852Y-99443874D01*
X141880730Y-99510551D01*
X141880750Y-99512765D01*
X141880750Y-102390901D01*
X141874511Y-102412146D01*
X141872932Y-102434233D01*
X141864859Y-102445016D01*
X141861065Y-102457940D01*
X141844330Y-102472440D01*
X141831061Y-102490167D01*
X141818440Y-102494874D01*
X141808261Y-102503695D01*
X141786344Y-102506846D01*
X141765597Y-102514585D01*
X141752435Y-102511722D01*
X141739103Y-102513639D01*
X141718961Y-102504440D01*
X141697324Y-102499734D01*
X141679597Y-102486463D01*
X141675547Y-102484614D01*
X141669070Y-102478583D01*
X141602632Y-102412146D01*
X141579966Y-102389480D01*
X141579963Y-102389478D01*
X138555824Y-99365339D01*
X138522339Y-99304016D01*
X138521888Y-99301849D01*
X138491495Y-99149059D01*
X138490987Y-99146503D01*
X138435209Y-99011842D01*
X138430647Y-99000827D01*
X138430640Y-99000814D01*
X138343039Y-98869711D01*
X138343036Y-98869707D01*
X138231542Y-98758213D01*
X138231538Y-98758210D01*
X138100435Y-98670609D01*
X138100422Y-98670602D01*
X137954751Y-98610264D01*
X137954739Y-98610261D01*
X137800095Y-98579500D01*
X137800092Y-98579500D01*
X137642408Y-98579500D01*
X137642405Y-98579500D01*
X137487760Y-98610261D01*
X137487748Y-98610264D01*
X137342077Y-98670602D01*
X137342064Y-98670609D01*
X137210961Y-98758210D01*
X137210957Y-98758213D01*
X137099463Y-98869707D01*
X137099460Y-98869711D01*
X137011859Y-99000814D01*
X137011852Y-99000827D01*
X136951514Y-99146498D01*
X136951511Y-99146510D01*
X136920750Y-99301153D01*
X136920750Y-99458846D01*
X136951511Y-99613489D01*
X136951514Y-99613501D01*
X137011852Y-99759172D01*
X137011859Y-99759185D01*
X137099460Y-99890288D01*
X137099463Y-99890292D01*
X137210957Y-100001786D01*
X137210961Y-100001789D01*
X137342064Y-100089390D01*
X137342077Y-100089397D01*
X137487748Y-100149735D01*
X137487753Y-100149737D01*
X137546462Y-100161415D01*
X137643099Y-100180638D01*
X137705010Y-100213023D01*
X137706589Y-100214574D01*
X140574431Y-103082416D01*
X140607916Y-103143739D01*
X140610750Y-103170097D01*
X140610750Y-113339234D01*
X140591065Y-113406273D01*
X140589852Y-113408125D01*
X140501859Y-113539814D01*
X140501852Y-113539827D01*
X140441514Y-113685498D01*
X140441511Y-113685510D01*
X140410750Y-113840153D01*
X140410750Y-113997846D01*
X140441511Y-114152489D01*
X140441514Y-114152501D01*
X140501852Y-114298172D01*
X140501859Y-114298185D01*
X140589460Y-114429288D01*
X140589463Y-114429292D01*
X140700957Y-114540786D01*
X140700961Y-114540789D01*
X140832064Y-114628390D01*
X140832077Y-114628397D01*
X140976780Y-114688334D01*
X140977753Y-114688737D01*
X141132403Y-114719499D01*
X141132406Y-114719500D01*
X141132408Y-114719500D01*
X141290094Y-114719500D01*
X141290095Y-114719499D01*
X141444747Y-114688737D01*
X141590429Y-114628394D01*
X141590434Y-114628390D01*
X141590437Y-114628389D01*
X141625134Y-114605204D01*
X141685227Y-114565051D01*
X141751903Y-114544173D01*
X141819284Y-114562657D01*
X141865974Y-114614635D01*
X141871824Y-114629148D01*
X141891436Y-114688333D01*
X141891437Y-114688336D01*
X141891685Y-114688738D01*
X141983538Y-114837656D01*
X142107594Y-114961712D01*
X142256916Y-115053814D01*
X142423453Y-115108999D01*
X142526241Y-115119500D01*
X143151258Y-115119499D01*
X143151266Y-115119498D01*
X143151269Y-115119498D01*
X143207552Y-115113748D01*
X143254047Y-115108999D01*
X143420584Y-115053814D01*
X143569906Y-114961712D01*
X143693962Y-114837656D01*
X143786064Y-114688334D01*
X143841249Y-114521797D01*
X143851750Y-114419009D01*
X143851749Y-113418992D01*
X143851166Y-113413289D01*
X143841249Y-113316203D01*
X143841248Y-113316200D01*
X143833599Y-113293118D01*
X143786064Y-113149666D01*
X143693962Y-113000344D01*
X143569906Y-112876288D01*
X143420584Y-112784186D01*
X143254047Y-112729001D01*
X143254045Y-112729000D01*
X143151260Y-112718500D01*
X142526248Y-112718500D01*
X142526230Y-112718501D01*
X142423453Y-112729000D01*
X142423450Y-112729001D01*
X142256918Y-112784185D01*
X142256913Y-112784187D01*
X142107592Y-112876289D01*
X142023431Y-112960451D01*
X141962108Y-112993936D01*
X141892416Y-112988952D01*
X141836483Y-112947080D01*
X141812066Y-112881616D01*
X141811750Y-112872770D01*
X141811750Y-105635098D01*
X141817988Y-105613852D01*
X141819568Y-105591765D01*
X141827640Y-105580981D01*
X141831435Y-105568059D01*
X141848166Y-105553560D01*
X141861439Y-105535831D01*
X141874061Y-105531123D01*
X141884239Y-105522304D01*
X141906154Y-105519152D01*
X141926903Y-105511414D01*
X141940064Y-105514276D01*
X141953397Y-105512360D01*
X141973538Y-105521558D01*
X141995176Y-105526265D01*
X142012902Y-105539535D01*
X142016953Y-105541385D01*
X142023416Y-105547402D01*
X142112534Y-105636520D01*
X142112536Y-105636521D01*
X142119606Y-105643591D01*
X144694675Y-108218660D01*
X144728160Y-108279983D01*
X144728611Y-108282149D01*
X144759511Y-108437491D01*
X144759514Y-108437501D01*
X144819852Y-108583172D01*
X144819859Y-108583185D01*
X144907460Y-108714288D01*
X144907463Y-108714292D01*
X145018957Y-108825786D01*
X145018961Y-108825789D01*
X145150064Y-108913390D01*
X145150077Y-108913397D01*
X145295748Y-108973735D01*
X145295753Y-108973737D01*
X145450403Y-109004499D01*
X145450406Y-109004500D01*
X145566750Y-109004500D01*
X145633789Y-109024185D01*
X145679544Y-109076989D01*
X145690750Y-109128500D01*
X145690750Y-116154733D01*
X145671065Y-116221772D01*
X145618261Y-116267527D01*
X145549103Y-116277471D01*
X145525221Y-116270919D01*
X145525103Y-116271285D01*
X145325786Y-116206523D01*
X145164142Y-116180921D01*
X145123602Y-116174500D01*
X144918898Y-116174500D01*
X144894579Y-116178351D01*
X144716715Y-116206522D01*
X144522026Y-116269781D01*
X144339636Y-116362715D01*
X144174036Y-116483028D01*
X144029278Y-116627786D01*
X143908965Y-116793386D01*
X143861735Y-116886080D01*
X143813760Y-116936876D01*
X143745939Y-116953671D01*
X143679804Y-116931134D01*
X143640765Y-116886080D01*
X143640133Y-116884840D01*
X143593537Y-116793390D01*
X143550027Y-116733503D01*
X143473221Y-116627786D01*
X143328463Y-116483028D01*
X143162863Y-116362715D01*
X143162862Y-116362714D01*
X143162860Y-116362713D01*
X143105903Y-116333691D01*
X142980473Y-116269781D01*
X142785784Y-116206522D01*
X142611245Y-116178878D01*
X142583602Y-116174500D01*
X142378898Y-116174500D01*
X142354579Y-116178351D01*
X142176715Y-116206522D01*
X141982026Y-116269781D01*
X141799636Y-116362715D01*
X141634036Y-116483028D01*
X141489278Y-116627786D01*
X141368965Y-116793386D01*
X141321735Y-116886080D01*
X141273760Y-116936876D01*
X141205939Y-116953671D01*
X141139804Y-116931134D01*
X141100765Y-116886080D01*
X141100133Y-116884840D01*
X141053537Y-116793390D01*
X141010027Y-116733503D01*
X140933221Y-116627786D01*
X140788463Y-116483028D01*
X140622863Y-116362715D01*
X140622862Y-116362714D01*
X140622860Y-116362713D01*
X140565903Y-116333691D01*
X140440473Y-116269781D01*
X140245784Y-116206522D01*
X140071245Y-116178878D01*
X140043602Y-116174500D01*
X139838898Y-116174500D01*
X139814579Y-116178351D01*
X139636715Y-116206522D01*
X139442026Y-116269781D01*
X139259636Y-116362715D01*
X139094036Y-116483028D01*
X138949278Y-116627786D01*
X138828965Y-116793386D01*
X138736031Y-116975776D01*
X138672772Y-117170465D01*
X138640750Y-117372648D01*
X138640750Y-117577351D01*
X138672772Y-117779534D01*
X138736031Y-117974223D01*
X138828965Y-118156613D01*
X138949278Y-118322213D01*
X139094036Y-118466971D01*
X139248999Y-118579556D01*
X139259640Y-118587287D01*
X139340749Y-118628614D01*
X139352330Y-118634515D01*
X139403126Y-118682490D01*
X139419921Y-118750311D01*
X139397384Y-118816446D01*
X139352330Y-118855485D01*
X139259636Y-118902715D01*
X139094036Y-119023028D01*
X138949278Y-119167786D01*
X138828965Y-119333386D01*
X138736031Y-119515776D01*
X138672772Y-119710465D01*
X138640750Y-119912648D01*
X138640750Y-120117351D01*
X138672772Y-120319534D01*
X138736031Y-120514223D01*
X138828965Y-120696613D01*
X138949278Y-120862213D01*
X139094036Y-121006971D01*
X139235925Y-121110057D01*
X139259640Y-121127287D01*
X139351090Y-121173883D01*
X139352330Y-121174515D01*
X139403126Y-121222490D01*
X139419921Y-121290311D01*
X139397384Y-121356446D01*
X139352330Y-121395485D01*
X139259636Y-121442715D01*
X139094036Y-121563028D01*
X138949278Y-121707786D01*
X138828965Y-121873386D01*
X138736031Y-122055776D01*
X138672772Y-122250465D01*
X138640750Y-122452648D01*
X138640750Y-122657351D01*
X138672772Y-122859534D01*
X138677423Y-122873848D01*
X138679415Y-122943690D01*
X138647171Y-122999842D01*
X137032536Y-124614478D01*
X136920731Y-124726282D01*
X136920729Y-124726284D01*
X136895449Y-124770071D01*
X136884764Y-124788580D01*
X136878124Y-124800081D01*
X136841673Y-124863214D01*
X136836390Y-124882930D01*
X136800749Y-125015943D01*
X136800749Y-125015945D01*
X136800749Y-125184046D01*
X136800750Y-125184059D01*
X136800750Y-131144902D01*
X136781065Y-131211941D01*
X136764431Y-131232583D01*
X132700931Y-135296083D01*
X132639608Y-135329568D01*
X132569916Y-135324584D01*
X132513983Y-135282712D01*
X132489566Y-135217248D01*
X132489250Y-135208402D01*
X132489250Y-135141821D01*
X132453842Y-134918266D01*
X132383895Y-134702994D01*
X132317858Y-134573390D01*
X132281138Y-134501324D01*
X132148095Y-134318206D01*
X131988044Y-134158155D01*
X131804926Y-134025112D01*
X131784399Y-134014653D01*
X131603255Y-133922354D01*
X131387983Y-133852407D01*
X131164428Y-133817000D01*
X131164423Y-133817000D01*
X130938077Y-133817000D01*
X130938072Y-133817000D01*
X130714516Y-133852407D01*
X130499244Y-133922354D01*
X130297573Y-134025112D01*
X130114453Y-134158157D01*
X129958431Y-134314180D01*
X129897108Y-134347665D01*
X129827416Y-134342681D01*
X129771483Y-134300809D01*
X129747066Y-134235345D01*
X129746750Y-134226499D01*
X129746750Y-123938638D01*
X129766435Y-123871599D01*
X129819239Y-123825844D01*
X129888397Y-123815900D01*
X129927041Y-123828151D01*
X129999587Y-123865115D01*
X130058075Y-123894917D01*
X130058078Y-123894918D01*
X130219279Y-123947294D01*
X130230904Y-123951072D01*
X130410389Y-123979500D01*
X130410390Y-123979500D01*
X130592110Y-123979500D01*
X130592111Y-123979500D01*
X130771596Y-123951072D01*
X130771599Y-123951071D01*
X130771600Y-123951071D01*
X130944421Y-123894918D01*
X130944421Y-123894917D01*
X130944424Y-123894917D01*
X131106340Y-123812417D01*
X131253356Y-123705603D01*
X131381853Y-123577106D01*
X131488667Y-123430090D01*
X131571167Y-123268174D01*
X131580160Y-123240496D01*
X131627321Y-123095350D01*
X131627321Y-123095349D01*
X131627322Y-123095346D01*
X131655750Y-122915861D01*
X131655750Y-122734139D01*
X131627322Y-122554654D01*
X131627321Y-122554650D01*
X131627321Y-122554649D01*
X131571168Y-122381828D01*
X131571166Y-122381825D01*
X131488666Y-122219909D01*
X131381853Y-122072894D01*
X131253356Y-121944397D01*
X131106340Y-121837583D01*
X130944424Y-121755083D01*
X130944421Y-121755081D01*
X130771598Y-121698928D01*
X130651939Y-121679976D01*
X130592111Y-121670500D01*
X130410389Y-121670500D01*
X130350560Y-121679976D01*
X130230902Y-121698928D01*
X130230899Y-121698928D01*
X130058078Y-121755081D01*
X130058075Y-121755083D01*
X129927045Y-121821846D01*
X129858375Y-121834742D01*
X129793635Y-121808465D01*
X129753378Y-121751359D01*
X129746750Y-121711361D01*
X129746750Y-106523870D01*
X130845750Y-106523870D01*
X130845750Y-106756129D01*
X130882081Y-106985514D01*
X130953851Y-107206400D01*
X131054280Y-107403500D01*
X131059289Y-107413331D01*
X131195801Y-107601224D01*
X131360026Y-107765449D01*
X131547919Y-107901961D01*
X131645686Y-107951776D01*
X131754849Y-108007398D01*
X131754851Y-108007398D01*
X131754854Y-108007400D01*
X131975736Y-108079169D01*
X132093918Y-108097886D01*
X132205121Y-108115500D01*
X132205126Y-108115500D01*
X132437379Y-108115500D01*
X132538752Y-108099443D01*
X132666764Y-108079169D01*
X132887646Y-108007400D01*
X133094581Y-107901961D01*
X133282474Y-107765449D01*
X133446699Y-107601224D01*
X133583211Y-107413331D01*
X133688650Y-107206396D01*
X133760419Y-106985514D01*
X133780693Y-106857502D01*
X133796750Y-106756129D01*
X133796750Y-106523870D01*
X133777482Y-106402222D01*
X133760419Y-106294486D01*
X133688650Y-106073604D01*
X133688648Y-106073601D01*
X133688648Y-106073599D01*
X133613000Y-105925133D01*
X133583211Y-105866669D01*
X133446699Y-105678776D01*
X133282474Y-105514551D01*
X133094581Y-105378039D01*
X132887650Y-105272601D01*
X132666764Y-105200831D01*
X132437379Y-105164500D01*
X132437374Y-105164500D01*
X132205126Y-105164500D01*
X132205121Y-105164500D01*
X131975735Y-105200831D01*
X131754849Y-105272601D01*
X131547918Y-105378039D01*
X131360023Y-105514553D01*
X131195803Y-105678773D01*
X131059289Y-105866668D01*
X130953851Y-106073599D01*
X130882081Y-106294485D01*
X130845750Y-106523870D01*
X129746750Y-106523870D01*
X129746750Y-101523870D01*
X130845750Y-101523870D01*
X130845750Y-101756129D01*
X130882081Y-101985514D01*
X130953851Y-102206400D01*
X131042785Y-102380941D01*
X131059289Y-102413331D01*
X131195801Y-102601224D01*
X131360026Y-102765449D01*
X131547919Y-102901961D01*
X131645686Y-102951776D01*
X131754849Y-103007398D01*
X131754851Y-103007398D01*
X131754854Y-103007400D01*
X131975736Y-103079169D01*
X132093918Y-103097886D01*
X132205121Y-103115500D01*
X132205126Y-103115500D01*
X132437379Y-103115500D01*
X132538752Y-103099443D01*
X132666764Y-103079169D01*
X132887646Y-103007400D01*
X133094581Y-102901961D01*
X133282474Y-102765449D01*
X133446699Y-102601224D01*
X133583211Y-102413331D01*
X133688650Y-102206396D01*
X133760419Y-101985514D01*
X133784497Y-101833489D01*
X133796750Y-101756129D01*
X133796750Y-101523870D01*
X133771824Y-101366498D01*
X133760419Y-101294486D01*
X133688650Y-101073604D01*
X133688648Y-101073601D01*
X133688648Y-101073599D01*
X133595409Y-100890609D01*
X133583211Y-100866669D01*
X133446699Y-100678776D01*
X133282474Y-100514551D01*
X133094581Y-100378039D01*
X132887650Y-100272601D01*
X132666764Y-100200831D01*
X132437379Y-100164500D01*
X132437374Y-100164500D01*
X132205126Y-100164500D01*
X132205121Y-100164500D01*
X131975735Y-100200831D01*
X131754849Y-100272601D01*
X131547918Y-100378039D01*
X131360023Y-100514553D01*
X131195803Y-100678773D01*
X131059289Y-100866668D01*
X130953851Y-101073599D01*
X130882081Y-101294485D01*
X130845750Y-101523870D01*
X129746750Y-101523870D01*
X129746750Y-86025096D01*
X129766435Y-85958057D01*
X129783064Y-85937420D01*
X135319069Y-80401414D01*
X135380392Y-80367930D01*
X135450084Y-80372914D01*
G37*
G04 #@! TD.AperFunction*
G04 #@! TA.AperFunction,Conductor*
G36*
X164025084Y-95612915D02*
G01*
X164081017Y-95654787D01*
X164105434Y-95720251D01*
X164105750Y-95729097D01*
X164105750Y-100545715D01*
X164086065Y-100612754D01*
X164033261Y-100658509D01*
X163964103Y-100668453D01*
X163900547Y-100639428D01*
X163894069Y-100633396D01*
X163775226Y-100514553D01*
X163775224Y-100514551D01*
X163587331Y-100378039D01*
X163380400Y-100272601D01*
X163159514Y-100200831D01*
X162930129Y-100164500D01*
X162930124Y-100164500D01*
X162697876Y-100164500D01*
X162697871Y-100164500D01*
X162468485Y-100200831D01*
X162247599Y-100272601D01*
X162040668Y-100378039D01*
X161852773Y-100514553D01*
X161688553Y-100678773D01*
X161552039Y-100866668D01*
X161446601Y-101073599D01*
X161374831Y-101294485D01*
X161338500Y-101523870D01*
X161338500Y-101756129D01*
X161374831Y-101985514D01*
X161446601Y-102206400D01*
X161535535Y-102380941D01*
X161552039Y-102413331D01*
X161688551Y-102601224D01*
X161852776Y-102765449D01*
X162040669Y-102901961D01*
X162138436Y-102951776D01*
X162247599Y-103007398D01*
X162247601Y-103007398D01*
X162247604Y-103007400D01*
X162468486Y-103079169D01*
X162586668Y-103097886D01*
X162697871Y-103115500D01*
X162697876Y-103115500D01*
X162930129Y-103115500D01*
X163031502Y-103099443D01*
X163159514Y-103079169D01*
X163380396Y-103007400D01*
X163587331Y-102901961D01*
X163775224Y-102765449D01*
X163894069Y-102646604D01*
X163955392Y-102613119D01*
X164025084Y-102618103D01*
X164081017Y-102659975D01*
X164105434Y-102725439D01*
X164105750Y-102734285D01*
X164105750Y-105545715D01*
X164086065Y-105612754D01*
X164033261Y-105658509D01*
X163964103Y-105668453D01*
X163900547Y-105639428D01*
X163894069Y-105633396D01*
X163775226Y-105514553D01*
X163775224Y-105514551D01*
X163587331Y-105378039D01*
X163380400Y-105272601D01*
X163159514Y-105200831D01*
X162930129Y-105164500D01*
X162930124Y-105164500D01*
X162697876Y-105164500D01*
X162697871Y-105164500D01*
X162468485Y-105200831D01*
X162247599Y-105272601D01*
X162040668Y-105378039D01*
X161852773Y-105514553D01*
X161688553Y-105678773D01*
X161552039Y-105866668D01*
X161446601Y-106073599D01*
X161374831Y-106294485D01*
X161338500Y-106523870D01*
X161338500Y-106756129D01*
X161374831Y-106985514D01*
X161446601Y-107206400D01*
X161547030Y-107403500D01*
X161552039Y-107413331D01*
X161688551Y-107601224D01*
X161852776Y-107765449D01*
X162040669Y-107901961D01*
X162138436Y-107951776D01*
X162247599Y-108007398D01*
X162247601Y-108007398D01*
X162247604Y-108007400D01*
X162468486Y-108079169D01*
X162586668Y-108097886D01*
X162697871Y-108115500D01*
X162697876Y-108115500D01*
X162930129Y-108115500D01*
X163031502Y-108099443D01*
X163159514Y-108079169D01*
X163380396Y-108007400D01*
X163587331Y-107901961D01*
X163775224Y-107765449D01*
X163894069Y-107646604D01*
X163955392Y-107613119D01*
X164025084Y-107618103D01*
X164081017Y-107659975D01*
X164105434Y-107725439D01*
X164105750Y-107734285D01*
X164105750Y-118825903D01*
X164086065Y-118892942D01*
X164069431Y-118913584D01*
X161262589Y-121720425D01*
X161248421Y-121728541D01*
X161238731Y-121739058D01*
X161212139Y-121749325D01*
X161206194Y-121752732D01*
X161199413Y-121754500D01*
X161198408Y-121754500D01*
X161043753Y-121785263D01*
X160979738Y-121811778D01*
X160971468Y-121813935D01*
X160944748Y-121813118D01*
X160918165Y-121815977D01*
X160910356Y-121812068D01*
X160901631Y-121811802D01*
X160879594Y-121796669D01*
X160855686Y-121784702D01*
X160847332Y-121774515D01*
X160844034Y-121772251D01*
X160842519Y-121768647D01*
X160834643Y-121759043D01*
X160810823Y-121720425D01*
X160758962Y-121636344D01*
X160634906Y-121512288D01*
X160634905Y-121512287D01*
X160563152Y-121468029D01*
X160516428Y-121416081D01*
X160504250Y-121362491D01*
X160504250Y-116571560D01*
X160504251Y-116571547D01*
X160504251Y-116403444D01*
X160504251Y-116403443D01*
X160463327Y-116250716D01*
X160440497Y-116211173D01*
X160384274Y-116113790D01*
X160384268Y-116113782D01*
X158110639Y-113840153D01*
X158952750Y-113840153D01*
X158952750Y-113997846D01*
X158983511Y-114152489D01*
X158983514Y-114152501D01*
X159043852Y-114298172D01*
X159043859Y-114298185D01*
X159131460Y-114429288D01*
X159131463Y-114429292D01*
X159242957Y-114540786D01*
X159242961Y-114540789D01*
X159374064Y-114628390D01*
X159374077Y-114628397D01*
X159518780Y-114688334D01*
X159519753Y-114688737D01*
X159674403Y-114719499D01*
X159674406Y-114719500D01*
X159674408Y-114719500D01*
X159832094Y-114719500D01*
X159832095Y-114719499D01*
X159986747Y-114688737D01*
X160132429Y-114628394D01*
X160132434Y-114628390D01*
X160132437Y-114628389D01*
X160167134Y-114605204D01*
X160227227Y-114565051D01*
X160293903Y-114544173D01*
X160361284Y-114562657D01*
X160407974Y-114614635D01*
X160413824Y-114629148D01*
X160433436Y-114688333D01*
X160433437Y-114688336D01*
X160433685Y-114688738D01*
X160525538Y-114837656D01*
X160649594Y-114961712D01*
X160798916Y-115053814D01*
X160965453Y-115108999D01*
X161068241Y-115119500D01*
X161693258Y-115119499D01*
X161693266Y-115119498D01*
X161693269Y-115119498D01*
X161749552Y-115113748D01*
X161796047Y-115108999D01*
X161962584Y-115053814D01*
X162111906Y-114961712D01*
X162235962Y-114837656D01*
X162328064Y-114688334D01*
X162383249Y-114521797D01*
X162393750Y-114419009D01*
X162393749Y-113418992D01*
X162393166Y-113413289D01*
X162383249Y-113316203D01*
X162383248Y-113316200D01*
X162375599Y-113293118D01*
X162328064Y-113149666D01*
X162235962Y-113000344D01*
X162111906Y-112876288D01*
X161962584Y-112784186D01*
X161796047Y-112729001D01*
X161796045Y-112729000D01*
X161693260Y-112718500D01*
X161068248Y-112718500D01*
X161068230Y-112718501D01*
X160965453Y-112729000D01*
X160965450Y-112729001D01*
X160798918Y-112784185D01*
X160798913Y-112784187D01*
X160649592Y-112876289D01*
X160525539Y-113000342D01*
X160433437Y-113149663D01*
X160433436Y-113149666D01*
X160413824Y-113208851D01*
X160374050Y-113266296D01*
X160309534Y-113293118D01*
X160240759Y-113280802D01*
X160227227Y-113272948D01*
X160132435Y-113209609D01*
X160132422Y-113209602D01*
X159986751Y-113149264D01*
X159986739Y-113149261D01*
X159832095Y-113118500D01*
X159832092Y-113118500D01*
X159674408Y-113118500D01*
X159674405Y-113118500D01*
X159519760Y-113149261D01*
X159519748Y-113149264D01*
X159374077Y-113209602D01*
X159374064Y-113209609D01*
X159242961Y-113297210D01*
X159242957Y-113297213D01*
X159131463Y-113408707D01*
X159131460Y-113408711D01*
X159043859Y-113539814D01*
X159043852Y-113539827D01*
X158983514Y-113685498D01*
X158983511Y-113685510D01*
X158952750Y-113840153D01*
X158110639Y-113840153D01*
X158023166Y-113752680D01*
X157989681Y-113691357D01*
X157994665Y-113621665D01*
X158023166Y-113577318D01*
X158930986Y-112669498D01*
X159984756Y-111615728D01*
X159984761Y-111615724D01*
X159994964Y-111605520D01*
X159994966Y-111605520D01*
X160106770Y-111493716D01*
X160185827Y-111356784D01*
X160215784Y-111244981D01*
X160226750Y-111204058D01*
X160226750Y-111045943D01*
X160226750Y-99360097D01*
X160246435Y-99293058D01*
X160263069Y-99272416D01*
X163894069Y-95641416D01*
X163955392Y-95607931D01*
X164025084Y-95612915D01*
G37*
G04 #@! TD.AperFunction*
G04 #@! TA.AperFunction,Conductor*
G36*
X147096953Y-109224384D02*
G01*
X147103431Y-109230416D01*
X148194431Y-110321416D01*
X148227916Y-110382739D01*
X148230750Y-110409097D01*
X148230750Y-121234733D01*
X148211065Y-121301772D01*
X148158261Y-121347527D01*
X148089103Y-121357471D01*
X148065221Y-121350919D01*
X148065103Y-121351285D01*
X147865786Y-121286523D01*
X147730996Y-121265174D01*
X147663602Y-121254500D01*
X147458898Y-121254500D01*
X147391504Y-121265174D01*
X147256714Y-121286523D01*
X147256711Y-121286523D01*
X147057397Y-121351285D01*
X147056967Y-121349963D01*
X146993736Y-121356763D01*
X146931256Y-121325490D01*
X146895602Y-121265402D01*
X146891750Y-121234733D01*
X146891750Y-109318097D01*
X146911435Y-109251058D01*
X146964239Y-109205303D01*
X147033397Y-109195359D01*
X147096953Y-109224384D01*
G37*
G04 #@! TD.AperFunction*
G04 #@! TA.AperFunction,Conductor*
G36*
X141338491Y-86025185D02*
G01*
X141376989Y-86064401D01*
X141413538Y-86123656D01*
X141537594Y-86247712D01*
X141686916Y-86339814D01*
X141853453Y-86394999D01*
X141956241Y-86405500D01*
X142303153Y-86405499D01*
X142370191Y-86425183D01*
X142415946Y-86477987D01*
X142425890Y-86547146D01*
X142396865Y-86610701D01*
X142390833Y-86617180D01*
X140942589Y-88065425D01*
X140881266Y-88098910D01*
X140879100Y-88099361D01*
X140723758Y-88130261D01*
X140723748Y-88130264D01*
X140578077Y-88190602D01*
X140578064Y-88190609D01*
X140446961Y-88278210D01*
X140446957Y-88278213D01*
X140335463Y-88389707D01*
X140335460Y-88389711D01*
X140247859Y-88520814D01*
X140247852Y-88520827D01*
X140187514Y-88666498D01*
X140187511Y-88666510D01*
X140156750Y-88821153D01*
X140156750Y-88978846D01*
X140187511Y-89133489D01*
X140187514Y-89133501D01*
X140247852Y-89279172D01*
X140247859Y-89279185D01*
X140335460Y-89410288D01*
X140335463Y-89410292D01*
X140446957Y-89521786D01*
X140446961Y-89521789D01*
X140578064Y-89609390D01*
X140578077Y-89609397D01*
X140723748Y-89669735D01*
X140723753Y-89669737D01*
X140878403Y-89700499D01*
X140878406Y-89700500D01*
X140878408Y-89700500D01*
X141036094Y-89700500D01*
X141036095Y-89700499D01*
X141190747Y-89669737D01*
X141325681Y-89613846D01*
X141336422Y-89609397D01*
X141336422Y-89609396D01*
X141336429Y-89609394D01*
X141467539Y-89521789D01*
X141579039Y-89410289D01*
X141666644Y-89279179D01*
X141668173Y-89275489D01*
X141698198Y-89203000D01*
X141726987Y-89133497D01*
X141748534Y-89025172D01*
X141757888Y-88978150D01*
X141766652Y-88961393D01*
X141770673Y-88942914D01*
X141789417Y-88917875D01*
X141790273Y-88916239D01*
X141791768Y-88914716D01*
X141896261Y-88810223D01*
X141957582Y-88776740D01*
X142027274Y-88781724D01*
X142083207Y-88823596D01*
X142098501Y-88850454D01*
X142152852Y-88981672D01*
X142152859Y-88981685D01*
X142240460Y-89112788D01*
X142240463Y-89112792D01*
X142351957Y-89224286D01*
X142351961Y-89224289D01*
X142483064Y-89311890D01*
X142483077Y-89311897D01*
X142562144Y-89344647D01*
X142628753Y-89372237D01*
X142783403Y-89402999D01*
X142783406Y-89403000D01*
X142783408Y-89403000D01*
X142941094Y-89403000D01*
X142941095Y-89402999D01*
X143095747Y-89372237D01*
X143241429Y-89311894D01*
X143256980Y-89301503D01*
X143373125Y-89223898D01*
X143439803Y-89203020D01*
X143442016Y-89203000D01*
X146671809Y-89203000D01*
X146738848Y-89222685D01*
X146784603Y-89275489D01*
X146794547Y-89344647D01*
X146765522Y-89408203D01*
X146759490Y-89414681D01*
X146726963Y-89447207D01*
X146726960Y-89447211D01*
X146639359Y-89578314D01*
X146639354Y-89578324D01*
X146599680Y-89674106D01*
X146555839Y-89728509D01*
X146509311Y-89748270D01*
X146461596Y-89757761D01*
X146461588Y-89757763D01*
X146315915Y-89818102D01*
X146315902Y-89818109D01*
X146184799Y-89905710D01*
X146184795Y-89905713D01*
X146073301Y-90017207D01*
X146073298Y-90017211D01*
X145985697Y-90148314D01*
X145985690Y-90148327D01*
X145925351Y-90294000D01*
X145925349Y-90294009D01*
X145918749Y-90327191D01*
X145904034Y-90355321D01*
X145890845Y-90384203D01*
X145887956Y-90386059D01*
X145886365Y-90389102D01*
X145858777Y-90404811D01*
X145832067Y-90421977D01*
X145827472Y-90422637D01*
X145825649Y-90423676D01*
X145797132Y-90427000D01*
X145787531Y-90427000D01*
X145720492Y-90407315D01*
X145674737Y-90354511D01*
X145665913Y-90327187D01*
X145663987Y-90317503D01*
X145639962Y-90259500D01*
X145603647Y-90171827D01*
X145603640Y-90171814D01*
X145516039Y-90040711D01*
X145516036Y-90040707D01*
X145404542Y-89929213D01*
X145404538Y-89929210D01*
X145273435Y-89841609D01*
X145273422Y-89841602D01*
X145127751Y-89781264D01*
X145127739Y-89781261D01*
X144973095Y-89750500D01*
X144973092Y-89750500D01*
X144815408Y-89750500D01*
X144815405Y-89750500D01*
X144660760Y-89781261D01*
X144660748Y-89781264D01*
X144515077Y-89841602D01*
X144515064Y-89841609D01*
X144383375Y-89929602D01*
X144316697Y-89950480D01*
X144314484Y-89950500D01*
X140319419Y-89950500D01*
X140319403Y-89950499D01*
X140311807Y-89950499D01*
X140153693Y-89950499D01*
X140071668Y-89972478D01*
X140000964Y-89991423D01*
X139959230Y-90015519D01*
X139959229Y-90015519D01*
X139864037Y-90070477D01*
X139864032Y-90070481D01*
X139752228Y-90182286D01*
X139493832Y-90440681D01*
X139432509Y-90474166D01*
X139406151Y-90477000D01*
X138781248Y-90477000D01*
X138781230Y-90477001D01*
X138678453Y-90487500D01*
X138678450Y-90487501D01*
X138511918Y-90542685D01*
X138511913Y-90542687D01*
X138362592Y-90634789D01*
X138238538Y-90758843D01*
X138238535Y-90758847D01*
X138225120Y-90780597D01*
X138210923Y-90793365D01*
X138200563Y-90809404D01*
X138185485Y-90816246D01*
X138173172Y-90827322D01*
X138154324Y-90830388D01*
X138136939Y-90838279D01*
X138119582Y-90839500D01*
X137880348Y-90839500D01*
X137813309Y-90819815D01*
X137767554Y-90767011D01*
X137757610Y-90697853D01*
X137786635Y-90634297D01*
X137792667Y-90627819D01*
X137881770Y-90538716D01*
X137946269Y-90427000D01*
X137960827Y-90401785D01*
X138001750Y-90249058D01*
X138001750Y-90090943D01*
X138001750Y-86176999D01*
X138021435Y-86109960D01*
X138074239Y-86064205D01*
X138143397Y-86054261D01*
X138206953Y-86083286D01*
X138231287Y-86111901D01*
X138238538Y-86123656D01*
X138362594Y-86247712D01*
X138511916Y-86339814D01*
X138678453Y-86394999D01*
X138781241Y-86405500D01*
X139831258Y-86405499D01*
X139831266Y-86405498D01*
X139831269Y-86405498D01*
X139887552Y-86399748D01*
X139934047Y-86394999D01*
X140100584Y-86339814D01*
X140249906Y-86247712D01*
X140373962Y-86123656D01*
X140410509Y-86064402D01*
X140462457Y-86017679D01*
X140516048Y-86005500D01*
X141271452Y-86005500D01*
X141338491Y-86025185D01*
G37*
G04 #@! TD.AperFunction*
G04 #@! TA.AperFunction,Conductor*
G36*
X148054576Y-80928374D02*
G01*
X148064702Y-80927110D01*
X148087535Y-80938052D01*
X148111825Y-80945185D01*
X148120182Y-80953698D01*
X148127710Y-80957306D01*
X148150323Y-80984400D01*
X148186872Y-81043656D01*
X148310928Y-81167712D01*
X148460250Y-81259814D01*
X148626787Y-81314999D01*
X148729575Y-81325500D01*
X149779592Y-81325499D01*
X149779600Y-81325498D01*
X149779603Y-81325498D01*
X149835886Y-81319748D01*
X149882381Y-81314999D01*
X150048918Y-81259814D01*
X150198240Y-81167712D01*
X150322296Y-81043656D01*
X150358843Y-80984402D01*
X150410791Y-80937679D01*
X150464382Y-80925500D01*
X151431452Y-80925500D01*
X151498491Y-80945185D01*
X151536989Y-80984401D01*
X151573538Y-81043656D01*
X151697594Y-81167712D01*
X151846916Y-81259814D01*
X152013453Y-81314999D01*
X152116241Y-81325500D01*
X153030883Y-81325499D01*
X153097922Y-81345183D01*
X153143677Y-81397987D01*
X153154883Y-81449499D01*
X153154883Y-84594206D01*
X153154882Y-84594224D01*
X153154882Y-84759930D01*
X153154881Y-84759930D01*
X153195806Y-84912662D01*
X153209002Y-84935516D01*
X153209003Y-84935521D01*
X153209004Y-84935521D01*
X153274858Y-85049585D01*
X153274864Y-85049593D01*
X153393732Y-85168461D01*
X153393738Y-85168466D01*
X154723091Y-86497819D01*
X154756576Y-86559142D01*
X154751592Y-86628834D01*
X154709720Y-86684767D01*
X154644256Y-86709184D01*
X154635410Y-86709500D01*
X153851048Y-86709500D01*
X153784009Y-86689815D01*
X153745509Y-86650597D01*
X153708962Y-86591344D01*
X153584906Y-86467288D01*
X153484731Y-86405500D01*
X153435586Y-86375187D01*
X153435581Y-86375185D01*
X153413838Y-86367980D01*
X153269047Y-86320001D01*
X153269045Y-86320000D01*
X153166260Y-86309500D01*
X152116248Y-86309500D01*
X152116230Y-86309501D01*
X152013453Y-86320000D01*
X152013450Y-86320001D01*
X151846918Y-86375185D01*
X151846913Y-86375187D01*
X151697592Y-86467289D01*
X151573539Y-86591342D01*
X151481437Y-86740663D01*
X151481436Y-86740666D01*
X151426251Y-86907203D01*
X151426251Y-86907204D01*
X151426250Y-86907204D01*
X151415750Y-87009983D01*
X151415750Y-87610001D01*
X151415751Y-87610019D01*
X151426250Y-87712796D01*
X151426251Y-87712799D01*
X151466004Y-87832763D01*
X151480418Y-87876263D01*
X151482484Y-87882496D01*
X151484886Y-87952324D01*
X151449154Y-88012366D01*
X151386634Y-88043559D01*
X151364778Y-88045500D01*
X150808016Y-88045500D01*
X150740977Y-88025815D01*
X150739125Y-88024602D01*
X150607435Y-87936609D01*
X150607422Y-87936602D01*
X150461751Y-87876264D01*
X150461739Y-87876261D01*
X150307095Y-87845500D01*
X150307092Y-87845500D01*
X150149408Y-87845500D01*
X150149405Y-87845500D01*
X149994760Y-87876261D01*
X149994748Y-87876264D01*
X149849077Y-87936602D01*
X149849064Y-87936609D01*
X149717961Y-88024210D01*
X149717957Y-88024213D01*
X149606463Y-88135707D01*
X149606460Y-88135711D01*
X149518859Y-88266814D01*
X149518852Y-88266827D01*
X149458514Y-88412498D01*
X149458511Y-88412510D01*
X149427750Y-88567153D01*
X149427750Y-88724846D01*
X149458511Y-88879489D01*
X149458514Y-88879501D01*
X149518852Y-89025172D01*
X149518859Y-89025185D01*
X149606460Y-89156288D01*
X149606463Y-89156292D01*
X149717957Y-89267786D01*
X149717961Y-89267789D01*
X149849064Y-89355390D01*
X149849077Y-89355397D01*
X149994748Y-89415735D01*
X149994753Y-89415737D01*
X150149403Y-89446499D01*
X150149406Y-89446500D01*
X150149408Y-89446500D01*
X150307094Y-89446500D01*
X150307095Y-89446499D01*
X150461747Y-89415737D01*
X150607429Y-89355394D01*
X150672527Y-89311897D01*
X150739125Y-89267398D01*
X150805803Y-89246520D01*
X150808016Y-89246500D01*
X154135259Y-89246500D01*
X154202298Y-89266185D01*
X154248053Y-89318989D01*
X154257997Y-89388147D01*
X154256876Y-89394691D01*
X154244650Y-89456153D01*
X154244650Y-89613846D01*
X154272033Y-89751509D01*
X154265806Y-89821100D01*
X154222943Y-89876278D01*
X154157053Y-89899522D01*
X154150416Y-89899700D01*
X148375218Y-89899700D01*
X148367610Y-89899699D01*
X148367607Y-89899699D01*
X148255199Y-89899699D01*
X148188160Y-89880014D01*
X148142405Y-89827210D01*
X148142404Y-89827204D01*
X148133583Y-89799891D01*
X148118488Y-89724008D01*
X148118487Y-89724007D01*
X148118487Y-89724003D01*
X148108752Y-89700500D01*
X148058147Y-89578327D01*
X148058140Y-89578314D01*
X147970539Y-89447211D01*
X147970536Y-89447207D01*
X147859042Y-89335713D01*
X147859038Y-89335710D01*
X147816134Y-89307042D01*
X147771329Y-89253429D01*
X147762622Y-89184104D01*
X147792777Y-89121077D01*
X147801708Y-89112101D01*
X147811530Y-89103189D01*
X147846466Y-89083020D01*
X147958270Y-88971216D01*
X147958271Y-88971213D01*
X148827270Y-88102216D01*
X148850674Y-88061676D01*
X148901238Y-88013462D01*
X148919058Y-88005970D01*
X148928584Y-88002814D01*
X149077906Y-87910712D01*
X149201962Y-87786656D01*
X149294064Y-87637334D01*
X149349249Y-87470797D01*
X149359750Y-87368009D01*
X149359749Y-86367992D01*
X149356870Y-86339812D01*
X149349249Y-86265203D01*
X149349248Y-86265200D01*
X149322621Y-86184846D01*
X149294064Y-86098666D01*
X149201962Y-85949344D01*
X149077906Y-85825288D01*
X149077905Y-85825287D01*
X149006152Y-85781029D01*
X148999328Y-85773442D01*
X148990047Y-85769204D01*
X148976359Y-85747905D01*
X148959428Y-85729081D01*
X148956783Y-85717444D01*
X148952273Y-85710426D01*
X148947250Y-85675491D01*
X148947250Y-85607060D01*
X148947251Y-85607047D01*
X148947251Y-85438944D01*
X148941816Y-85418660D01*
X148906327Y-85286216D01*
X148888593Y-85255499D01*
X148827274Y-85149290D01*
X148827268Y-85149282D01*
X147571068Y-83893082D01*
X147537583Y-83831759D01*
X147534749Y-83805401D01*
X147534749Y-83192998D01*
X147534748Y-83192981D01*
X147524249Y-83090203D01*
X147524248Y-83090200D01*
X147497621Y-83009846D01*
X147469064Y-82923666D01*
X147424955Y-82852153D01*
X150062750Y-82852153D01*
X150062750Y-83009846D01*
X150093511Y-83164489D01*
X150093514Y-83164501D01*
X150153852Y-83310172D01*
X150153859Y-83310185D01*
X150241852Y-83441874D01*
X150262730Y-83508551D01*
X150262750Y-83510765D01*
X150262750Y-84383234D01*
X150243065Y-84450273D01*
X150241852Y-84452125D01*
X150153859Y-84583814D01*
X150153852Y-84583827D01*
X150093514Y-84729498D01*
X150093511Y-84729510D01*
X150062750Y-84884153D01*
X150062750Y-85041846D01*
X150093511Y-85196489D01*
X150093514Y-85196501D01*
X150153852Y-85342172D01*
X150153859Y-85342185D01*
X150241460Y-85473288D01*
X150241463Y-85473292D01*
X150352957Y-85584786D01*
X150352961Y-85584789D01*
X150484064Y-85672390D01*
X150484077Y-85672397D01*
X150629748Y-85732735D01*
X150629753Y-85732737D01*
X150784403Y-85763499D01*
X150784406Y-85763500D01*
X150784408Y-85763500D01*
X150942094Y-85763500D01*
X150942095Y-85763499D01*
X151096747Y-85732737D01*
X151220549Y-85681457D01*
X151242422Y-85672397D01*
X151242422Y-85672396D01*
X151242429Y-85672394D01*
X151373539Y-85584789D01*
X151485039Y-85473289D01*
X151572644Y-85342179D01*
X151632987Y-85196497D01*
X151663750Y-85041842D01*
X151663750Y-84884158D01*
X151663750Y-84884155D01*
X151663749Y-84884153D01*
X151640992Y-84769748D01*
X151632987Y-84729503D01*
X151615109Y-84686342D01*
X151572647Y-84583827D01*
X151572640Y-84583814D01*
X151484648Y-84452125D01*
X151463770Y-84385447D01*
X151463750Y-84383234D01*
X151463750Y-83510765D01*
X151483435Y-83443726D01*
X151484648Y-83441874D01*
X151572640Y-83310185D01*
X151572640Y-83310184D01*
X151572644Y-83310179D01*
X151632987Y-83164497D01*
X151663750Y-83009842D01*
X151663750Y-82852158D01*
X151663750Y-82852155D01*
X151663749Y-82852153D01*
X151632988Y-82697510D01*
X151632987Y-82697503D01*
X151632985Y-82697498D01*
X151572647Y-82551827D01*
X151572640Y-82551814D01*
X151485039Y-82420711D01*
X151485036Y-82420707D01*
X151373542Y-82309213D01*
X151373538Y-82309210D01*
X151242435Y-82221609D01*
X151242422Y-82221602D01*
X151096751Y-82161264D01*
X151096739Y-82161261D01*
X150942095Y-82130500D01*
X150942092Y-82130500D01*
X150784408Y-82130500D01*
X150784405Y-82130500D01*
X150629760Y-82161261D01*
X150629748Y-82161264D01*
X150484077Y-82221602D01*
X150484064Y-82221609D01*
X150352961Y-82309210D01*
X150352957Y-82309213D01*
X150241463Y-82420707D01*
X150241460Y-82420711D01*
X150153859Y-82551814D01*
X150153852Y-82551827D01*
X150093514Y-82697498D01*
X150093511Y-82697510D01*
X150062750Y-82852153D01*
X147424955Y-82852153D01*
X147376962Y-82774344D01*
X147252906Y-82650288D01*
X147121687Y-82569352D01*
X147103586Y-82558187D01*
X147103581Y-82558185D01*
X147084376Y-82551821D01*
X146937047Y-82503001D01*
X146937045Y-82503000D01*
X146834260Y-82492500D01*
X146209248Y-82492500D01*
X146209230Y-82492501D01*
X146106453Y-82503000D01*
X146106450Y-82503001D01*
X146038754Y-82525434D01*
X145968926Y-82527836D01*
X145908884Y-82492104D01*
X145877691Y-82429584D01*
X145875750Y-82407728D01*
X145875750Y-81449499D01*
X145895435Y-81382460D01*
X145948239Y-81336705D01*
X145999750Y-81325499D01*
X146392919Y-81325499D01*
X146392925Y-81325499D01*
X146495714Y-81314999D01*
X146662251Y-81259814D01*
X146811573Y-81167712D01*
X146935629Y-81043656D01*
X146972176Y-80984402D01*
X147024124Y-80937679D01*
X147077715Y-80925500D01*
X148044786Y-80925500D01*
X148054576Y-80928374D01*
G37*
G04 #@! TD.AperFunction*
G04 #@! TA.AperFunction,Conductor*
G36*
X164473192Y-84440185D02*
G01*
X164493834Y-84456819D01*
X164577431Y-84540416D01*
X164610916Y-84601739D01*
X164613750Y-84628097D01*
X164613750Y-84977604D01*
X164594065Y-85044643D01*
X164541261Y-85090398D01*
X164472103Y-85100342D01*
X164420859Y-85080706D01*
X164323435Y-85015609D01*
X164323422Y-85015602D01*
X164177751Y-84955264D01*
X164177739Y-84955261D01*
X164023095Y-84924500D01*
X164023092Y-84924500D01*
X163865408Y-84924500D01*
X163865405Y-84924500D01*
X163710760Y-84955261D01*
X163710748Y-84955264D01*
X163565077Y-85015602D01*
X163565064Y-85015609D01*
X163433961Y-85103210D01*
X163433957Y-85103213D01*
X163322463Y-85214707D01*
X163322460Y-85214711D01*
X163234859Y-85345814D01*
X163234852Y-85345827D01*
X163174514Y-85491498D01*
X163174511Y-85491510D01*
X163143750Y-85646153D01*
X163143750Y-85803846D01*
X163174511Y-85958489D01*
X163174514Y-85958501D01*
X163234852Y-86104172D01*
X163234859Y-86104185D01*
X163322460Y-86235288D01*
X163322463Y-86235292D01*
X163433957Y-86346786D01*
X163433961Y-86346789D01*
X163565064Y-86434390D01*
X163565077Y-86434397D01*
X163687692Y-86485185D01*
X163710753Y-86494737D01*
X163775397Y-86507595D01*
X163866099Y-86525638D01*
X163882855Y-86534402D01*
X163901335Y-86538423D01*
X163926373Y-86557167D01*
X163928010Y-86558023D01*
X163929589Y-86559574D01*
X164069431Y-86699416D01*
X164102916Y-86760739D01*
X164105750Y-86787097D01*
X164105750Y-88610949D01*
X164086065Y-88677988D01*
X164033261Y-88723743D01*
X163998350Y-88733154D01*
X163998382Y-88733311D01*
X163996046Y-88733775D01*
X163993912Y-88734351D01*
X163992408Y-88734499D01*
X163837760Y-88765261D01*
X163837748Y-88765264D01*
X163692077Y-88825602D01*
X163692064Y-88825609D01*
X163560375Y-88913602D01*
X163493697Y-88934480D01*
X163491484Y-88934500D01*
X158222464Y-88934500D01*
X158155425Y-88914815D01*
X158109670Y-88862011D01*
X158099726Y-88792853D01*
X158119362Y-88741609D01*
X158154390Y-88689185D01*
X158154390Y-88689184D01*
X158154394Y-88689179D01*
X158214737Y-88543497D01*
X158245500Y-88388842D01*
X158245500Y-88300500D01*
X158265185Y-88233461D01*
X158317989Y-88187706D01*
X158369500Y-88176500D01*
X158435094Y-88176500D01*
X158435095Y-88176499D01*
X158589747Y-88145737D01*
X158735429Y-88085394D01*
X158866539Y-87997789D01*
X158978039Y-87886289D01*
X159065644Y-87755179D01*
X159125987Y-87609497D01*
X159153470Y-87471334D01*
X159156888Y-87454150D01*
X159189273Y-87392239D01*
X159190768Y-87390716D01*
X159640912Y-86940572D01*
X159702233Y-86907089D01*
X159704400Y-86906638D01*
X159762335Y-86895113D01*
X159859747Y-86875737D01*
X160005429Y-86815394D01*
X160136539Y-86727789D01*
X160248039Y-86616289D01*
X160335644Y-86485179D01*
X160395987Y-86339497D01*
X160426750Y-86184842D01*
X160426750Y-86027158D01*
X160426750Y-86027155D01*
X160426749Y-86027153D01*
X160418971Y-85988049D01*
X160395987Y-85872503D01*
X160384221Y-85844096D01*
X160335647Y-85726827D01*
X160335640Y-85726814D01*
X160248039Y-85595711D01*
X160248036Y-85595707D01*
X160196587Y-85544258D01*
X160163102Y-85482935D01*
X160168086Y-85413243D01*
X160196582Y-85368901D01*
X160473668Y-85091816D01*
X160534989Y-85058334D01*
X160561347Y-85055500D01*
X160844719Y-85055500D01*
X160911758Y-85075185D01*
X160913610Y-85076398D01*
X161045299Y-85164390D01*
X161045312Y-85164397D01*
X161166773Y-85214707D01*
X161190988Y-85224737D01*
X161297909Y-85246005D01*
X161345638Y-85255499D01*
X161345641Y-85255500D01*
X161345643Y-85255500D01*
X161503329Y-85255500D01*
X161503330Y-85255499D01*
X161657982Y-85224737D01*
X161792921Y-85168844D01*
X161803657Y-85164397D01*
X161803657Y-85164396D01*
X161803664Y-85164394D01*
X161934774Y-85076789D01*
X162046274Y-84965289D01*
X162133879Y-84834179D01*
X162194222Y-84688497D01*
X162224985Y-84533842D01*
X162224985Y-84533832D01*
X162225131Y-84532354D01*
X162225427Y-84531618D01*
X162226174Y-84527868D01*
X162226885Y-84528009D01*
X162251288Y-84467565D01*
X162308320Y-84427202D01*
X162348535Y-84420500D01*
X164406153Y-84420500D01*
X164473192Y-84440185D01*
G37*
G04 #@! TD.AperFunction*
G04 #@! TA.AperFunction,Conductor*
G36*
X158365662Y-84440185D02*
G01*
X158411417Y-84492989D01*
X158421361Y-84562147D01*
X158392336Y-84625703D01*
X158386304Y-84632181D01*
X157599824Y-85418660D01*
X157538501Y-85452145D01*
X157536335Y-85452596D01*
X157380993Y-85483496D01*
X157380983Y-85483499D01*
X157235312Y-85543837D01*
X157235299Y-85543844D01*
X157104196Y-85631445D01*
X157104192Y-85631448D01*
X156992698Y-85742942D01*
X156992695Y-85742946D01*
X156905094Y-85874049D01*
X156905087Y-85874062D01*
X156844749Y-86019733D01*
X156844746Y-86019745D01*
X156813985Y-86174388D01*
X156813985Y-86185500D01*
X156794300Y-86252539D01*
X156741496Y-86298294D01*
X156689985Y-86309500D01*
X156284604Y-86309500D01*
X156217565Y-86289815D01*
X156196923Y-86273181D01*
X155356695Y-85432953D01*
X155323210Y-85371630D01*
X155328194Y-85301938D01*
X155370066Y-85246005D01*
X155409505Y-85228451D01*
X155408915Y-85226506D01*
X155414739Y-85224738D01*
X155414747Y-85224737D01*
X155549686Y-85168844D01*
X155560422Y-85164397D01*
X155560422Y-85164396D01*
X155560429Y-85164394D01*
X155691539Y-85076789D01*
X155803039Y-84965289D01*
X155890644Y-84834179D01*
X155950987Y-84688497D01*
X155981750Y-84533842D01*
X155981750Y-84533840D01*
X155981887Y-84533152D01*
X155990653Y-84516392D01*
X155994676Y-84497908D01*
X156013409Y-84472887D01*
X156014271Y-84471241D01*
X156015830Y-84469655D01*
X156028675Y-84456812D01*
X156090000Y-84423332D01*
X156116349Y-84420500D01*
X158298623Y-84420500D01*
X158365662Y-84440185D01*
G37*
G04 #@! TD.AperFunction*
G04 #@! TA.AperFunction,Conductor*
G36*
X146714441Y-74823557D02*
G01*
X146770374Y-74865429D01*
X146789767Y-74903741D01*
X146791514Y-74909501D01*
X146851852Y-75055172D01*
X146851859Y-75055185D01*
X146939460Y-75186288D01*
X146939463Y-75186292D01*
X147050957Y-75297786D01*
X147050961Y-75297789D01*
X147182064Y-75385390D01*
X147182077Y-75385397D01*
X147327748Y-75445735D01*
X147327753Y-75445737D01*
X147390077Y-75458134D01*
X147459798Y-75472003D01*
X147521709Y-75504388D01*
X147523288Y-75505939D01*
X147994486Y-75977137D01*
X148027971Y-76038460D01*
X148030164Y-76077414D01*
X148029084Y-76087986D01*
X148029084Y-76688001D01*
X148029085Y-76688019D01*
X148039584Y-76790796D01*
X148039585Y-76790799D01*
X148071664Y-76887606D01*
X148094770Y-76957334D01*
X148186872Y-77106656D01*
X148310928Y-77230712D01*
X148424821Y-77300961D01*
X148471545Y-77352909D01*
X148482768Y-77421872D01*
X148454924Y-77485954D01*
X148424822Y-77512037D01*
X148356701Y-77554054D01*
X148310926Y-77582289D01*
X148186873Y-77706342D01*
X148150325Y-77765597D01*
X148098377Y-77812321D01*
X148044786Y-77824500D01*
X147077715Y-77824500D01*
X147010676Y-77804815D01*
X146972176Y-77765597D01*
X146935629Y-77706344D01*
X146811573Y-77582288D01*
X146662251Y-77490186D01*
X146495714Y-77435001D01*
X146495712Y-77435000D01*
X146392927Y-77424500D01*
X145342915Y-77424500D01*
X145342897Y-77424501D01*
X145240120Y-77435000D01*
X145240117Y-77435001D01*
X145073585Y-77490185D01*
X145073580Y-77490187D01*
X144924259Y-77582289D01*
X144800206Y-77706342D01*
X144708104Y-77855663D01*
X144708102Y-77855668D01*
X144696638Y-77890264D01*
X144652918Y-78022203D01*
X144652918Y-78022204D01*
X144652917Y-78022204D01*
X144642417Y-78124983D01*
X144642417Y-78725001D01*
X144642418Y-78725019D01*
X144652917Y-78827796D01*
X144652918Y-78827799D01*
X144708102Y-78994331D01*
X144708104Y-78994336D01*
X144800206Y-79143657D01*
X144924263Y-79267714D01*
X144927099Y-79269463D01*
X144928634Y-79271170D01*
X144929928Y-79272193D01*
X144929753Y-79272414D01*
X144973822Y-79321411D01*
X144985043Y-79390374D01*
X144957199Y-79454456D01*
X144927099Y-79480537D01*
X144924263Y-79482285D01*
X144800206Y-79606342D01*
X144708104Y-79755663D01*
X144708102Y-79755668D01*
X144680266Y-79839670D01*
X144652918Y-79922203D01*
X144652918Y-79922204D01*
X144652917Y-79922204D01*
X144642417Y-80024983D01*
X144642417Y-80625001D01*
X144642418Y-80625019D01*
X144652917Y-80727796D01*
X144652918Y-80727799D01*
X144670037Y-80779459D01*
X144670580Y-80782917D01*
X144671597Y-80784529D01*
X144672265Y-80793645D01*
X144676327Y-80819504D01*
X144676212Y-80833147D01*
X144674749Y-80838610D01*
X144674749Y-80996724D01*
X144674750Y-80996727D01*
X144674750Y-81007290D01*
X144674750Y-84410663D01*
X144674749Y-84410681D01*
X144674749Y-84576387D01*
X144674748Y-84576387D01*
X144715673Y-84729119D01*
X144715674Y-84729120D01*
X144741156Y-84773256D01*
X144777188Y-84835666D01*
X144794731Y-84866050D01*
X145033343Y-85104662D01*
X145066828Y-85165985D01*
X145067279Y-85168151D01*
X145098178Y-85323491D01*
X145098181Y-85323501D01*
X145158519Y-85469172D01*
X145158526Y-85469185D01*
X145246127Y-85600288D01*
X145246130Y-85600292D01*
X145357624Y-85711786D01*
X145357628Y-85711789D01*
X145488731Y-85799390D01*
X145488738Y-85799394D01*
X145569496Y-85832845D01*
X145578983Y-85840489D01*
X145590623Y-85844096D01*
X145605680Y-85862003D01*
X145623898Y-85876684D01*
X145627746Y-85888246D01*
X145635589Y-85897573D01*
X145638575Y-85920779D01*
X145645964Y-85942978D01*
X145643170Y-85956495D01*
X145644506Y-85966871D01*
X145636650Y-85988049D01*
X145634061Y-86000584D01*
X145631146Y-86006722D01*
X145574436Y-86098666D01*
X145544247Y-86189769D01*
X145540967Y-86196679D01*
X145522588Y-86217263D01*
X145506882Y-86239949D01*
X145499649Y-86242955D01*
X145494433Y-86248799D01*
X145467844Y-86256179D01*
X145442366Y-86266772D01*
X145428949Y-86267500D01*
X144244347Y-86267500D01*
X144177308Y-86247815D01*
X144156666Y-86231181D01*
X143741347Y-85815862D01*
X143707862Y-85754539D01*
X143705670Y-85715577D01*
X143706750Y-85705009D01*
X143706749Y-85104992D01*
X143706715Y-85104662D01*
X143696249Y-85002203D01*
X143696248Y-85002200D01*
X143695470Y-84999852D01*
X143641064Y-84835666D01*
X143548962Y-84686344D01*
X143424906Y-84562288D01*
X143279963Y-84472887D01*
X143275586Y-84470187D01*
X143275581Y-84470185D01*
X143235224Y-84456812D01*
X143109047Y-84415001D01*
X143109045Y-84415000D01*
X143006260Y-84404500D01*
X141956248Y-84404500D01*
X141956230Y-84404501D01*
X141853453Y-84415000D01*
X141853450Y-84415001D01*
X141686918Y-84470185D01*
X141686913Y-84470187D01*
X141537592Y-84562289D01*
X141413539Y-84686342D01*
X141406288Y-84698098D01*
X141386918Y-84729503D01*
X141376991Y-84745597D01*
X141325043Y-84792321D01*
X141271452Y-84804500D01*
X140516048Y-84804500D01*
X140449009Y-84784815D01*
X140410509Y-84745597D01*
X140410031Y-84744822D01*
X140373962Y-84686344D01*
X140249906Y-84562288D01*
X140104963Y-84472887D01*
X140100586Y-84470187D01*
X140100581Y-84470185D01*
X140060224Y-84456812D01*
X139934047Y-84415001D01*
X139934045Y-84415000D01*
X139831260Y-84404500D01*
X138781248Y-84404500D01*
X138781230Y-84404501D01*
X138678453Y-84415000D01*
X138678450Y-84415001D01*
X138511918Y-84470185D01*
X138511913Y-84470187D01*
X138362592Y-84562289D01*
X138238537Y-84686344D01*
X138231288Y-84698098D01*
X138179340Y-84744822D01*
X138110377Y-84756043D01*
X138046295Y-84728200D01*
X138007440Y-84670131D01*
X138001750Y-84633000D01*
X138001750Y-83485097D01*
X138021435Y-83418058D01*
X138038069Y-83397416D01*
X142291829Y-79143656D01*
X146583428Y-74852056D01*
X146644749Y-74818573D01*
X146714441Y-74823557D01*
G37*
G04 #@! TD.AperFunction*
G04 #@! TA.AperFunction,Conductor*
G36*
X146888690Y-84913184D02*
G01*
X146909332Y-84929818D01*
X147622729Y-85643215D01*
X147627129Y-85651274D01*
X147634472Y-85656795D01*
X147643611Y-85681457D01*
X147656214Y-85704538D01*
X147655558Y-85713699D01*
X147658750Y-85722311D01*
X147653106Y-85747995D01*
X147651230Y-85774230D01*
X147645328Y-85783391D01*
X147643755Y-85790552D01*
X147630982Y-85805661D01*
X147622544Y-85818762D01*
X147616635Y-85824645D01*
X147615594Y-85825288D01*
X147521746Y-85919136D01*
X147491096Y-85935787D01*
X147460608Y-85952436D01*
X147460472Y-85952426D01*
X147460353Y-85952491D01*
X147425822Y-85949948D01*
X147390916Y-85947452D01*
X147390785Y-85947368D01*
X147390672Y-85947360D01*
X147390078Y-85946913D01*
X147346569Y-85918951D01*
X147252907Y-85825289D01*
X147252906Y-85825288D01*
X147152731Y-85763500D01*
X147103586Y-85733187D01*
X147103581Y-85733185D01*
X147084376Y-85726821D01*
X146937047Y-85678001D01*
X146937045Y-85678000D01*
X146834266Y-85667500D01*
X146834259Y-85667500D01*
X146676785Y-85667500D01*
X146609746Y-85647815D01*
X146563991Y-85595011D01*
X146554047Y-85525853D01*
X146573685Y-85474606D01*
X146577308Y-85469183D01*
X146577311Y-85469179D01*
X146637654Y-85323497D01*
X146668417Y-85168842D01*
X146668417Y-85017499D01*
X146670967Y-85008813D01*
X146669679Y-84999852D01*
X146680657Y-84975811D01*
X146688102Y-84950460D01*
X146694942Y-84944532D01*
X146698704Y-84936296D01*
X146720938Y-84922006D01*
X146740906Y-84904705D01*
X146751420Y-84902417D01*
X146757482Y-84898522D01*
X146792417Y-84893499D01*
X146821651Y-84893499D01*
X146888690Y-84913184D01*
G37*
G04 #@! TD.AperFunction*
G04 #@! TA.AperFunction,Conductor*
G36*
X160799664Y-50635185D02*
G01*
X160845419Y-50687989D01*
X160855363Y-50757147D01*
X160826338Y-50820703D01*
X160780078Y-50854061D01*
X160453750Y-50989230D01*
X160453745Y-50989232D01*
X160107112Y-51174511D01*
X160107094Y-51174522D01*
X159780289Y-51392887D01*
X159780275Y-51392897D01*
X159476432Y-51642254D01*
X159198504Y-51920182D01*
X158949147Y-52224025D01*
X158949137Y-52224039D01*
X158730772Y-52550844D01*
X158730761Y-52550862D01*
X158545482Y-52897495D01*
X158545480Y-52897500D01*
X158395060Y-53260645D01*
X158280957Y-53636794D01*
X158280954Y-53636805D01*
X158204276Y-54022297D01*
X158165750Y-54413471D01*
X158165750Y-54806528D01*
X158204276Y-55197702D01*
X158280954Y-55583194D01*
X158280957Y-55583205D01*
X158395060Y-55959354D01*
X158545480Y-56322499D01*
X158545482Y-56322504D01*
X158730761Y-56669137D01*
X158730772Y-56669155D01*
X158949137Y-56995960D01*
X158949147Y-56995974D01*
X159198504Y-57299817D01*
X159476432Y-57577745D01*
X159476437Y-57577749D01*
X159476438Y-57577750D01*
X159780281Y-57827107D01*
X160107101Y-58045482D01*
X160107110Y-58045487D01*
X160107112Y-58045488D01*
X160453745Y-58230767D01*
X160453747Y-58230767D01*
X160453753Y-58230771D01*
X160816897Y-58381190D01*
X161193035Y-58495290D01*
X161193041Y-58495291D01*
X161193044Y-58495292D01*
X161193055Y-58495295D01*
X161578547Y-58571973D01*
X161969718Y-58610500D01*
X161969721Y-58610500D01*
X162362779Y-58610500D01*
X162362782Y-58610500D01*
X162753953Y-58571973D01*
X162828998Y-58557045D01*
X163139444Y-58495295D01*
X163139455Y-58495292D01*
X163139455Y-58495291D01*
X163139465Y-58495290D01*
X163515603Y-58381190D01*
X163878747Y-58230771D01*
X164225399Y-58045482D01*
X164552219Y-57827107D01*
X164856062Y-57577750D01*
X165134000Y-57299812D01*
X165383357Y-56995969D01*
X165601732Y-56669149D01*
X165787021Y-56322497D01*
X165922190Y-55996169D01*
X165966030Y-55941768D01*
X166032324Y-55919703D01*
X166100023Y-55936982D01*
X166147634Y-55988119D01*
X166160750Y-56043624D01*
X166160750Y-83490903D01*
X166141065Y-83557942D01*
X166088261Y-83603697D01*
X166019103Y-83613641D01*
X165955547Y-83584616D01*
X165949069Y-83578584D01*
X164939840Y-82569355D01*
X164939838Y-82569352D01*
X164820967Y-82450481D01*
X164820966Y-82450480D01*
X164734154Y-82400360D01*
X164734154Y-82400359D01*
X164734150Y-82400358D01*
X164684035Y-82371423D01*
X164531307Y-82330499D01*
X164373193Y-82330499D01*
X164365597Y-82330499D01*
X164365581Y-82330500D01*
X162111016Y-82330500D01*
X162043977Y-82310815D01*
X162042125Y-82309602D01*
X161910435Y-82221609D01*
X161910422Y-82221602D01*
X161764751Y-82161264D01*
X161764739Y-82161261D01*
X161610095Y-82130500D01*
X161610092Y-82130500D01*
X161452408Y-82130500D01*
X161452405Y-82130500D01*
X161297760Y-82161261D01*
X161297748Y-82161264D01*
X161152077Y-82221602D01*
X161152064Y-82221609D01*
X161020961Y-82309210D01*
X161020957Y-82309213D01*
X160983931Y-82346240D01*
X160922608Y-82379725D01*
X160852916Y-82374741D01*
X160808569Y-82346240D01*
X160771542Y-82309213D01*
X160771538Y-82309210D01*
X160640435Y-82221609D01*
X160640422Y-82221602D01*
X160494751Y-82161264D01*
X160494739Y-82161261D01*
X160340095Y-82130500D01*
X160340092Y-82130500D01*
X160182408Y-82130500D01*
X160182405Y-82130500D01*
X160027760Y-82161261D01*
X160027748Y-82161264D01*
X159882077Y-82221602D01*
X159882064Y-82221609D01*
X159750375Y-82309602D01*
X159683697Y-82330480D01*
X159681484Y-82330500D01*
X155941977Y-82330500D01*
X155941961Y-82330499D01*
X155934365Y-82330499D01*
X155776250Y-82330499D01*
X155699886Y-82350961D01*
X155623521Y-82371423D01*
X155623516Y-82371426D01*
X155486597Y-82450475D01*
X155486589Y-82450481D01*
X154567564Y-83369507D01*
X154506241Y-83402992D01*
X154436549Y-83398008D01*
X154380616Y-83356136D01*
X154356199Y-83290672D01*
X154355883Y-83281826D01*
X154355883Y-79628192D01*
X154355884Y-79628179D01*
X154355884Y-79460078D01*
X154355884Y-79460076D01*
X154314960Y-79307348D01*
X154264285Y-79219577D01*
X154235903Y-79170417D01*
X154124099Y-79058613D01*
X154124098Y-79058612D01*
X154119768Y-79054282D01*
X154119757Y-79054272D01*
X153901347Y-78835862D01*
X153886362Y-78808419D01*
X153869709Y-78781931D01*
X153869293Y-78777160D01*
X153867862Y-78774539D01*
X153865034Y-78746948D01*
X153865090Y-78741249D01*
X153866750Y-78725009D01*
X153866750Y-78581153D01*
X156158750Y-78581153D01*
X156158750Y-78738846D01*
X156189511Y-78893489D01*
X156189514Y-78893501D01*
X156249852Y-79039172D01*
X156249859Y-79039185D01*
X156337460Y-79170288D01*
X156337463Y-79170292D01*
X156448957Y-79281786D01*
X156448961Y-79281789D01*
X156580064Y-79369390D01*
X156580077Y-79369397D01*
X156725748Y-79429735D01*
X156725753Y-79429737D01*
X156880403Y-79460499D01*
X156880406Y-79460500D01*
X156880408Y-79460500D01*
X157038094Y-79460500D01*
X157038095Y-79460499D01*
X157192747Y-79429737D01*
X157338429Y-79369394D01*
X157338435Y-79369390D01*
X157470125Y-79281398D01*
X157536803Y-79260520D01*
X157539016Y-79260500D01*
X160617484Y-79260500D01*
X160684523Y-79280185D01*
X160686375Y-79281398D01*
X160818064Y-79369390D01*
X160818077Y-79369397D01*
X160963748Y-79429735D01*
X160963753Y-79429737D01*
X161118403Y-79460499D01*
X161118406Y-79460500D01*
X161118408Y-79460500D01*
X161276094Y-79460500D01*
X161276095Y-79460499D01*
X161430747Y-79429737D01*
X161576429Y-79369394D01*
X161707539Y-79281789D01*
X161819039Y-79170289D01*
X161906644Y-79039179D01*
X161966987Y-78893497D01*
X161997750Y-78738842D01*
X161997750Y-78581158D01*
X161997750Y-78581155D01*
X161997749Y-78581153D01*
X161966988Y-78426510D01*
X161966987Y-78426503D01*
X161966985Y-78426498D01*
X161906647Y-78280827D01*
X161906640Y-78280814D01*
X161819039Y-78149711D01*
X161819036Y-78149707D01*
X161707542Y-78038213D01*
X161707538Y-78038210D01*
X161576435Y-77950609D01*
X161576422Y-77950602D01*
X161430751Y-77890264D01*
X161430739Y-77890261D01*
X161276095Y-77859500D01*
X161276092Y-77859500D01*
X161118408Y-77859500D01*
X161118405Y-77859500D01*
X160963760Y-77890261D01*
X160963748Y-77890264D01*
X160818077Y-77950602D01*
X160818064Y-77950609D01*
X160686375Y-78038602D01*
X160619697Y-78059480D01*
X160617484Y-78059500D01*
X157539016Y-78059500D01*
X157471977Y-78039815D01*
X157470125Y-78038602D01*
X157338435Y-77950609D01*
X157338422Y-77950602D01*
X157192751Y-77890264D01*
X157192739Y-77890261D01*
X157038095Y-77859500D01*
X157038092Y-77859500D01*
X156880408Y-77859500D01*
X156880405Y-77859500D01*
X156725760Y-77890261D01*
X156725748Y-77890264D01*
X156580077Y-77950602D01*
X156580064Y-77950609D01*
X156448961Y-78038210D01*
X156448957Y-78038213D01*
X156337463Y-78149707D01*
X156337460Y-78149711D01*
X156249859Y-78280814D01*
X156249852Y-78280827D01*
X156189514Y-78426498D01*
X156189511Y-78426510D01*
X156158750Y-78581153D01*
X153866750Y-78581153D01*
X153866749Y-78124992D01*
X153856249Y-78022203D01*
X153801064Y-77855666D01*
X153708962Y-77706344D01*
X153584906Y-77582288D01*
X153435584Y-77490186D01*
X153269047Y-77435001D01*
X153269045Y-77435000D01*
X153166266Y-77424500D01*
X152184345Y-77424500D01*
X152117306Y-77404815D01*
X152071551Y-77352011D01*
X152061607Y-77282853D01*
X152090632Y-77219297D01*
X152096644Y-77212839D01*
X152512666Y-76796819D01*
X152573989Y-76763334D01*
X152600347Y-76760500D01*
X161387990Y-76760500D01*
X161455029Y-76780185D01*
X161498473Y-76828203D01*
X161552039Y-76933331D01*
X161688551Y-77121224D01*
X161852776Y-77285449D01*
X162040669Y-77421961D01*
X162138436Y-77471776D01*
X162247599Y-77527398D01*
X162247601Y-77527398D01*
X162247604Y-77527400D01*
X162468486Y-77599169D01*
X162586668Y-77617886D01*
X162697871Y-77635500D01*
X162697876Y-77635500D01*
X162930129Y-77635500D01*
X163031502Y-77619443D01*
X163159514Y-77599169D01*
X163380396Y-77527400D01*
X163587331Y-77421961D01*
X163775224Y-77285449D01*
X163939449Y-77121224D01*
X164075961Y-76933331D01*
X164181400Y-76726396D01*
X164253169Y-76505514D01*
X164273443Y-76377502D01*
X164289500Y-76276129D01*
X164289500Y-76043870D01*
X164253831Y-75818668D01*
X164253169Y-75814486D01*
X164181400Y-75593604D01*
X164181398Y-75593601D01*
X164181398Y-75593599D01*
X164075960Y-75386668D01*
X164075037Y-75385397D01*
X163939449Y-75198776D01*
X163775224Y-75034551D01*
X163587331Y-74898039D01*
X163380400Y-74792601D01*
X163159514Y-74720831D01*
X162930129Y-74684500D01*
X162930124Y-74684500D01*
X162697876Y-74684500D01*
X162697871Y-74684500D01*
X162468485Y-74720831D01*
X162247599Y-74792601D01*
X162040668Y-74898039D01*
X161852773Y-75034553D01*
X161688553Y-75198773D01*
X161552039Y-75386668D01*
X161498475Y-75491795D01*
X161450501Y-75542591D01*
X161387990Y-75559500D01*
X152386919Y-75559500D01*
X152386903Y-75559499D01*
X152379307Y-75559499D01*
X152221193Y-75559499D01*
X152113837Y-75588265D01*
X152068460Y-75600424D01*
X152068459Y-75600425D01*
X152018346Y-75629359D01*
X152018345Y-75629360D01*
X151974939Y-75654420D01*
X151931535Y-75679479D01*
X151931532Y-75679481D01*
X150848589Y-76762425D01*
X150831990Y-76771488D01*
X150818383Y-76784619D01*
X150788886Y-76795025D01*
X150787266Y-76795910D01*
X150785100Y-76796361D01*
X150627065Y-76827797D01*
X150557473Y-76821570D01*
X150502296Y-76778707D01*
X150479051Y-76712818D01*
X150479515Y-76693574D01*
X150480084Y-76688009D01*
X150480083Y-76087992D01*
X150479002Y-76077414D01*
X150469583Y-75985203D01*
X150469582Y-75985200D01*
X150466910Y-75977137D01*
X150414398Y-75818666D01*
X150322296Y-75669344D01*
X150198240Y-75545288D01*
X150086716Y-75476500D01*
X150048920Y-75453187D01*
X150048915Y-75453185D01*
X150026432Y-75445735D01*
X149882381Y-75398001D01*
X149882379Y-75398000D01*
X149779600Y-75387500D01*
X149779593Y-75387500D01*
X149154681Y-75387500D01*
X149087642Y-75367815D01*
X149067000Y-75351181D01*
X148398069Y-74682250D01*
X148364584Y-74620927D01*
X148362676Y-74603185D01*
X148362347Y-74603218D01*
X148361750Y-74597163D01*
X148361750Y-74597158D01*
X148330987Y-74442503D01*
X148330985Y-74442498D01*
X148270647Y-74296827D01*
X148270640Y-74296814D01*
X148183039Y-74165711D01*
X148183036Y-74165707D01*
X148071542Y-74054213D01*
X148071538Y-74054210D01*
X147940435Y-73966609D01*
X147940422Y-73966602D01*
X147794749Y-73906263D01*
X147788989Y-73904516D01*
X147730552Y-73866215D01*
X147702099Y-73802402D01*
X147712663Y-73733335D01*
X147737306Y-73698179D01*
X148138667Y-73296819D01*
X148199990Y-73263334D01*
X148226348Y-73260500D01*
X150156484Y-73260500D01*
X150223523Y-73280185D01*
X150225375Y-73281398D01*
X150357064Y-73369390D01*
X150357077Y-73369397D01*
X150502748Y-73429735D01*
X150502753Y-73429737D01*
X150657403Y-73460499D01*
X150657406Y-73460500D01*
X150657408Y-73460500D01*
X150815094Y-73460500D01*
X150815095Y-73460499D01*
X150969747Y-73429737D01*
X151115429Y-73369394D01*
X151246539Y-73281789D01*
X151358039Y-73170289D01*
X151445644Y-73039179D01*
X151505987Y-72893497D01*
X151536750Y-72738842D01*
X151536750Y-72581158D01*
X151536750Y-72581155D01*
X151536749Y-72581153D01*
X151505988Y-72426510D01*
X151505987Y-72426503D01*
X151447560Y-72285446D01*
X151445647Y-72280827D01*
X151445640Y-72280814D01*
X151358039Y-72149711D01*
X151358036Y-72149707D01*
X151246542Y-72038213D01*
X151246538Y-72038210D01*
X151115435Y-71950609D01*
X151115422Y-71950602D01*
X150969751Y-71890264D01*
X150969739Y-71890261D01*
X150815095Y-71859500D01*
X150815092Y-71859500D01*
X150657408Y-71859500D01*
X150657405Y-71859500D01*
X150502760Y-71890261D01*
X150502748Y-71890264D01*
X150357077Y-71950602D01*
X150357064Y-71950609D01*
X150225375Y-72038602D01*
X150158697Y-72059480D01*
X150156484Y-72059500D01*
X148012920Y-72059500D01*
X148012904Y-72059499D01*
X148005308Y-72059499D01*
X147847193Y-72059499D01*
X147770829Y-72079961D01*
X147694464Y-72100423D01*
X147694459Y-72100426D01*
X147557540Y-72179475D01*
X147557532Y-72179481D01*
X137591660Y-82145354D01*
X137530337Y-82178839D01*
X137460645Y-82173855D01*
X137404712Y-82131983D01*
X137380295Y-82066519D01*
X137379979Y-82057673D01*
X137379979Y-81609036D01*
X137399664Y-81541997D01*
X137400877Y-81540145D01*
X137488869Y-81408456D01*
X137488869Y-81408455D01*
X137488873Y-81408450D01*
X137549216Y-81262768D01*
X137579979Y-81108113D01*
X137579979Y-80950429D01*
X137579979Y-80950426D01*
X137579978Y-80950424D01*
X137575592Y-80928374D01*
X137549216Y-80795774D01*
X137544558Y-80784529D01*
X137488876Y-80650098D01*
X137488869Y-80650085D01*
X137401268Y-80518982D01*
X137401265Y-80518978D01*
X137289771Y-80407484D01*
X137289767Y-80407481D01*
X137158664Y-80319880D01*
X137158651Y-80319873D01*
X137012980Y-80259535D01*
X137012970Y-80259532D01*
X136923179Y-80241671D01*
X136861268Y-80209285D01*
X136826694Y-80148569D01*
X136830435Y-80078800D01*
X136838016Y-80061595D01*
X136840640Y-80056684D01*
X136840644Y-80056679D01*
X136900987Y-79910997D01*
X136931750Y-79756342D01*
X136931750Y-79598658D01*
X136931750Y-79598655D01*
X136931749Y-79598653D01*
X136908254Y-79480537D01*
X136900987Y-79444003D01*
X136895077Y-79429735D01*
X136840647Y-79298327D01*
X136840640Y-79298314D01*
X136753039Y-79167211D01*
X136753036Y-79167207D01*
X136740837Y-79155008D01*
X136707352Y-79093685D01*
X136712336Y-79023993D01*
X136740835Y-78979648D01*
X144423666Y-71296819D01*
X144484989Y-71263334D01*
X144511347Y-71260500D01*
X150156484Y-71260500D01*
X150223523Y-71280185D01*
X150225375Y-71281398D01*
X150357064Y-71369390D01*
X150357077Y-71369397D01*
X150502748Y-71429735D01*
X150502753Y-71429737D01*
X150657403Y-71460499D01*
X150657406Y-71460500D01*
X150657408Y-71460500D01*
X150815094Y-71460500D01*
X150815095Y-71460499D01*
X150969747Y-71429737D01*
X151115429Y-71369394D01*
X151246539Y-71281789D01*
X151358039Y-71170289D01*
X151442510Y-71043870D01*
X161338500Y-71043870D01*
X161338500Y-71276129D01*
X161374831Y-71505514D01*
X161446601Y-71726400D01*
X161530095Y-71890264D01*
X161552039Y-71933331D01*
X161688551Y-72121224D01*
X161852776Y-72285449D01*
X162040669Y-72421961D01*
X162138436Y-72471776D01*
X162247599Y-72527398D01*
X162247601Y-72527398D01*
X162247604Y-72527400D01*
X162468486Y-72599169D01*
X162586668Y-72617886D01*
X162697871Y-72635500D01*
X162697876Y-72635500D01*
X162930129Y-72635500D01*
X163031502Y-72619443D01*
X163159514Y-72599169D01*
X163380396Y-72527400D01*
X163587331Y-72421961D01*
X163775224Y-72285449D01*
X163939449Y-72121224D01*
X164075961Y-71933331D01*
X164181400Y-71726396D01*
X164253169Y-71505514D01*
X164274728Y-71369394D01*
X164289500Y-71276129D01*
X164289500Y-71043870D01*
X164265683Y-70893497D01*
X164253169Y-70814486D01*
X164181400Y-70593604D01*
X164181398Y-70593601D01*
X164181398Y-70593599D01*
X164096261Y-70426510D01*
X164075961Y-70386669D01*
X163939449Y-70198776D01*
X163775224Y-70034551D01*
X163587331Y-69898039D01*
X163572066Y-69890261D01*
X163380400Y-69792601D01*
X163159514Y-69720831D01*
X162930129Y-69684500D01*
X162930124Y-69684500D01*
X162697876Y-69684500D01*
X162697871Y-69684500D01*
X162468485Y-69720831D01*
X162247599Y-69792601D01*
X162040668Y-69898039D01*
X161852773Y-70034553D01*
X161688553Y-70198773D01*
X161552039Y-70386668D01*
X161446601Y-70593599D01*
X161374831Y-70814485D01*
X161338500Y-71043870D01*
X151442510Y-71043870D01*
X151445644Y-71039179D01*
X151505987Y-70893497D01*
X151536750Y-70738842D01*
X151536750Y-70581158D01*
X151536750Y-70581155D01*
X151536749Y-70581153D01*
X151505988Y-70426510D01*
X151505987Y-70426503D01*
X151505985Y-70426498D01*
X151445647Y-70280827D01*
X151445640Y-70280814D01*
X151358039Y-70149711D01*
X151358036Y-70149707D01*
X151246542Y-70038213D01*
X151246538Y-70038210D01*
X151115435Y-69950609D01*
X151115422Y-69950602D01*
X150969751Y-69890264D01*
X150969739Y-69890261D01*
X150815095Y-69859500D01*
X150815092Y-69859500D01*
X150657408Y-69859500D01*
X150657405Y-69859500D01*
X150502760Y-69890261D01*
X150502748Y-69890264D01*
X150357077Y-69950602D01*
X150357064Y-69950609D01*
X150225375Y-70038602D01*
X150158697Y-70059480D01*
X150156484Y-70059500D01*
X144290307Y-70059500D01*
X144132192Y-70059500D01*
X143979465Y-70100423D01*
X143979464Y-70100423D01*
X143979462Y-70100424D01*
X143979459Y-70100425D01*
X143929346Y-70129359D01*
X143929345Y-70129360D01*
X143894103Y-70149707D01*
X143842535Y-70179479D01*
X143842532Y-70179481D01*
X129173431Y-84848583D01*
X129112108Y-84882068D01*
X129042416Y-84877084D01*
X128986483Y-84835212D01*
X128962066Y-84769748D01*
X128961750Y-84760902D01*
X128961750Y-76043870D01*
X130845750Y-76043870D01*
X130845750Y-76276129D01*
X130882081Y-76505514D01*
X130953851Y-76726400D01*
X131005724Y-76828205D01*
X131059289Y-76933331D01*
X131195801Y-77121224D01*
X131360026Y-77285449D01*
X131547919Y-77421961D01*
X131645686Y-77471776D01*
X131754849Y-77527398D01*
X131754851Y-77527398D01*
X131754854Y-77527400D01*
X131975736Y-77599169D01*
X132093918Y-77617886D01*
X132205121Y-77635500D01*
X132205126Y-77635500D01*
X132437379Y-77635500D01*
X132538752Y-77619443D01*
X132666764Y-77599169D01*
X132887646Y-77527400D01*
X133094581Y-77421961D01*
X133282474Y-77285449D01*
X133446699Y-77121224D01*
X133583211Y-76933331D01*
X133688650Y-76726396D01*
X133760419Y-76505514D01*
X133780693Y-76377502D01*
X133796750Y-76276129D01*
X133796750Y-76043870D01*
X133761081Y-75818668D01*
X133760419Y-75814486D01*
X133688650Y-75593604D01*
X133688648Y-75593601D01*
X133688648Y-75593599D01*
X133583210Y-75386668D01*
X133582287Y-75385397D01*
X133446699Y-75198776D01*
X133282474Y-75034551D01*
X133094581Y-74898039D01*
X132887650Y-74792601D01*
X132666764Y-74720831D01*
X132437379Y-74684500D01*
X132437374Y-74684500D01*
X132205126Y-74684500D01*
X132205121Y-74684500D01*
X131975735Y-74720831D01*
X131754849Y-74792601D01*
X131547918Y-74898039D01*
X131360023Y-75034553D01*
X131195803Y-75198773D01*
X131059289Y-75386668D01*
X130953851Y-75593599D01*
X130882081Y-75814485D01*
X130845750Y-76043870D01*
X128961750Y-76043870D01*
X128961750Y-71043870D01*
X130845750Y-71043870D01*
X130845750Y-71276129D01*
X130882081Y-71505514D01*
X130953851Y-71726400D01*
X131037345Y-71890264D01*
X131059289Y-71933331D01*
X131195801Y-72121224D01*
X131360026Y-72285449D01*
X131547919Y-72421961D01*
X131645686Y-72471776D01*
X131754849Y-72527398D01*
X131754851Y-72527398D01*
X131754854Y-72527400D01*
X131975736Y-72599169D01*
X132093918Y-72617886D01*
X132205121Y-72635500D01*
X132205126Y-72635500D01*
X132437379Y-72635500D01*
X132538752Y-72619443D01*
X132666764Y-72599169D01*
X132887646Y-72527400D01*
X133094581Y-72421961D01*
X133282474Y-72285449D01*
X133446699Y-72121224D01*
X133583211Y-71933331D01*
X133688650Y-71726396D01*
X133760419Y-71505514D01*
X133781978Y-71369394D01*
X133796750Y-71276129D01*
X133796750Y-71043870D01*
X133772933Y-70893497D01*
X133760419Y-70814486D01*
X133688650Y-70593604D01*
X133688648Y-70593601D01*
X133688648Y-70593599D01*
X133603511Y-70426510D01*
X133583211Y-70386669D01*
X133446699Y-70198776D01*
X133282474Y-70034551D01*
X133094581Y-69898039D01*
X133079316Y-69890261D01*
X132887650Y-69792601D01*
X132666764Y-69720831D01*
X132437379Y-69684500D01*
X132437374Y-69684500D01*
X132205126Y-69684500D01*
X132205121Y-69684500D01*
X131975735Y-69720831D01*
X131754849Y-69792601D01*
X131547918Y-69898039D01*
X131360023Y-70034553D01*
X131195803Y-70198773D01*
X131059289Y-70386668D01*
X130953851Y-70593599D01*
X130882081Y-70814485D01*
X130845750Y-71043870D01*
X128961750Y-71043870D01*
X128961750Y-56043624D01*
X128981435Y-55976585D01*
X129034239Y-55930830D01*
X129103397Y-55920886D01*
X129166953Y-55949911D01*
X129200309Y-55996169D01*
X129335479Y-56322497D01*
X129335480Y-56322499D01*
X129335482Y-56322504D01*
X129520761Y-56669137D01*
X129520772Y-56669155D01*
X129739137Y-56995960D01*
X129739147Y-56995974D01*
X129988504Y-57299817D01*
X130266432Y-57577745D01*
X130266437Y-57577749D01*
X130266438Y-57577750D01*
X130570281Y-57827107D01*
X130897101Y-58045482D01*
X130897110Y-58045487D01*
X130897112Y-58045488D01*
X131243745Y-58230767D01*
X131243747Y-58230767D01*
X131243753Y-58230771D01*
X131606897Y-58381190D01*
X131983035Y-58495290D01*
X131983041Y-58495291D01*
X131983044Y-58495292D01*
X131983055Y-58495295D01*
X132368547Y-58571973D01*
X132759718Y-58610500D01*
X132759721Y-58610500D01*
X133152779Y-58610500D01*
X133152782Y-58610500D01*
X133543953Y-58571973D01*
X133618998Y-58557045D01*
X133929444Y-58495295D01*
X133929455Y-58495292D01*
X133929455Y-58495291D01*
X133929465Y-58495290D01*
X134305603Y-58381190D01*
X134668747Y-58230771D01*
X135015399Y-58045482D01*
X135342219Y-57827107D01*
X135646062Y-57577750D01*
X135924000Y-57299812D01*
X136173357Y-56995969D01*
X136391732Y-56669149D01*
X136577021Y-56322497D01*
X136727440Y-55959353D01*
X136841540Y-55583215D01*
X136841542Y-55583205D01*
X136841545Y-55583194D01*
X136918223Y-55197702D01*
X136956750Y-54806528D01*
X136956750Y-54413471D01*
X136918223Y-54022297D01*
X136841545Y-53636805D01*
X136841542Y-53636794D01*
X136841541Y-53636791D01*
X136841540Y-53636785D01*
X136727440Y-53260647D01*
X136577021Y-52897503D01*
X136391732Y-52550851D01*
X136173357Y-52224031D01*
X135924000Y-51920188D01*
X135923999Y-51920187D01*
X135923995Y-51920182D01*
X135646067Y-51642254D01*
X135342224Y-51392897D01*
X135342223Y-51392896D01*
X135342219Y-51392893D01*
X135015399Y-51174518D01*
X135015394Y-51174515D01*
X135015387Y-51174511D01*
X134668754Y-50989232D01*
X134668749Y-50989230D01*
X134342422Y-50854061D01*
X134288019Y-50810220D01*
X134265954Y-50743926D01*
X134283233Y-50676227D01*
X134334370Y-50628616D01*
X134389875Y-50615500D01*
X160732625Y-50615500D01*
X160799664Y-50635185D01*
G37*
G04 #@! TD.AperFunction*
D27*
X128511250Y-50165000D02*
X166611250Y-50165000D01*
X166611250Y-151765000D01*
X128511250Y-151765000D01*
X128511250Y-50165000D01*
M02*
