%TF.GenerationSoftware,KiCad,Pcbnew,9.0.6*%
%TF.CreationDate,2025-12-24T12:44:06-06:00*%
%TF.ProjectId,TVC,5456432e-6b69-4636-9164-5f7063625858,rev?*%
%TF.SameCoordinates,Original*%
%TF.FileFunction,Drillmap*%
%TF.FilePolarity,Positive*%
%FSLAX45Y45*%
G04 Gerber Fmt 4.5, Leading zero omitted, Abs format (unit mm)*
G04 Created by KiCad (PCBNEW 9.0.6) date 2025-12-24 12:44:06*
%MOMM*%
%LPD*%
G01*
G04 APERTURE LIST*
%ADD10C,0.200000*%
%ADD11C,0.100000*%
%ADD12C,0.110000*%
%ADD13C,0.125000*%
%ADD14C,0.130000*%
%ADD15C,0.350000*%
G04 APERTURE END LIST*
D10*
X12851125Y-5016500D02*
X16661125Y-5016500D01*
X16661125Y-15176500D01*
X12851125Y-15176500D01*
X12851125Y-5016500D01*
D11*
X13066000Y-7986000D02*
X13096000Y-8016000D01*
X13096000Y-7986000D02*
X13066000Y-8016000D01*
X13078700Y-14043900D02*
X13108700Y-14073900D01*
X13108700Y-14043900D02*
X13078700Y-14073900D01*
X13091400Y-12888200D02*
X13121400Y-12918200D01*
X13121400Y-12888200D02*
X13091400Y-12918200D01*
X13091400Y-13078700D02*
X13121400Y-13108700D01*
X13121400Y-13078700D02*
X13091400Y-13108700D01*
X13153625Y-9129000D02*
X13183625Y-9159000D01*
X13183625Y-9129000D02*
X13153625Y-9159000D01*
X13180300Y-12469100D02*
X13210300Y-12499100D01*
X13210300Y-12469100D02*
X13180300Y-12499100D01*
X13218400Y-11300700D02*
X13248400Y-11330700D01*
X13248400Y-11300700D02*
X13218400Y-11330700D01*
X13306025Y-9256000D02*
X13336025Y-9286000D01*
X13336025Y-9256000D02*
X13306025Y-9286000D01*
X13408900Y-13294600D02*
X13438900Y-13324600D01*
X13438900Y-13294600D02*
X13408900Y-13324600D01*
X13408900Y-13548600D02*
X13438900Y-13578600D01*
X13438900Y-13548600D02*
X13408900Y-13578600D01*
X13408900Y-13802600D02*
X13438900Y-13832600D01*
X13438900Y-13802600D02*
X13408900Y-13832600D01*
X13472400Y-8163800D02*
X13502400Y-8193800D01*
X13502400Y-8163800D02*
X13472400Y-8193800D01*
X13485100Y-14043900D02*
X13515100Y-14073900D01*
X13515100Y-14043900D02*
X13485100Y-14073900D01*
X13513551Y-9044427D02*
X13543551Y-9074427D01*
X13543551Y-9044427D02*
X13513551Y-9074427D01*
X13598125Y-7952750D02*
X13628125Y-7982750D01*
X13628125Y-7952750D02*
X13598125Y-7982750D01*
X13598125Y-8984427D02*
X13628125Y-9014427D01*
X13628125Y-8984427D02*
X13598125Y-9014427D01*
X13662948Y-8087927D02*
X13692948Y-8117927D01*
X13692948Y-8087927D02*
X13662948Y-8117927D01*
X13662948Y-8937543D02*
X13692948Y-8967543D01*
X13692948Y-8937543D02*
X13662948Y-8967543D01*
X13725125Y-9256000D02*
X13755125Y-9286000D01*
X13755125Y-9256000D02*
X13725125Y-9286000D01*
X13726400Y-14107400D02*
X13756400Y-14137400D01*
X13756400Y-14107400D02*
X13726400Y-14137400D01*
X13751800Y-10195800D02*
X13781800Y-10225800D01*
X13781800Y-10195800D02*
X13751800Y-10225800D01*
X13757125Y-9923000D02*
X13787125Y-9953000D01*
X13787125Y-9923000D02*
X13757125Y-9953000D01*
X13802600Y-8887700D02*
X13832600Y-8917700D01*
X13832600Y-8887700D02*
X13802600Y-8917700D01*
X13802600Y-9014700D02*
X13832600Y-9044700D01*
X13832600Y-9014700D02*
X13802600Y-9044700D01*
X13828000Y-14691600D02*
X13858000Y-14721600D01*
X13858000Y-14691600D02*
X13828000Y-14721600D01*
X13916900Y-8227300D02*
X13946900Y-8257300D01*
X13946900Y-8227300D02*
X13916900Y-8257300D01*
X13955000Y-10932400D02*
X13985000Y-10962400D01*
X13985000Y-10932400D02*
X13955000Y-10962400D01*
X14069300Y-5331700D02*
X14099300Y-5361700D01*
X14099300Y-5331700D02*
X14069300Y-5361700D01*
X14069300Y-6855700D02*
X14099300Y-6885700D01*
X14099300Y-6855700D02*
X14069300Y-6885700D01*
X14069300Y-8354300D02*
X14099300Y-8384300D01*
X14099300Y-8354300D02*
X14069300Y-8384300D01*
X14069300Y-8621000D02*
X14099300Y-8651000D01*
X14099300Y-8621000D02*
X14069300Y-8651000D01*
X14080725Y-8875000D02*
X14110725Y-8905000D01*
X14110725Y-8875000D02*
X14080725Y-8905000D01*
X14106125Y-11376900D02*
X14136125Y-11406900D01*
X14136125Y-11376900D02*
X14106125Y-11406900D01*
X14158200Y-7605000D02*
X14188200Y-7635000D01*
X14188200Y-7605000D02*
X14158200Y-7635000D01*
X14221700Y-15047200D02*
X14251700Y-15077200D01*
X14251700Y-15047200D02*
X14221700Y-15077200D01*
X14233125Y-9336500D02*
X14263125Y-9366500D01*
X14263125Y-9336500D02*
X14233125Y-9366500D01*
X14233125Y-9878300D02*
X14263125Y-9908300D01*
X14263125Y-9878300D02*
X14233125Y-9908300D01*
X14234400Y-8227300D02*
X14264400Y-8257300D01*
X14264400Y-8227300D02*
X14234400Y-8257300D01*
X14259800Y-8036800D02*
X14289800Y-8066800D01*
X14289800Y-8036800D02*
X14259800Y-8066800D01*
X14271225Y-8845250D02*
X14301225Y-8875250D01*
X14301225Y-8845250D02*
X14271225Y-8875250D01*
X14348700Y-8938500D02*
X14378700Y-8968500D01*
X14378700Y-8938500D02*
X14348700Y-8968500D01*
X14360125Y-14463000D02*
X14390125Y-14493000D01*
X14390125Y-14463000D02*
X14360125Y-14493000D01*
X14361400Y-14361400D02*
X14391400Y-14391400D01*
X14391400Y-14361400D02*
X14361400Y-14391400D01*
X14361400Y-14564600D02*
X14391400Y-14594600D01*
X14391400Y-14564600D02*
X14361400Y-14594600D01*
X14386800Y-11135600D02*
X14416800Y-11165600D01*
X14416800Y-11135600D02*
X14386800Y-11165600D01*
X14399500Y-9167100D02*
X14429500Y-9197100D01*
X14429500Y-9167100D02*
X14399500Y-9197100D01*
X14412200Y-9891000D02*
X14442200Y-9921000D01*
X14442200Y-9891000D02*
X14412200Y-9921000D01*
X14412200Y-10462500D02*
X14442200Y-10492500D01*
X14442200Y-10462500D02*
X14412200Y-10492500D01*
X14474425Y-9040100D02*
X14504425Y-9070100D01*
X14504425Y-9040100D02*
X14474425Y-9070100D01*
X14487125Y-14463000D02*
X14517125Y-14493000D01*
X14517125Y-14463000D02*
X14487125Y-14493000D01*
X14488400Y-14361400D02*
X14518400Y-14391400D01*
X14518400Y-14361400D02*
X14488400Y-14391400D01*
X14488400Y-14564600D02*
X14518400Y-14594600D01*
X14518400Y-14564600D02*
X14488400Y-14594600D01*
X14521725Y-8582900D02*
X14551725Y-8612900D01*
X14551725Y-8582900D02*
X14521725Y-8612900D01*
X14537925Y-10805400D02*
X14567925Y-10835400D01*
X14567925Y-10805400D02*
X14537925Y-10835400D01*
X14571125Y-9336500D02*
X14601125Y-9366500D01*
X14601125Y-9336500D02*
X14571125Y-9366500D01*
X14571792Y-8494000D02*
X14601792Y-8524000D01*
X14601792Y-8494000D02*
X14571792Y-8524000D01*
X14571792Y-10145000D02*
X14601792Y-10175000D01*
X14601792Y-10145000D02*
X14571792Y-10175000D01*
X14577300Y-8951200D02*
X14607300Y-8981200D01*
X14607300Y-8951200D02*
X14577300Y-8981200D01*
X14614125Y-14463000D02*
X14644125Y-14493000D01*
X14644125Y-14463000D02*
X14614125Y-14493000D01*
X14615400Y-14361400D02*
X14645400Y-14391400D01*
X14645400Y-14361400D02*
X14615400Y-14391400D01*
X14615400Y-14564600D02*
X14645400Y-14594600D01*
X14645400Y-14564600D02*
X14615400Y-14594600D01*
X14654509Y-9037750D02*
X14684509Y-9067750D01*
X14684509Y-9037750D02*
X14654509Y-9067750D01*
X14677625Y-10805400D02*
X14707625Y-10835400D01*
X14707625Y-10805400D02*
X14677625Y-10835400D01*
X14685139Y-8554702D02*
X14715139Y-8584702D01*
X14715139Y-8554702D02*
X14685139Y-8584702D01*
X14717000Y-6766800D02*
X14747000Y-6796800D01*
X14747000Y-6766800D02*
X14717000Y-6796800D01*
X14719875Y-8980750D02*
X14749875Y-9010750D01*
X14749875Y-8980750D02*
X14719875Y-9010750D01*
X14719875Y-10504750D02*
X14749875Y-10534750D01*
X14749875Y-10504750D02*
X14719875Y-10534750D01*
X14741125Y-7452600D02*
X14771125Y-7482600D01*
X14771125Y-7452600D02*
X14741125Y-7482600D01*
X14741125Y-14463000D02*
X14771125Y-14493000D01*
X14771125Y-14463000D02*
X14741125Y-14493000D01*
X14742400Y-11262600D02*
X14772400Y-11292600D01*
X14772400Y-11262600D02*
X14742400Y-11292600D01*
X14742400Y-11567400D02*
X14772400Y-11597400D01*
X14772400Y-11567400D02*
X14742400Y-11597400D01*
X14742400Y-14361400D02*
X14772400Y-14391400D01*
X14772400Y-14361400D02*
X14742400Y-14391400D01*
X14742400Y-14564600D02*
X14772400Y-14594600D01*
X14772400Y-14564600D02*
X14742400Y-14594600D01*
X14791925Y-9268700D02*
X14821925Y-9298700D01*
X14821925Y-9268700D02*
X14791925Y-9298700D01*
X14804625Y-10504750D02*
X14834625Y-10534750D01*
X14834625Y-10504750D02*
X14804625Y-10534750D01*
X14868125Y-14463000D02*
X14898125Y-14493000D01*
X14898125Y-14463000D02*
X14868125Y-14493000D01*
X14869400Y-14361400D02*
X14899400Y-14391400D01*
X14899400Y-14361400D02*
X14869400Y-14391400D01*
X14869400Y-14564600D02*
X14899400Y-14594600D01*
X14899400Y-14564600D02*
X14869400Y-14594600D01*
X14910125Y-9336500D02*
X14940125Y-9366500D01*
X14940125Y-9336500D02*
X14910125Y-9366500D01*
X14921176Y-10536449D02*
X14951176Y-10566449D01*
X14951176Y-10536449D02*
X14921176Y-10566449D01*
X14969725Y-13535900D02*
X14999725Y-13565900D01*
X14999725Y-13535900D02*
X14969725Y-13565900D01*
X14995125Y-14463000D02*
X15025125Y-14493000D01*
X15025125Y-14463000D02*
X14995125Y-14493000D01*
X14996400Y-14361400D02*
X15026400Y-14391400D01*
X15026400Y-14361400D02*
X14996400Y-14391400D01*
X14996400Y-14564600D02*
X15026400Y-14594600D01*
X15026400Y-14564600D02*
X14996400Y-14594600D01*
X15007825Y-8849600D02*
X15037825Y-8879600D01*
X15037825Y-8849600D02*
X15007825Y-8879600D01*
X15007958Y-9560800D02*
X15037958Y-9590800D01*
X15037958Y-9560800D02*
X15007958Y-9590800D01*
X15058625Y-7051000D02*
X15088625Y-7081000D01*
X15088625Y-7051000D02*
X15058625Y-7081000D01*
X15058625Y-7251000D02*
X15088625Y-7281000D01*
X15088625Y-7251000D02*
X15058625Y-7281000D01*
X15071325Y-7744700D02*
X15101325Y-7774700D01*
X15101325Y-7744700D02*
X15071325Y-7774700D01*
X15071325Y-8278100D02*
X15101325Y-8308100D01*
X15101325Y-8278100D02*
X15071325Y-8308100D01*
X15071325Y-8481300D02*
X15101325Y-8511300D01*
X15101325Y-8481300D02*
X15071325Y-8511300D01*
X15072600Y-7439900D02*
X15102600Y-7469900D01*
X15102600Y-7439900D02*
X15072600Y-7469900D01*
X15122125Y-11275300D02*
X15152125Y-11305300D01*
X15152125Y-11275300D02*
X15122125Y-11305300D01*
X15122125Y-12088100D02*
X15152125Y-12118100D01*
X15152125Y-12088100D02*
X15122125Y-12118100D01*
X15122125Y-14463000D02*
X15152125Y-14493000D01*
X15152125Y-14463000D02*
X15122125Y-14493000D01*
X15123400Y-14361400D02*
X15153400Y-14391400D01*
X15153400Y-14361400D02*
X15123400Y-14391400D01*
X15123400Y-14564600D02*
X15153400Y-14594600D01*
X15153400Y-14564600D02*
X15123400Y-14594600D01*
X15186900Y-8163800D02*
X15216900Y-8193800D01*
X15216900Y-8163800D02*
X15186900Y-8193800D01*
X15249125Y-9336500D02*
X15279125Y-9366500D01*
X15279125Y-9336500D02*
X15249125Y-9366500D01*
X15250400Y-8417800D02*
X15280400Y-8447800D01*
X15280400Y-8417800D02*
X15250400Y-8447800D01*
X15250400Y-8938500D02*
X15280400Y-8968500D01*
X15280400Y-8938500D02*
X15250400Y-8968500D01*
X15288500Y-8163800D02*
X15318500Y-8193800D01*
X15318500Y-8163800D02*
X15288500Y-8193800D01*
X15313900Y-15034500D02*
X15343900Y-15064500D01*
X15343900Y-15034500D02*
X15313900Y-15064500D01*
X15339300Y-6652500D02*
X15369300Y-6682500D01*
X15369300Y-6652500D02*
X15339300Y-6682500D01*
X15390100Y-8951200D02*
X15420100Y-8981200D01*
X15420100Y-8951200D02*
X15390100Y-8981200D01*
X15415500Y-5331700D02*
X15445500Y-5361700D01*
X15445500Y-5331700D02*
X15415500Y-5361700D01*
X15420638Y-8428193D02*
X15450638Y-8458193D01*
X15450638Y-8428193D02*
X15420638Y-8458193D01*
X15479000Y-8163800D02*
X15509000Y-8193800D01*
X15509000Y-8163800D02*
X15479000Y-8193800D01*
X15489515Y-8938500D02*
X15519515Y-8968500D01*
X15519515Y-8938500D02*
X15489515Y-8968500D01*
X15503125Y-8430500D02*
X15533125Y-8460500D01*
X15533125Y-8430500D02*
X15503125Y-8460500D01*
X15566625Y-9002000D02*
X15596625Y-9032000D01*
X15596625Y-9002000D02*
X15566625Y-9032000D01*
X15606000Y-8163800D02*
X15636000Y-8193800D01*
X15636000Y-8163800D02*
X15606000Y-8193800D01*
X15609500Y-8816000D02*
X15639500Y-8846000D01*
X15639500Y-8816000D02*
X15609500Y-8846000D01*
X15631400Y-8519400D02*
X15661400Y-8549400D01*
X15661400Y-8519400D02*
X15631400Y-8549400D01*
X15680925Y-7851000D02*
X15710925Y-7881000D01*
X15710925Y-7851000D02*
X15680925Y-7881000D01*
X15729500Y-8816000D02*
X15759500Y-8846000D01*
X15759500Y-8816000D02*
X15729500Y-8846000D01*
X15746448Y-8610324D02*
X15776448Y-8640324D01*
X15776448Y-8610324D02*
X15746448Y-8640324D01*
X15757125Y-13764500D02*
X15787125Y-13794500D01*
X15787125Y-13764500D02*
X15757125Y-13794500D01*
X15758400Y-7351000D02*
X15788400Y-7381000D01*
X15788400Y-7351000D02*
X15758400Y-7381000D01*
X15820625Y-8722600D02*
X15850625Y-8752600D01*
X15850625Y-8722600D02*
X15820625Y-8752600D01*
X15821900Y-8824200D02*
X15851900Y-8854200D01*
X15851900Y-8824200D02*
X15821900Y-8854200D01*
X15884125Y-11681700D02*
X15914125Y-11711700D01*
X15914125Y-11681700D02*
X15884125Y-11711700D01*
X15884125Y-14272500D02*
X15914125Y-14302500D01*
X15914125Y-14272500D02*
X15884125Y-14302500D01*
X15885400Y-13510500D02*
X15915400Y-13540500D01*
X15915400Y-13510500D02*
X15885400Y-13540500D01*
X15939350Y-8071750D02*
X15969350Y-8101750D01*
X15969350Y-8071750D02*
X15939350Y-8101750D01*
X15947625Y-8595600D02*
X15977625Y-8625600D01*
X15977625Y-8595600D02*
X15947625Y-8625600D01*
X15960325Y-11376900D02*
X15990325Y-11406900D01*
X15990325Y-11376900D02*
X15960325Y-11406900D01*
X16011125Y-8278100D02*
X16041125Y-8308100D01*
X16041125Y-8278100D02*
X16011125Y-8308100D01*
X16061925Y-13459700D02*
X16091925Y-13489700D01*
X16091925Y-13459700D02*
X16061925Y-13489700D01*
X16104725Y-7851000D02*
X16134725Y-7881000D01*
X16134725Y-7851000D02*
X16104725Y-7881000D01*
X16112725Y-12240500D02*
X16142725Y-12270500D01*
X16142725Y-12240500D02*
X16112725Y-12270500D01*
X16127448Y-8430500D02*
X16157448Y-8460500D01*
X16157448Y-8430500D02*
X16127448Y-8460500D01*
X16138125Y-8278100D02*
X16168125Y-8308100D01*
X16168125Y-8278100D02*
X16138125Y-8308100D01*
X16164800Y-9916400D02*
X16194800Y-9946400D01*
X16194800Y-9916400D02*
X16164800Y-9946400D01*
X16228300Y-11783300D02*
X16258300Y-11813300D01*
X16258300Y-11783300D02*
X16228300Y-11813300D01*
X16241000Y-10399000D02*
X16271000Y-10429000D01*
X16271000Y-10399000D02*
X16241000Y-10429000D01*
X16266400Y-12431000D02*
X16296400Y-12461000D01*
X16296400Y-12431000D02*
X16266400Y-12461000D01*
X16290525Y-14145500D02*
X16320525Y-14175500D01*
X16320525Y-14145500D02*
X16290525Y-14175500D01*
X16304500Y-11516600D02*
X16334500Y-11546600D01*
X16334500Y-11516600D02*
X16304500Y-11546600D01*
X16329900Y-7859000D02*
X16359900Y-7889000D01*
X16359900Y-7859000D02*
X16329900Y-7889000D01*
X16329900Y-8455900D02*
X16359900Y-8485900D01*
X16359900Y-8455900D02*
X16329900Y-8485900D01*
X16329900Y-11097500D02*
X16359900Y-11127500D01*
X16359900Y-11097500D02*
X16329900Y-11127500D01*
X16355300Y-9662400D02*
X16385300Y-9692400D01*
X16385300Y-9662400D02*
X16355300Y-9692400D01*
X16379425Y-8557500D02*
X16409425Y-8587500D01*
X16409425Y-8557500D02*
X16379425Y-8587500D01*
X16392125Y-8938500D02*
X16422125Y-8968500D01*
X16422125Y-8938500D02*
X16392125Y-8968500D01*
X16393400Y-13066000D02*
X16423400Y-13096000D01*
X16423400Y-13066000D02*
X16393400Y-13096000D01*
X16520400Y-7935200D02*
X16550400Y-7965200D01*
X16550400Y-7935200D02*
X16520400Y-7965200D01*
X14339125Y-5685500D02*
G75*
G02*
X14293125Y-5685500I-23000J0D01*
G01*
X14293125Y-5685500D02*
G75*
G02*
X14339125Y-5685500I23000J0D01*
G01*
X15215125Y-5685500D02*
G75*
G02*
X15169125Y-5685500I-23000J0D01*
G01*
X15169125Y-5685500D02*
G75*
G02*
X15215125Y-5685500I23000J0D01*
G01*
X13050125Y-12242500D02*
X13050125Y-12322500D01*
X13010125Y-12282500D02*
X13090125Y-12282500D01*
X13050125Y-12442500D02*
X13050125Y-12522500D01*
X13010125Y-12482500D02*
X13090125Y-12482500D01*
X16462125Y-12242500D02*
X16462125Y-12322500D01*
X16422125Y-12282500D02*
X16502125Y-12282500D01*
X16462125Y-12442500D02*
X16462125Y-12522500D01*
X16422125Y-12482500D02*
X16502125Y-12482500D01*
D12*
X14033016Y-11786391D02*
X14033016Y-11708609D01*
X13955234Y-11708609D01*
X13955234Y-11786391D01*
X14033016Y-11786391D01*
X14033016Y-12040391D02*
X14033016Y-11962609D01*
X13955234Y-11962609D01*
X13955234Y-12040391D01*
X14033016Y-12040391D01*
X14033016Y-12294391D02*
X14033016Y-12216609D01*
X13955234Y-12216609D01*
X13955234Y-12294391D01*
X14033016Y-12294391D01*
X14033016Y-12548391D02*
X14033016Y-12470609D01*
X13955234Y-12470609D01*
X13955234Y-12548391D01*
X14033016Y-12548391D01*
X14033016Y-12802391D02*
X14033016Y-12724609D01*
X13955234Y-12724609D01*
X13955234Y-12802391D01*
X14033016Y-12802391D01*
X14033016Y-13056391D02*
X14033016Y-12978609D01*
X13955234Y-12978609D01*
X13955234Y-13056391D01*
X14033016Y-13056391D01*
X14033016Y-13310391D02*
X14033016Y-13232609D01*
X13955234Y-13232609D01*
X13955234Y-13310391D01*
X14033016Y-13310391D01*
X14033016Y-13564391D02*
X14033016Y-13486609D01*
X13955234Y-13486609D01*
X13955234Y-13564391D01*
X14033016Y-13564391D01*
X14033016Y-13818391D02*
X14033016Y-13740609D01*
X13955234Y-13740609D01*
X13955234Y-13818391D01*
X14033016Y-13818391D01*
X14033016Y-14072391D02*
X14033016Y-13994609D01*
X13955234Y-13994609D01*
X13955234Y-14072391D01*
X14033016Y-14072391D01*
X14033016Y-14326391D02*
X14033016Y-14248609D01*
X13955234Y-14248609D01*
X13955234Y-14326391D01*
X14033016Y-14326391D01*
X14033016Y-14580391D02*
X14033016Y-14502609D01*
X13955234Y-14502609D01*
X13955234Y-14580391D01*
X14033016Y-14580391D01*
X14033016Y-14834391D02*
X14033016Y-14756609D01*
X13955234Y-14756609D01*
X13955234Y-14834391D01*
X14033016Y-14834391D01*
X14033016Y-15088391D02*
X14033016Y-15010609D01*
X13955234Y-15010609D01*
X13955234Y-15088391D01*
X14033016Y-15088391D01*
X14287016Y-11786391D02*
X14287016Y-11708609D01*
X14209234Y-11708609D01*
X14209234Y-11786391D01*
X14287016Y-11786391D01*
X14287016Y-12294391D02*
X14287016Y-12216609D01*
X14209234Y-12216609D01*
X14209234Y-12294391D01*
X14287016Y-12294391D01*
X14287016Y-12548391D02*
X14287016Y-12470609D01*
X14209234Y-12470609D01*
X14209234Y-12548391D01*
X14287016Y-12548391D01*
X14287016Y-14834391D02*
X14287016Y-14756609D01*
X14209234Y-14756609D01*
X14209234Y-14834391D01*
X14287016Y-14834391D01*
X14541016Y-11786391D02*
X14541016Y-11708609D01*
X14463234Y-11708609D01*
X14463234Y-11786391D01*
X14541016Y-11786391D01*
X14541016Y-12294391D02*
X14541016Y-12216609D01*
X14463234Y-12216609D01*
X14463234Y-12294391D01*
X14541016Y-12294391D01*
X14541016Y-12548391D02*
X14541016Y-12470609D01*
X14463234Y-12470609D01*
X14463234Y-12548391D01*
X14541016Y-12548391D01*
X14795016Y-11786391D02*
X14795016Y-11708609D01*
X14717234Y-11708609D01*
X14717234Y-11786391D01*
X14795016Y-11786391D01*
X14795016Y-12294391D02*
X14795016Y-12216609D01*
X14717234Y-12216609D01*
X14717234Y-12294391D01*
X14795016Y-12294391D01*
X14795016Y-12548391D02*
X14795016Y-12470609D01*
X14717234Y-12470609D01*
X14717234Y-12548391D01*
X14795016Y-12548391D01*
X15049016Y-11786391D02*
X15049016Y-11708609D01*
X14971234Y-11708609D01*
X14971234Y-11786391D01*
X15049016Y-11786391D01*
X15049016Y-12294391D02*
X15049016Y-12216609D01*
X14971234Y-12216609D01*
X14971234Y-12294391D01*
X15049016Y-12294391D01*
X15049016Y-12548391D02*
X15049016Y-12470609D01*
X14971234Y-12470609D01*
X14971234Y-12548391D01*
X15049016Y-12548391D01*
X15303016Y-11786391D02*
X15303016Y-11708609D01*
X15225234Y-11708609D01*
X15225234Y-11786391D01*
X15303016Y-11786391D01*
X15303016Y-12294391D02*
X15303016Y-12216609D01*
X15225234Y-12216609D01*
X15225234Y-12294391D01*
X15303016Y-12294391D01*
X15303016Y-12548391D02*
X15303016Y-12470609D01*
X15225234Y-12470609D01*
X15225234Y-12548391D01*
X15303016Y-12548391D01*
X15557016Y-11786391D02*
X15557016Y-11708609D01*
X15479234Y-11708609D01*
X15479234Y-11786391D01*
X15557016Y-11786391D01*
X15557016Y-12040391D02*
X15557016Y-11962609D01*
X15479234Y-11962609D01*
X15479234Y-12040391D01*
X15557016Y-12040391D01*
X15557016Y-12294391D02*
X15557016Y-12216609D01*
X15479234Y-12216609D01*
X15479234Y-12294391D01*
X15557016Y-12294391D01*
X15557016Y-12548391D02*
X15557016Y-12470609D01*
X15479234Y-12470609D01*
X15479234Y-12548391D01*
X15557016Y-12548391D01*
X15557016Y-12802391D02*
X15557016Y-12724609D01*
X15479234Y-12724609D01*
X15479234Y-12802391D01*
X15557016Y-12802391D01*
X15557016Y-13056391D02*
X15557016Y-12978609D01*
X15479234Y-12978609D01*
X15479234Y-13056391D01*
X15557016Y-13056391D01*
X15557016Y-13310391D02*
X15557016Y-13232609D01*
X15479234Y-13232609D01*
X15479234Y-13310391D01*
X15557016Y-13310391D01*
X15557016Y-13564391D02*
X15557016Y-13486609D01*
X15479234Y-13486609D01*
X15479234Y-13564391D01*
X15557016Y-13564391D01*
X15557016Y-13818391D02*
X15557016Y-13740609D01*
X15479234Y-13740609D01*
X15479234Y-13818391D01*
X15557016Y-13818391D01*
X15557016Y-14072391D02*
X15557016Y-13994609D01*
X15479234Y-13994609D01*
X15479234Y-14072391D01*
X15557016Y-14072391D01*
X15557016Y-14326391D02*
X15557016Y-14248609D01*
X15479234Y-14248609D01*
X15479234Y-14326391D01*
X15557016Y-14326391D01*
X15557016Y-14580391D02*
X15557016Y-14502609D01*
X15479234Y-14502609D01*
X15479234Y-14580391D01*
X15557016Y-14580391D01*
X15557016Y-14834391D02*
X15557016Y-14756609D01*
X15479234Y-14756609D01*
X15479234Y-14834391D01*
X15557016Y-14834391D01*
X15557016Y-15088391D02*
X15557016Y-15010609D01*
X15479234Y-15010609D01*
X15479234Y-15088391D01*
X15557016Y-15088391D01*
D13*
X13105125Y-13334000D02*
X13167625Y-13271500D01*
X13105125Y-13209000D01*
X13042625Y-13271500D01*
X13105125Y-13334000D01*
X13105125Y-13588000D02*
X13167625Y-13525500D01*
X13105125Y-13463000D01*
X13042625Y-13525500D01*
X13105125Y-13588000D01*
X13105125Y-13842000D02*
X13167625Y-13779500D01*
X13105125Y-13717000D01*
X13042625Y-13779500D01*
X13105125Y-13842000D01*
X16407125Y-13334000D02*
X16469625Y-13271500D01*
X16407125Y-13209000D01*
X16344625Y-13271500D01*
X16407125Y-13334000D01*
X16407125Y-13588000D02*
X16469625Y-13525500D01*
X16407125Y-13463000D01*
X16344625Y-13525500D01*
X16407125Y-13588000D01*
X16407125Y-13842000D02*
X16469625Y-13779500D01*
X16407125Y-13717000D01*
X16344625Y-13779500D01*
X16407125Y-13842000D01*
D14*
X13167125Y-7051000D02*
X13297125Y-7181000D01*
X13297125Y-7051000D02*
X13167125Y-7181000D01*
X13297125Y-7116000D02*
G75*
G02*
X13167125Y-7116000I-65000J0D01*
G01*
X13167125Y-7116000D02*
G75*
G02*
X13297125Y-7116000I65000J0D01*
G01*
X13167125Y-7551000D02*
X13297125Y-7681000D01*
X13297125Y-7551000D02*
X13167125Y-7681000D01*
X13297125Y-7616000D02*
G75*
G02*
X13167125Y-7616000I-65000J0D01*
G01*
X13167125Y-7616000D02*
G75*
G02*
X13297125Y-7616000I65000J0D01*
G01*
X13167125Y-10099000D02*
X13297125Y-10229000D01*
X13297125Y-10099000D02*
X13167125Y-10229000D01*
X13297125Y-10164000D02*
G75*
G02*
X13167125Y-10164000I-65000J0D01*
G01*
X13167125Y-10164000D02*
G75*
G02*
X13297125Y-10164000I65000J0D01*
G01*
X13167125Y-10599000D02*
X13297125Y-10729000D01*
X13297125Y-10599000D02*
X13167125Y-10729000D01*
X13297125Y-10664000D02*
G75*
G02*
X13167125Y-10664000I-65000J0D01*
G01*
X13167125Y-10664000D02*
G75*
G02*
X13297125Y-10664000I65000J0D01*
G01*
X16216400Y-7051000D02*
X16346400Y-7181000D01*
X16346400Y-7051000D02*
X16216400Y-7181000D01*
X16346400Y-7116000D02*
G75*
G02*
X16216400Y-7116000I-65000J0D01*
G01*
X16216400Y-7116000D02*
G75*
G02*
X16346400Y-7116000I65000J0D01*
G01*
X16216400Y-7551000D02*
X16346400Y-7681000D01*
X16346400Y-7551000D02*
X16216400Y-7681000D01*
X16346400Y-7616000D02*
G75*
G02*
X16216400Y-7616000I-65000J0D01*
G01*
X16216400Y-7616000D02*
G75*
G02*
X16346400Y-7616000I65000J0D01*
G01*
X16216400Y-10099000D02*
X16346400Y-10229000D01*
X16346400Y-10099000D02*
X16216400Y-10229000D01*
X16346400Y-10164000D02*
G75*
G02*
X16216400Y-10164000I-65000J0D01*
G01*
X16216400Y-10164000D02*
G75*
G02*
X16346400Y-10164000I65000J0D01*
G01*
X16216400Y-10599000D02*
X16346400Y-10729000D01*
X16346400Y-10599000D02*
X16216400Y-10729000D01*
X16346400Y-10664000D02*
G75*
G02*
X16216400Y-10664000I-65000J0D01*
G01*
X16216400Y-10664000D02*
G75*
G02*
X16346400Y-10664000I65000J0D01*
G01*
D15*
X13120625Y-5286000D02*
X13470625Y-5636000D01*
X13470625Y-5286000D02*
X13120625Y-5636000D01*
X13295625Y-5286000D02*
X13295625Y-5636000D01*
X13120625Y-5461000D02*
X13470625Y-5461000D01*
X13120625Y-14557000D02*
X13470625Y-14907000D01*
X13470625Y-14557000D02*
X13120625Y-14907000D01*
X13295625Y-14557000D02*
X13295625Y-14907000D01*
X13120625Y-14732000D02*
X13470625Y-14732000D01*
X16041625Y-5286000D02*
X16391625Y-5636000D01*
X16391625Y-5286000D02*
X16041625Y-5636000D01*
X16216625Y-5286000D02*
X16216625Y-5636000D01*
X16041625Y-5461000D02*
X16391625Y-5461000D01*
X16041625Y-14557000D02*
X16391625Y-14907000D01*
X16391625Y-14557000D02*
X16041625Y-14907000D01*
X16216625Y-14557000D02*
X16216625Y-14907000D01*
X16041625Y-14732000D02*
X16391625Y-14732000D01*
D10*
X13101902Y-15497984D02*
X13101902Y-15297984D01*
X13101902Y-15297984D02*
X13149521Y-15297984D01*
X13149521Y-15297984D02*
X13178092Y-15307508D01*
X13178092Y-15307508D02*
X13197140Y-15326555D01*
X13197140Y-15326555D02*
X13206664Y-15345603D01*
X13206664Y-15345603D02*
X13216187Y-15383698D01*
X13216187Y-15383698D02*
X13216187Y-15412269D01*
X13216187Y-15412269D02*
X13206664Y-15450365D01*
X13206664Y-15450365D02*
X13197140Y-15469412D01*
X13197140Y-15469412D02*
X13178092Y-15488460D01*
X13178092Y-15488460D02*
X13149521Y-15497984D01*
X13149521Y-15497984D02*
X13101902Y-15497984D01*
X13301902Y-15497984D02*
X13301902Y-15364650D01*
X13301902Y-15402746D02*
X13311426Y-15383698D01*
X13311426Y-15383698D02*
X13320949Y-15374174D01*
X13320949Y-15374174D02*
X13339997Y-15364650D01*
X13339997Y-15364650D02*
X13359045Y-15364650D01*
X13425711Y-15497984D02*
X13425711Y-15364650D01*
X13425711Y-15297984D02*
X13416187Y-15307508D01*
X13416187Y-15307508D02*
X13425711Y-15317031D01*
X13425711Y-15317031D02*
X13435235Y-15307508D01*
X13435235Y-15307508D02*
X13425711Y-15297984D01*
X13425711Y-15297984D02*
X13425711Y-15317031D01*
X13549521Y-15497984D02*
X13530473Y-15488460D01*
X13530473Y-15488460D02*
X13520949Y-15469412D01*
X13520949Y-15469412D02*
X13520949Y-15297984D01*
X13654283Y-15497984D02*
X13635235Y-15488460D01*
X13635235Y-15488460D02*
X13625711Y-15469412D01*
X13625711Y-15469412D02*
X13625711Y-15297984D01*
X13882854Y-15497984D02*
X13882854Y-15297984D01*
X13882854Y-15297984D02*
X13949521Y-15440841D01*
X13949521Y-15440841D02*
X14016187Y-15297984D01*
X14016187Y-15297984D02*
X14016187Y-15497984D01*
X14197140Y-15497984D02*
X14197140Y-15393222D01*
X14197140Y-15393222D02*
X14187616Y-15374174D01*
X14187616Y-15374174D02*
X14168568Y-15364650D01*
X14168568Y-15364650D02*
X14130473Y-15364650D01*
X14130473Y-15364650D02*
X14111426Y-15374174D01*
X14197140Y-15488460D02*
X14178092Y-15497984D01*
X14178092Y-15497984D02*
X14130473Y-15497984D01*
X14130473Y-15497984D02*
X14111426Y-15488460D01*
X14111426Y-15488460D02*
X14101902Y-15469412D01*
X14101902Y-15469412D02*
X14101902Y-15450365D01*
X14101902Y-15450365D02*
X14111426Y-15431317D01*
X14111426Y-15431317D02*
X14130473Y-15421793D01*
X14130473Y-15421793D02*
X14178092Y-15421793D01*
X14178092Y-15421793D02*
X14197140Y-15412269D01*
X14292378Y-15364650D02*
X14292378Y-15564650D01*
X14292378Y-15374174D02*
X14311426Y-15364650D01*
X14311426Y-15364650D02*
X14349521Y-15364650D01*
X14349521Y-15364650D02*
X14368568Y-15374174D01*
X14368568Y-15374174D02*
X14378092Y-15383698D01*
X14378092Y-15383698D02*
X14387616Y-15402746D01*
X14387616Y-15402746D02*
X14387616Y-15459888D01*
X14387616Y-15459888D02*
X14378092Y-15478936D01*
X14378092Y-15478936D02*
X14368568Y-15488460D01*
X14368568Y-15488460D02*
X14349521Y-15497984D01*
X14349521Y-15497984D02*
X14311426Y-15497984D01*
X14311426Y-15497984D02*
X14292378Y-15488460D01*
X14473330Y-15478936D02*
X14482854Y-15488460D01*
X14482854Y-15488460D02*
X14473330Y-15497984D01*
X14473330Y-15497984D02*
X14463807Y-15488460D01*
X14463807Y-15488460D02*
X14473330Y-15478936D01*
X14473330Y-15478936D02*
X14473330Y-15497984D01*
X14473330Y-15374174D02*
X14482854Y-15383698D01*
X14482854Y-15383698D02*
X14473330Y-15393222D01*
X14473330Y-15393222D02*
X14463807Y-15383698D01*
X14463807Y-15383698D02*
X14473330Y-15374174D01*
X14473330Y-15374174D02*
X14473330Y-15393222D01*
D11*
X12811125Y-15811500D02*
X12841125Y-15841500D01*
X12841125Y-15811500D02*
X12811125Y-15841500D01*
D10*
X13139997Y-15717984D02*
X13159045Y-15717984D01*
X13159045Y-15717984D02*
X13178092Y-15727508D01*
X13178092Y-15727508D02*
X13187616Y-15737031D01*
X13187616Y-15737031D02*
X13197140Y-15756079D01*
X13197140Y-15756079D02*
X13206664Y-15794174D01*
X13206664Y-15794174D02*
X13206664Y-15841793D01*
X13206664Y-15841793D02*
X13197140Y-15879888D01*
X13197140Y-15879888D02*
X13187616Y-15898936D01*
X13187616Y-15898936D02*
X13178092Y-15908460D01*
X13178092Y-15908460D02*
X13159045Y-15917984D01*
X13159045Y-15917984D02*
X13139997Y-15917984D01*
X13139997Y-15917984D02*
X13120949Y-15908460D01*
X13120949Y-15908460D02*
X13111426Y-15898936D01*
X13111426Y-15898936D02*
X13101902Y-15879888D01*
X13101902Y-15879888D02*
X13092378Y-15841793D01*
X13092378Y-15841793D02*
X13092378Y-15794174D01*
X13092378Y-15794174D02*
X13101902Y-15756079D01*
X13101902Y-15756079D02*
X13111426Y-15737031D01*
X13111426Y-15737031D02*
X13120949Y-15727508D01*
X13120949Y-15727508D02*
X13139997Y-15717984D01*
X13292378Y-15898936D02*
X13301902Y-15908460D01*
X13301902Y-15908460D02*
X13292378Y-15917984D01*
X13292378Y-15917984D02*
X13282854Y-15908460D01*
X13282854Y-15908460D02*
X13292378Y-15898936D01*
X13292378Y-15898936D02*
X13292378Y-15917984D01*
X13368568Y-15717984D02*
X13492378Y-15717984D01*
X13492378Y-15717984D02*
X13425711Y-15794174D01*
X13425711Y-15794174D02*
X13454283Y-15794174D01*
X13454283Y-15794174D02*
X13473330Y-15803698D01*
X13473330Y-15803698D02*
X13482854Y-15813222D01*
X13482854Y-15813222D02*
X13492378Y-15832269D01*
X13492378Y-15832269D02*
X13492378Y-15879888D01*
X13492378Y-15879888D02*
X13482854Y-15898936D01*
X13482854Y-15898936D02*
X13473330Y-15908460D01*
X13473330Y-15908460D02*
X13454283Y-15917984D01*
X13454283Y-15917984D02*
X13397140Y-15917984D01*
X13397140Y-15917984D02*
X13378092Y-15908460D01*
X13378092Y-15908460D02*
X13368568Y-15898936D01*
X13616187Y-15717984D02*
X13635235Y-15717984D01*
X13635235Y-15717984D02*
X13654283Y-15727508D01*
X13654283Y-15727508D02*
X13663807Y-15737031D01*
X13663807Y-15737031D02*
X13673330Y-15756079D01*
X13673330Y-15756079D02*
X13682854Y-15794174D01*
X13682854Y-15794174D02*
X13682854Y-15841793D01*
X13682854Y-15841793D02*
X13673330Y-15879888D01*
X13673330Y-15879888D02*
X13663807Y-15898936D01*
X13663807Y-15898936D02*
X13654283Y-15908460D01*
X13654283Y-15908460D02*
X13635235Y-15917984D01*
X13635235Y-15917984D02*
X13616187Y-15917984D01*
X13616187Y-15917984D02*
X13597140Y-15908460D01*
X13597140Y-15908460D02*
X13587616Y-15898936D01*
X13587616Y-15898936D02*
X13578092Y-15879888D01*
X13578092Y-15879888D02*
X13568568Y-15841793D01*
X13568568Y-15841793D02*
X13568568Y-15794174D01*
X13568568Y-15794174D02*
X13578092Y-15756079D01*
X13578092Y-15756079D02*
X13587616Y-15737031D01*
X13587616Y-15737031D02*
X13597140Y-15727508D01*
X13597140Y-15727508D02*
X13616187Y-15717984D01*
X13806664Y-15717984D02*
X13825711Y-15717984D01*
X13825711Y-15717984D02*
X13844759Y-15727508D01*
X13844759Y-15727508D02*
X13854283Y-15737031D01*
X13854283Y-15737031D02*
X13863807Y-15756079D01*
X13863807Y-15756079D02*
X13873330Y-15794174D01*
X13873330Y-15794174D02*
X13873330Y-15841793D01*
X13873330Y-15841793D02*
X13863807Y-15879888D01*
X13863807Y-15879888D02*
X13854283Y-15898936D01*
X13854283Y-15898936D02*
X13844759Y-15908460D01*
X13844759Y-15908460D02*
X13825711Y-15917984D01*
X13825711Y-15917984D02*
X13806664Y-15917984D01*
X13806664Y-15917984D02*
X13787616Y-15908460D01*
X13787616Y-15908460D02*
X13778092Y-15898936D01*
X13778092Y-15898936D02*
X13768568Y-15879888D01*
X13768568Y-15879888D02*
X13759045Y-15841793D01*
X13759045Y-15841793D02*
X13759045Y-15794174D01*
X13759045Y-15794174D02*
X13768568Y-15756079D01*
X13768568Y-15756079D02*
X13778092Y-15737031D01*
X13778092Y-15737031D02*
X13787616Y-15727508D01*
X13787616Y-15727508D02*
X13806664Y-15717984D01*
X13959045Y-15917984D02*
X13959045Y-15784650D01*
X13959045Y-15803698D02*
X13968568Y-15794174D01*
X13968568Y-15794174D02*
X13987616Y-15784650D01*
X13987616Y-15784650D02*
X14016188Y-15784650D01*
X14016188Y-15784650D02*
X14035235Y-15794174D01*
X14035235Y-15794174D02*
X14044759Y-15813222D01*
X14044759Y-15813222D02*
X14044759Y-15917984D01*
X14044759Y-15813222D02*
X14054283Y-15794174D01*
X14054283Y-15794174D02*
X14073330Y-15784650D01*
X14073330Y-15784650D02*
X14101902Y-15784650D01*
X14101902Y-15784650D02*
X14120949Y-15794174D01*
X14120949Y-15794174D02*
X14130473Y-15813222D01*
X14130473Y-15813222D02*
X14130473Y-15917984D01*
X14225711Y-15917984D02*
X14225711Y-15784650D01*
X14225711Y-15803698D02*
X14235235Y-15794174D01*
X14235235Y-15794174D02*
X14254283Y-15784650D01*
X14254283Y-15784650D02*
X14282854Y-15784650D01*
X14282854Y-15784650D02*
X14301902Y-15794174D01*
X14301902Y-15794174D02*
X14311426Y-15813222D01*
X14311426Y-15813222D02*
X14311426Y-15917984D01*
X14311426Y-15813222D02*
X14320949Y-15794174D01*
X14320949Y-15794174D02*
X14339997Y-15784650D01*
X14339997Y-15784650D02*
X14368568Y-15784650D01*
X14368568Y-15784650D02*
X14387616Y-15794174D01*
X14387616Y-15794174D02*
X14397140Y-15813222D01*
X14397140Y-15813222D02*
X14397140Y-15917984D01*
X14787616Y-15708460D02*
X14616188Y-15965603D01*
X15044759Y-15717984D02*
X15063807Y-15717984D01*
X15063807Y-15717984D02*
X15082854Y-15727508D01*
X15082854Y-15727508D02*
X15092378Y-15737031D01*
X15092378Y-15737031D02*
X15101902Y-15756079D01*
X15101902Y-15756079D02*
X15111426Y-15794174D01*
X15111426Y-15794174D02*
X15111426Y-15841793D01*
X15111426Y-15841793D02*
X15101902Y-15879888D01*
X15101902Y-15879888D02*
X15092378Y-15898936D01*
X15092378Y-15898936D02*
X15082854Y-15908460D01*
X15082854Y-15908460D02*
X15063807Y-15917984D01*
X15063807Y-15917984D02*
X15044759Y-15917984D01*
X15044759Y-15917984D02*
X15025711Y-15908460D01*
X15025711Y-15908460D02*
X15016188Y-15898936D01*
X15016188Y-15898936D02*
X15006664Y-15879888D01*
X15006664Y-15879888D02*
X14997140Y-15841793D01*
X14997140Y-15841793D02*
X14997140Y-15794174D01*
X14997140Y-15794174D02*
X15006664Y-15756079D01*
X15006664Y-15756079D02*
X15016188Y-15737031D01*
X15016188Y-15737031D02*
X15025711Y-15727508D01*
X15025711Y-15727508D02*
X15044759Y-15717984D01*
X15197140Y-15898936D02*
X15206664Y-15908460D01*
X15206664Y-15908460D02*
X15197140Y-15917984D01*
X15197140Y-15917984D02*
X15187616Y-15908460D01*
X15187616Y-15908460D02*
X15197140Y-15898936D01*
X15197140Y-15898936D02*
X15197140Y-15917984D01*
X15330473Y-15717984D02*
X15349521Y-15717984D01*
X15349521Y-15717984D02*
X15368569Y-15727508D01*
X15368569Y-15727508D02*
X15378092Y-15737031D01*
X15378092Y-15737031D02*
X15387616Y-15756079D01*
X15387616Y-15756079D02*
X15397140Y-15794174D01*
X15397140Y-15794174D02*
X15397140Y-15841793D01*
X15397140Y-15841793D02*
X15387616Y-15879888D01*
X15387616Y-15879888D02*
X15378092Y-15898936D01*
X15378092Y-15898936D02*
X15368569Y-15908460D01*
X15368569Y-15908460D02*
X15349521Y-15917984D01*
X15349521Y-15917984D02*
X15330473Y-15917984D01*
X15330473Y-15917984D02*
X15311426Y-15908460D01*
X15311426Y-15908460D02*
X15301902Y-15898936D01*
X15301902Y-15898936D02*
X15292378Y-15879888D01*
X15292378Y-15879888D02*
X15282854Y-15841793D01*
X15282854Y-15841793D02*
X15282854Y-15794174D01*
X15282854Y-15794174D02*
X15292378Y-15756079D01*
X15292378Y-15756079D02*
X15301902Y-15737031D01*
X15301902Y-15737031D02*
X15311426Y-15727508D01*
X15311426Y-15727508D02*
X15330473Y-15717984D01*
X15587616Y-15917984D02*
X15473331Y-15917984D01*
X15530473Y-15917984D02*
X15530473Y-15717984D01*
X15530473Y-15717984D02*
X15511426Y-15746555D01*
X15511426Y-15746555D02*
X15492378Y-15765603D01*
X15492378Y-15765603D02*
X15473331Y-15775127D01*
X15778092Y-15917984D02*
X15663807Y-15917984D01*
X15720950Y-15917984D02*
X15720950Y-15717984D01*
X15720950Y-15717984D02*
X15701902Y-15746555D01*
X15701902Y-15746555D02*
X15682854Y-15765603D01*
X15682854Y-15765603D02*
X15663807Y-15775127D01*
X15892378Y-15803698D02*
X15873331Y-15794174D01*
X15873331Y-15794174D02*
X15863807Y-15784650D01*
X15863807Y-15784650D02*
X15854283Y-15765603D01*
X15854283Y-15765603D02*
X15854283Y-15756079D01*
X15854283Y-15756079D02*
X15863807Y-15737031D01*
X15863807Y-15737031D02*
X15873331Y-15727508D01*
X15873331Y-15727508D02*
X15892378Y-15717984D01*
X15892378Y-15717984D02*
X15930473Y-15717984D01*
X15930473Y-15717984D02*
X15949521Y-15727508D01*
X15949521Y-15727508D02*
X15959045Y-15737031D01*
X15959045Y-15737031D02*
X15968569Y-15756079D01*
X15968569Y-15756079D02*
X15968569Y-15765603D01*
X15968569Y-15765603D02*
X15959045Y-15784650D01*
X15959045Y-15784650D02*
X15949521Y-15794174D01*
X15949521Y-15794174D02*
X15930473Y-15803698D01*
X15930473Y-15803698D02*
X15892378Y-15803698D01*
X15892378Y-15803698D02*
X15873331Y-15813222D01*
X15873331Y-15813222D02*
X15863807Y-15822746D01*
X15863807Y-15822746D02*
X15854283Y-15841793D01*
X15854283Y-15841793D02*
X15854283Y-15879888D01*
X15854283Y-15879888D02*
X15863807Y-15898936D01*
X15863807Y-15898936D02*
X15873331Y-15908460D01*
X15873331Y-15908460D02*
X15892378Y-15917984D01*
X15892378Y-15917984D02*
X15930473Y-15917984D01*
X15930473Y-15917984D02*
X15949521Y-15908460D01*
X15949521Y-15908460D02*
X15959045Y-15898936D01*
X15959045Y-15898936D02*
X15968569Y-15879888D01*
X15968569Y-15879888D02*
X15968569Y-15841793D01*
X15968569Y-15841793D02*
X15959045Y-15822746D01*
X15959045Y-15822746D02*
X15949521Y-15813222D01*
X15949521Y-15813222D02*
X15930473Y-15803698D01*
X16044759Y-15717984D02*
X16044759Y-15756079D01*
X16120950Y-15717984D02*
X16120950Y-15756079D01*
X16416188Y-15994174D02*
X16406664Y-15984650D01*
X16406664Y-15984650D02*
X16387616Y-15956079D01*
X16387616Y-15956079D02*
X16378093Y-15937031D01*
X16378093Y-15937031D02*
X16368569Y-15908460D01*
X16368569Y-15908460D02*
X16359045Y-15860841D01*
X16359045Y-15860841D02*
X16359045Y-15822746D01*
X16359045Y-15822746D02*
X16368569Y-15775127D01*
X16368569Y-15775127D02*
X16378093Y-15746555D01*
X16378093Y-15746555D02*
X16387616Y-15727508D01*
X16387616Y-15727508D02*
X16406664Y-15698936D01*
X16406664Y-15698936D02*
X16416188Y-15689412D01*
X16597140Y-15917984D02*
X16482854Y-15917984D01*
X16539997Y-15917984D02*
X16539997Y-15717984D01*
X16539997Y-15717984D02*
X16520950Y-15746555D01*
X16520950Y-15746555D02*
X16501902Y-15765603D01*
X16501902Y-15765603D02*
X16482854Y-15775127D01*
X16768569Y-15784650D02*
X16768569Y-15917984D01*
X16720950Y-15708460D02*
X16673331Y-15851317D01*
X16673331Y-15851317D02*
X16797140Y-15851317D01*
X16854283Y-15717984D02*
X16987616Y-15717984D01*
X16987616Y-15717984D02*
X16901902Y-15917984D01*
X17216188Y-15917984D02*
X17216188Y-15717984D01*
X17301902Y-15917984D02*
X17301902Y-15813222D01*
X17301902Y-15813222D02*
X17292378Y-15794174D01*
X17292378Y-15794174D02*
X17273331Y-15784650D01*
X17273331Y-15784650D02*
X17244759Y-15784650D01*
X17244759Y-15784650D02*
X17225712Y-15794174D01*
X17225712Y-15794174D02*
X17216188Y-15803698D01*
X17425712Y-15917984D02*
X17406664Y-15908460D01*
X17406664Y-15908460D02*
X17397140Y-15898936D01*
X17397140Y-15898936D02*
X17387617Y-15879888D01*
X17387617Y-15879888D02*
X17387617Y-15822746D01*
X17387617Y-15822746D02*
X17397140Y-15803698D01*
X17397140Y-15803698D02*
X17406664Y-15794174D01*
X17406664Y-15794174D02*
X17425712Y-15784650D01*
X17425712Y-15784650D02*
X17454283Y-15784650D01*
X17454283Y-15784650D02*
X17473331Y-15794174D01*
X17473331Y-15794174D02*
X17482855Y-15803698D01*
X17482855Y-15803698D02*
X17492378Y-15822746D01*
X17492378Y-15822746D02*
X17492378Y-15879888D01*
X17492378Y-15879888D02*
X17482855Y-15898936D01*
X17482855Y-15898936D02*
X17473331Y-15908460D01*
X17473331Y-15908460D02*
X17454283Y-15917984D01*
X17454283Y-15917984D02*
X17425712Y-15917984D01*
X17606664Y-15917984D02*
X17587617Y-15908460D01*
X17587617Y-15908460D02*
X17578093Y-15889412D01*
X17578093Y-15889412D02*
X17578093Y-15717984D01*
X17759045Y-15908460D02*
X17739998Y-15917984D01*
X17739998Y-15917984D02*
X17701902Y-15917984D01*
X17701902Y-15917984D02*
X17682855Y-15908460D01*
X17682855Y-15908460D02*
X17673331Y-15889412D01*
X17673331Y-15889412D02*
X17673331Y-15813222D01*
X17673331Y-15813222D02*
X17682855Y-15794174D01*
X17682855Y-15794174D02*
X17701902Y-15784650D01*
X17701902Y-15784650D02*
X17739998Y-15784650D01*
X17739998Y-15784650D02*
X17759045Y-15794174D01*
X17759045Y-15794174D02*
X17768569Y-15813222D01*
X17768569Y-15813222D02*
X17768569Y-15832269D01*
X17768569Y-15832269D02*
X17673331Y-15851317D01*
X17844759Y-15908460D02*
X17863807Y-15917984D01*
X17863807Y-15917984D02*
X17901902Y-15917984D01*
X17901902Y-15917984D02*
X17920950Y-15908460D01*
X17920950Y-15908460D02*
X17930474Y-15889412D01*
X17930474Y-15889412D02*
X17930474Y-15879888D01*
X17930474Y-15879888D02*
X17920950Y-15860841D01*
X17920950Y-15860841D02*
X17901902Y-15851317D01*
X17901902Y-15851317D02*
X17873331Y-15851317D01*
X17873331Y-15851317D02*
X17854283Y-15841793D01*
X17854283Y-15841793D02*
X17844759Y-15822746D01*
X17844759Y-15822746D02*
X17844759Y-15813222D01*
X17844759Y-15813222D02*
X17854283Y-15794174D01*
X17854283Y-15794174D02*
X17873331Y-15784650D01*
X17873331Y-15784650D02*
X17901902Y-15784650D01*
X17901902Y-15784650D02*
X17920950Y-15794174D01*
X17997140Y-15994174D02*
X18006664Y-15984650D01*
X18006664Y-15984650D02*
X18025712Y-15956079D01*
X18025712Y-15956079D02*
X18035236Y-15937031D01*
X18035236Y-15937031D02*
X18044759Y-15908460D01*
X18044759Y-15908460D02*
X18054283Y-15860841D01*
X18054283Y-15860841D02*
X18054283Y-15822746D01*
X18054283Y-15822746D02*
X18044759Y-15775127D01*
X18044759Y-15775127D02*
X18035236Y-15746555D01*
X18035236Y-15746555D02*
X18025712Y-15727508D01*
X18025712Y-15727508D02*
X18006664Y-15698936D01*
X18006664Y-15698936D02*
X17997140Y-15689412D01*
D11*
X12841125Y-16090500D02*
G75*
G02*
X12795125Y-16090500I-23000J0D01*
G01*
X12795125Y-16090500D02*
G75*
G02*
X12841125Y-16090500I23000J0D01*
G01*
D10*
X13139997Y-15981984D02*
X13159045Y-15981984D01*
X13159045Y-15981984D02*
X13178092Y-15991508D01*
X13178092Y-15991508D02*
X13187616Y-16001031D01*
X13187616Y-16001031D02*
X13197140Y-16020079D01*
X13197140Y-16020079D02*
X13206664Y-16058174D01*
X13206664Y-16058174D02*
X13206664Y-16105793D01*
X13206664Y-16105793D02*
X13197140Y-16143888D01*
X13197140Y-16143888D02*
X13187616Y-16162936D01*
X13187616Y-16162936D02*
X13178092Y-16172460D01*
X13178092Y-16172460D02*
X13159045Y-16181984D01*
X13159045Y-16181984D02*
X13139997Y-16181984D01*
X13139997Y-16181984D02*
X13120949Y-16172460D01*
X13120949Y-16172460D02*
X13111426Y-16162936D01*
X13111426Y-16162936D02*
X13101902Y-16143888D01*
X13101902Y-16143888D02*
X13092378Y-16105793D01*
X13092378Y-16105793D02*
X13092378Y-16058174D01*
X13092378Y-16058174D02*
X13101902Y-16020079D01*
X13101902Y-16020079D02*
X13111426Y-16001031D01*
X13111426Y-16001031D02*
X13120949Y-15991508D01*
X13120949Y-15991508D02*
X13139997Y-15981984D01*
X13292378Y-16162936D02*
X13301902Y-16172460D01*
X13301902Y-16172460D02*
X13292378Y-16181984D01*
X13292378Y-16181984D02*
X13282854Y-16172460D01*
X13282854Y-16172460D02*
X13292378Y-16162936D01*
X13292378Y-16162936D02*
X13292378Y-16181984D01*
X13473330Y-16048650D02*
X13473330Y-16181984D01*
X13425711Y-15972460D02*
X13378092Y-16115317D01*
X13378092Y-16115317D02*
X13501902Y-16115317D01*
X13663807Y-15981984D02*
X13625711Y-15981984D01*
X13625711Y-15981984D02*
X13606664Y-15991508D01*
X13606664Y-15991508D02*
X13597140Y-16001031D01*
X13597140Y-16001031D02*
X13578092Y-16029603D01*
X13578092Y-16029603D02*
X13568568Y-16067698D01*
X13568568Y-16067698D02*
X13568568Y-16143888D01*
X13568568Y-16143888D02*
X13578092Y-16162936D01*
X13578092Y-16162936D02*
X13587616Y-16172460D01*
X13587616Y-16172460D02*
X13606664Y-16181984D01*
X13606664Y-16181984D02*
X13644759Y-16181984D01*
X13644759Y-16181984D02*
X13663807Y-16172460D01*
X13663807Y-16172460D02*
X13673330Y-16162936D01*
X13673330Y-16162936D02*
X13682854Y-16143888D01*
X13682854Y-16143888D02*
X13682854Y-16096269D01*
X13682854Y-16096269D02*
X13673330Y-16077222D01*
X13673330Y-16077222D02*
X13663807Y-16067698D01*
X13663807Y-16067698D02*
X13644759Y-16058174D01*
X13644759Y-16058174D02*
X13606664Y-16058174D01*
X13606664Y-16058174D02*
X13587616Y-16067698D01*
X13587616Y-16067698D02*
X13578092Y-16077222D01*
X13578092Y-16077222D02*
X13568568Y-16096269D01*
X13806664Y-15981984D02*
X13825711Y-15981984D01*
X13825711Y-15981984D02*
X13844759Y-15991508D01*
X13844759Y-15991508D02*
X13854283Y-16001031D01*
X13854283Y-16001031D02*
X13863807Y-16020079D01*
X13863807Y-16020079D02*
X13873330Y-16058174D01*
X13873330Y-16058174D02*
X13873330Y-16105793D01*
X13873330Y-16105793D02*
X13863807Y-16143888D01*
X13863807Y-16143888D02*
X13854283Y-16162936D01*
X13854283Y-16162936D02*
X13844759Y-16172460D01*
X13844759Y-16172460D02*
X13825711Y-16181984D01*
X13825711Y-16181984D02*
X13806664Y-16181984D01*
X13806664Y-16181984D02*
X13787616Y-16172460D01*
X13787616Y-16172460D02*
X13778092Y-16162936D01*
X13778092Y-16162936D02*
X13768568Y-16143888D01*
X13768568Y-16143888D02*
X13759045Y-16105793D01*
X13759045Y-16105793D02*
X13759045Y-16058174D01*
X13759045Y-16058174D02*
X13768568Y-16020079D01*
X13768568Y-16020079D02*
X13778092Y-16001031D01*
X13778092Y-16001031D02*
X13787616Y-15991508D01*
X13787616Y-15991508D02*
X13806664Y-15981984D01*
X13959045Y-16181984D02*
X13959045Y-16048650D01*
X13959045Y-16067698D02*
X13968568Y-16058174D01*
X13968568Y-16058174D02*
X13987616Y-16048650D01*
X13987616Y-16048650D02*
X14016188Y-16048650D01*
X14016188Y-16048650D02*
X14035235Y-16058174D01*
X14035235Y-16058174D02*
X14044759Y-16077222D01*
X14044759Y-16077222D02*
X14044759Y-16181984D01*
X14044759Y-16077222D02*
X14054283Y-16058174D01*
X14054283Y-16058174D02*
X14073330Y-16048650D01*
X14073330Y-16048650D02*
X14101902Y-16048650D01*
X14101902Y-16048650D02*
X14120949Y-16058174D01*
X14120949Y-16058174D02*
X14130473Y-16077222D01*
X14130473Y-16077222D02*
X14130473Y-16181984D01*
X14225711Y-16181984D02*
X14225711Y-16048650D01*
X14225711Y-16067698D02*
X14235235Y-16058174D01*
X14235235Y-16058174D02*
X14254283Y-16048650D01*
X14254283Y-16048650D02*
X14282854Y-16048650D01*
X14282854Y-16048650D02*
X14301902Y-16058174D01*
X14301902Y-16058174D02*
X14311426Y-16077222D01*
X14311426Y-16077222D02*
X14311426Y-16181984D01*
X14311426Y-16077222D02*
X14320949Y-16058174D01*
X14320949Y-16058174D02*
X14339997Y-16048650D01*
X14339997Y-16048650D02*
X14368568Y-16048650D01*
X14368568Y-16048650D02*
X14387616Y-16058174D01*
X14387616Y-16058174D02*
X14397140Y-16077222D01*
X14397140Y-16077222D02*
X14397140Y-16181984D01*
X14787616Y-15972460D02*
X14616188Y-16229603D01*
X15044759Y-15981984D02*
X15063807Y-15981984D01*
X15063807Y-15981984D02*
X15082854Y-15991508D01*
X15082854Y-15991508D02*
X15092378Y-16001031D01*
X15092378Y-16001031D02*
X15101902Y-16020079D01*
X15101902Y-16020079D02*
X15111426Y-16058174D01*
X15111426Y-16058174D02*
X15111426Y-16105793D01*
X15111426Y-16105793D02*
X15101902Y-16143888D01*
X15101902Y-16143888D02*
X15092378Y-16162936D01*
X15092378Y-16162936D02*
X15082854Y-16172460D01*
X15082854Y-16172460D02*
X15063807Y-16181984D01*
X15063807Y-16181984D02*
X15044759Y-16181984D01*
X15044759Y-16181984D02*
X15025711Y-16172460D01*
X15025711Y-16172460D02*
X15016188Y-16162936D01*
X15016188Y-16162936D02*
X15006664Y-16143888D01*
X15006664Y-16143888D02*
X14997140Y-16105793D01*
X14997140Y-16105793D02*
X14997140Y-16058174D01*
X14997140Y-16058174D02*
X15006664Y-16020079D01*
X15006664Y-16020079D02*
X15016188Y-16001031D01*
X15016188Y-16001031D02*
X15025711Y-15991508D01*
X15025711Y-15991508D02*
X15044759Y-15981984D01*
X15197140Y-16162936D02*
X15206664Y-16172460D01*
X15206664Y-16172460D02*
X15197140Y-16181984D01*
X15197140Y-16181984D02*
X15187616Y-16172460D01*
X15187616Y-16172460D02*
X15197140Y-16162936D01*
X15197140Y-16162936D02*
X15197140Y-16181984D01*
X15330473Y-15981984D02*
X15349521Y-15981984D01*
X15349521Y-15981984D02*
X15368569Y-15991508D01*
X15368569Y-15991508D02*
X15378092Y-16001031D01*
X15378092Y-16001031D02*
X15387616Y-16020079D01*
X15387616Y-16020079D02*
X15397140Y-16058174D01*
X15397140Y-16058174D02*
X15397140Y-16105793D01*
X15397140Y-16105793D02*
X15387616Y-16143888D01*
X15387616Y-16143888D02*
X15378092Y-16162936D01*
X15378092Y-16162936D02*
X15368569Y-16172460D01*
X15368569Y-16172460D02*
X15349521Y-16181984D01*
X15349521Y-16181984D02*
X15330473Y-16181984D01*
X15330473Y-16181984D02*
X15311426Y-16172460D01*
X15311426Y-16172460D02*
X15301902Y-16162936D01*
X15301902Y-16162936D02*
X15292378Y-16143888D01*
X15292378Y-16143888D02*
X15282854Y-16105793D01*
X15282854Y-16105793D02*
X15282854Y-16058174D01*
X15282854Y-16058174D02*
X15292378Y-16020079D01*
X15292378Y-16020079D02*
X15301902Y-16001031D01*
X15301902Y-16001031D02*
X15311426Y-15991508D01*
X15311426Y-15991508D02*
X15330473Y-15981984D01*
X15587616Y-16181984D02*
X15473331Y-16181984D01*
X15530473Y-16181984D02*
X15530473Y-15981984D01*
X15530473Y-15981984D02*
X15511426Y-16010555D01*
X15511426Y-16010555D02*
X15492378Y-16029603D01*
X15492378Y-16029603D02*
X15473331Y-16039127D01*
X15701902Y-16067698D02*
X15682854Y-16058174D01*
X15682854Y-16058174D02*
X15673331Y-16048650D01*
X15673331Y-16048650D02*
X15663807Y-16029603D01*
X15663807Y-16029603D02*
X15663807Y-16020079D01*
X15663807Y-16020079D02*
X15673331Y-16001031D01*
X15673331Y-16001031D02*
X15682854Y-15991508D01*
X15682854Y-15991508D02*
X15701902Y-15981984D01*
X15701902Y-15981984D02*
X15739997Y-15981984D01*
X15739997Y-15981984D02*
X15759045Y-15991508D01*
X15759045Y-15991508D02*
X15768569Y-16001031D01*
X15768569Y-16001031D02*
X15778092Y-16020079D01*
X15778092Y-16020079D02*
X15778092Y-16029603D01*
X15778092Y-16029603D02*
X15768569Y-16048650D01*
X15768569Y-16048650D02*
X15759045Y-16058174D01*
X15759045Y-16058174D02*
X15739997Y-16067698D01*
X15739997Y-16067698D02*
X15701902Y-16067698D01*
X15701902Y-16067698D02*
X15682854Y-16077222D01*
X15682854Y-16077222D02*
X15673331Y-16086746D01*
X15673331Y-16086746D02*
X15663807Y-16105793D01*
X15663807Y-16105793D02*
X15663807Y-16143888D01*
X15663807Y-16143888D02*
X15673331Y-16162936D01*
X15673331Y-16162936D02*
X15682854Y-16172460D01*
X15682854Y-16172460D02*
X15701902Y-16181984D01*
X15701902Y-16181984D02*
X15739997Y-16181984D01*
X15739997Y-16181984D02*
X15759045Y-16172460D01*
X15759045Y-16172460D02*
X15768569Y-16162936D01*
X15768569Y-16162936D02*
X15778092Y-16143888D01*
X15778092Y-16143888D02*
X15778092Y-16105793D01*
X15778092Y-16105793D02*
X15768569Y-16086746D01*
X15768569Y-16086746D02*
X15759045Y-16077222D01*
X15759045Y-16077222D02*
X15739997Y-16067698D01*
X15968569Y-16181984D02*
X15854283Y-16181984D01*
X15911426Y-16181984D02*
X15911426Y-15981984D01*
X15911426Y-15981984D02*
X15892378Y-16010555D01*
X15892378Y-16010555D02*
X15873331Y-16029603D01*
X15873331Y-16029603D02*
X15854283Y-16039127D01*
X16044759Y-15981984D02*
X16044759Y-16020079D01*
X16120950Y-15981984D02*
X16120950Y-16020079D01*
X16416188Y-16258174D02*
X16406664Y-16248650D01*
X16406664Y-16248650D02*
X16387616Y-16220079D01*
X16387616Y-16220079D02*
X16378093Y-16201031D01*
X16378093Y-16201031D02*
X16368569Y-16172460D01*
X16368569Y-16172460D02*
X16359045Y-16124841D01*
X16359045Y-16124841D02*
X16359045Y-16086746D01*
X16359045Y-16086746D02*
X16368569Y-16039127D01*
X16368569Y-16039127D02*
X16378093Y-16010555D01*
X16378093Y-16010555D02*
X16387616Y-15991508D01*
X16387616Y-15991508D02*
X16406664Y-15962936D01*
X16406664Y-15962936D02*
X16416188Y-15953412D01*
X16482854Y-16001031D02*
X16492378Y-15991508D01*
X16492378Y-15991508D02*
X16511426Y-15981984D01*
X16511426Y-15981984D02*
X16559045Y-15981984D01*
X16559045Y-15981984D02*
X16578093Y-15991508D01*
X16578093Y-15991508D02*
X16587616Y-16001031D01*
X16587616Y-16001031D02*
X16597140Y-16020079D01*
X16597140Y-16020079D02*
X16597140Y-16039127D01*
X16597140Y-16039127D02*
X16587616Y-16067698D01*
X16587616Y-16067698D02*
X16473331Y-16181984D01*
X16473331Y-16181984D02*
X16597140Y-16181984D01*
X16835236Y-16181984D02*
X16835236Y-15981984D01*
X16920950Y-16181984D02*
X16920950Y-16077222D01*
X16920950Y-16077222D02*
X16911426Y-16058174D01*
X16911426Y-16058174D02*
X16892378Y-16048650D01*
X16892378Y-16048650D02*
X16863807Y-16048650D01*
X16863807Y-16048650D02*
X16844759Y-16058174D01*
X16844759Y-16058174D02*
X16835236Y-16067698D01*
X17044759Y-16181984D02*
X17025712Y-16172460D01*
X17025712Y-16172460D02*
X17016188Y-16162936D01*
X17016188Y-16162936D02*
X17006664Y-16143888D01*
X17006664Y-16143888D02*
X17006664Y-16086746D01*
X17006664Y-16086746D02*
X17016188Y-16067698D01*
X17016188Y-16067698D02*
X17025712Y-16058174D01*
X17025712Y-16058174D02*
X17044759Y-16048650D01*
X17044759Y-16048650D02*
X17073331Y-16048650D01*
X17073331Y-16048650D02*
X17092378Y-16058174D01*
X17092378Y-16058174D02*
X17101902Y-16067698D01*
X17101902Y-16067698D02*
X17111426Y-16086746D01*
X17111426Y-16086746D02*
X17111426Y-16143888D01*
X17111426Y-16143888D02*
X17101902Y-16162936D01*
X17101902Y-16162936D02*
X17092378Y-16172460D01*
X17092378Y-16172460D02*
X17073331Y-16181984D01*
X17073331Y-16181984D02*
X17044759Y-16181984D01*
X17225712Y-16181984D02*
X17206664Y-16172460D01*
X17206664Y-16172460D02*
X17197140Y-16153412D01*
X17197140Y-16153412D02*
X17197140Y-15981984D01*
X17378093Y-16172460D02*
X17359045Y-16181984D01*
X17359045Y-16181984D02*
X17320950Y-16181984D01*
X17320950Y-16181984D02*
X17301902Y-16172460D01*
X17301902Y-16172460D02*
X17292378Y-16153412D01*
X17292378Y-16153412D02*
X17292378Y-16077222D01*
X17292378Y-16077222D02*
X17301902Y-16058174D01*
X17301902Y-16058174D02*
X17320950Y-16048650D01*
X17320950Y-16048650D02*
X17359045Y-16048650D01*
X17359045Y-16048650D02*
X17378093Y-16058174D01*
X17378093Y-16058174D02*
X17387617Y-16077222D01*
X17387617Y-16077222D02*
X17387617Y-16096269D01*
X17387617Y-16096269D02*
X17292378Y-16115317D01*
X17463807Y-16172460D02*
X17482855Y-16181984D01*
X17482855Y-16181984D02*
X17520950Y-16181984D01*
X17520950Y-16181984D02*
X17539998Y-16172460D01*
X17539998Y-16172460D02*
X17549521Y-16153412D01*
X17549521Y-16153412D02*
X17549521Y-16143888D01*
X17549521Y-16143888D02*
X17539998Y-16124841D01*
X17539998Y-16124841D02*
X17520950Y-16115317D01*
X17520950Y-16115317D02*
X17492378Y-16115317D01*
X17492378Y-16115317D02*
X17473331Y-16105793D01*
X17473331Y-16105793D02*
X17463807Y-16086746D01*
X17463807Y-16086746D02*
X17463807Y-16077222D01*
X17463807Y-16077222D02*
X17473331Y-16058174D01*
X17473331Y-16058174D02*
X17492378Y-16048650D01*
X17492378Y-16048650D02*
X17520950Y-16048650D01*
X17520950Y-16048650D02*
X17539998Y-16058174D01*
X17616188Y-16258174D02*
X17625712Y-16248650D01*
X17625712Y-16248650D02*
X17644759Y-16220079D01*
X17644759Y-16220079D02*
X17654283Y-16201031D01*
X17654283Y-16201031D02*
X17663807Y-16172460D01*
X17663807Y-16172460D02*
X17673331Y-16124841D01*
X17673331Y-16124841D02*
X17673331Y-16086746D01*
X17673331Y-16086746D02*
X17663807Y-16039127D01*
X17663807Y-16039127D02*
X17654283Y-16010555D01*
X17654283Y-16010555D02*
X17644759Y-15991508D01*
X17644759Y-15991508D02*
X17625712Y-15962936D01*
X17625712Y-15962936D02*
X17616188Y-15953412D01*
D11*
X12801125Y-16314500D02*
X12801125Y-16394500D01*
X12761125Y-16354500D02*
X12841125Y-16354500D01*
D10*
X13139997Y-16245984D02*
X13159045Y-16245984D01*
X13159045Y-16245984D02*
X13178092Y-16255508D01*
X13178092Y-16255508D02*
X13187616Y-16265031D01*
X13187616Y-16265031D02*
X13197140Y-16284079D01*
X13197140Y-16284079D02*
X13206664Y-16322174D01*
X13206664Y-16322174D02*
X13206664Y-16369793D01*
X13206664Y-16369793D02*
X13197140Y-16407888D01*
X13197140Y-16407888D02*
X13187616Y-16426936D01*
X13187616Y-16426936D02*
X13178092Y-16436460D01*
X13178092Y-16436460D02*
X13159045Y-16445984D01*
X13159045Y-16445984D02*
X13139997Y-16445984D01*
X13139997Y-16445984D02*
X13120949Y-16436460D01*
X13120949Y-16436460D02*
X13111426Y-16426936D01*
X13111426Y-16426936D02*
X13101902Y-16407888D01*
X13101902Y-16407888D02*
X13092378Y-16369793D01*
X13092378Y-16369793D02*
X13092378Y-16322174D01*
X13092378Y-16322174D02*
X13101902Y-16284079D01*
X13101902Y-16284079D02*
X13111426Y-16265031D01*
X13111426Y-16265031D02*
X13120949Y-16255508D01*
X13120949Y-16255508D02*
X13139997Y-16245984D01*
X13292378Y-16426936D02*
X13301902Y-16436460D01*
X13301902Y-16436460D02*
X13292378Y-16445984D01*
X13292378Y-16445984D02*
X13282854Y-16436460D01*
X13282854Y-16436460D02*
X13292378Y-16426936D01*
X13292378Y-16426936D02*
X13292378Y-16445984D01*
X13416187Y-16331698D02*
X13397140Y-16322174D01*
X13397140Y-16322174D02*
X13387616Y-16312650D01*
X13387616Y-16312650D02*
X13378092Y-16293603D01*
X13378092Y-16293603D02*
X13378092Y-16284079D01*
X13378092Y-16284079D02*
X13387616Y-16265031D01*
X13387616Y-16265031D02*
X13397140Y-16255508D01*
X13397140Y-16255508D02*
X13416187Y-16245984D01*
X13416187Y-16245984D02*
X13454283Y-16245984D01*
X13454283Y-16245984D02*
X13473330Y-16255508D01*
X13473330Y-16255508D02*
X13482854Y-16265031D01*
X13482854Y-16265031D02*
X13492378Y-16284079D01*
X13492378Y-16284079D02*
X13492378Y-16293603D01*
X13492378Y-16293603D02*
X13482854Y-16312650D01*
X13482854Y-16312650D02*
X13473330Y-16322174D01*
X13473330Y-16322174D02*
X13454283Y-16331698D01*
X13454283Y-16331698D02*
X13416187Y-16331698D01*
X13416187Y-16331698D02*
X13397140Y-16341222D01*
X13397140Y-16341222D02*
X13387616Y-16350746D01*
X13387616Y-16350746D02*
X13378092Y-16369793D01*
X13378092Y-16369793D02*
X13378092Y-16407888D01*
X13378092Y-16407888D02*
X13387616Y-16426936D01*
X13387616Y-16426936D02*
X13397140Y-16436460D01*
X13397140Y-16436460D02*
X13416187Y-16445984D01*
X13416187Y-16445984D02*
X13454283Y-16445984D01*
X13454283Y-16445984D02*
X13473330Y-16436460D01*
X13473330Y-16436460D02*
X13482854Y-16426936D01*
X13482854Y-16426936D02*
X13492378Y-16407888D01*
X13492378Y-16407888D02*
X13492378Y-16369793D01*
X13492378Y-16369793D02*
X13482854Y-16350746D01*
X13482854Y-16350746D02*
X13473330Y-16341222D01*
X13473330Y-16341222D02*
X13454283Y-16331698D01*
X13616187Y-16245984D02*
X13635235Y-16245984D01*
X13635235Y-16245984D02*
X13654283Y-16255508D01*
X13654283Y-16255508D02*
X13663807Y-16265031D01*
X13663807Y-16265031D02*
X13673330Y-16284079D01*
X13673330Y-16284079D02*
X13682854Y-16322174D01*
X13682854Y-16322174D02*
X13682854Y-16369793D01*
X13682854Y-16369793D02*
X13673330Y-16407888D01*
X13673330Y-16407888D02*
X13663807Y-16426936D01*
X13663807Y-16426936D02*
X13654283Y-16436460D01*
X13654283Y-16436460D02*
X13635235Y-16445984D01*
X13635235Y-16445984D02*
X13616187Y-16445984D01*
X13616187Y-16445984D02*
X13597140Y-16436460D01*
X13597140Y-16436460D02*
X13587616Y-16426936D01*
X13587616Y-16426936D02*
X13578092Y-16407888D01*
X13578092Y-16407888D02*
X13568568Y-16369793D01*
X13568568Y-16369793D02*
X13568568Y-16322174D01*
X13568568Y-16322174D02*
X13578092Y-16284079D01*
X13578092Y-16284079D02*
X13587616Y-16265031D01*
X13587616Y-16265031D02*
X13597140Y-16255508D01*
X13597140Y-16255508D02*
X13616187Y-16245984D01*
X13806664Y-16245984D02*
X13825711Y-16245984D01*
X13825711Y-16245984D02*
X13844759Y-16255508D01*
X13844759Y-16255508D02*
X13854283Y-16265031D01*
X13854283Y-16265031D02*
X13863807Y-16284079D01*
X13863807Y-16284079D02*
X13873330Y-16322174D01*
X13873330Y-16322174D02*
X13873330Y-16369793D01*
X13873330Y-16369793D02*
X13863807Y-16407888D01*
X13863807Y-16407888D02*
X13854283Y-16426936D01*
X13854283Y-16426936D02*
X13844759Y-16436460D01*
X13844759Y-16436460D02*
X13825711Y-16445984D01*
X13825711Y-16445984D02*
X13806664Y-16445984D01*
X13806664Y-16445984D02*
X13787616Y-16436460D01*
X13787616Y-16436460D02*
X13778092Y-16426936D01*
X13778092Y-16426936D02*
X13768568Y-16407888D01*
X13768568Y-16407888D02*
X13759045Y-16369793D01*
X13759045Y-16369793D02*
X13759045Y-16322174D01*
X13759045Y-16322174D02*
X13768568Y-16284079D01*
X13768568Y-16284079D02*
X13778092Y-16265031D01*
X13778092Y-16265031D02*
X13787616Y-16255508D01*
X13787616Y-16255508D02*
X13806664Y-16245984D01*
X13959045Y-16445984D02*
X13959045Y-16312650D01*
X13959045Y-16331698D02*
X13968568Y-16322174D01*
X13968568Y-16322174D02*
X13987616Y-16312650D01*
X13987616Y-16312650D02*
X14016188Y-16312650D01*
X14016188Y-16312650D02*
X14035235Y-16322174D01*
X14035235Y-16322174D02*
X14044759Y-16341222D01*
X14044759Y-16341222D02*
X14044759Y-16445984D01*
X14044759Y-16341222D02*
X14054283Y-16322174D01*
X14054283Y-16322174D02*
X14073330Y-16312650D01*
X14073330Y-16312650D02*
X14101902Y-16312650D01*
X14101902Y-16312650D02*
X14120949Y-16322174D01*
X14120949Y-16322174D02*
X14130473Y-16341222D01*
X14130473Y-16341222D02*
X14130473Y-16445984D01*
X14225711Y-16445984D02*
X14225711Y-16312650D01*
X14225711Y-16331698D02*
X14235235Y-16322174D01*
X14235235Y-16322174D02*
X14254283Y-16312650D01*
X14254283Y-16312650D02*
X14282854Y-16312650D01*
X14282854Y-16312650D02*
X14301902Y-16322174D01*
X14301902Y-16322174D02*
X14311426Y-16341222D01*
X14311426Y-16341222D02*
X14311426Y-16445984D01*
X14311426Y-16341222D02*
X14320949Y-16322174D01*
X14320949Y-16322174D02*
X14339997Y-16312650D01*
X14339997Y-16312650D02*
X14368568Y-16312650D01*
X14368568Y-16312650D02*
X14387616Y-16322174D01*
X14387616Y-16322174D02*
X14397140Y-16341222D01*
X14397140Y-16341222D02*
X14397140Y-16445984D01*
X14787616Y-16236460D02*
X14616188Y-16493603D01*
X15044759Y-16245984D02*
X15063807Y-16245984D01*
X15063807Y-16245984D02*
X15082854Y-16255508D01*
X15082854Y-16255508D02*
X15092378Y-16265031D01*
X15092378Y-16265031D02*
X15101902Y-16284079D01*
X15101902Y-16284079D02*
X15111426Y-16322174D01*
X15111426Y-16322174D02*
X15111426Y-16369793D01*
X15111426Y-16369793D02*
X15101902Y-16407888D01*
X15101902Y-16407888D02*
X15092378Y-16426936D01*
X15092378Y-16426936D02*
X15082854Y-16436460D01*
X15082854Y-16436460D02*
X15063807Y-16445984D01*
X15063807Y-16445984D02*
X15044759Y-16445984D01*
X15044759Y-16445984D02*
X15025711Y-16436460D01*
X15025711Y-16436460D02*
X15016188Y-16426936D01*
X15016188Y-16426936D02*
X15006664Y-16407888D01*
X15006664Y-16407888D02*
X14997140Y-16369793D01*
X14997140Y-16369793D02*
X14997140Y-16322174D01*
X14997140Y-16322174D02*
X15006664Y-16284079D01*
X15006664Y-16284079D02*
X15016188Y-16265031D01*
X15016188Y-16265031D02*
X15025711Y-16255508D01*
X15025711Y-16255508D02*
X15044759Y-16245984D01*
X15197140Y-16426936D02*
X15206664Y-16436460D01*
X15206664Y-16436460D02*
X15197140Y-16445984D01*
X15197140Y-16445984D02*
X15187616Y-16436460D01*
X15187616Y-16436460D02*
X15197140Y-16426936D01*
X15197140Y-16426936D02*
X15197140Y-16445984D01*
X15330473Y-16245984D02*
X15349521Y-16245984D01*
X15349521Y-16245984D02*
X15368569Y-16255508D01*
X15368569Y-16255508D02*
X15378092Y-16265031D01*
X15378092Y-16265031D02*
X15387616Y-16284079D01*
X15387616Y-16284079D02*
X15397140Y-16322174D01*
X15397140Y-16322174D02*
X15397140Y-16369793D01*
X15397140Y-16369793D02*
X15387616Y-16407888D01*
X15387616Y-16407888D02*
X15378092Y-16426936D01*
X15378092Y-16426936D02*
X15368569Y-16436460D01*
X15368569Y-16436460D02*
X15349521Y-16445984D01*
X15349521Y-16445984D02*
X15330473Y-16445984D01*
X15330473Y-16445984D02*
X15311426Y-16436460D01*
X15311426Y-16436460D02*
X15301902Y-16426936D01*
X15301902Y-16426936D02*
X15292378Y-16407888D01*
X15292378Y-16407888D02*
X15282854Y-16369793D01*
X15282854Y-16369793D02*
X15282854Y-16322174D01*
X15282854Y-16322174D02*
X15292378Y-16284079D01*
X15292378Y-16284079D02*
X15301902Y-16265031D01*
X15301902Y-16265031D02*
X15311426Y-16255508D01*
X15311426Y-16255508D02*
X15330473Y-16245984D01*
X15463807Y-16245984D02*
X15587616Y-16245984D01*
X15587616Y-16245984D02*
X15520950Y-16322174D01*
X15520950Y-16322174D02*
X15549521Y-16322174D01*
X15549521Y-16322174D02*
X15568569Y-16331698D01*
X15568569Y-16331698D02*
X15578092Y-16341222D01*
X15578092Y-16341222D02*
X15587616Y-16360269D01*
X15587616Y-16360269D02*
X15587616Y-16407888D01*
X15587616Y-16407888D02*
X15578092Y-16426936D01*
X15578092Y-16426936D02*
X15568569Y-16436460D01*
X15568569Y-16436460D02*
X15549521Y-16445984D01*
X15549521Y-16445984D02*
X15492378Y-16445984D01*
X15492378Y-16445984D02*
X15473331Y-16436460D01*
X15473331Y-16436460D02*
X15463807Y-16426936D01*
X15778092Y-16445984D02*
X15663807Y-16445984D01*
X15720950Y-16445984D02*
X15720950Y-16245984D01*
X15720950Y-16245984D02*
X15701902Y-16274555D01*
X15701902Y-16274555D02*
X15682854Y-16293603D01*
X15682854Y-16293603D02*
X15663807Y-16303127D01*
X15959045Y-16245984D02*
X15863807Y-16245984D01*
X15863807Y-16245984D02*
X15854283Y-16341222D01*
X15854283Y-16341222D02*
X15863807Y-16331698D01*
X15863807Y-16331698D02*
X15882854Y-16322174D01*
X15882854Y-16322174D02*
X15930473Y-16322174D01*
X15930473Y-16322174D02*
X15949521Y-16331698D01*
X15949521Y-16331698D02*
X15959045Y-16341222D01*
X15959045Y-16341222D02*
X15968569Y-16360269D01*
X15968569Y-16360269D02*
X15968569Y-16407888D01*
X15968569Y-16407888D02*
X15959045Y-16426936D01*
X15959045Y-16426936D02*
X15949521Y-16436460D01*
X15949521Y-16436460D02*
X15930473Y-16445984D01*
X15930473Y-16445984D02*
X15882854Y-16445984D01*
X15882854Y-16445984D02*
X15863807Y-16436460D01*
X15863807Y-16436460D02*
X15854283Y-16426936D01*
X16044759Y-16245984D02*
X16044759Y-16284079D01*
X16120950Y-16245984D02*
X16120950Y-16284079D01*
X16416188Y-16522174D02*
X16406664Y-16512650D01*
X16406664Y-16512650D02*
X16387616Y-16484079D01*
X16387616Y-16484079D02*
X16378093Y-16465031D01*
X16378093Y-16465031D02*
X16368569Y-16436460D01*
X16368569Y-16436460D02*
X16359045Y-16388841D01*
X16359045Y-16388841D02*
X16359045Y-16350746D01*
X16359045Y-16350746D02*
X16368569Y-16303127D01*
X16368569Y-16303127D02*
X16378093Y-16274555D01*
X16378093Y-16274555D02*
X16387616Y-16255508D01*
X16387616Y-16255508D02*
X16406664Y-16226936D01*
X16406664Y-16226936D02*
X16416188Y-16217412D01*
X16578093Y-16312650D02*
X16578093Y-16445984D01*
X16530473Y-16236460D02*
X16482854Y-16379317D01*
X16482854Y-16379317D02*
X16606664Y-16379317D01*
X16835236Y-16445984D02*
X16835236Y-16245984D01*
X16920950Y-16445984D02*
X16920950Y-16341222D01*
X16920950Y-16341222D02*
X16911426Y-16322174D01*
X16911426Y-16322174D02*
X16892378Y-16312650D01*
X16892378Y-16312650D02*
X16863807Y-16312650D01*
X16863807Y-16312650D02*
X16844759Y-16322174D01*
X16844759Y-16322174D02*
X16835236Y-16331698D01*
X17044759Y-16445984D02*
X17025712Y-16436460D01*
X17025712Y-16436460D02*
X17016188Y-16426936D01*
X17016188Y-16426936D02*
X17006664Y-16407888D01*
X17006664Y-16407888D02*
X17006664Y-16350746D01*
X17006664Y-16350746D02*
X17016188Y-16331698D01*
X17016188Y-16331698D02*
X17025712Y-16322174D01*
X17025712Y-16322174D02*
X17044759Y-16312650D01*
X17044759Y-16312650D02*
X17073331Y-16312650D01*
X17073331Y-16312650D02*
X17092378Y-16322174D01*
X17092378Y-16322174D02*
X17101902Y-16331698D01*
X17101902Y-16331698D02*
X17111426Y-16350746D01*
X17111426Y-16350746D02*
X17111426Y-16407888D01*
X17111426Y-16407888D02*
X17101902Y-16426936D01*
X17101902Y-16426936D02*
X17092378Y-16436460D01*
X17092378Y-16436460D02*
X17073331Y-16445984D01*
X17073331Y-16445984D02*
X17044759Y-16445984D01*
X17225712Y-16445984D02*
X17206664Y-16436460D01*
X17206664Y-16436460D02*
X17197140Y-16417412D01*
X17197140Y-16417412D02*
X17197140Y-16245984D01*
X17378093Y-16436460D02*
X17359045Y-16445984D01*
X17359045Y-16445984D02*
X17320950Y-16445984D01*
X17320950Y-16445984D02*
X17301902Y-16436460D01*
X17301902Y-16436460D02*
X17292378Y-16417412D01*
X17292378Y-16417412D02*
X17292378Y-16341222D01*
X17292378Y-16341222D02*
X17301902Y-16322174D01*
X17301902Y-16322174D02*
X17320950Y-16312650D01*
X17320950Y-16312650D02*
X17359045Y-16312650D01*
X17359045Y-16312650D02*
X17378093Y-16322174D01*
X17378093Y-16322174D02*
X17387617Y-16341222D01*
X17387617Y-16341222D02*
X17387617Y-16360269D01*
X17387617Y-16360269D02*
X17292378Y-16379317D01*
X17463807Y-16436460D02*
X17482855Y-16445984D01*
X17482855Y-16445984D02*
X17520950Y-16445984D01*
X17520950Y-16445984D02*
X17539998Y-16436460D01*
X17539998Y-16436460D02*
X17549521Y-16417412D01*
X17549521Y-16417412D02*
X17549521Y-16407888D01*
X17549521Y-16407888D02*
X17539998Y-16388841D01*
X17539998Y-16388841D02*
X17520950Y-16379317D01*
X17520950Y-16379317D02*
X17492378Y-16379317D01*
X17492378Y-16379317D02*
X17473331Y-16369793D01*
X17473331Y-16369793D02*
X17463807Y-16350746D01*
X17463807Y-16350746D02*
X17463807Y-16341222D01*
X17463807Y-16341222D02*
X17473331Y-16322174D01*
X17473331Y-16322174D02*
X17492378Y-16312650D01*
X17492378Y-16312650D02*
X17520950Y-16312650D01*
X17520950Y-16312650D02*
X17539998Y-16322174D01*
X17616188Y-16522174D02*
X17625712Y-16512650D01*
X17625712Y-16512650D02*
X17644759Y-16484079D01*
X17644759Y-16484079D02*
X17654283Y-16465031D01*
X17654283Y-16465031D02*
X17663807Y-16436460D01*
X17663807Y-16436460D02*
X17673331Y-16388841D01*
X17673331Y-16388841D02*
X17673331Y-16350746D01*
X17673331Y-16350746D02*
X17663807Y-16303127D01*
X17663807Y-16303127D02*
X17654283Y-16274555D01*
X17654283Y-16274555D02*
X17644759Y-16255508D01*
X17644759Y-16255508D02*
X17625712Y-16226936D01*
X17625712Y-16226936D02*
X17616188Y-16217412D01*
D12*
X12825016Y-16657391D02*
X12825016Y-16579609D01*
X12747234Y-16579609D01*
X12747234Y-16657391D01*
X12825016Y-16657391D01*
D10*
X13206664Y-16709984D02*
X13092378Y-16709984D01*
X13149521Y-16709984D02*
X13149521Y-16509984D01*
X13149521Y-16509984D02*
X13130473Y-16538555D01*
X13130473Y-16538555D02*
X13111426Y-16557603D01*
X13111426Y-16557603D02*
X13092378Y-16567127D01*
X13292378Y-16690936D02*
X13301902Y-16700460D01*
X13301902Y-16700460D02*
X13292378Y-16709984D01*
X13292378Y-16709984D02*
X13282854Y-16700460D01*
X13282854Y-16700460D02*
X13292378Y-16690936D01*
X13292378Y-16690936D02*
X13292378Y-16709984D01*
X13492378Y-16709984D02*
X13378092Y-16709984D01*
X13435235Y-16709984D02*
X13435235Y-16509984D01*
X13435235Y-16509984D02*
X13416187Y-16538555D01*
X13416187Y-16538555D02*
X13397140Y-16557603D01*
X13397140Y-16557603D02*
X13378092Y-16567127D01*
X13616187Y-16509984D02*
X13635235Y-16509984D01*
X13635235Y-16509984D02*
X13654283Y-16519508D01*
X13654283Y-16519508D02*
X13663807Y-16529031D01*
X13663807Y-16529031D02*
X13673330Y-16548079D01*
X13673330Y-16548079D02*
X13682854Y-16586174D01*
X13682854Y-16586174D02*
X13682854Y-16633793D01*
X13682854Y-16633793D02*
X13673330Y-16671888D01*
X13673330Y-16671888D02*
X13663807Y-16690936D01*
X13663807Y-16690936D02*
X13654283Y-16700460D01*
X13654283Y-16700460D02*
X13635235Y-16709984D01*
X13635235Y-16709984D02*
X13616187Y-16709984D01*
X13616187Y-16709984D02*
X13597140Y-16700460D01*
X13597140Y-16700460D02*
X13587616Y-16690936D01*
X13587616Y-16690936D02*
X13578092Y-16671888D01*
X13578092Y-16671888D02*
X13568568Y-16633793D01*
X13568568Y-16633793D02*
X13568568Y-16586174D01*
X13568568Y-16586174D02*
X13578092Y-16548079D01*
X13578092Y-16548079D02*
X13587616Y-16529031D01*
X13587616Y-16529031D02*
X13597140Y-16519508D01*
X13597140Y-16519508D02*
X13616187Y-16509984D01*
X13806664Y-16509984D02*
X13825711Y-16509984D01*
X13825711Y-16509984D02*
X13844759Y-16519508D01*
X13844759Y-16519508D02*
X13854283Y-16529031D01*
X13854283Y-16529031D02*
X13863807Y-16548079D01*
X13863807Y-16548079D02*
X13873330Y-16586174D01*
X13873330Y-16586174D02*
X13873330Y-16633793D01*
X13873330Y-16633793D02*
X13863807Y-16671888D01*
X13863807Y-16671888D02*
X13854283Y-16690936D01*
X13854283Y-16690936D02*
X13844759Y-16700460D01*
X13844759Y-16700460D02*
X13825711Y-16709984D01*
X13825711Y-16709984D02*
X13806664Y-16709984D01*
X13806664Y-16709984D02*
X13787616Y-16700460D01*
X13787616Y-16700460D02*
X13778092Y-16690936D01*
X13778092Y-16690936D02*
X13768568Y-16671888D01*
X13768568Y-16671888D02*
X13759045Y-16633793D01*
X13759045Y-16633793D02*
X13759045Y-16586174D01*
X13759045Y-16586174D02*
X13768568Y-16548079D01*
X13768568Y-16548079D02*
X13778092Y-16529031D01*
X13778092Y-16529031D02*
X13787616Y-16519508D01*
X13787616Y-16519508D02*
X13806664Y-16509984D01*
X13959045Y-16709984D02*
X13959045Y-16576650D01*
X13959045Y-16595698D02*
X13968568Y-16586174D01*
X13968568Y-16586174D02*
X13987616Y-16576650D01*
X13987616Y-16576650D02*
X14016188Y-16576650D01*
X14016188Y-16576650D02*
X14035235Y-16586174D01*
X14035235Y-16586174D02*
X14044759Y-16605222D01*
X14044759Y-16605222D02*
X14044759Y-16709984D01*
X14044759Y-16605222D02*
X14054283Y-16586174D01*
X14054283Y-16586174D02*
X14073330Y-16576650D01*
X14073330Y-16576650D02*
X14101902Y-16576650D01*
X14101902Y-16576650D02*
X14120949Y-16586174D01*
X14120949Y-16586174D02*
X14130473Y-16605222D01*
X14130473Y-16605222D02*
X14130473Y-16709984D01*
X14225711Y-16709984D02*
X14225711Y-16576650D01*
X14225711Y-16595698D02*
X14235235Y-16586174D01*
X14235235Y-16586174D02*
X14254283Y-16576650D01*
X14254283Y-16576650D02*
X14282854Y-16576650D01*
X14282854Y-16576650D02*
X14301902Y-16586174D01*
X14301902Y-16586174D02*
X14311426Y-16605222D01*
X14311426Y-16605222D02*
X14311426Y-16709984D01*
X14311426Y-16605222D02*
X14320949Y-16586174D01*
X14320949Y-16586174D02*
X14339997Y-16576650D01*
X14339997Y-16576650D02*
X14368568Y-16576650D01*
X14368568Y-16576650D02*
X14387616Y-16586174D01*
X14387616Y-16586174D02*
X14397140Y-16605222D01*
X14397140Y-16605222D02*
X14397140Y-16709984D01*
X14787616Y-16500460D02*
X14616188Y-16757603D01*
X15044759Y-16509984D02*
X15063807Y-16509984D01*
X15063807Y-16509984D02*
X15082854Y-16519508D01*
X15082854Y-16519508D02*
X15092378Y-16529031D01*
X15092378Y-16529031D02*
X15101902Y-16548079D01*
X15101902Y-16548079D02*
X15111426Y-16586174D01*
X15111426Y-16586174D02*
X15111426Y-16633793D01*
X15111426Y-16633793D02*
X15101902Y-16671888D01*
X15101902Y-16671888D02*
X15092378Y-16690936D01*
X15092378Y-16690936D02*
X15082854Y-16700460D01*
X15082854Y-16700460D02*
X15063807Y-16709984D01*
X15063807Y-16709984D02*
X15044759Y-16709984D01*
X15044759Y-16709984D02*
X15025711Y-16700460D01*
X15025711Y-16700460D02*
X15016188Y-16690936D01*
X15016188Y-16690936D02*
X15006664Y-16671888D01*
X15006664Y-16671888D02*
X14997140Y-16633793D01*
X14997140Y-16633793D02*
X14997140Y-16586174D01*
X14997140Y-16586174D02*
X15006664Y-16548079D01*
X15006664Y-16548079D02*
X15016188Y-16529031D01*
X15016188Y-16529031D02*
X15025711Y-16519508D01*
X15025711Y-16519508D02*
X15044759Y-16509984D01*
X15197140Y-16690936D02*
X15206664Y-16700460D01*
X15206664Y-16700460D02*
X15197140Y-16709984D01*
X15197140Y-16709984D02*
X15187616Y-16700460D01*
X15187616Y-16700460D02*
X15197140Y-16690936D01*
X15197140Y-16690936D02*
X15197140Y-16709984D01*
X15330473Y-16509984D02*
X15349521Y-16509984D01*
X15349521Y-16509984D02*
X15368569Y-16519508D01*
X15368569Y-16519508D02*
X15378092Y-16529031D01*
X15378092Y-16529031D02*
X15387616Y-16548079D01*
X15387616Y-16548079D02*
X15397140Y-16586174D01*
X15397140Y-16586174D02*
X15397140Y-16633793D01*
X15397140Y-16633793D02*
X15387616Y-16671888D01*
X15387616Y-16671888D02*
X15378092Y-16690936D01*
X15378092Y-16690936D02*
X15368569Y-16700460D01*
X15368569Y-16700460D02*
X15349521Y-16709984D01*
X15349521Y-16709984D02*
X15330473Y-16709984D01*
X15330473Y-16709984D02*
X15311426Y-16700460D01*
X15311426Y-16700460D02*
X15301902Y-16690936D01*
X15301902Y-16690936D02*
X15292378Y-16671888D01*
X15292378Y-16671888D02*
X15282854Y-16633793D01*
X15282854Y-16633793D02*
X15282854Y-16586174D01*
X15282854Y-16586174D02*
X15292378Y-16548079D01*
X15292378Y-16548079D02*
X15301902Y-16529031D01*
X15301902Y-16529031D02*
X15311426Y-16519508D01*
X15311426Y-16519508D02*
X15330473Y-16509984D01*
X15568569Y-16576650D02*
X15568569Y-16709984D01*
X15520950Y-16500460D02*
X15473331Y-16643317D01*
X15473331Y-16643317D02*
X15597140Y-16643317D01*
X15654283Y-16509984D02*
X15778092Y-16509984D01*
X15778092Y-16509984D02*
X15711426Y-16586174D01*
X15711426Y-16586174D02*
X15739997Y-16586174D01*
X15739997Y-16586174D02*
X15759045Y-16595698D01*
X15759045Y-16595698D02*
X15768569Y-16605222D01*
X15768569Y-16605222D02*
X15778092Y-16624269D01*
X15778092Y-16624269D02*
X15778092Y-16671888D01*
X15778092Y-16671888D02*
X15768569Y-16690936D01*
X15768569Y-16690936D02*
X15759045Y-16700460D01*
X15759045Y-16700460D02*
X15739997Y-16709984D01*
X15739997Y-16709984D02*
X15682854Y-16709984D01*
X15682854Y-16709984D02*
X15663807Y-16700460D01*
X15663807Y-16700460D02*
X15654283Y-16690936D01*
X15844759Y-16509984D02*
X15968569Y-16509984D01*
X15968569Y-16509984D02*
X15901902Y-16586174D01*
X15901902Y-16586174D02*
X15930473Y-16586174D01*
X15930473Y-16586174D02*
X15949521Y-16595698D01*
X15949521Y-16595698D02*
X15959045Y-16605222D01*
X15959045Y-16605222D02*
X15968569Y-16624269D01*
X15968569Y-16624269D02*
X15968569Y-16671888D01*
X15968569Y-16671888D02*
X15959045Y-16690936D01*
X15959045Y-16690936D02*
X15949521Y-16700460D01*
X15949521Y-16700460D02*
X15930473Y-16709984D01*
X15930473Y-16709984D02*
X15873331Y-16709984D01*
X15873331Y-16709984D02*
X15854283Y-16700460D01*
X15854283Y-16700460D02*
X15844759Y-16690936D01*
X16044759Y-16509984D02*
X16044759Y-16548079D01*
X16120950Y-16509984D02*
X16120950Y-16548079D01*
X16416188Y-16786174D02*
X16406664Y-16776650D01*
X16406664Y-16776650D02*
X16387616Y-16748079D01*
X16387616Y-16748079D02*
X16378093Y-16729031D01*
X16378093Y-16729031D02*
X16368569Y-16700460D01*
X16368569Y-16700460D02*
X16359045Y-16652841D01*
X16359045Y-16652841D02*
X16359045Y-16614746D01*
X16359045Y-16614746D02*
X16368569Y-16567127D01*
X16368569Y-16567127D02*
X16378093Y-16538555D01*
X16378093Y-16538555D02*
X16387616Y-16519508D01*
X16387616Y-16519508D02*
X16406664Y-16490936D01*
X16406664Y-16490936D02*
X16416188Y-16481412D01*
X16578093Y-16576650D02*
X16578093Y-16709984D01*
X16530473Y-16500460D02*
X16482854Y-16643317D01*
X16482854Y-16643317D02*
X16606664Y-16643317D01*
X16768569Y-16576650D02*
X16768569Y-16709984D01*
X16720950Y-16500460D02*
X16673331Y-16643317D01*
X16673331Y-16643317D02*
X16797140Y-16643317D01*
X17025712Y-16709984D02*
X17025712Y-16509984D01*
X17111426Y-16709984D02*
X17111426Y-16605222D01*
X17111426Y-16605222D02*
X17101902Y-16586174D01*
X17101902Y-16586174D02*
X17082855Y-16576650D01*
X17082855Y-16576650D02*
X17054283Y-16576650D01*
X17054283Y-16576650D02*
X17035236Y-16586174D01*
X17035236Y-16586174D02*
X17025712Y-16595698D01*
X17235236Y-16709984D02*
X17216188Y-16700460D01*
X17216188Y-16700460D02*
X17206664Y-16690936D01*
X17206664Y-16690936D02*
X17197140Y-16671888D01*
X17197140Y-16671888D02*
X17197140Y-16614746D01*
X17197140Y-16614746D02*
X17206664Y-16595698D01*
X17206664Y-16595698D02*
X17216188Y-16586174D01*
X17216188Y-16586174D02*
X17235236Y-16576650D01*
X17235236Y-16576650D02*
X17263807Y-16576650D01*
X17263807Y-16576650D02*
X17282855Y-16586174D01*
X17282855Y-16586174D02*
X17292378Y-16595698D01*
X17292378Y-16595698D02*
X17301902Y-16614746D01*
X17301902Y-16614746D02*
X17301902Y-16671888D01*
X17301902Y-16671888D02*
X17292378Y-16690936D01*
X17292378Y-16690936D02*
X17282855Y-16700460D01*
X17282855Y-16700460D02*
X17263807Y-16709984D01*
X17263807Y-16709984D02*
X17235236Y-16709984D01*
X17416188Y-16709984D02*
X17397140Y-16700460D01*
X17397140Y-16700460D02*
X17387617Y-16681412D01*
X17387617Y-16681412D02*
X17387617Y-16509984D01*
X17568569Y-16700460D02*
X17549521Y-16709984D01*
X17549521Y-16709984D02*
X17511426Y-16709984D01*
X17511426Y-16709984D02*
X17492378Y-16700460D01*
X17492378Y-16700460D02*
X17482855Y-16681412D01*
X17482855Y-16681412D02*
X17482855Y-16605222D01*
X17482855Y-16605222D02*
X17492378Y-16586174D01*
X17492378Y-16586174D02*
X17511426Y-16576650D01*
X17511426Y-16576650D02*
X17549521Y-16576650D01*
X17549521Y-16576650D02*
X17568569Y-16586174D01*
X17568569Y-16586174D02*
X17578093Y-16605222D01*
X17578093Y-16605222D02*
X17578093Y-16624269D01*
X17578093Y-16624269D02*
X17482855Y-16643317D01*
X17654283Y-16700460D02*
X17673331Y-16709984D01*
X17673331Y-16709984D02*
X17711426Y-16709984D01*
X17711426Y-16709984D02*
X17730474Y-16700460D01*
X17730474Y-16700460D02*
X17739998Y-16681412D01*
X17739998Y-16681412D02*
X17739998Y-16671888D01*
X17739998Y-16671888D02*
X17730474Y-16652841D01*
X17730474Y-16652841D02*
X17711426Y-16643317D01*
X17711426Y-16643317D02*
X17682855Y-16643317D01*
X17682855Y-16643317D02*
X17663807Y-16633793D01*
X17663807Y-16633793D02*
X17654283Y-16614746D01*
X17654283Y-16614746D02*
X17654283Y-16605222D01*
X17654283Y-16605222D02*
X17663807Y-16586174D01*
X17663807Y-16586174D02*
X17682855Y-16576650D01*
X17682855Y-16576650D02*
X17711426Y-16576650D01*
X17711426Y-16576650D02*
X17730474Y-16586174D01*
X17806664Y-16786174D02*
X17816188Y-16776650D01*
X17816188Y-16776650D02*
X17835236Y-16748079D01*
X17835236Y-16748079D02*
X17844759Y-16729031D01*
X17844759Y-16729031D02*
X17854283Y-16700460D01*
X17854283Y-16700460D02*
X17863807Y-16652841D01*
X17863807Y-16652841D02*
X17863807Y-16614746D01*
X17863807Y-16614746D02*
X17854283Y-16567127D01*
X17854283Y-16567127D02*
X17844759Y-16538555D01*
X17844759Y-16538555D02*
X17835236Y-16519508D01*
X17835236Y-16519508D02*
X17816188Y-16490936D01*
X17816188Y-16490936D02*
X17806664Y-16481412D01*
D13*
X12778625Y-16945000D02*
X12841125Y-16882500D01*
X12778625Y-16820000D01*
X12716125Y-16882500D01*
X12778625Y-16945000D01*
D10*
X13206664Y-16973984D02*
X13092378Y-16973984D01*
X13149521Y-16973984D02*
X13149521Y-16773984D01*
X13149521Y-16773984D02*
X13130473Y-16802555D01*
X13130473Y-16802555D02*
X13111426Y-16821603D01*
X13111426Y-16821603D02*
X13092378Y-16831127D01*
X13292378Y-16954936D02*
X13301902Y-16964460D01*
X13301902Y-16964460D02*
X13292378Y-16973984D01*
X13292378Y-16973984D02*
X13282854Y-16964460D01*
X13282854Y-16964460D02*
X13292378Y-16954936D01*
X13292378Y-16954936D02*
X13292378Y-16973984D01*
X13378092Y-16793031D02*
X13387616Y-16783508D01*
X13387616Y-16783508D02*
X13406664Y-16773984D01*
X13406664Y-16773984D02*
X13454283Y-16773984D01*
X13454283Y-16773984D02*
X13473330Y-16783508D01*
X13473330Y-16783508D02*
X13482854Y-16793031D01*
X13482854Y-16793031D02*
X13492378Y-16812079D01*
X13492378Y-16812079D02*
X13492378Y-16831127D01*
X13492378Y-16831127D02*
X13482854Y-16859698D01*
X13482854Y-16859698D02*
X13368568Y-16973984D01*
X13368568Y-16973984D02*
X13492378Y-16973984D01*
X13673330Y-16773984D02*
X13578092Y-16773984D01*
X13578092Y-16773984D02*
X13568568Y-16869222D01*
X13568568Y-16869222D02*
X13578092Y-16859698D01*
X13578092Y-16859698D02*
X13597140Y-16850174D01*
X13597140Y-16850174D02*
X13644759Y-16850174D01*
X13644759Y-16850174D02*
X13663807Y-16859698D01*
X13663807Y-16859698D02*
X13673330Y-16869222D01*
X13673330Y-16869222D02*
X13682854Y-16888270D01*
X13682854Y-16888270D02*
X13682854Y-16935889D01*
X13682854Y-16935889D02*
X13673330Y-16954936D01*
X13673330Y-16954936D02*
X13663807Y-16964460D01*
X13663807Y-16964460D02*
X13644759Y-16973984D01*
X13644759Y-16973984D02*
X13597140Y-16973984D01*
X13597140Y-16973984D02*
X13578092Y-16964460D01*
X13578092Y-16964460D02*
X13568568Y-16954936D01*
X13806664Y-16773984D02*
X13825711Y-16773984D01*
X13825711Y-16773984D02*
X13844759Y-16783508D01*
X13844759Y-16783508D02*
X13854283Y-16793031D01*
X13854283Y-16793031D02*
X13863807Y-16812079D01*
X13863807Y-16812079D02*
X13873330Y-16850174D01*
X13873330Y-16850174D02*
X13873330Y-16897793D01*
X13873330Y-16897793D02*
X13863807Y-16935889D01*
X13863807Y-16935889D02*
X13854283Y-16954936D01*
X13854283Y-16954936D02*
X13844759Y-16964460D01*
X13844759Y-16964460D02*
X13825711Y-16973984D01*
X13825711Y-16973984D02*
X13806664Y-16973984D01*
X13806664Y-16973984D02*
X13787616Y-16964460D01*
X13787616Y-16964460D02*
X13778092Y-16954936D01*
X13778092Y-16954936D02*
X13768568Y-16935889D01*
X13768568Y-16935889D02*
X13759045Y-16897793D01*
X13759045Y-16897793D02*
X13759045Y-16850174D01*
X13759045Y-16850174D02*
X13768568Y-16812079D01*
X13768568Y-16812079D02*
X13778092Y-16793031D01*
X13778092Y-16793031D02*
X13787616Y-16783508D01*
X13787616Y-16783508D02*
X13806664Y-16773984D01*
X13959045Y-16973984D02*
X13959045Y-16840650D01*
X13959045Y-16859698D02*
X13968568Y-16850174D01*
X13968568Y-16850174D02*
X13987616Y-16840650D01*
X13987616Y-16840650D02*
X14016188Y-16840650D01*
X14016188Y-16840650D02*
X14035235Y-16850174D01*
X14035235Y-16850174D02*
X14044759Y-16869222D01*
X14044759Y-16869222D02*
X14044759Y-16973984D01*
X14044759Y-16869222D02*
X14054283Y-16850174D01*
X14054283Y-16850174D02*
X14073330Y-16840650D01*
X14073330Y-16840650D02*
X14101902Y-16840650D01*
X14101902Y-16840650D02*
X14120949Y-16850174D01*
X14120949Y-16850174D02*
X14130473Y-16869222D01*
X14130473Y-16869222D02*
X14130473Y-16973984D01*
X14225711Y-16973984D02*
X14225711Y-16840650D01*
X14225711Y-16859698D02*
X14235235Y-16850174D01*
X14235235Y-16850174D02*
X14254283Y-16840650D01*
X14254283Y-16840650D02*
X14282854Y-16840650D01*
X14282854Y-16840650D02*
X14301902Y-16850174D01*
X14301902Y-16850174D02*
X14311426Y-16869222D01*
X14311426Y-16869222D02*
X14311426Y-16973984D01*
X14311426Y-16869222D02*
X14320949Y-16850174D01*
X14320949Y-16850174D02*
X14339997Y-16840650D01*
X14339997Y-16840650D02*
X14368568Y-16840650D01*
X14368568Y-16840650D02*
X14387616Y-16850174D01*
X14387616Y-16850174D02*
X14397140Y-16869222D01*
X14397140Y-16869222D02*
X14397140Y-16973984D01*
X14787616Y-16764460D02*
X14616188Y-17021603D01*
X15044759Y-16773984D02*
X15063807Y-16773984D01*
X15063807Y-16773984D02*
X15082854Y-16783508D01*
X15082854Y-16783508D02*
X15092378Y-16793031D01*
X15092378Y-16793031D02*
X15101902Y-16812079D01*
X15101902Y-16812079D02*
X15111426Y-16850174D01*
X15111426Y-16850174D02*
X15111426Y-16897793D01*
X15111426Y-16897793D02*
X15101902Y-16935889D01*
X15101902Y-16935889D02*
X15092378Y-16954936D01*
X15092378Y-16954936D02*
X15082854Y-16964460D01*
X15082854Y-16964460D02*
X15063807Y-16973984D01*
X15063807Y-16973984D02*
X15044759Y-16973984D01*
X15044759Y-16973984D02*
X15025711Y-16964460D01*
X15025711Y-16964460D02*
X15016188Y-16954936D01*
X15016188Y-16954936D02*
X15006664Y-16935889D01*
X15006664Y-16935889D02*
X14997140Y-16897793D01*
X14997140Y-16897793D02*
X14997140Y-16850174D01*
X14997140Y-16850174D02*
X15006664Y-16812079D01*
X15006664Y-16812079D02*
X15016188Y-16793031D01*
X15016188Y-16793031D02*
X15025711Y-16783508D01*
X15025711Y-16783508D02*
X15044759Y-16773984D01*
X15197140Y-16954936D02*
X15206664Y-16964460D01*
X15206664Y-16964460D02*
X15197140Y-16973984D01*
X15197140Y-16973984D02*
X15187616Y-16964460D01*
X15187616Y-16964460D02*
X15197140Y-16954936D01*
X15197140Y-16954936D02*
X15197140Y-16973984D01*
X15330473Y-16773984D02*
X15349521Y-16773984D01*
X15349521Y-16773984D02*
X15368569Y-16783508D01*
X15368569Y-16783508D02*
X15378092Y-16793031D01*
X15378092Y-16793031D02*
X15387616Y-16812079D01*
X15387616Y-16812079D02*
X15397140Y-16850174D01*
X15397140Y-16850174D02*
X15397140Y-16897793D01*
X15397140Y-16897793D02*
X15387616Y-16935889D01*
X15387616Y-16935889D02*
X15378092Y-16954936D01*
X15378092Y-16954936D02*
X15368569Y-16964460D01*
X15368569Y-16964460D02*
X15349521Y-16973984D01*
X15349521Y-16973984D02*
X15330473Y-16973984D01*
X15330473Y-16973984D02*
X15311426Y-16964460D01*
X15311426Y-16964460D02*
X15301902Y-16954936D01*
X15301902Y-16954936D02*
X15292378Y-16935889D01*
X15292378Y-16935889D02*
X15282854Y-16897793D01*
X15282854Y-16897793D02*
X15282854Y-16850174D01*
X15282854Y-16850174D02*
X15292378Y-16812079D01*
X15292378Y-16812079D02*
X15301902Y-16793031D01*
X15301902Y-16793031D02*
X15311426Y-16783508D01*
X15311426Y-16783508D02*
X15330473Y-16773984D01*
X15568569Y-16840650D02*
X15568569Y-16973984D01*
X15520950Y-16764460D02*
X15473331Y-16907317D01*
X15473331Y-16907317D02*
X15597140Y-16907317D01*
X15682854Y-16973984D02*
X15720950Y-16973984D01*
X15720950Y-16973984D02*
X15739997Y-16964460D01*
X15739997Y-16964460D02*
X15749521Y-16954936D01*
X15749521Y-16954936D02*
X15768569Y-16926365D01*
X15768569Y-16926365D02*
X15778092Y-16888270D01*
X15778092Y-16888270D02*
X15778092Y-16812079D01*
X15778092Y-16812079D02*
X15768569Y-16793031D01*
X15768569Y-16793031D02*
X15759045Y-16783508D01*
X15759045Y-16783508D02*
X15739997Y-16773984D01*
X15739997Y-16773984D02*
X15701902Y-16773984D01*
X15701902Y-16773984D02*
X15682854Y-16783508D01*
X15682854Y-16783508D02*
X15673331Y-16793031D01*
X15673331Y-16793031D02*
X15663807Y-16812079D01*
X15663807Y-16812079D02*
X15663807Y-16859698D01*
X15663807Y-16859698D02*
X15673331Y-16878746D01*
X15673331Y-16878746D02*
X15682854Y-16888270D01*
X15682854Y-16888270D02*
X15701902Y-16897793D01*
X15701902Y-16897793D02*
X15739997Y-16897793D01*
X15739997Y-16897793D02*
X15759045Y-16888270D01*
X15759045Y-16888270D02*
X15768569Y-16878746D01*
X15768569Y-16878746D02*
X15778092Y-16859698D01*
X15854283Y-16793031D02*
X15863807Y-16783508D01*
X15863807Y-16783508D02*
X15882854Y-16773984D01*
X15882854Y-16773984D02*
X15930473Y-16773984D01*
X15930473Y-16773984D02*
X15949521Y-16783508D01*
X15949521Y-16783508D02*
X15959045Y-16793031D01*
X15959045Y-16793031D02*
X15968569Y-16812079D01*
X15968569Y-16812079D02*
X15968569Y-16831127D01*
X15968569Y-16831127D02*
X15959045Y-16859698D01*
X15959045Y-16859698D02*
X15844759Y-16973984D01*
X15844759Y-16973984D02*
X15968569Y-16973984D01*
X16044759Y-16773984D02*
X16044759Y-16812079D01*
X16120950Y-16773984D02*
X16120950Y-16812079D01*
X16416188Y-17050174D02*
X16406664Y-17040650D01*
X16406664Y-17040650D02*
X16387616Y-17012079D01*
X16387616Y-17012079D02*
X16378093Y-16993031D01*
X16378093Y-16993031D02*
X16368569Y-16964460D01*
X16368569Y-16964460D02*
X16359045Y-16916841D01*
X16359045Y-16916841D02*
X16359045Y-16878746D01*
X16359045Y-16878746D02*
X16368569Y-16831127D01*
X16368569Y-16831127D02*
X16378093Y-16802555D01*
X16378093Y-16802555D02*
X16387616Y-16783508D01*
X16387616Y-16783508D02*
X16406664Y-16754936D01*
X16406664Y-16754936D02*
X16416188Y-16745412D01*
X16578093Y-16773984D02*
X16539997Y-16773984D01*
X16539997Y-16773984D02*
X16520950Y-16783508D01*
X16520950Y-16783508D02*
X16511426Y-16793031D01*
X16511426Y-16793031D02*
X16492378Y-16821603D01*
X16492378Y-16821603D02*
X16482854Y-16859698D01*
X16482854Y-16859698D02*
X16482854Y-16935889D01*
X16482854Y-16935889D02*
X16492378Y-16954936D01*
X16492378Y-16954936D02*
X16501902Y-16964460D01*
X16501902Y-16964460D02*
X16520950Y-16973984D01*
X16520950Y-16973984D02*
X16559045Y-16973984D01*
X16559045Y-16973984D02*
X16578093Y-16964460D01*
X16578093Y-16964460D02*
X16587616Y-16954936D01*
X16587616Y-16954936D02*
X16597140Y-16935889D01*
X16597140Y-16935889D02*
X16597140Y-16888270D01*
X16597140Y-16888270D02*
X16587616Y-16869222D01*
X16587616Y-16869222D02*
X16578093Y-16859698D01*
X16578093Y-16859698D02*
X16559045Y-16850174D01*
X16559045Y-16850174D02*
X16520950Y-16850174D01*
X16520950Y-16850174D02*
X16501902Y-16859698D01*
X16501902Y-16859698D02*
X16492378Y-16869222D01*
X16492378Y-16869222D02*
X16482854Y-16888270D01*
X16835236Y-16973984D02*
X16835236Y-16773984D01*
X16920950Y-16973984D02*
X16920950Y-16869222D01*
X16920950Y-16869222D02*
X16911426Y-16850174D01*
X16911426Y-16850174D02*
X16892378Y-16840650D01*
X16892378Y-16840650D02*
X16863807Y-16840650D01*
X16863807Y-16840650D02*
X16844759Y-16850174D01*
X16844759Y-16850174D02*
X16835236Y-16859698D01*
X17044759Y-16973984D02*
X17025712Y-16964460D01*
X17025712Y-16964460D02*
X17016188Y-16954936D01*
X17016188Y-16954936D02*
X17006664Y-16935889D01*
X17006664Y-16935889D02*
X17006664Y-16878746D01*
X17006664Y-16878746D02*
X17016188Y-16859698D01*
X17016188Y-16859698D02*
X17025712Y-16850174D01*
X17025712Y-16850174D02*
X17044759Y-16840650D01*
X17044759Y-16840650D02*
X17073331Y-16840650D01*
X17073331Y-16840650D02*
X17092378Y-16850174D01*
X17092378Y-16850174D02*
X17101902Y-16859698D01*
X17101902Y-16859698D02*
X17111426Y-16878746D01*
X17111426Y-16878746D02*
X17111426Y-16935889D01*
X17111426Y-16935889D02*
X17101902Y-16954936D01*
X17101902Y-16954936D02*
X17092378Y-16964460D01*
X17092378Y-16964460D02*
X17073331Y-16973984D01*
X17073331Y-16973984D02*
X17044759Y-16973984D01*
X17225712Y-16973984D02*
X17206664Y-16964460D01*
X17206664Y-16964460D02*
X17197140Y-16945412D01*
X17197140Y-16945412D02*
X17197140Y-16773984D01*
X17378093Y-16964460D02*
X17359045Y-16973984D01*
X17359045Y-16973984D02*
X17320950Y-16973984D01*
X17320950Y-16973984D02*
X17301902Y-16964460D01*
X17301902Y-16964460D02*
X17292378Y-16945412D01*
X17292378Y-16945412D02*
X17292378Y-16869222D01*
X17292378Y-16869222D02*
X17301902Y-16850174D01*
X17301902Y-16850174D02*
X17320950Y-16840650D01*
X17320950Y-16840650D02*
X17359045Y-16840650D01*
X17359045Y-16840650D02*
X17378093Y-16850174D01*
X17378093Y-16850174D02*
X17387617Y-16869222D01*
X17387617Y-16869222D02*
X17387617Y-16888270D01*
X17387617Y-16888270D02*
X17292378Y-16907317D01*
X17463807Y-16964460D02*
X17482855Y-16973984D01*
X17482855Y-16973984D02*
X17520950Y-16973984D01*
X17520950Y-16973984D02*
X17539998Y-16964460D01*
X17539998Y-16964460D02*
X17549521Y-16945412D01*
X17549521Y-16945412D02*
X17549521Y-16935889D01*
X17549521Y-16935889D02*
X17539998Y-16916841D01*
X17539998Y-16916841D02*
X17520950Y-16907317D01*
X17520950Y-16907317D02*
X17492378Y-16907317D01*
X17492378Y-16907317D02*
X17473331Y-16897793D01*
X17473331Y-16897793D02*
X17463807Y-16878746D01*
X17463807Y-16878746D02*
X17463807Y-16869222D01*
X17463807Y-16869222D02*
X17473331Y-16850174D01*
X17473331Y-16850174D02*
X17492378Y-16840650D01*
X17492378Y-16840650D02*
X17520950Y-16840650D01*
X17520950Y-16840650D02*
X17539998Y-16850174D01*
X17616188Y-17050174D02*
X17625712Y-17040650D01*
X17625712Y-17040650D02*
X17644759Y-17012079D01*
X17644759Y-17012079D02*
X17654283Y-16993031D01*
X17654283Y-16993031D02*
X17663807Y-16964460D01*
X17663807Y-16964460D02*
X17673331Y-16916841D01*
X17673331Y-16916841D02*
X17673331Y-16878746D01*
X17673331Y-16878746D02*
X17663807Y-16831127D01*
X17663807Y-16831127D02*
X17654283Y-16802555D01*
X17654283Y-16802555D02*
X17644759Y-16783508D01*
X17644759Y-16783508D02*
X17625712Y-16754936D01*
X17625712Y-16754936D02*
X17616188Y-16745412D01*
D14*
X12711125Y-17081500D02*
X12841125Y-17211500D01*
X12841125Y-17081500D02*
X12711125Y-17211500D01*
X12841125Y-17146500D02*
G75*
G02*
X12711125Y-17146500I-65000J0D01*
G01*
X12711125Y-17146500D02*
G75*
G02*
X12841125Y-17146500I65000J0D01*
G01*
D10*
X13206664Y-17237984D02*
X13092378Y-17237984D01*
X13149521Y-17237984D02*
X13149521Y-17037984D01*
X13149521Y-17037984D02*
X13130473Y-17066555D01*
X13130473Y-17066555D02*
X13111426Y-17085603D01*
X13111426Y-17085603D02*
X13092378Y-17095127D01*
X13292378Y-17218936D02*
X13301902Y-17228460D01*
X13301902Y-17228460D02*
X13292378Y-17237984D01*
X13292378Y-17237984D02*
X13282854Y-17228460D01*
X13282854Y-17228460D02*
X13292378Y-17218936D01*
X13292378Y-17218936D02*
X13292378Y-17237984D01*
X13368568Y-17037984D02*
X13492378Y-17037984D01*
X13492378Y-17037984D02*
X13425711Y-17114174D01*
X13425711Y-17114174D02*
X13454283Y-17114174D01*
X13454283Y-17114174D02*
X13473330Y-17123698D01*
X13473330Y-17123698D02*
X13482854Y-17133222D01*
X13482854Y-17133222D02*
X13492378Y-17152270D01*
X13492378Y-17152270D02*
X13492378Y-17199889D01*
X13492378Y-17199889D02*
X13482854Y-17218936D01*
X13482854Y-17218936D02*
X13473330Y-17228460D01*
X13473330Y-17228460D02*
X13454283Y-17237984D01*
X13454283Y-17237984D02*
X13397140Y-17237984D01*
X13397140Y-17237984D02*
X13378092Y-17228460D01*
X13378092Y-17228460D02*
X13368568Y-17218936D01*
X13616187Y-17037984D02*
X13635235Y-17037984D01*
X13635235Y-17037984D02*
X13654283Y-17047508D01*
X13654283Y-17047508D02*
X13663807Y-17057031D01*
X13663807Y-17057031D02*
X13673330Y-17076079D01*
X13673330Y-17076079D02*
X13682854Y-17114174D01*
X13682854Y-17114174D02*
X13682854Y-17161793D01*
X13682854Y-17161793D02*
X13673330Y-17199889D01*
X13673330Y-17199889D02*
X13663807Y-17218936D01*
X13663807Y-17218936D02*
X13654283Y-17228460D01*
X13654283Y-17228460D02*
X13635235Y-17237984D01*
X13635235Y-17237984D02*
X13616187Y-17237984D01*
X13616187Y-17237984D02*
X13597140Y-17228460D01*
X13597140Y-17228460D02*
X13587616Y-17218936D01*
X13587616Y-17218936D02*
X13578092Y-17199889D01*
X13578092Y-17199889D02*
X13568568Y-17161793D01*
X13568568Y-17161793D02*
X13568568Y-17114174D01*
X13568568Y-17114174D02*
X13578092Y-17076079D01*
X13578092Y-17076079D02*
X13587616Y-17057031D01*
X13587616Y-17057031D02*
X13597140Y-17047508D01*
X13597140Y-17047508D02*
X13616187Y-17037984D01*
X13806664Y-17037984D02*
X13825711Y-17037984D01*
X13825711Y-17037984D02*
X13844759Y-17047508D01*
X13844759Y-17047508D02*
X13854283Y-17057031D01*
X13854283Y-17057031D02*
X13863807Y-17076079D01*
X13863807Y-17076079D02*
X13873330Y-17114174D01*
X13873330Y-17114174D02*
X13873330Y-17161793D01*
X13873330Y-17161793D02*
X13863807Y-17199889D01*
X13863807Y-17199889D02*
X13854283Y-17218936D01*
X13854283Y-17218936D02*
X13844759Y-17228460D01*
X13844759Y-17228460D02*
X13825711Y-17237984D01*
X13825711Y-17237984D02*
X13806664Y-17237984D01*
X13806664Y-17237984D02*
X13787616Y-17228460D01*
X13787616Y-17228460D02*
X13778092Y-17218936D01*
X13778092Y-17218936D02*
X13768568Y-17199889D01*
X13768568Y-17199889D02*
X13759045Y-17161793D01*
X13759045Y-17161793D02*
X13759045Y-17114174D01*
X13759045Y-17114174D02*
X13768568Y-17076079D01*
X13768568Y-17076079D02*
X13778092Y-17057031D01*
X13778092Y-17057031D02*
X13787616Y-17047508D01*
X13787616Y-17047508D02*
X13806664Y-17037984D01*
X13959045Y-17237984D02*
X13959045Y-17104650D01*
X13959045Y-17123698D02*
X13968568Y-17114174D01*
X13968568Y-17114174D02*
X13987616Y-17104650D01*
X13987616Y-17104650D02*
X14016188Y-17104650D01*
X14016188Y-17104650D02*
X14035235Y-17114174D01*
X14035235Y-17114174D02*
X14044759Y-17133222D01*
X14044759Y-17133222D02*
X14044759Y-17237984D01*
X14044759Y-17133222D02*
X14054283Y-17114174D01*
X14054283Y-17114174D02*
X14073330Y-17104650D01*
X14073330Y-17104650D02*
X14101902Y-17104650D01*
X14101902Y-17104650D02*
X14120949Y-17114174D01*
X14120949Y-17114174D02*
X14130473Y-17133222D01*
X14130473Y-17133222D02*
X14130473Y-17237984D01*
X14225711Y-17237984D02*
X14225711Y-17104650D01*
X14225711Y-17123698D02*
X14235235Y-17114174D01*
X14235235Y-17114174D02*
X14254283Y-17104650D01*
X14254283Y-17104650D02*
X14282854Y-17104650D01*
X14282854Y-17104650D02*
X14301902Y-17114174D01*
X14301902Y-17114174D02*
X14311426Y-17133222D01*
X14311426Y-17133222D02*
X14311426Y-17237984D01*
X14311426Y-17133222D02*
X14320949Y-17114174D01*
X14320949Y-17114174D02*
X14339997Y-17104650D01*
X14339997Y-17104650D02*
X14368568Y-17104650D01*
X14368568Y-17104650D02*
X14387616Y-17114174D01*
X14387616Y-17114174D02*
X14397140Y-17133222D01*
X14397140Y-17133222D02*
X14397140Y-17237984D01*
X14787616Y-17028460D02*
X14616188Y-17285603D01*
X15044759Y-17037984D02*
X15063807Y-17037984D01*
X15063807Y-17037984D02*
X15082854Y-17047508D01*
X15082854Y-17047508D02*
X15092378Y-17057031D01*
X15092378Y-17057031D02*
X15101902Y-17076079D01*
X15101902Y-17076079D02*
X15111426Y-17114174D01*
X15111426Y-17114174D02*
X15111426Y-17161793D01*
X15111426Y-17161793D02*
X15101902Y-17199889D01*
X15101902Y-17199889D02*
X15092378Y-17218936D01*
X15092378Y-17218936D02*
X15082854Y-17228460D01*
X15082854Y-17228460D02*
X15063807Y-17237984D01*
X15063807Y-17237984D02*
X15044759Y-17237984D01*
X15044759Y-17237984D02*
X15025711Y-17228460D01*
X15025711Y-17228460D02*
X15016188Y-17218936D01*
X15016188Y-17218936D02*
X15006664Y-17199889D01*
X15006664Y-17199889D02*
X14997140Y-17161793D01*
X14997140Y-17161793D02*
X14997140Y-17114174D01*
X14997140Y-17114174D02*
X15006664Y-17076079D01*
X15006664Y-17076079D02*
X15016188Y-17057031D01*
X15016188Y-17057031D02*
X15025711Y-17047508D01*
X15025711Y-17047508D02*
X15044759Y-17037984D01*
X15197140Y-17218936D02*
X15206664Y-17228460D01*
X15206664Y-17228460D02*
X15197140Y-17237984D01*
X15197140Y-17237984D02*
X15187616Y-17228460D01*
X15187616Y-17228460D02*
X15197140Y-17218936D01*
X15197140Y-17218936D02*
X15197140Y-17237984D01*
X15330473Y-17037984D02*
X15349521Y-17037984D01*
X15349521Y-17037984D02*
X15368569Y-17047508D01*
X15368569Y-17047508D02*
X15378092Y-17057031D01*
X15378092Y-17057031D02*
X15387616Y-17076079D01*
X15387616Y-17076079D02*
X15397140Y-17114174D01*
X15397140Y-17114174D02*
X15397140Y-17161793D01*
X15397140Y-17161793D02*
X15387616Y-17199889D01*
X15387616Y-17199889D02*
X15378092Y-17218936D01*
X15378092Y-17218936D02*
X15368569Y-17228460D01*
X15368569Y-17228460D02*
X15349521Y-17237984D01*
X15349521Y-17237984D02*
X15330473Y-17237984D01*
X15330473Y-17237984D02*
X15311426Y-17228460D01*
X15311426Y-17228460D02*
X15301902Y-17218936D01*
X15301902Y-17218936D02*
X15292378Y-17199889D01*
X15292378Y-17199889D02*
X15282854Y-17161793D01*
X15282854Y-17161793D02*
X15282854Y-17114174D01*
X15282854Y-17114174D02*
X15292378Y-17076079D01*
X15292378Y-17076079D02*
X15301902Y-17057031D01*
X15301902Y-17057031D02*
X15311426Y-17047508D01*
X15311426Y-17047508D02*
X15330473Y-17037984D01*
X15578092Y-17037984D02*
X15482854Y-17037984D01*
X15482854Y-17037984D02*
X15473331Y-17133222D01*
X15473331Y-17133222D02*
X15482854Y-17123698D01*
X15482854Y-17123698D02*
X15501902Y-17114174D01*
X15501902Y-17114174D02*
X15549521Y-17114174D01*
X15549521Y-17114174D02*
X15568569Y-17123698D01*
X15568569Y-17123698D02*
X15578092Y-17133222D01*
X15578092Y-17133222D02*
X15587616Y-17152270D01*
X15587616Y-17152270D02*
X15587616Y-17199889D01*
X15587616Y-17199889D02*
X15578092Y-17218936D01*
X15578092Y-17218936D02*
X15568569Y-17228460D01*
X15568569Y-17228460D02*
X15549521Y-17237984D01*
X15549521Y-17237984D02*
X15501902Y-17237984D01*
X15501902Y-17237984D02*
X15482854Y-17228460D01*
X15482854Y-17228460D02*
X15473331Y-17218936D01*
X15778092Y-17237984D02*
X15663807Y-17237984D01*
X15720950Y-17237984D02*
X15720950Y-17037984D01*
X15720950Y-17037984D02*
X15701902Y-17066555D01*
X15701902Y-17066555D02*
X15682854Y-17085603D01*
X15682854Y-17085603D02*
X15663807Y-17095127D01*
X15854283Y-17057031D02*
X15863807Y-17047508D01*
X15863807Y-17047508D02*
X15882854Y-17037984D01*
X15882854Y-17037984D02*
X15930473Y-17037984D01*
X15930473Y-17037984D02*
X15949521Y-17047508D01*
X15949521Y-17047508D02*
X15959045Y-17057031D01*
X15959045Y-17057031D02*
X15968569Y-17076079D01*
X15968569Y-17076079D02*
X15968569Y-17095127D01*
X15968569Y-17095127D02*
X15959045Y-17123698D01*
X15959045Y-17123698D02*
X15844759Y-17237984D01*
X15844759Y-17237984D02*
X15968569Y-17237984D01*
X16044759Y-17037984D02*
X16044759Y-17076079D01*
X16120950Y-17037984D02*
X16120950Y-17076079D01*
X16416188Y-17314174D02*
X16406664Y-17304650D01*
X16406664Y-17304650D02*
X16387616Y-17276079D01*
X16387616Y-17276079D02*
X16378093Y-17257031D01*
X16378093Y-17257031D02*
X16368569Y-17228460D01*
X16368569Y-17228460D02*
X16359045Y-17180841D01*
X16359045Y-17180841D02*
X16359045Y-17142746D01*
X16359045Y-17142746D02*
X16368569Y-17095127D01*
X16368569Y-17095127D02*
X16378093Y-17066555D01*
X16378093Y-17066555D02*
X16387616Y-17047508D01*
X16387616Y-17047508D02*
X16406664Y-17018936D01*
X16406664Y-17018936D02*
X16416188Y-17009412D01*
X16520950Y-17123698D02*
X16501902Y-17114174D01*
X16501902Y-17114174D02*
X16492378Y-17104650D01*
X16492378Y-17104650D02*
X16482854Y-17085603D01*
X16482854Y-17085603D02*
X16482854Y-17076079D01*
X16482854Y-17076079D02*
X16492378Y-17057031D01*
X16492378Y-17057031D02*
X16501902Y-17047508D01*
X16501902Y-17047508D02*
X16520950Y-17037984D01*
X16520950Y-17037984D02*
X16559045Y-17037984D01*
X16559045Y-17037984D02*
X16578093Y-17047508D01*
X16578093Y-17047508D02*
X16587616Y-17057031D01*
X16587616Y-17057031D02*
X16597140Y-17076079D01*
X16597140Y-17076079D02*
X16597140Y-17085603D01*
X16597140Y-17085603D02*
X16587616Y-17104650D01*
X16587616Y-17104650D02*
X16578093Y-17114174D01*
X16578093Y-17114174D02*
X16559045Y-17123698D01*
X16559045Y-17123698D02*
X16520950Y-17123698D01*
X16520950Y-17123698D02*
X16501902Y-17133222D01*
X16501902Y-17133222D02*
X16492378Y-17142746D01*
X16492378Y-17142746D02*
X16482854Y-17161793D01*
X16482854Y-17161793D02*
X16482854Y-17199889D01*
X16482854Y-17199889D02*
X16492378Y-17218936D01*
X16492378Y-17218936D02*
X16501902Y-17228460D01*
X16501902Y-17228460D02*
X16520950Y-17237984D01*
X16520950Y-17237984D02*
X16559045Y-17237984D01*
X16559045Y-17237984D02*
X16578093Y-17228460D01*
X16578093Y-17228460D02*
X16587616Y-17218936D01*
X16587616Y-17218936D02*
X16597140Y-17199889D01*
X16597140Y-17199889D02*
X16597140Y-17161793D01*
X16597140Y-17161793D02*
X16587616Y-17142746D01*
X16587616Y-17142746D02*
X16578093Y-17133222D01*
X16578093Y-17133222D02*
X16559045Y-17123698D01*
X16835236Y-17237984D02*
X16835236Y-17037984D01*
X16920950Y-17237984D02*
X16920950Y-17133222D01*
X16920950Y-17133222D02*
X16911426Y-17114174D01*
X16911426Y-17114174D02*
X16892378Y-17104650D01*
X16892378Y-17104650D02*
X16863807Y-17104650D01*
X16863807Y-17104650D02*
X16844759Y-17114174D01*
X16844759Y-17114174D02*
X16835236Y-17123698D01*
X17044759Y-17237984D02*
X17025712Y-17228460D01*
X17025712Y-17228460D02*
X17016188Y-17218936D01*
X17016188Y-17218936D02*
X17006664Y-17199889D01*
X17006664Y-17199889D02*
X17006664Y-17142746D01*
X17006664Y-17142746D02*
X17016188Y-17123698D01*
X17016188Y-17123698D02*
X17025712Y-17114174D01*
X17025712Y-17114174D02*
X17044759Y-17104650D01*
X17044759Y-17104650D02*
X17073331Y-17104650D01*
X17073331Y-17104650D02*
X17092378Y-17114174D01*
X17092378Y-17114174D02*
X17101902Y-17123698D01*
X17101902Y-17123698D02*
X17111426Y-17142746D01*
X17111426Y-17142746D02*
X17111426Y-17199889D01*
X17111426Y-17199889D02*
X17101902Y-17218936D01*
X17101902Y-17218936D02*
X17092378Y-17228460D01*
X17092378Y-17228460D02*
X17073331Y-17237984D01*
X17073331Y-17237984D02*
X17044759Y-17237984D01*
X17225712Y-17237984D02*
X17206664Y-17228460D01*
X17206664Y-17228460D02*
X17197140Y-17209412D01*
X17197140Y-17209412D02*
X17197140Y-17037984D01*
X17378093Y-17228460D02*
X17359045Y-17237984D01*
X17359045Y-17237984D02*
X17320950Y-17237984D01*
X17320950Y-17237984D02*
X17301902Y-17228460D01*
X17301902Y-17228460D02*
X17292378Y-17209412D01*
X17292378Y-17209412D02*
X17292378Y-17133222D01*
X17292378Y-17133222D02*
X17301902Y-17114174D01*
X17301902Y-17114174D02*
X17320950Y-17104650D01*
X17320950Y-17104650D02*
X17359045Y-17104650D01*
X17359045Y-17104650D02*
X17378093Y-17114174D01*
X17378093Y-17114174D02*
X17387617Y-17133222D01*
X17387617Y-17133222D02*
X17387617Y-17152270D01*
X17387617Y-17152270D02*
X17292378Y-17171317D01*
X17463807Y-17228460D02*
X17482855Y-17237984D01*
X17482855Y-17237984D02*
X17520950Y-17237984D01*
X17520950Y-17237984D02*
X17539998Y-17228460D01*
X17539998Y-17228460D02*
X17549521Y-17209412D01*
X17549521Y-17209412D02*
X17549521Y-17199889D01*
X17549521Y-17199889D02*
X17539998Y-17180841D01*
X17539998Y-17180841D02*
X17520950Y-17171317D01*
X17520950Y-17171317D02*
X17492378Y-17171317D01*
X17492378Y-17171317D02*
X17473331Y-17161793D01*
X17473331Y-17161793D02*
X17463807Y-17142746D01*
X17463807Y-17142746D02*
X17463807Y-17133222D01*
X17463807Y-17133222D02*
X17473331Y-17114174D01*
X17473331Y-17114174D02*
X17492378Y-17104650D01*
X17492378Y-17104650D02*
X17520950Y-17104650D01*
X17520950Y-17104650D02*
X17539998Y-17114174D01*
X17616188Y-17314174D02*
X17625712Y-17304650D01*
X17625712Y-17304650D02*
X17644759Y-17276079D01*
X17644759Y-17276079D02*
X17654283Y-17257031D01*
X17654283Y-17257031D02*
X17663807Y-17228460D01*
X17663807Y-17228460D02*
X17673331Y-17180841D01*
X17673331Y-17180841D02*
X17673331Y-17142746D01*
X17673331Y-17142746D02*
X17663807Y-17095127D01*
X17663807Y-17095127D02*
X17654283Y-17066555D01*
X17654283Y-17066555D02*
X17644759Y-17047508D01*
X17644759Y-17047508D02*
X17625712Y-17018936D01*
X17625712Y-17018936D02*
X17616188Y-17009412D01*
X12641125Y-17310500D02*
X12841125Y-17510500D01*
X12841125Y-17310500D02*
X12641125Y-17510500D01*
X12741125Y-17310500D02*
X12741125Y-17510500D01*
X12641125Y-17410500D02*
X12841125Y-17410500D01*
X13082854Y-17301984D02*
X13206664Y-17301984D01*
X13206664Y-17301984D02*
X13139997Y-17378174D01*
X13139997Y-17378174D02*
X13168568Y-17378174D01*
X13168568Y-17378174D02*
X13187616Y-17387698D01*
X13187616Y-17387698D02*
X13197140Y-17397222D01*
X13197140Y-17397222D02*
X13206664Y-17416270D01*
X13206664Y-17416270D02*
X13206664Y-17463889D01*
X13206664Y-17463889D02*
X13197140Y-17482936D01*
X13197140Y-17482936D02*
X13187616Y-17492460D01*
X13187616Y-17492460D02*
X13168568Y-17501984D01*
X13168568Y-17501984D02*
X13111426Y-17501984D01*
X13111426Y-17501984D02*
X13092378Y-17492460D01*
X13092378Y-17492460D02*
X13082854Y-17482936D01*
X13292378Y-17482936D02*
X13301902Y-17492460D01*
X13301902Y-17492460D02*
X13292378Y-17501984D01*
X13292378Y-17501984D02*
X13282854Y-17492460D01*
X13282854Y-17492460D02*
X13292378Y-17482936D01*
X13292378Y-17482936D02*
X13292378Y-17501984D01*
X13482854Y-17301984D02*
X13387616Y-17301984D01*
X13387616Y-17301984D02*
X13378092Y-17397222D01*
X13378092Y-17397222D02*
X13387616Y-17387698D01*
X13387616Y-17387698D02*
X13406664Y-17378174D01*
X13406664Y-17378174D02*
X13454283Y-17378174D01*
X13454283Y-17378174D02*
X13473330Y-17387698D01*
X13473330Y-17387698D02*
X13482854Y-17397222D01*
X13482854Y-17397222D02*
X13492378Y-17416270D01*
X13492378Y-17416270D02*
X13492378Y-17463889D01*
X13492378Y-17463889D02*
X13482854Y-17482936D01*
X13482854Y-17482936D02*
X13473330Y-17492460D01*
X13473330Y-17492460D02*
X13454283Y-17501984D01*
X13454283Y-17501984D02*
X13406664Y-17501984D01*
X13406664Y-17501984D02*
X13387616Y-17492460D01*
X13387616Y-17492460D02*
X13378092Y-17482936D01*
X13616187Y-17301984D02*
X13635235Y-17301984D01*
X13635235Y-17301984D02*
X13654283Y-17311508D01*
X13654283Y-17311508D02*
X13663807Y-17321031D01*
X13663807Y-17321031D02*
X13673330Y-17340079D01*
X13673330Y-17340079D02*
X13682854Y-17378174D01*
X13682854Y-17378174D02*
X13682854Y-17425793D01*
X13682854Y-17425793D02*
X13673330Y-17463889D01*
X13673330Y-17463889D02*
X13663807Y-17482936D01*
X13663807Y-17482936D02*
X13654283Y-17492460D01*
X13654283Y-17492460D02*
X13635235Y-17501984D01*
X13635235Y-17501984D02*
X13616187Y-17501984D01*
X13616187Y-17501984D02*
X13597140Y-17492460D01*
X13597140Y-17492460D02*
X13587616Y-17482936D01*
X13587616Y-17482936D02*
X13578092Y-17463889D01*
X13578092Y-17463889D02*
X13568568Y-17425793D01*
X13568568Y-17425793D02*
X13568568Y-17378174D01*
X13568568Y-17378174D02*
X13578092Y-17340079D01*
X13578092Y-17340079D02*
X13587616Y-17321031D01*
X13587616Y-17321031D02*
X13597140Y-17311508D01*
X13597140Y-17311508D02*
X13616187Y-17301984D01*
X13806664Y-17301984D02*
X13825711Y-17301984D01*
X13825711Y-17301984D02*
X13844759Y-17311508D01*
X13844759Y-17311508D02*
X13854283Y-17321031D01*
X13854283Y-17321031D02*
X13863807Y-17340079D01*
X13863807Y-17340079D02*
X13873330Y-17378174D01*
X13873330Y-17378174D02*
X13873330Y-17425793D01*
X13873330Y-17425793D02*
X13863807Y-17463889D01*
X13863807Y-17463889D02*
X13854283Y-17482936D01*
X13854283Y-17482936D02*
X13844759Y-17492460D01*
X13844759Y-17492460D02*
X13825711Y-17501984D01*
X13825711Y-17501984D02*
X13806664Y-17501984D01*
X13806664Y-17501984D02*
X13787616Y-17492460D01*
X13787616Y-17492460D02*
X13778092Y-17482936D01*
X13778092Y-17482936D02*
X13768568Y-17463889D01*
X13768568Y-17463889D02*
X13759045Y-17425793D01*
X13759045Y-17425793D02*
X13759045Y-17378174D01*
X13759045Y-17378174D02*
X13768568Y-17340079D01*
X13768568Y-17340079D02*
X13778092Y-17321031D01*
X13778092Y-17321031D02*
X13787616Y-17311508D01*
X13787616Y-17311508D02*
X13806664Y-17301984D01*
X13959045Y-17501984D02*
X13959045Y-17368650D01*
X13959045Y-17387698D02*
X13968568Y-17378174D01*
X13968568Y-17378174D02*
X13987616Y-17368650D01*
X13987616Y-17368650D02*
X14016188Y-17368650D01*
X14016188Y-17368650D02*
X14035235Y-17378174D01*
X14035235Y-17378174D02*
X14044759Y-17397222D01*
X14044759Y-17397222D02*
X14044759Y-17501984D01*
X14044759Y-17397222D02*
X14054283Y-17378174D01*
X14054283Y-17378174D02*
X14073330Y-17368650D01*
X14073330Y-17368650D02*
X14101902Y-17368650D01*
X14101902Y-17368650D02*
X14120949Y-17378174D01*
X14120949Y-17378174D02*
X14130473Y-17397222D01*
X14130473Y-17397222D02*
X14130473Y-17501984D01*
X14225711Y-17501984D02*
X14225711Y-17368650D01*
X14225711Y-17387698D02*
X14235235Y-17378174D01*
X14235235Y-17378174D02*
X14254283Y-17368650D01*
X14254283Y-17368650D02*
X14282854Y-17368650D01*
X14282854Y-17368650D02*
X14301902Y-17378174D01*
X14301902Y-17378174D02*
X14311426Y-17397222D01*
X14311426Y-17397222D02*
X14311426Y-17501984D01*
X14311426Y-17397222D02*
X14320949Y-17378174D01*
X14320949Y-17378174D02*
X14339997Y-17368650D01*
X14339997Y-17368650D02*
X14368568Y-17368650D01*
X14368568Y-17368650D02*
X14387616Y-17378174D01*
X14387616Y-17378174D02*
X14397140Y-17397222D01*
X14397140Y-17397222D02*
X14397140Y-17501984D01*
X14787616Y-17292460D02*
X14616188Y-17549603D01*
X15044759Y-17301984D02*
X15063807Y-17301984D01*
X15063807Y-17301984D02*
X15082854Y-17311508D01*
X15082854Y-17311508D02*
X15092378Y-17321031D01*
X15092378Y-17321031D02*
X15101902Y-17340079D01*
X15101902Y-17340079D02*
X15111426Y-17378174D01*
X15111426Y-17378174D02*
X15111426Y-17425793D01*
X15111426Y-17425793D02*
X15101902Y-17463889D01*
X15101902Y-17463889D02*
X15092378Y-17482936D01*
X15092378Y-17482936D02*
X15082854Y-17492460D01*
X15082854Y-17492460D02*
X15063807Y-17501984D01*
X15063807Y-17501984D02*
X15044759Y-17501984D01*
X15044759Y-17501984D02*
X15025711Y-17492460D01*
X15025711Y-17492460D02*
X15016188Y-17482936D01*
X15016188Y-17482936D02*
X15006664Y-17463889D01*
X15006664Y-17463889D02*
X14997140Y-17425793D01*
X14997140Y-17425793D02*
X14997140Y-17378174D01*
X14997140Y-17378174D02*
X15006664Y-17340079D01*
X15006664Y-17340079D02*
X15016188Y-17321031D01*
X15016188Y-17321031D02*
X15025711Y-17311508D01*
X15025711Y-17311508D02*
X15044759Y-17301984D01*
X15197140Y-17482936D02*
X15206664Y-17492460D01*
X15206664Y-17492460D02*
X15197140Y-17501984D01*
X15197140Y-17501984D02*
X15187616Y-17492460D01*
X15187616Y-17492460D02*
X15197140Y-17482936D01*
X15197140Y-17482936D02*
X15197140Y-17501984D01*
X15397140Y-17501984D02*
X15282854Y-17501984D01*
X15339997Y-17501984D02*
X15339997Y-17301984D01*
X15339997Y-17301984D02*
X15320950Y-17330555D01*
X15320950Y-17330555D02*
X15301902Y-17349603D01*
X15301902Y-17349603D02*
X15282854Y-17359127D01*
X15463807Y-17301984D02*
X15587616Y-17301984D01*
X15587616Y-17301984D02*
X15520950Y-17378174D01*
X15520950Y-17378174D02*
X15549521Y-17378174D01*
X15549521Y-17378174D02*
X15568569Y-17387698D01*
X15568569Y-17387698D02*
X15578092Y-17397222D01*
X15578092Y-17397222D02*
X15587616Y-17416270D01*
X15587616Y-17416270D02*
X15587616Y-17463889D01*
X15587616Y-17463889D02*
X15578092Y-17482936D01*
X15578092Y-17482936D02*
X15568569Y-17492460D01*
X15568569Y-17492460D02*
X15549521Y-17501984D01*
X15549521Y-17501984D02*
X15492378Y-17501984D01*
X15492378Y-17501984D02*
X15473331Y-17492460D01*
X15473331Y-17492460D02*
X15463807Y-17482936D01*
X15654283Y-17301984D02*
X15787616Y-17301984D01*
X15787616Y-17301984D02*
X15701902Y-17501984D01*
X15892378Y-17387698D02*
X15873331Y-17378174D01*
X15873331Y-17378174D02*
X15863807Y-17368650D01*
X15863807Y-17368650D02*
X15854283Y-17349603D01*
X15854283Y-17349603D02*
X15854283Y-17340079D01*
X15854283Y-17340079D02*
X15863807Y-17321031D01*
X15863807Y-17321031D02*
X15873331Y-17311508D01*
X15873331Y-17311508D02*
X15892378Y-17301984D01*
X15892378Y-17301984D02*
X15930473Y-17301984D01*
X15930473Y-17301984D02*
X15949521Y-17311508D01*
X15949521Y-17311508D02*
X15959045Y-17321031D01*
X15959045Y-17321031D02*
X15968569Y-17340079D01*
X15968569Y-17340079D02*
X15968569Y-17349603D01*
X15968569Y-17349603D02*
X15959045Y-17368650D01*
X15959045Y-17368650D02*
X15949521Y-17378174D01*
X15949521Y-17378174D02*
X15930473Y-17387698D01*
X15930473Y-17387698D02*
X15892378Y-17387698D01*
X15892378Y-17387698D02*
X15873331Y-17397222D01*
X15873331Y-17397222D02*
X15863807Y-17406746D01*
X15863807Y-17406746D02*
X15854283Y-17425793D01*
X15854283Y-17425793D02*
X15854283Y-17463889D01*
X15854283Y-17463889D02*
X15863807Y-17482936D01*
X15863807Y-17482936D02*
X15873331Y-17492460D01*
X15873331Y-17492460D02*
X15892378Y-17501984D01*
X15892378Y-17501984D02*
X15930473Y-17501984D01*
X15930473Y-17501984D02*
X15949521Y-17492460D01*
X15949521Y-17492460D02*
X15959045Y-17482936D01*
X15959045Y-17482936D02*
X15968569Y-17463889D01*
X15968569Y-17463889D02*
X15968569Y-17425793D01*
X15968569Y-17425793D02*
X15959045Y-17406746D01*
X15959045Y-17406746D02*
X15949521Y-17397222D01*
X15949521Y-17397222D02*
X15930473Y-17387698D01*
X16044759Y-17301984D02*
X16044759Y-17340079D01*
X16120950Y-17301984D02*
X16120950Y-17340079D01*
X16416188Y-17578174D02*
X16406664Y-17568650D01*
X16406664Y-17568650D02*
X16387616Y-17540079D01*
X16387616Y-17540079D02*
X16378093Y-17521031D01*
X16378093Y-17521031D02*
X16368569Y-17492460D01*
X16368569Y-17492460D02*
X16359045Y-17444841D01*
X16359045Y-17444841D02*
X16359045Y-17406746D01*
X16359045Y-17406746D02*
X16368569Y-17359127D01*
X16368569Y-17359127D02*
X16378093Y-17330555D01*
X16378093Y-17330555D02*
X16387616Y-17311508D01*
X16387616Y-17311508D02*
X16406664Y-17282936D01*
X16406664Y-17282936D02*
X16416188Y-17273412D01*
X16578093Y-17368650D02*
X16578093Y-17501984D01*
X16530473Y-17292460D02*
X16482854Y-17435317D01*
X16482854Y-17435317D02*
X16606664Y-17435317D01*
X16835236Y-17501984D02*
X16835236Y-17301984D01*
X16920950Y-17501984D02*
X16920950Y-17397222D01*
X16920950Y-17397222D02*
X16911426Y-17378174D01*
X16911426Y-17378174D02*
X16892378Y-17368650D01*
X16892378Y-17368650D02*
X16863807Y-17368650D01*
X16863807Y-17368650D02*
X16844759Y-17378174D01*
X16844759Y-17378174D02*
X16835236Y-17387698D01*
X17044759Y-17501984D02*
X17025712Y-17492460D01*
X17025712Y-17492460D02*
X17016188Y-17482936D01*
X17016188Y-17482936D02*
X17006664Y-17463889D01*
X17006664Y-17463889D02*
X17006664Y-17406746D01*
X17006664Y-17406746D02*
X17016188Y-17387698D01*
X17016188Y-17387698D02*
X17025712Y-17378174D01*
X17025712Y-17378174D02*
X17044759Y-17368650D01*
X17044759Y-17368650D02*
X17073331Y-17368650D01*
X17073331Y-17368650D02*
X17092378Y-17378174D01*
X17092378Y-17378174D02*
X17101902Y-17387698D01*
X17101902Y-17387698D02*
X17111426Y-17406746D01*
X17111426Y-17406746D02*
X17111426Y-17463889D01*
X17111426Y-17463889D02*
X17101902Y-17482936D01*
X17101902Y-17482936D02*
X17092378Y-17492460D01*
X17092378Y-17492460D02*
X17073331Y-17501984D01*
X17073331Y-17501984D02*
X17044759Y-17501984D01*
X17225712Y-17501984D02*
X17206664Y-17492460D01*
X17206664Y-17492460D02*
X17197140Y-17473412D01*
X17197140Y-17473412D02*
X17197140Y-17301984D01*
X17378093Y-17492460D02*
X17359045Y-17501984D01*
X17359045Y-17501984D02*
X17320950Y-17501984D01*
X17320950Y-17501984D02*
X17301902Y-17492460D01*
X17301902Y-17492460D02*
X17292378Y-17473412D01*
X17292378Y-17473412D02*
X17292378Y-17397222D01*
X17292378Y-17397222D02*
X17301902Y-17378174D01*
X17301902Y-17378174D02*
X17320950Y-17368650D01*
X17320950Y-17368650D02*
X17359045Y-17368650D01*
X17359045Y-17368650D02*
X17378093Y-17378174D01*
X17378093Y-17378174D02*
X17387617Y-17397222D01*
X17387617Y-17397222D02*
X17387617Y-17416270D01*
X17387617Y-17416270D02*
X17292378Y-17435317D01*
X17463807Y-17492460D02*
X17482855Y-17501984D01*
X17482855Y-17501984D02*
X17520950Y-17501984D01*
X17520950Y-17501984D02*
X17539998Y-17492460D01*
X17539998Y-17492460D02*
X17549521Y-17473412D01*
X17549521Y-17473412D02*
X17549521Y-17463889D01*
X17549521Y-17463889D02*
X17539998Y-17444841D01*
X17539998Y-17444841D02*
X17520950Y-17435317D01*
X17520950Y-17435317D02*
X17492378Y-17435317D01*
X17492378Y-17435317D02*
X17473331Y-17425793D01*
X17473331Y-17425793D02*
X17463807Y-17406746D01*
X17463807Y-17406746D02*
X17463807Y-17397222D01*
X17463807Y-17397222D02*
X17473331Y-17378174D01*
X17473331Y-17378174D02*
X17492378Y-17368650D01*
X17492378Y-17368650D02*
X17520950Y-17368650D01*
X17520950Y-17368650D02*
X17539998Y-17378174D01*
X17616188Y-17578174D02*
X17625712Y-17568650D01*
X17625712Y-17568650D02*
X17644759Y-17540079D01*
X17644759Y-17540079D02*
X17654283Y-17521031D01*
X17654283Y-17521031D02*
X17663807Y-17492460D01*
X17663807Y-17492460D02*
X17673331Y-17444841D01*
X17673331Y-17444841D02*
X17673331Y-17406746D01*
X17673331Y-17406746D02*
X17663807Y-17359127D01*
X17663807Y-17359127D02*
X17654283Y-17330555D01*
X17654283Y-17330555D02*
X17644759Y-17311508D01*
X17644759Y-17311508D02*
X17625712Y-17282936D01*
X17625712Y-17282936D02*
X17616188Y-17273412D01*
M02*
